<?xml version="1.0" encoding="UTF-8" standalone="no"?>
<svg
   version="1.1"
   width="952.80811"
   height="708"
   id="svg85"
   sodipodi:docname="UseCaseDiagram1.svg"
   xmlns:inkscape="http://www.inkscape.org/namespaces/inkscape"
   xmlns:sodipodi="http://sodipodi.sourceforge.net/DTD/sodipodi-0.dtd"
   xmlns="http://www.w3.org/2000/svg"
   xmlns:svg="http://www.w3.org/2000/svg">
  <sodipodi:namedview
     id="namedview85"
     pagecolor="#ffffff"
     bordercolor="#000000"
     borderopacity="0.25"
     inkscape:showpageshadow="2"
     inkscape:pageopacity="0.0"
     inkscape:pagecheckerboard="0"
     inkscape:deskcolor="#d1d1d1">
    <inkscape:page
       x="0"
       y="0"
       width="952.80811"
       height="708"
       id="page2"
       margin="0"
       bleed="0" />
  </sodipodi:namedview>
  <defs
     id="defs1" />
  <g
     id="g85">
    <g
       id="g1">
      <rect
         fill="#c0c0c0"
         stroke="none"
         x="407"
         y="55"
         width="680"
         height="688"
         transform="translate(-238,-38)"
         fill-opacity="0.2"
         id="rect1" />
    </g>
    <g
       id="g2">
      <rect
         fill="#ffffff"
         stroke="none"
         x="400"
         y="48"
         width="680"
         height="688"
         transform="translate(-238,-38)"
         id="rect2" />
    </g>
    <g
       id="g3">
      <path
         fill="none"
         stroke="#000000"
         paint-order="fill stroke markers"
         d="M 162,10 H 842 V 698 H 162 Z"
         stroke-miterlimit="10"
         stroke-dasharray="none"
         id="path2" />
    </g>
    <g
       id="g5">
      <g
         id="g4">
        <path
           fill="none"
           stroke="none"
           id="path3"
           d="" />
        <text
           fill="#000000"
           stroke="none"
           font-family="Arial"
           font-size="13px"
           font-style="normal"
           font-weight="bold"
           text-decoration="undefined"
           x="740.5"
           y="61.5"
           text-anchor="middle"
           dominant-baseline="central"
           transform="translate(-238,-38)"
           id="text3">Flight booking system</text>
      </g>
    </g>
    <g
       id="g6">
      <path
         fill="#ffffff"
         stroke="none"
         paint-order="stroke fill markers"
         d="m 47.126769,241.45 c 0,-12.39879 9.714606,-22.45 21.698182,-22.45 11.983576,0 21.698182,10.05121 21.698182,22.45 0,12.39879 -9.714606,22.45 -21.698182,22.45 -11.983576,0 -21.698182,-10.05121 -21.698182,-22.45 z"
         id="path5" />
    </g>
    <g
       id="g7">
      <path
         fill="none"
         stroke="#000000"
         paint-order="fill stroke markers"
         d="m 47.126769,241.45 c 0,-12.39879 9.714606,-22.45 21.698182,-22.45 11.983576,0 21.698182,10.05121 21.698182,22.45 0,12.39879 -9.714606,22.45 -21.698182,22.45 -11.983576,0 -21.698182,-10.05121 -21.698182,-22.45 z"
         stroke-miterlimit="10"
         stroke-dasharray="none"
         id="path6" />
    </g>
    <g
       id="g8">
      <path
         fill="none"
         stroke="#000000"
         paint-order="fill stroke markers"
         d="m 68.824951,263.9 v 43.2"
         stroke-miterlimit="10"
         stroke-dasharray="none"
         id="path7" />
    </g>
    <g
       id="g9">
      <path
         fill="none"
         stroke="#000000"
         paint-order="fill stroke markers"
         d="M 45.850406,280.1 H 91.799497"
         stroke-miterlimit="10"
         stroke-dasharray="none"
         id="path8" />
    </g>
    <g
       id="g10">
      <path
         fill="none"
         stroke="#000000"
         paint-order="fill stroke markers"
         d="M 68.824951,307.1 36.91586,352"
         stroke-miterlimit="10"
         stroke-dasharray="none"
         id="path9" />
    </g>
    <g
       id="g11">
      <path
         fill="none"
         stroke="#000000"
         paint-order="fill stroke markers"
         d="M 68.824951,307.1 100.73404,352"
         stroke-miterlimit="10"
         stroke-dasharray="none"
         id="path10" />
    </g>
    <g
       id="g13">
      <g
         id="g12">
        <path
           fill="none"
           stroke="none"
           id="path11"
           d="" />
        <text
           fill="#000000"
           stroke="none"
           font-family="Arial"
           font-size="13px"
           font-style="normal"
           font-weight="bold"
           text-decoration="undefined"
           x="307.32495"
           y="404.5"
           text-anchor="middle"
           dominant-baseline="central"
           transform="translate(-238,-38)"
           id="text11">Customer</text>
      </g>
    </g>
    <g
       id="g14">
      <path
         fill="#ffffff"
         stroke="none"
         paint-order="stroke fill markers"
         d="m 886.20587,177.45 c 0,-12.39879 9.71461,-22.45 21.69818,-22.45 11.98358,0 21.69818,10.05121 21.69818,22.45 0,12.39879 -9.7146,22.45 -21.69818,22.45 -11.98357,0 -21.69818,-10.05121 -21.69818,-22.45 z"
         id="path13" />
    </g>
    <g
       id="g15">
      <path
         fill="none"
         stroke="#000000"
         paint-order="fill stroke markers"
         d="m 886.20587,177.45 c 0,-12.39879 9.71461,-22.45 21.69818,-22.45 11.98358,0 21.69818,10.05121 21.69818,22.45 0,12.39879 -9.7146,22.45 -21.69818,22.45 -11.98357,0 -21.69818,-10.05121 -21.69818,-22.45 z"
         stroke-miterlimit="10"
         stroke-dasharray="none"
         id="path14" />
    </g>
    <g
       id="g16">
      <path
         fill="none"
         stroke="#000000"
         paint-order="fill stroke markers"
         d="m 907.90405,199.9 v 43.2"
         stroke-miterlimit="10"
         stroke-dasharray="none"
         id="path15" />
    </g>
    <g
       id="g17">
      <path
         fill="none"
         stroke="#000000"
         paint-order="fill stroke markers"
         d="M 884.92951,216.1 H 930.8786"
         stroke-miterlimit="10"
         stroke-dasharray="none"
         id="path16" />
    </g>
    <g
       id="g18">
      <path
         fill="none"
         stroke="#000000"
         paint-order="fill stroke markers"
         d="M 907.90405,243.1 875.99496,288"
         stroke-miterlimit="10"
         stroke-dasharray="none"
         id="path17" />
    </g>
    <g
       id="g19">
      <path
         fill="none"
         stroke="#000000"
         paint-order="fill stroke markers"
         d="M 907.90405,243.1 939.81314,288"
         stroke-miterlimit="10"
         stroke-dasharray="none"
         id="path18" />
    </g>
    <g
       id="g21">
      <g
         id="g20">
        <path
           fill="none"
           stroke="none"
           id="path19"
           d="" />
        <text
           fill="#000000"
           stroke="none"
           font-family="Arial"
           font-size="13px"
           font-style="normal"
           font-weight="bold"
           text-decoration="undefined"
           x="1146.4041"
           y="340.5"
           text-anchor="middle"
           dominant-baseline="central"
           transform="translate(-238,-38)"
           id="text19">Database</text>
      </g>
    </g>
    <g
       id="g22">
      <path
         fill="#c0c0c0"
         stroke="none"
         paint-order="stroke fill markers"
         d="m 377,121 c 0,-30.927949 39.39894,-56 88,-56 48.60106,0 88,25.072051 88,56 0,30.92795 -39.39894,56 -88,56 -48.60106,0 -88,-25.07205 -88,-56 z"
         fill-opacity="0.2"
         id="path21" />
    </g>
    <g
       id="g23">
      <path
         fill="#ffffff"
         stroke="none"
         paint-order="stroke fill markers"
         d="m 370,114 c 0,-30.927949 39.39894,-56 88,-56 48.60106,0 88,25.072051 88,56 0,30.92795 -39.39894,56 -88,56 -48.60106,0 -88,-25.07205 -88,-56 z"
         id="path22" />
    </g>
    <g
       id="g24">
      <path
         fill="none"
         stroke="#000000"
         paint-order="fill stroke markers"
         d="m 370,114 c 0,-30.927949 39.39894,-56 88,-56 48.60106,0 88,25.072051 88,56 0,30.92795 -39.39894,56 -88,56 -48.60106,0 -88,-25.07205 -88,-56 z"
         stroke-miterlimit="10"
         stroke-dasharray="none"
         id="path23" />
    </g>
    <g
       id="g26">
      <g
         id="g25">
        <path
           fill="none"
           stroke="none"
           id="path24"
           d="" />
        <text
           fill="#000000"
           stroke="none"
           font-family="Arial"
           font-size="13px"
           font-style="normal"
           font-weight="bold"
           text-decoration="undefined"
           x="696"
           y="153"
           text-anchor="middle"
           dominant-baseline="central"
           transform="translate(-238,-38)"
           id="text24">Browse flights</text>
      </g>
    </g>
    <g
       id="g27">
      <path
         fill="#c0c0c0"
         stroke="none"
         paint-order="stroke fill markers"
         d="m 377,377 c 0,-30.92795 39.39894,-56 88,-56 48.60106,0 88,25.07205 88,56 0,30.92795 -39.39894,56 -88,56 -48.60106,0 -88,-25.07205 -88,-56 z"
         fill-opacity="0.2"
         id="path26" />
    </g>
    <g
       id="g28">
      <path
         fill="#ffffff"
         stroke="none"
         paint-order="stroke fill markers"
         d="m 370,370 c 0,-30.92795 39.39894,-56 88,-56 48.60106,0 88,25.07205 88,56 0,30.92795 -39.39894,56 -88,56 -48.60106,0 -88,-25.07205 -88,-56 z"
         id="path27" />
    </g>
    <g
       id="g29">
      <path
         fill="none"
         stroke="#000000"
         paint-order="fill stroke markers"
         d="m 370,370 c 0,-30.92795 39.39894,-56 88,-56 48.60106,0 88,25.07205 88,56 0,30.92795 -39.39894,56 -88,56 -48.60106,0 -88,-25.07205 -88,-56 z"
         stroke-miterlimit="10"
         stroke-dasharray="none"
         id="path28" />
    </g>
    <g
       id="g31">
      <g
         id="g30">
        <path
           fill="none"
           stroke="none"
           id="path29"
           d="" />
        <text
           fill="#000000"
           stroke="none"
           font-family="Arial"
           font-size="13px"
           font-style="normal"
           font-weight="bold"
           text-decoration="undefined"
           x="696"
           y="409"
           text-anchor="middle"
           dominant-baseline="central"
           transform="translate(-238,-38)"
           id="text29">View booking</text>
      </g>
    </g>
    <g
       id="g32">
      <path
         fill="#c0c0c0"
         stroke="none"
         paint-order="stroke fill markers"
         d="m 377,505 c 0,-30.92795 39.39894,-56 88,-56 48.60106,0 88,25.07205 88,56 0,30.92795 -39.39894,56 -88,56 -48.60106,0 -88,-25.07205 -88,-56 z"
         fill-opacity="0.2"
         id="path31" />
    </g>
    <g
       id="g33">
      <path
         fill="#ffffff"
         stroke="none"
         paint-order="stroke fill markers"
         d="m 370,498 c 0,-30.92795 39.39894,-56 88,-56 48.60106,0 88,25.07205 88,56 0,30.92795 -39.39894,56 -88,56 -48.60106,0 -88,-25.07205 -88,-56 z"
         id="path32" />
    </g>
    <g
       id="g34">
      <path
         fill="none"
         stroke="#000000"
         paint-order="fill stroke markers"
         d="m 370,498 c 0,-30.92795 39.39894,-56 88,-56 48.60106,0 88,25.07205 88,56 0,30.92795 -39.39894,56 -88,56 -48.60106,0 -88,-25.07205 -88,-56 z"
         stroke-miterlimit="10"
         stroke-dasharray="none"
         id="path33" />
    </g>
    <g
       id="g36">
      <g
         id="g35">
        <path
           fill="none"
           stroke="none"
           id="path34"
           d="" />
        <text
           fill="#000000"
           stroke="none"
           font-family="Arial"
           font-size="13px"
           font-style="normal"
           font-weight="bold"
           text-decoration="undefined"
           x="696"
           y="537"
           text-anchor="middle"
           dominant-baseline="central"
           transform="translate(-238,-38)"
           id="text34">Update booking</text>
      </g>
    </g>
    <g
       id="g37">
      <path
         fill="#c0c0c0"
         stroke="none"
         paint-order="stroke fill markers"
         d="m 377,633 c 0,-30.92795 39.39894,-56 88,-56 48.60106,0 88,25.07205 88,56 0,30.92795 -39.39894,56 -88,56 -48.60106,0 -88,-25.07205 -88,-56 z"
         fill-opacity="0.2"
         id="path36" />
    </g>
    <g
       id="g38">
      <path
         fill="#ffffff"
         stroke="none"
         paint-order="stroke fill markers"
         d="m 370,626 c 0,-30.92795 39.39894,-56 88,-56 48.60106,0 88,25.07205 88,56 0,30.92795 -39.39894,56 -88,56 -48.60106,0 -88,-25.07205 -88,-56 z"
         id="path37" />
    </g>
    <g
       id="g39">
      <path
         fill="none"
         stroke="#000000"
         paint-order="fill stroke markers"
         d="m 370,626 c 0,-30.92795 39.39894,-56 88,-56 48.60106,0 88,25.07205 88,56 0,30.92795 -39.39894,56 -88,56 -48.60106,0 -88,-25.07205 -88,-56 z"
         stroke-miterlimit="10"
         stroke-dasharray="none"
         id="path38" />
    </g>
    <g
       id="g41">
      <g
         id="g40">
        <path
           fill="none"
           stroke="none"
           id="path39"
           d="" />
        <text
           fill="#000000"
           stroke="none"
           font-family="Arial"
           font-size="13px"
           font-style="normal"
           font-weight="bold"
           text-decoration="undefined"
           x="696"
           y="665"
           text-anchor="middle"
           dominant-baseline="central"
           transform="translate(-238,-38)"
           id="text39">Cancel booking</text>
      </g>
    </g>
    <g
       id="g42">
      <path
         fill="#c0c0c0"
         stroke="none"
         paint-order="stroke fill markers"
         d="m 657,305 c 0,-30.92795 32.01164,-56 71.5,-56 39.48836,0 71.5,25.07205 71.5,56 0,30.92795 -32.01164,56 -71.5,56 -39.48836,0 -71.5,-25.07205 -71.5,-56 z"
         fill-opacity="0.2"
         id="path41" />
    </g>
    <g
       id="g43">
      <path
         fill="#ffffff"
         stroke="none"
         paint-order="stroke fill markers"
         d="m 650,298 c 0,-30.92795 32.01164,-56 71.5,-56 39.48836,0 71.5,25.07205 71.5,56 0,30.92795 -32.01164,56 -71.5,56 -39.48836,0 -71.5,-25.07205 -71.5,-56 z"
         id="path42" />
    </g>
    <g
       id="g44">
      <path
         fill="none"
         stroke="#000000"
         paint-order="fill stroke markers"
         d="m 650,298 c 0,-30.92795 32.01164,-56 71.5,-56 39.48836,0 71.5,25.07205 71.5,56 0,30.92795 -32.01164,56 -71.5,56 -39.48836,0 -71.5,-25.07205 -71.5,-56 z"
         stroke-miterlimit="10"
         stroke-dasharray="none"
         id="path43" />
    </g>
    <g
       id="g46">
      <g
         id="g45">
        <path
           fill="none"
           stroke="none"
           id="path44"
           d="" />
        <text
           fill="#000000"
           stroke="none"
           font-family="Arial"
           font-size="13px"
           font-style="normal"
           font-weight="bold"
           text-decoration="undefined"
           x="959.5"
           y="337"
           text-anchor="middle"
           dominant-baseline="central"
           transform="translate(-238,-38)"
           id="text44">Check weather</text>
      </g>
    </g>
    <g
       id="g47">
      <path
         fill="#c0c0c0"
         stroke="none"
         paint-order="stroke fill markers"
         d="m 377,249 c 0,-30.92795 39.39894,-56 88,-56 48.60106,0 88,25.07205 88,56 0,30.92795 -39.39894,56 -88,56 -48.60106,0 -88,-25.07205 -88,-56 z"
         fill-opacity="0.2"
         id="path46" />
    </g>
    <g
       id="g48">
      <path
         fill="#ffffff"
         stroke="none"
         paint-order="stroke fill markers"
         d="m 370,242 c 0,-30.92795 39.39894,-56 88,-56 48.60106,0 88,25.07205 88,56 0,30.92795 -39.39894,56 -88,56 -48.60106,0 -88,-25.07205 -88,-56 z"
         id="path47" />
    </g>
    <g
       id="g49">
      <path
         fill="none"
         stroke="#000000"
         paint-order="fill stroke markers"
         d="m 370,242 c 0,-30.92795 39.39894,-56 88,-56 48.60106,0 88,25.07205 88,56 0,30.92795 -39.39894,56 -88,56 -48.60106,0 -88,-25.07205 -88,-56 z"
         stroke-miterlimit="10"
         stroke-dasharray="none"
         id="path48" />
    </g>
    <g
       id="g51">
      <g
         id="g50">
        <path
           fill="none"
           stroke="none"
           id="path49"
           d="" />
        <text
           fill="#000000"
           stroke="none"
           font-family="Arial"
           font-size="13px"
           font-style="normal"
           font-weight="bold"
           text-decoration="undefined"
           x="696"
           y="281"
           text-anchor="middle"
           dominant-baseline="central"
           transform="translate(-238,-38)"
           id="text49">Book flight</text>
      </g>
    </g>
    <g
       id="g52">
      <path
         fill="#c0c0c0"
         stroke="none"
         paint-order="stroke fill markers"
         d="m 625,449 c 0,-30.92795 47.68167,-56 106.5,-56 58.81833,0 106.5,25.07205 106.5,56 0,30.92795 -47.68167,56 -106.5,56 C 672.68167,505 625,479.92795 625,449 Z"
         fill-opacity="0.2"
         id="path51" />
    </g>
    <g
       id="g53">
      <path
         fill="#ffffff"
         stroke="none"
         paint-order="stroke fill markers"
         d="m 618,442 c 0,-30.92795 47.68167,-56 106.5,-56 58.81833,0 106.5,25.07205 106.5,56 0,30.92795 -47.68167,56 -106.5,56 C 665.68167,498 618,472.92795 618,442 Z"
         id="path52" />
    </g>
    <g
       id="g54">
      <path
         fill="none"
         stroke="#000000"
         paint-order="fill stroke markers"
         d="m 618,442 c 0,-30.92795 47.68167,-56 106.5,-56 58.81833,0 106.5,25.07205 106.5,56 0,30.92795 -47.68167,56 -106.5,56 C 665.68167,498 618,472.92795 618,442 Z"
         stroke-miterlimit="10"
         stroke-dasharray="none"
         id="path53" />
    </g>
    <g
       id="g56">
      <g
         id="g55">
        <path
           fill="none"
           stroke="none"
           id="path54"
           d="" />
        <text
           fill="#000000"
           stroke="none"
           font-family="Arial"
           font-size="13px"
           font-style="normal"
           font-weight="bold"
           text-decoration="undefined"
           x="962.5"
           y="481"
           text-anchor="middle"
           dominant-baseline="central"
           transform="translate(-238,-38)"
           id="text54">Verify booking number</text>
      </g>
    </g>
    <g
       id="g57">
      <path
         fill="none"
         stroke="#000000"
         paint-order="fill stroke markers"
         d="m 547,479 70,-14"
         stroke-miterlimit="10"
         stroke-dasharray="3"
         id="path56" />
    </g>
    <g
       id="g58">
      <path
         fill="none"
         stroke="#000000"
         paint-order="fill stroke markers"
         d="M 607.86023,471.12084 617,465 606.20912,462.86529"
         stroke-miterlimit="10"
         stroke-dasharray="none"
         id="path57" />
    </g>
    <g
       id="g59">
      <rect
         fill="#ffffff"
         stroke="none"
         x="787"
         y="487"
         width="55.65625"
         height="13"
         transform="translate(-238,-38)"
         id="rect58" />
    </g>
    <g
       id="g61">
      <g
         id="g60">
        <path
           fill="none"
           stroke="none"
           id="path59"
           d="" />
        <text
           fill="#000000"
           stroke="none"
           font-family="Arial"
           font-size="13px"
           font-style="normal"
           font-weight="normal"
           text-decoration="undefined"
           x="814.82812"
           y="493.5"
           text-anchor="middle"
           dominant-baseline="central"
           transform="translate(-238,-38)"
           id="text59">«include»</text>
      </g>
    </g>
    <g
       id="g62">
      <path
         fill="none"
         stroke="#000000"
         paint-order="fill stroke markers"
         d="m 547,394 70,19"
         stroke-miterlimit="10"
         stroke-dasharray="3"
         id="path61" />
    </g>
    <g
       id="g63">
      <path
         fill="none"
         stroke="#000000"
         paint-order="fill stroke markers"
         d="M 606.08951,414.40041 617,413 l -8.70512,-6.72465"
         stroke-miterlimit="10"
         stroke-dasharray="none"
         id="path62" />
    </g>
    <g
       id="g64">
      <rect
         fill="#ffffff"
         stroke="none"
         x="801"
         y="416"
         width="55.65625"
         height="13"
         transform="translate(-238,-38)"
         id="rect63" />
    </g>
    <g
       id="g66">
      <g
         id="g65">
        <path
           fill="none"
           stroke="none"
           id="path64"
           d="" />
        <text
           fill="#000000"
           stroke="none"
           font-family="Arial"
           font-size="13px"
           font-style="normal"
           font-weight="normal"
           text-decoration="undefined"
           x="828.82812"
           y="422.5"
           text-anchor="middle"
           dominant-baseline="central"
           transform="translate(-238,-38)"
           id="text64">«include»</text>
      </g>
    </g>
    <g
       id="g67">
      <path
         fill="none"
         stroke="#000000"
         paint-order="fill stroke markers"
         d="M 540,569 642,499"
         stroke-miterlimit="10"
         stroke-dasharray="3"
         id="path66" />
    </g>
    <g
       id="g68">
      <path
         fill="none"
         stroke="#000000"
         paint-order="fill stroke markers"
         d="M 636.00266,508.22128 642,499 l -10.76119,2.27967"
         stroke-miterlimit="10"
         stroke-dasharray="none"
         id="path67" />
    </g>
    <g
       id="g69">
      <rect
         fill="#ffffff"
         stroke="none"
         x="792"
         y="543"
         width="55.65625"
         height="13"
         transform="translate(-238,-38)"
         id="rect68" />
    </g>
    <g
       id="g71">
      <g
         id="g70">
        <path
           fill="none"
           stroke="none"
           id="path69"
           d="" />
        <text
           fill="#000000"
           stroke="none"
           font-family="Arial"
           font-size="13px"
           font-style="normal"
           font-weight="normal"
           text-decoration="undefined"
           x="819.82812"
           y="549.5"
           text-anchor="middle"
           dominant-baseline="central"
           transform="translate(-238,-38)"
           id="text69">«include»</text>
      </g>
    </g>
    <g
       id="g72">
      <path
         fill="none"
         stroke="#000000"
         paint-order="fill stroke markers"
         d="M 129,269 369,156"
         stroke-miterlimit="10"
         stroke-dasharray="none"
         id="path71" />
    </g>
    <g
       id="g73">
      <path
         fill="none"
         stroke="#000000"
         paint-order="fill stroke markers"
         d="M 129,289 369,255"
         stroke-miterlimit="10"
         stroke-dasharray="none"
         id="path72" />
    </g>
    <g
       id="g74">
      <path
         fill="none"
         stroke="#000000"
         paint-order="fill stroke markers"
         d="m 129,309 240,45"
         stroke-miterlimit="10"
         stroke-dasharray="none"
         id="path73" />
    </g>
    <g
       id="g75">
      <path
         fill="none"
         stroke="#000000"
         paint-order="fill stroke markers"
         d="M 129,329 369,452"
         stroke-miterlimit="10"
         stroke-dasharray="none"
         id="path74" />
    </g>
    <g
       id="g76">
      <path
         fill="none"
         stroke="#000000"
         paint-order="fill stroke markers"
         d="M 129,349 390,569"
         stroke-miterlimit="10"
         stroke-dasharray="none"
         id="path75" />
    </g>
    <g
       id="g77">
      <path
         fill="none"
         stroke="#000000"
         paint-order="fill stroke markers"
         d="M 873,273 774,385"
         stroke-miterlimit="10"
         stroke-dasharray="none"
         id="path76" />
    </g>
    <g
       id="g78">
      <path
         fill="none"
         stroke="#000000"
         paint-order="fill stroke markers"
         d="m 547,138 326,87"
         stroke-miterlimit="10"
         stroke-dasharray="none"
         id="path77" />
    </g>
    <g
       id="g79">
      <path
         fill="none"
         stroke="#000000"
         paint-order="fill stroke markers"
         d="m 547,240 326,-5"
         stroke-miterlimit="10"
         stroke-dasharray="none"
         id="path78" />
    </g>
    <g
       id="g80">
      <path
         fill="none"
         stroke="#000000"
         paint-order="fill stroke markers"
         d="M 649,318 547,346"
         stroke-miterlimit="10"
         stroke-dasharray="3"
         id="path79" />
    </g>
    <g
       id="g81">
      <path
         fill="none"
         stroke="#000000"
         paint-order="fill stroke markers"
         d="M 555.6858,339.25042 547,346 l 10.91446,1.36912"
         stroke-miterlimit="10"
         stroke-dasharray="none"
         id="path80" />
    </g>
    <g
       id="g82">
      <rect
         fill="#ffffff"
         stroke="none"
         x="808"
         y="351"
         width="53.491699"
         height="13"
         transform="translate(-238,-38)"
         id="rect81" />
    </g>
    <g
       id="g84">
      <g
         id="g83">
        <path
           fill="none"
           stroke="none"
           id="path82"
           d="" />
        <text
           fill="#000000"
           stroke="none"
           font-family="Arial"
           font-size="13px"
           font-style="normal"
           font-weight="normal"
           text-decoration="undefined"
           x="834.74585"
           y="357.5"
           text-anchor="middle"
           dominant-baseline="central"
           transform="translate(-238,-38)"
           id="text82">«extend»</text>
      </g>
    </g>
  </g>
</svg>
