<svg version="1.1" xmlns="http://www.w3.org/2000/svg" xmlns:xlink="http://www.w3.org/1999/xlink" width="851.84619140625" height="496"><defs/><g><g><rect fill="#C0C0C0" stroke="none" x="303" y="151" width="209.8798828125" height="121" transform="matrix(1 0 0 1 -286 -134)" fill-opacity="0.2"/></g><g><rect fill="#ffffff" stroke="none" x="296" y="144" width="209.8798828125" height="121" transform="matrix(1 0 0 1 -286 -134)"/></g><g><path fill="none" stroke="#000000" paint-order="fill stroke markers" d=" M 10 10 L 219.8798828125 10 L 219.8798828125 131 L 10 131 L 10 10 Z Z" stroke-miterlimit="10" stroke-dasharray=""/></g><g><path fill="none" stroke="#000000" paint-order="fill stroke markers" d=" M 10 33 L 219.8798828125 33" stroke-miterlimit="10" stroke-dasharray=""/></g><g><path fill="none" stroke="#000000" paint-order="fill stroke markers" d=" M 38.05908203125 33 L 38.05908203125 131" stroke-miterlimit="10" stroke-dasharray=""/></g><g><path fill="none" stroke="#000000" paint-order="fill stroke markers" d=" M 156.419921875 33 L 156.419921875 131" stroke-miterlimit="10" stroke-dasharray=""/></g><g><g><path fill="none" stroke="none"/><text fill="#000000" stroke="none" font-family="Arial" font-size="13px" font-style="normal" font-weight="bold" text-decoration="undefined" x="400.93994140625" y="155.5" text-anchor="middle" dominant-baseline="central" transform="matrix(1 0 0 1 -286 -134)">Flight</text></g></g><g><g><path fill="none" stroke="none"/><text fill="#000000" stroke="none" font-family="Arial" font-size="13px" font-style="normal" font-weight="normal" text-decoration="undefined" x="301" y="172" text-anchor="start" dominant-baseline="text-before-edge" transform="matrix(1 0 0 1 -286 -134)">PK</text></g></g><g><g><path fill="none" stroke="none"/><text fill="#000000" stroke="none" font-family="Arial" font-size="13px" font-style="normal" font-weight="normal" text-decoration="undefined" x="329.05908203125" y="172" text-anchor="start" dominant-baseline="text-before-edge" transform="matrix(1 0 0 1 -286 -134)">flight_id</text></g></g><g><g><path fill="none" stroke="none"/><text fill="#000000" stroke="none" font-family="Arial" font-size="13px" font-style="normal" font-weight="normal" text-decoration="undefined" x="447.419921875" y="172" text-anchor="start" dominant-baseline="text-before-edge" transform="matrix(1 0 0 1 -286 -134)">int</text></g></g><g><g><path fill="none" stroke="none"/><text fill="#000000" stroke="none" font-family="Arial" font-size="13px" font-style="normal" font-weight="normal" text-decoration="undefined" x="301" y="178.5" text-anchor="start" dominant-baseline="central" transform="matrix(1 0 0 1 -286 -134)"></text></g></g><g><g><path fill="none" stroke="none"/><text fill="#000000" stroke="none" font-family="Arial" font-size="13px" font-style="normal" font-weight="normal" text-decoration="undefined" x="301" y="187" text-anchor="start" dominant-baseline="text-before-edge" transform="matrix(1 0 0 1 -286 -134)"></text></g></g><g><g><path fill="none" stroke="none"/><text fill="#000000" stroke="none" font-family="Arial" font-size="13px" font-style="normal" font-weight="normal" text-decoration="undefined" x="329.05908203125" y="187" text-anchor="start" dominant-baseline="text-before-edge" transform="matrix(1 0 0 1 -286 -134)">departure_airport</text></g></g><g><g><path fill="none" stroke="none"/><text fill="#000000" stroke="none" font-family="Arial" font-size="13px" font-style="normal" font-weight="normal" text-decoration="undefined" x="447.419921875" y="187" text-anchor="start" dominant-baseline="text-before-edge" transform="matrix(1 0 0 1 -286 -134)">varchar</text></g></g><g><g><path fill="none" stroke="none"/><text fill="#000000" stroke="none" font-family="Arial" font-size="13px" font-style="normal" font-weight="normal" text-decoration="undefined" x="301" y="193.5" text-anchor="start" dominant-baseline="central" transform="matrix(1 0 0 1 -286 -134)"></text></g></g><g><g><path fill="none" stroke="none"/><text fill="#000000" stroke="none" font-family="Arial" font-size="13px" font-style="normal" font-weight="normal" text-decoration="undefined" x="301" y="202" text-anchor="start" dominant-baseline="text-before-edge" transform="matrix(1 0 0 1 -286 -134)"></text></g></g><g><g><path fill="none" stroke="none"/><text fill="#000000" stroke="none" font-family="Arial" font-size="13px" font-style="normal" font-weight="normal" text-decoration="undefined" x="329.05908203125" y="202" text-anchor="start" dominant-baseline="text-before-edge" transform="matrix(1 0 0 1 -286 -134)">arrival_airport</text></g></g><g><g><path fill="none" stroke="none"/><text fill="#000000" stroke="none" font-family="Arial" font-size="13px" font-style="normal" font-weight="normal" text-decoration="undefined" x="447.419921875" y="202" text-anchor="start" dominant-baseline="text-before-edge" transform="matrix(1 0 0 1 -286 -134)">varchar</text></g></g><g><g><path fill="none" stroke="none"/><text fill="#000000" stroke="none" font-family="Arial" font-size="13px" font-style="normal" font-weight="normal" text-decoration="undefined" x="301" y="208.5" text-anchor="start" dominant-baseline="central" transform="matrix(1 0 0 1 -286 -134)"></text></g></g><g><g><path fill="none" stroke="none"/><text fill="#000000" stroke="none" font-family="Arial" font-size="13px" font-style="normal" font-weight="normal" text-decoration="undefined" x="301" y="217" text-anchor="start" dominant-baseline="text-before-edge" transform="matrix(1 0 0 1 -286 -134)"></text></g></g><g><g><path fill="none" stroke="none"/><text fill="#000000" stroke="none" font-family="Arial" font-size="13px" font-style="normal" font-weight="normal" text-decoration="undefined" x="329.05908203125" y="217" text-anchor="start" dominant-baseline="text-before-edge" transform="matrix(1 0 0 1 -286 -134)">departure_time</text></g></g><g><g><path fill="none" stroke="none"/><text fill="#000000" stroke="none" font-family="Arial" font-size="13px" font-style="normal" font-weight="normal" text-decoration="undefined" x="447.419921875" y="217" text-anchor="start" dominant-baseline="text-before-edge" transform="matrix(1 0 0 1 -286 -134)">datetime</text></g></g><g><g><path fill="none" stroke="none"/><text fill="#000000" stroke="none" font-family="Arial" font-size="13px" font-style="normal" font-weight="normal" text-decoration="undefined" x="301" y="223.5" text-anchor="start" dominant-baseline="central" transform="matrix(1 0 0 1 -286 -134)"></text></g></g><g><g><path fill="none" stroke="none"/><text fill="#000000" stroke="none" font-family="Arial" font-size="13px" font-style="normal" font-weight="normal" text-decoration="undefined" x="301" y="232" text-anchor="start" dominant-baseline="text-before-edge" transform="matrix(1 0 0 1 -286 -134)"></text></g></g><g><g><path fill="none" stroke="none"/><text fill="#000000" stroke="none" font-family="Arial" font-size="13px" font-style="normal" font-weight="normal" text-decoration="undefined" x="329.05908203125" y="232" text-anchor="start" dominant-baseline="text-before-edge" transform="matrix(1 0 0 1 -286 -134)">arrival_time</text></g></g><g><g><path fill="none" stroke="none"/><text fill="#000000" stroke="none" font-family="Arial" font-size="13px" font-style="normal" font-weight="normal" text-decoration="undefined" x="447.419921875" y="232" text-anchor="start" dominant-baseline="text-before-edge" transform="matrix(1 0 0 1 -286 -134)">datetime</text></g></g><g><g><path fill="none" stroke="none"/><text fill="#000000" stroke="none" font-family="Arial" font-size="13px" font-style="normal" font-weight="normal" text-decoration="undefined" x="301" y="238.5" text-anchor="start" dominant-baseline="central" transform="matrix(1 0 0 1 -286 -134)"></text></g></g><g><g><path fill="none" stroke="none"/><text fill="#000000" stroke="none" font-family="Arial" font-size="13px" font-style="normal" font-weight="normal" text-decoration="undefined" x="301" y="247" text-anchor="start" dominant-baseline="text-before-edge" transform="matrix(1 0 0 1 -286 -134)">FK</text></g></g><g><g><path fill="none" stroke="none"/><text fill="#000000" stroke="none" font-family="Arial" font-size="13px" font-style="normal" font-weight="normal" text-decoration="undefined" x="329.05908203125" y="247" text-anchor="start" dominant-baseline="text-before-edge" transform="matrix(1 0 0 1 -286 -134)">aircraft_id</text></g></g><g><g><path fill="none" stroke="none"/><text fill="#000000" stroke="none" font-family="Arial" font-size="13px" font-style="normal" font-weight="normal" text-decoration="undefined" x="447.419921875" y="247" text-anchor="start" dominant-baseline="text-before-edge" transform="matrix(1 0 0 1 -286 -134)">int</text></g></g><g><g><path fill="none" stroke="none"/><text fill="#000000" stroke="none" font-family="Arial" font-size="13px" font-style="normal" font-weight="normal" text-decoration="undefined" x="301" y="253.5" text-anchor="start" dominant-baseline="central" transform="matrix(1 0 0 1 -286 -134)"></text></g></g><g><rect fill="#C0C0C0" stroke="none" x="623" y="159" width="230.7890625" height="91" transform="matrix(1 0 0 1 -286 -134)" fill-opacity="0.2"/></g><g><rect fill="#ffffff" stroke="none" x="616" y="152" width="230.7890625" height="91" transform="matrix(1 0 0 1 -286 -134)"/></g><g><path fill="none" stroke="#000000" paint-order="fill stroke markers" d=" M 330 18 L 560.7890625 18 L 560.7890625 109 L 330 109 L 330 18 Z Z" stroke-miterlimit="10" stroke-dasharray=""/></g><g><path fill="none" stroke="#000000" paint-order="fill stroke markers" d=" M 330 41 L 560.7890625 41" stroke-miterlimit="10" stroke-dasharray=""/></g><g><path fill="none" stroke="#000000" paint-order="fill stroke markers" d=" M 358.05908203125 41 L 358.05908203125 109" stroke-miterlimit="10" stroke-dasharray=""/></g><g><path fill="none" stroke="#000000" paint-order="fill stroke markers" d=" M 475.67724609375 41 L 475.67724609375 109" stroke-miterlimit="10" stroke-dasharray=""/></g><g><g><path fill="none" stroke="none"/><text fill="#000000" stroke="none" font-family="Arial" font-size="13px" font-style="normal" font-weight="bold" text-decoration="undefined" x="731.39453125" y="163.5" text-anchor="middle" dominant-baseline="central" transform="matrix(1 0 0 1 -286 -134)">Booking</text></g></g><g><g><path fill="none" stroke="none"/><text fill="#000000" stroke="none" font-family="Arial" font-size="13px" font-style="normal" font-weight="normal" text-decoration="undefined" x="621" y="180" text-anchor="start" dominant-baseline="text-before-edge" transform="matrix(1 0 0 1 -286 -134)">PK</text></g></g><g><g><path fill="none" stroke="none"/><text fill="#000000" stroke="none" font-family="Arial" font-size="13px" font-style="normal" font-weight="normal" text-decoration="undefined" x="649.05908203125" y="180" text-anchor="start" dominant-baseline="text-before-edge" transform="matrix(1 0 0 1 -286 -134)">booking_no</text></g></g><g><g><path fill="none" stroke="none"/><text fill="#000000" stroke="none" font-family="Arial" font-size="13px" font-style="normal" font-weight="normal" text-decoration="undefined" x="766.67724609375" y="180" text-anchor="start" dominant-baseline="text-before-edge" transform="matrix(1 0 0 1 -286 -134)">varchar</text></g></g><g><g><path fill="none" stroke="none"/><text fill="#000000" stroke="none" font-family="Arial" font-size="13px" font-style="normal" font-weight="normal" text-decoration="undefined" x="621" y="186.5" text-anchor="start" dominant-baseline="central" transform="matrix(1 0 0 1 -286 -134)"></text></g></g><g><g><path fill="none" stroke="none"/><text fill="#000000" stroke="none" font-family="Arial" font-size="13px" font-style="normal" font-weight="normal" text-decoration="undefined" x="621" y="195" text-anchor="start" dominant-baseline="text-before-edge" transform="matrix(1 0 0 1 -286 -134)"></text></g></g><g><g><path fill="none" stroke="none"/><text fill="#000000" stroke="none" font-family="Arial" font-size="13px" font-style="normal" font-weight="normal" text-decoration="undefined" x="649.05908203125" y="195" text-anchor="start" dominant-baseline="text-before-edge" transform="matrix(1 0 0 1 -286 -134)">email</text></g></g><g><g><path fill="none" stroke="none"/><text fill="#000000" stroke="none" font-family="Arial" font-size="13px" font-style="normal" font-weight="normal" text-decoration="undefined" x="766.67724609375" y="195" text-anchor="start" dominant-baseline="text-before-edge" transform="matrix(1 0 0 1 -286 -134)">varchar</text></g></g><g><g><path fill="none" stroke="none"/><text fill="#000000" stroke="none" font-family="Arial" font-size="13px" font-style="normal" font-weight="normal" text-decoration="undefined" x="621" y="201.5" text-anchor="start" dominant-baseline="central" transform="matrix(1 0 0 1 -286 -134)"></text></g></g><g><g><path fill="none" stroke="none"/><text fill="#000000" stroke="none" font-family="Arial" font-size="13px" font-style="normal" font-weight="normal" text-decoration="undefined" x="621" y="210" text-anchor="start" dominant-baseline="text-before-edge" transform="matrix(1 0 0 1 -286 -134)"></text></g></g><g><g><path fill="none" stroke="none"/><text fill="#000000" stroke="none" font-family="Arial" font-size="13px" font-style="normal" font-weight="normal" text-decoration="undefined" x="649.05908203125" y="210" text-anchor="start" dominant-baseline="text-before-edge" transform="matrix(1 0 0 1 -286 -134)">priority_boarding</text></g></g><g><g><path fill="none" stroke="none"/><text fill="#000000" stroke="none" font-family="Arial" font-size="13px" font-style="normal" font-weight="normal" text-decoration="undefined" x="766.67724609375" y="210" text-anchor="start" dominant-baseline="text-before-edge" transform="matrix(1 0 0 1 -286 -134)">boolean</text></g></g><g><g><path fill="none" stroke="none"/><text fill="#000000" stroke="none" font-family="Arial" font-size="13px" font-style="normal" font-weight="normal" text-decoration="undefined" x="621" y="216.5" text-anchor="start" dominant-baseline="central" transform="matrix(1 0 0 1 -286 -134)"></text></g></g><g><g><path fill="none" stroke="none"/><text fill="#000000" stroke="none" font-family="Arial" font-size="13px" font-style="normal" font-weight="normal" text-decoration="undefined" x="621" y="225" text-anchor="start" dominant-baseline="text-before-edge" transform="matrix(1 0 0 1 -286 -134)"></text></g></g><g><g><path fill="none" stroke="none"/><text fill="#000000" stroke="none" font-family="Arial" font-size="13px" font-style="normal" font-weight="normal" text-decoration="undefined" x="649.05908203125" y="225" text-anchor="start" dominant-baseline="text-before-edge" transform="matrix(1 0 0 1 -286 -134)">luggage_amount</text></g></g><g><g><path fill="none" stroke="none"/><text fill="#000000" stroke="none" font-family="Arial" font-size="13px" font-style="normal" font-weight="normal" text-decoration="undefined" x="766.67724609375" y="225" text-anchor="start" dominant-baseline="text-before-edge" transform="matrix(1 0 0 1 -286 -134)">int</text></g></g><g><g><path fill="none" stroke="none"/><text fill="#000000" stroke="none" font-family="Arial" font-size="13px" font-style="normal" font-weight="normal" text-decoration="undefined" x="621" y="231.5" text-anchor="start" dominant-baseline="central" transform="matrix(1 0 0 1 -286 -134)"></text></g></g><g><rect fill="#C0C0C0" stroke="none" x="943" y="167" width="191.84619140625" height="80" transform="matrix(1 0 0 1 -286 -134)" fill-opacity="0.2"/></g><g><rect fill="#ffffff" stroke="none" x="936" y="160" width="191.84619140625" height="80" transform="matrix(1 0 0 1 -286 -134)"/></g><g><path fill="none" stroke="#000000" paint-order="fill stroke markers" d=" M 650 26 L 841.84619140625 26 L 841.84619140625 106 L 650 106 L 650 26 Z Z" stroke-miterlimit="10" stroke-dasharray=""/></g><g><path fill="none" stroke="#000000" paint-order="fill stroke markers" d=" M 650 49 L 841.84619140625 49" stroke-miterlimit="10" stroke-dasharray=""/></g><g><path fill="none" stroke="#000000" paint-order="fill stroke markers" d=" M 678.05908203125 49 L 678.05908203125 106" stroke-miterlimit="10" stroke-dasharray=""/></g><g><path fill="none" stroke="#000000" paint-order="fill stroke markers" d=" M 771.87353515625 49 L 771.87353515625 106" stroke-miterlimit="10" stroke-dasharray=""/></g><g><g><path fill="none" stroke="none"/><text fill="#000000" stroke="none" font-family="Arial" font-size="13px" font-style="normal" font-weight="bold" text-decoration="undefined" x="1031.923095703125" y="171.5" text-anchor="middle" dominant-baseline="central" transform="matrix(1 0 0 1 -286 -134)">Passenger</text></g></g><g><g><path fill="none" stroke="none"/><text fill="#000000" stroke="none" font-family="Arial" font-size="13px" font-style="normal" font-weight="normal" text-decoration="undefined" x="941" y="188" text-anchor="start" dominant-baseline="text-before-edge" transform="matrix(1 0 0 1 -286 -134)">PK</text></g></g><g><g><path fill="none" stroke="none"/><text fill="#000000" stroke="none" font-family="Arial" font-size="13px" font-style="normal" font-weight="normal" text-decoration="undefined" x="969.05908203125" y="188" text-anchor="start" dominant-baseline="text-before-edge" transform="matrix(1 0 0 1 -286 -134)">passenger_id</text></g></g><g><g><path fill="none" stroke="none"/><text fill="#000000" stroke="none" font-family="Arial" font-size="13px" font-style="normal" font-weight="normal" text-decoration="undefined" x="1062.87353515625" y="188" text-anchor="start" dominant-baseline="text-before-edge" transform="matrix(1 0 0 1 -286 -134)">int</text></g></g><g><g><path fill="none" stroke="none"/><text fill="#000000" stroke="none" font-family="Arial" font-size="13px" font-style="normal" font-weight="normal" text-decoration="undefined" x="941" y="194.5" text-anchor="start" dominant-baseline="central" transform="matrix(1 0 0 1 -286 -134)"></text></g></g><g><g><path fill="none" stroke="none"/><text fill="#000000" stroke="none" font-family="Arial" font-size="13px" font-style="normal" font-weight="normal" text-decoration="undefined" x="941" y="203" text-anchor="start" dominant-baseline="text-before-edge" transform="matrix(1 0 0 1 -286 -134)"></text></g></g><g><g><path fill="none" stroke="none"/><text fill="#000000" stroke="none" font-family="Arial" font-size="13px" font-style="normal" font-weight="normal" text-decoration="undefined" x="969.05908203125" y="203" text-anchor="start" dominant-baseline="text-before-edge" transform="matrix(1 0 0 1 -286 -134)">first_name</text></g></g><g><g><path fill="none" stroke="none"/><text fill="#000000" stroke="none" font-family="Arial" font-size="13px" font-style="normal" font-weight="normal" text-decoration="undefined" x="1062.87353515625" y="203" text-anchor="start" dominant-baseline="text-before-edge" transform="matrix(1 0 0 1 -286 -134)">varchar</text></g></g><g><g><path fill="none" stroke="none"/><text fill="#000000" stroke="none" font-family="Arial" font-size="13px" font-style="normal" font-weight="normal" text-decoration="undefined" x="941" y="209.5" text-anchor="start" dominant-baseline="central" transform="matrix(1 0 0 1 -286 -134)"></text></g></g><g><g><path fill="none" stroke="none"/><text fill="#000000" stroke="none" font-family="Arial" font-size="13px" font-style="normal" font-weight="normal" text-decoration="undefined" x="941" y="218" text-anchor="start" dominant-baseline="text-before-edge" transform="matrix(1 0 0 1 -286 -134)"></text></g></g><g><g><path fill="none" stroke="none"/><text fill="#000000" stroke="none" font-family="Arial" font-size="13px" font-style="normal" font-weight="normal" text-decoration="undefined" x="969.05908203125" y="218" text-anchor="start" dominant-baseline="text-before-edge" transform="matrix(1 0 0 1 -286 -134)">surname</text></g></g><g><g><path fill="none" stroke="none"/><text fill="#000000" stroke="none" font-family="Arial" font-size="13px" font-style="normal" font-weight="normal" text-decoration="undefined" x="1062.87353515625" y="218" text-anchor="start" dominant-baseline="text-before-edge" transform="matrix(1 0 0 1 -286 -134)">varchar</text></g></g><g><g><path fill="none" stroke="none"/><text fill="#000000" stroke="none" font-family="Arial" font-size="13px" font-style="normal" font-weight="normal" text-decoration="undefined" x="941" y="224.5" text-anchor="start" dominant-baseline="central" transform="matrix(1 0 0 1 -286 -134)"></text></g></g><g><rect fill="#C0C0C0" stroke="none" x="303" y="335" width="215.7197265625" height="106" transform="matrix(1 0 0 1 -286 -134)" fill-opacity="0.2"/></g><g><rect fill="#ffffff" stroke="none" x="296" y="328" width="215.7197265625" height="106" transform="matrix(1 0 0 1 -286 -134)"/></g><g><path fill="none" stroke="#000000" paint-order="fill stroke markers" d=" M 10 194 L 225.7197265625 194 L 225.7197265625 300 L 10 300 L 10 194 Z Z" stroke-miterlimit="10" stroke-dasharray=""/></g><g><path fill="none" stroke="#000000" paint-order="fill stroke markers" d=" M 10 217 L 225.7197265625 217" stroke-miterlimit="10" stroke-dasharray=""/></g><g><path fill="none" stroke="#000000" paint-order="fill stroke markers" d=" M 38.05908203125 217 L 38.05908203125 300" stroke-miterlimit="10" stroke-dasharray=""/></g><g><path fill="none" stroke="#000000" paint-order="fill stroke markers" d=" M 168.74072265625 217 L 168.74072265625 300" stroke-miterlimit="10" stroke-dasharray=""/></g><g><g><path fill="none" stroke="none"/><text fill="#000000" stroke="none" font-family="Arial" font-size="13px" font-style="normal" font-weight="bold" text-decoration="undefined" x="403.85986328125" y="339.5" text-anchor="middle" dominant-baseline="central" transform="matrix(1 0 0 1 -286 -134)">Plane</text></g></g><g><g><path fill="none" stroke="none"/><text fill="#000000" stroke="none" font-family="Arial" font-size="13px" font-style="normal" font-weight="normal" text-decoration="undefined" x="301" y="356" text-anchor="start" dominant-baseline="text-before-edge" transform="matrix(1 0 0 1 -286 -134)">PK</text></g></g><g><g><path fill="none" stroke="none"/><text fill="#000000" stroke="none" font-family="Arial" font-size="13px" font-style="normal" font-weight="normal" text-decoration="undefined" x="329.05908203125" y="356" text-anchor="start" dominant-baseline="text-before-edge" transform="matrix(1 0 0 1 -286 -134)">aircraft_id</text></g></g><g><g><path fill="none" stroke="none"/><text fill="#000000" stroke="none" font-family="Arial" font-size="13px" font-style="normal" font-weight="normal" text-decoration="undefined" x="459.74072265625" y="356" text-anchor="start" dominant-baseline="text-before-edge" transform="matrix(1 0 0 1 -286 -134)">int</text></g></g><g><g><path fill="none" stroke="none"/><text fill="#000000" stroke="none" font-family="Arial" font-size="13px" font-style="normal" font-weight="normal" text-decoration="undefined" x="301" y="362.5" text-anchor="start" dominant-baseline="central" transform="matrix(1 0 0 1 -286 -134)"></text></g></g><g><g><path fill="none" stroke="none"/><text fill="#000000" stroke="none" font-family="Arial" font-size="13px" font-style="normal" font-weight="normal" text-decoration="undefined" x="301" y="371" text-anchor="start" dominant-baseline="text-before-edge" transform="matrix(1 0 0 1 -286 -134)"></text></g></g><g><g><path fill="none" stroke="none"/><text fill="#000000" stroke="none" font-family="Arial" font-size="13px" font-style="normal" font-weight="normal" text-decoration="undefined" x="329.05908203125" y="371" text-anchor="start" dominant-baseline="text-before-edge" transform="matrix(1 0 0 1 -286 -134)">model</text></g></g><g><g><path fill="none" stroke="none"/><text fill="#000000" stroke="none" font-family="Arial" font-size="13px" font-style="normal" font-weight="normal" text-decoration="undefined" x="459.74072265625" y="371" text-anchor="start" dominant-baseline="text-before-edge" transform="matrix(1 0 0 1 -286 -134)">varchar</text></g></g><g><g><path fill="none" stroke="none"/><text fill="#000000" stroke="none" font-family="Arial" font-size="13px" font-style="normal" font-weight="normal" text-decoration="undefined" x="301" y="377.5" text-anchor="start" dominant-baseline="central" transform="matrix(1 0 0 1 -286 -134)"></text></g></g><g><g><path fill="none" stroke="none"/><text fill="#000000" stroke="none" font-family="Arial" font-size="13px" font-style="normal" font-weight="normal" text-decoration="undefined" x="301" y="386" text-anchor="start" dominant-baseline="text-before-edge" transform="matrix(1 0 0 1 -286 -134)"></text></g></g><g><g><path fill="none" stroke="none"/><text fill="#000000" stroke="none" font-family="Arial" font-size="13px" font-style="normal" font-weight="normal" text-decoration="undefined" x="329.05908203125" y="386" text-anchor="start" dominant-baseline="text-before-edge" transform="matrix(1 0 0 1 -286 -134)">no_economy_seats</text></g></g><g><g><path fill="none" stroke="none"/><text fill="#000000" stroke="none" font-family="Arial" font-size="13px" font-style="normal" font-weight="normal" text-decoration="undefined" x="459.74072265625" y="386" text-anchor="start" dominant-baseline="text-before-edge" transform="matrix(1 0 0 1 -286 -134)">int</text></g></g><g><g><path fill="none" stroke="none"/><text fill="#000000" stroke="none" font-family="Arial" font-size="13px" font-style="normal" font-weight="normal" text-decoration="undefined" x="301" y="392.5" text-anchor="start" dominant-baseline="central" transform="matrix(1 0 0 1 -286 -134)"></text></g></g><g><g><path fill="none" stroke="none"/><text fill="#000000" stroke="none" font-family="Arial" font-size="13px" font-style="normal" font-weight="normal" text-decoration="undefined" x="301" y="401" text-anchor="start" dominant-baseline="text-before-edge" transform="matrix(1 0 0 1 -286 -134)"></text></g></g><g><g><path fill="none" stroke="none"/><text fill="#000000" stroke="none" font-family="Arial" font-size="13px" font-style="normal" font-weight="normal" text-decoration="undefined" x="329.05908203125" y="401" text-anchor="start" dominant-baseline="text-before-edge" transform="matrix(1 0 0 1 -286 -134)">no_busines_seats</text></g></g><g><g><path fill="none" stroke="none"/><text fill="#000000" stroke="none" font-family="Arial" font-size="13px" font-style="normal" font-weight="normal" text-decoration="undefined" x="459.74072265625" y="401" text-anchor="start" dominant-baseline="text-before-edge" transform="matrix(1 0 0 1 -286 -134)">int</text></g></g><g><g><path fill="none" stroke="none"/><text fill="#000000" stroke="none" font-family="Arial" font-size="13px" font-style="normal" font-weight="normal" text-decoration="undefined" x="301" y="407.5" text-anchor="start" dominant-baseline="central" transform="matrix(1 0 0 1 -286 -134)"></text></g></g><g><g><path fill="none" stroke="none"/><text fill="#000000" stroke="none" font-family="Arial" font-size="13px" font-style="normal" font-weight="normal" text-decoration="undefined" x="301" y="416" text-anchor="start" dominant-baseline="text-before-edge" transform="matrix(1 0 0 1 -286 -134)"></text></g></g><g><g><path fill="none" stroke="none"/><text fill="#000000" stroke="none" font-family="Arial" font-size="13px" font-style="normal" font-weight="normal" text-decoration="undefined" x="329.05908203125" y="416" text-anchor="start" dominant-baseline="text-before-edge" transform="matrix(1 0 0 1 -286 -134)">no_firstclass_seats</text></g></g><g><g><path fill="none" stroke="none"/><text fill="#000000" stroke="none" font-family="Arial" font-size="13px" font-style="normal" font-weight="normal" text-decoration="undefined" x="459.74072265625" y="416" text-anchor="start" dominant-baseline="text-before-edge" transform="matrix(1 0 0 1 -286 -134)">int</text></g></g><g><g><path fill="none" stroke="none"/><text fill="#000000" stroke="none" font-family="Arial" font-size="13px" font-style="normal" font-weight="normal" text-decoration="undefined" x="301" y="422.5" text-anchor="start" dominant-baseline="central" transform="matrix(1 0 0 1 -286 -134)"></text></g></g><g><path fill="none" stroke="#000000" paint-order="fill stroke markers" d=" M 220 70 L 330 70" stroke-miterlimit="10" stroke-dasharray=""/></g><g><path fill="none" stroke="#000000" paint-order="fill stroke markers" d=" M 316 70 L 330 77" stroke-miterlimit="10" stroke-dasharray=""/></g><g><path fill="none" stroke="#000000" paint-order="fill stroke markers" d=" M 316 70 L 330 63" stroke-miterlimit="10" stroke-dasharray=""/></g><g><path fill="#FFFFFF" stroke="none" paint-order="stroke fill markers" d=" M 301 70 C 301 66.1340064 304.1340064 63 308 63 C 311.8659936 63 315 66.1340064 315 70 C 315 73.8659936 311.8659936 77 308 77 C 304.1340064 77 301 73.8659936 301 70 Z"/></g><g><path fill="none" stroke="#000000" paint-order="fill stroke markers" d=" M 301 70 C 301 66.1340064 304.1340064 63 308 63 C 311.8659936 63 315 66.1340064 315 70 C 315 73.8659936 311.8659936 77 308 77 C 304.1340064 77 301 73.8659936 301 70 Z" stroke-miterlimit="10" stroke-dasharray=""/></g><g><path fill="none" stroke="#000000" paint-order="fill stroke markers" d=" M 234 70 L 220 63" stroke-miterlimit="10" stroke-dasharray=""/></g><g><path fill="none" stroke="#000000" paint-order="fill stroke markers" d=" M 234 70 L 220 77" stroke-miterlimit="10" stroke-dasharray=""/></g><g><path fill="#FFFFFF" stroke="none" paint-order="stroke fill markers" d=" M 235 70 C 235 66.1340064 238.13400639999998 63 242 63 C 245.86599360000002 63 249 66.1340064 249 70 C 249 73.8659936 245.86599360000002 77 242 77 C 238.13400639999998 77 235 73.8659936 235 70 Z"/></g><g><path fill="none" stroke="#000000" paint-order="fill stroke markers" d=" M 235 70 C 235 66.1340064 238.13400639999998 63 242 63 C 245.86599360000002 63 249 66.1340064 249 70 C 249 73.8659936 245.86599360000002 77 242 77 C 238.13400639999998 77 235 73.8659936 235 70 Z" stroke-miterlimit="10" stroke-dasharray=""/></g><g><rect fill="#ffffff" stroke="none" x="531" y="183" width="0" height="13" transform="matrix(1 0 0 1 -286 -134)"/></g><g><g><path fill="none" stroke="none"/><text fill="#000000" stroke="none" font-family="Arial" font-size="13px" font-style="normal" font-weight="normal" text-decoration="undefined" x="531" y="189.5" text-anchor="middle" dominant-baseline="central" transform="matrix(1 0 0 1 -286 -134)"></text></g></g><g><rect fill="#ffffff" stroke="none" x="590" y="183" width="0" height="13" transform="matrix(1 0 0 1 -286 -134)"/></g><g><g><path fill="none" stroke="none"/><text fill="#000000" stroke="none" font-family="Arial" font-size="13px" font-style="normal" font-weight="normal" text-decoration="undefined" x="590" y="189.5" text-anchor="middle" dominant-baseline="central" transform="matrix(1 0 0 1 -286 -134)"></text></g></g><g><path fill="none" stroke="#000000" paint-order="fill stroke markers" d=" M 126 194 L 126 131" stroke-miterlimit="10" stroke-dasharray=""/></g><g><path fill="none" stroke="#000000" paint-order="fill stroke markers" d=" M 126 145 L 133 131" stroke-miterlimit="10" stroke-dasharray=""/></g><g><path fill="none" stroke="#000000" paint-order="fill stroke markers" d=" M 126 145 L 119 131" stroke-miterlimit="10" stroke-dasharray=""/></g><g><path fill="#FFFFFF" stroke="none" paint-order="stroke fill markers" d=" M 119 153 C 119 149.13400639999998 122.13400639999998 146 126 146 C 129.86599360000002 146 133 149.13400639999998 133 153 C 133 156.86599360000002 129.86599360000002 160 126 160 C 122.13400639999998 160 119 156.86599360000002 119 153 Z"/></g><g><path fill="none" stroke="#000000" paint-order="fill stroke markers" d=" M 119 153 C 119 149.13400639999998 122.13400639999998 146 126 146 C 129.86599360000002 146 133 149.13400639999998 133 153 C 133 156.86599360000002 129.86599360000002 160 126 160 C 122.13400639999998 160 119 156.86599360000002 119 153 Z" stroke-miterlimit="10" stroke-dasharray=""/></g><g><path fill="none" stroke="#000000" paint-order="fill stroke markers" d=" M 119 187 L 133 187" stroke-miterlimit="10" stroke-dasharray=""/></g><g><path fill="none" stroke="#000000" paint-order="fill stroke markers" d=" M 119 180 L 133 180" stroke-miterlimit="10" stroke-dasharray=""/></g><g><rect fill="#ffffff" stroke="none" x="397" y="296" width="0" height="13" transform="matrix(1 0 0 1 -286 -134)"/></g><g><g><path fill="none" stroke="none"/><text fill="#000000" stroke="none" font-family="Arial" font-size="13px" font-style="normal" font-weight="normal" text-decoration="undefined" x="397" y="302.5" text-anchor="middle" dominant-baseline="central" transform="matrix(1 0 0 1 -286 -134)"></text></g></g><g><rect fill="#ffffff" stroke="none" x="397" y="284" width="0" height="13" transform="matrix(1 0 0 1 -286 -134)"/></g><g><g><path fill="none" stroke="none"/><text fill="#000000" stroke="none" font-family="Arial" font-size="13px" font-style="normal" font-weight="normal" text-decoration="undefined" x="397" y="290.5" text-anchor="middle" dominant-baseline="central" transform="matrix(1 0 0 1 -286 -134)"></text></g></g><g><path fill="none" stroke="#000000" paint-order="fill stroke markers" d=" M 561 69 L 650 69" stroke-miterlimit="10" stroke-dasharray=""/></g><g><path fill="none" stroke="#000000" paint-order="fill stroke markers" d=" M 636 69 L 650 76" stroke-miterlimit="10" stroke-dasharray=""/></g><g><path fill="none" stroke="#000000" paint-order="fill stroke markers" d=" M 636 69 L 650 62" stroke-miterlimit="10" stroke-dasharray=""/></g><g><path fill="#FFFFFF" stroke="none" paint-order="stroke fill markers" d=" M 621 69 C 621 65.1340064 624.1340064 62 628 62 C 631.8659936 62 635 65.1340064 635 69 C 635 72.8659936 631.8659936 76 628 76 C 624.1340064 76 621 72.8659936 621 69 Z"/></g><g><path fill="none" stroke="#000000" paint-order="fill stroke markers" d=" M 621 69 C 621 65.1340064 624.1340064 62 628 62 C 631.8659936 62 635 65.1340064 635 69 C 635 72.8659936 631.8659936 76 628 76 C 624.1340064 76 621 72.8659936 621 69 Z" stroke-miterlimit="10" stroke-dasharray=""/></g><g><path fill="none" stroke="#000000" paint-order="fill stroke markers" d=" M 568 62 L 568 76" stroke-miterlimit="10" stroke-dasharray=""/></g><g><path fill="none" stroke="#000000" paint-order="fill stroke markers" d=" M 575 62 L 575 76" stroke-miterlimit="10" stroke-dasharray=""/></g><g><rect fill="#ffffff" stroke="none" x="872" y="182" width="0" height="13" transform="matrix(1 0 0 1 -286 -134)"/></g><g><g><path fill="none" stroke="none"/><text fill="#000000" stroke="none" font-family="Arial" font-size="13px" font-style="normal" font-weight="normal" text-decoration="undefined" x="872" y="188.5" text-anchor="middle" dominant-baseline="central" transform="matrix(1 0 0 1 -286 -134)"></text></g></g><g><rect fill="#ffffff" stroke="none" x="910" y="182" width="0" height="13" transform="matrix(1 0 0 1 -286 -134)"/></g><g><g><path fill="none" stroke="none"/><text fill="#000000" stroke="none" font-family="Arial" font-size="13px" font-style="normal" font-weight="normal" text-decoration="undefined" x="910" y="188.5" text-anchor="middle" dominant-baseline="central" transform="matrix(1 0 0 1 -286 -134)"></text></g></g><g><rect fill="#C0C0C0" stroke="none" x="655" y="351" width="193.97265625" height="80" transform="matrix(1 0 0 1 -286 -134)" fill-opacity="0.2"/></g><g><rect fill="#ffffff" stroke="none" x="648" y="344" width="193.97265625" height="80" transform="matrix(1 0 0 1 -286 -134)"/></g><g><path fill="none" stroke="#000000" paint-order="fill stroke markers" d=" M 362 210 L 555.97265625 210 L 555.97265625 290 L 362 290 L 362 210 Z Z" stroke-miterlimit="10" stroke-dasharray=""/></g><g><path fill="none" stroke="#000000" paint-order="fill stroke markers" d=" M 362 233 L 555.97265625 233" stroke-miterlimit="10" stroke-dasharray=""/></g><g><path fill="none" stroke="#000000" paint-order="fill stroke markers" d=" M 390.05908203125 233 L 390.05908203125 290" stroke-miterlimit="10" stroke-dasharray=""/></g><g><path fill="none" stroke="#000000" paint-order="fill stroke markers" d=" M 475.1962890625 233 L 475.1962890625 290" stroke-miterlimit="10" stroke-dasharray=""/></g><g><g><path fill="none" stroke="none"/><text fill="#000000" stroke="none" font-family="Arial" font-size="13px" font-style="normal" font-weight="bold" text-decoration="undefined" x="744.986328125" y="355.5" text-anchor="middle" dominant-baseline="central" transform="matrix(1 0 0 1 -286 -134)">Seat</text></g></g><g><g><path fill="none" stroke="none"/><text fill="#000000" stroke="none" font-family="Arial" font-size="13px" font-style="normal" font-weight="normal" text-decoration="undefined" x="653" y="372" text-anchor="start" dominant-baseline="text-before-edge" transform="matrix(1 0 0 1 -286 -134)">PK</text></g></g><g><g><path fill="none" stroke="none"/><text fill="#000000" stroke="none" font-family="Arial" font-size="13px" font-style="normal" font-weight="normal" text-decoration="undefined" x="681.05908203125" y="372" text-anchor="start" dominant-baseline="text-before-edge" transform="matrix(1 0 0 1 -286 -134)">seat_no</text></g></g><g><g><path fill="none" stroke="none"/><text fill="#000000" stroke="none" font-family="Arial" font-size="13px" font-style="normal" font-weight="normal" text-decoration="undefined" x="766.1962890625" y="372" text-anchor="start" dominant-baseline="text-before-edge" transform="matrix(1 0 0 1 -286 -134)">varchar</text></g></g><g><g><path fill="none" stroke="none"/><text fill="#000000" stroke="none" font-family="Arial" font-size="13px" font-style="normal" font-weight="normal" text-decoration="undefined" x="653" y="378.5" text-anchor="start" dominant-baseline="central" transform="matrix(1 0 0 1 -286 -134)"></text></g></g><g><g><path fill="none" stroke="none"/><text fill="#000000" stroke="none" font-family="Arial" font-size="13px" font-style="normal" font-weight="normal" text-decoration="undefined" x="653" y="387" text-anchor="start" dominant-baseline="text-before-edge" transform="matrix(1 0 0 1 -286 -134)"></text></g></g><g><g><path fill="none" stroke="none"/><text fill="#000000" stroke="none" font-family="Arial" font-size="13px" font-style="normal" font-weight="normal" text-decoration="undefined" x="681.05908203125" y="387" text-anchor="start" dominant-baseline="text-before-edge" transform="matrix(1 0 0 1 -286 -134)">class</text></g></g><g><g><path fill="none" stroke="none"/><text fill="#000000" stroke="none" font-family="Arial" font-size="13px" font-style="normal" font-weight="normal" text-decoration="undefined" x="766.1962890625" y="387" text-anchor="start" dominant-baseline="text-before-edge" transform="matrix(1 0 0 1 -286 -134)">varchar</text></g></g><g><g><path fill="none" stroke="none"/><text fill="#000000" stroke="none" font-family="Arial" font-size="13px" font-style="normal" font-weight="normal" text-decoration="undefined" x="653" y="393.5" text-anchor="start" dominant-baseline="central" transform="matrix(1 0 0 1 -286 -134)"></text></g></g><g><g><path fill="none" stroke="none"/><text fill="#000000" stroke="none" font-family="Arial" font-size="13px" font-style="normal" font-weight="normal" text-decoration="undefined" x="653" y="402" text-anchor="start" dominant-baseline="text-before-edge" transform="matrix(1 0 0 1 -286 -134)"></text></g></g><g><g><path fill="none" stroke="none"/><text fill="#000000" stroke="none" font-family="Arial" font-size="13px" font-style="normal" font-weight="normal" text-decoration="undefined" x="681.05908203125" y="402" text-anchor="start" dominant-baseline="text-before-edge" transform="matrix(1 0 0 1 -286 -134)">is_occupied</text></g></g><g><g><path fill="none" stroke="none"/><text fill="#000000" stroke="none" font-family="Arial" font-size="13px" font-style="normal" font-weight="normal" text-decoration="undefined" x="766.1962890625" y="402" text-anchor="start" dominant-baseline="text-before-edge" transform="matrix(1 0 0 1 -286 -134)">boolean</text></g></g><g><g><path fill="none" stroke="none"/><text fill="#000000" stroke="none" font-family="Arial" font-size="13px" font-style="normal" font-weight="normal" text-decoration="undefined" x="653" y="408.5" text-anchor="start" dominant-baseline="central" transform="matrix(1 0 0 1 -286 -134)"></text></g></g><g><path fill="none" stroke="#000000" paint-order="fill stroke markers" d=" M 226 256 L 362 256" stroke-miterlimit="10" stroke-dasharray=""/></g><g><path fill="none" stroke="#000000" paint-order="fill stroke markers" d=" M 348 256 L 362 263" stroke-miterlimit="10" stroke-dasharray=""/></g><g><path fill="none" stroke="#000000" paint-order="fill stroke markers" d=" M 348 256 L 362 249" stroke-miterlimit="10" stroke-dasharray=""/></g><g><path fill="#FFFFFF" stroke="none" paint-order="stroke fill markers" d=" M 333 256 C 333 252.13400639999998 336.1340064 249 340 249 C 343.8659936 249 347 252.13400639999998 347 256 C 347 259.8659936 343.8659936 263 340 263 C 336.1340064 263 333 259.8659936 333 256 Z"/></g><g><path fill="none" stroke="#000000" paint-order="fill stroke markers" d=" M 333 256 C 333 252.13400639999998 336.1340064 249 340 249 C 343.8659936 249 347 252.13400639999998 347 256 C 347 259.8659936 343.8659936 263 340 263 C 336.1340064 263 333 259.8659936 333 256 Z" stroke-miterlimit="10" stroke-dasharray=""/></g><g><path fill="none" stroke="#000000" paint-order="fill stroke markers" d=" M 233 249 L 233 263" stroke-miterlimit="10" stroke-dasharray=""/></g><g><path fill="none" stroke="#000000" paint-order="fill stroke markers" d=" M 240 249 L 240 263" stroke-miterlimit="10" stroke-dasharray=""/></g><g><rect fill="#ffffff" stroke="none" x="537" y="369" width="0" height="13" transform="matrix(1 0 0 1 -286 -134)"/></g><g><g><path fill="none" stroke="none"/><text fill="#000000" stroke="none" font-family="Arial" font-size="13px" font-style="normal" font-weight="normal" text-decoration="undefined" x="537" y="375.5" text-anchor="middle" dominant-baseline="central" transform="matrix(1 0 0 1 -286 -134)"></text></g></g><g><rect fill="#ffffff" stroke="none" x="622" y="369" width="0" height="13" transform="matrix(1 0 0 1 -286 -134)"/></g><g><g><path fill="none" stroke="none"/><text fill="#000000" stroke="none" font-family="Arial" font-size="13px" font-style="normal" font-weight="normal" text-decoration="undefined" x="622" y="375.5" text-anchor="middle" dominant-baseline="central" transform="matrix(1 0 0 1 -286 -134)"></text></g></g><g><path fill="none" stroke="#000000" paint-order="fill stroke markers" d=" M 556 258 L 722 258 L 722 258 A 8 8 0 0 0 730 250 L 730 106" stroke-miterlimit="10" stroke-dasharray=""/></g><g><path fill="none" stroke="#000000" paint-order="fill stroke markers" d=" M 730 120 L 737 106" stroke-miterlimit="10" stroke-dasharray=""/></g><g><path fill="none" stroke="#000000" paint-order="fill stroke markers" d=" M 730 120 L 723 106" stroke-miterlimit="10" stroke-dasharray=""/></g><g><path fill="#FFFFFF" stroke="none" paint-order="stroke fill markers" d=" M 723 128 C 723 124.13400639999998 726.1340064 121 730 121 C 733.8659936 121 737 124.13400639999998 737 128 C 737 131.86599360000002 733.8659936 135 730 135 C 726.1340064 135 723 131.86599360000002 723 128 Z"/></g><g><path fill="none" stroke="#000000" paint-order="fill stroke markers" d=" M 723 128 C 723 124.13400639999998 726.1340064 121 730 121 C 733.8659936 121 737 124.13400639999998 737 128 C 737 131.86599360000002 733.8659936 135 730 135 C 726.1340064 135 723 131.86599360000002 723 128 Z" stroke-miterlimit="10" stroke-dasharray=""/></g><g><path fill="none" stroke="#000000" paint-order="fill stroke markers" d=" M 570 258 L 556 251" stroke-miterlimit="10" stroke-dasharray=""/></g><g><path fill="none" stroke="#000000" paint-order="fill stroke markers" d=" M 570 258 L 556 265" stroke-miterlimit="10" stroke-dasharray=""/></g><g><path fill="#FFFFFF" stroke="none" paint-order="stroke fill markers" d=" M 571 258 C 571 254.13400639999998 574.1340064 251 578 251 C 581.8659936 251 585 254.13400639999998 585 258 C 585 261.8659936 581.8659936 265 578 265 C 574.1340064 265 571 261.8659936 571 258 Z"/></g><g><path fill="none" stroke="#000000" paint-order="fill stroke markers" d=" M 571 258 C 571 254.13400639999998 574.1340064 251 578 251 C 581.8659936 251 585 254.13400639999998 585 258 C 585 261.8659936 581.8659936 265 578 265 C 574.1340064 265 571 261.8659936 571 258 Z" stroke-miterlimit="10" stroke-dasharray=""/></g><g><rect fill="#ffffff" stroke="none" x="867" y="371" width="0" height="13" transform="matrix(1 0 0 1 -286 -134)"/></g><g><g><path fill="none" stroke="none"/><text fill="#000000" stroke="none" font-family="Arial" font-size="13px" font-style="normal" font-weight="normal" text-decoration="undefined" x="867" y="377.5" text-anchor="middle" dominant-baseline="central" transform="matrix(1 0 0 1 -286 -134)"></text></g></g><g><rect fill="#ffffff" stroke="none" x="1001" y="259" width="0" height="13" transform="matrix(1 0 0 1 -286 -134)"/></g><g><g><path fill="none" stroke="none"/><text fill="#000000" stroke="none" font-family="Arial" font-size="13px" font-style="normal" font-weight="normal" text-decoration="undefined" x="1001" y="265.5" text-anchor="middle" dominant-baseline="central" transform="matrix(1 0 0 1 -286 -134)"></text></g></g><g><path fill="none" stroke="#000000" paint-order="fill stroke markers" d=" M 154 131 L 154 154 L 154 154 A 8 8 0 0 0 162 162 L 450 162 L 450 162 A 8 8 0 0 1 458 170 L 458 210" stroke-miterlimit="10" stroke-dasharray=""/></g><g><path fill="none" stroke="#000000" paint-order="fill stroke markers" d=" M 458 196 L 451 210" stroke-miterlimit="10" stroke-dasharray=""/></g><g><path fill="none" stroke="#000000" paint-order="fill stroke markers" d=" M 458 196 L 465 210" stroke-miterlimit="10" stroke-dasharray=""/></g><g><path fill="#FFFFFF" stroke="none" paint-order="stroke fill markers" d=" M 451 188 C 451 184.13400639999998 454.1340064 181 458 181 C 461.8659936 181 465 184.13400639999998 465 188 C 465 191.86599360000002 461.8659936 195 458 195 C 454.1340064 195 451 191.86599360000002 451 188 Z"/></g><g><path fill="none" stroke="#000000" paint-order="fill stroke markers" d=" M 451 188 C 451 184.13400639999998 454.1340064 181 458 181 C 461.8659936 181 465 184.13400639999998 465 188 C 465 191.86599360000002 461.8659936 195 458 195 C 454.1340064 195 451 191.86599360000002 451 188 Z" stroke-miterlimit="10" stroke-dasharray=""/></g><g><path fill="none" stroke="#000000" paint-order="fill stroke markers" d=" M 161 138 L 147 138" stroke-miterlimit="10" stroke-dasharray=""/></g><g><path fill="none" stroke="#000000" paint-order="fill stroke markers" d=" M 161 145 L 147 145" stroke-miterlimit="10" stroke-dasharray=""/></g><g><rect fill="#ffffff" stroke="none" x="455" y="284" width="0" height="13" transform="matrix(1 0 0 1 -286 -134)"/></g><g><g><path fill="none" stroke="none"/><text fill="#000000" stroke="none" font-family="Arial" font-size="13px" font-style="normal" font-weight="normal" text-decoration="undefined" x="455" y="290.5" text-anchor="middle" dominant-baseline="central" transform="matrix(1 0 0 1 -286 -134)"></text></g></g><g><rect fill="#ffffff" stroke="none" x="759" y="312" width="0" height="13" transform="matrix(1 0 0 1 -286 -134)"/></g><g><g><path fill="none" stroke="none"/><text fill="#000000" stroke="none" font-family="Arial" font-size="13px" font-style="normal" font-weight="normal" text-decoration="undefined" x="759" y="318.5" text-anchor="middle" dominant-baseline="central" transform="matrix(1 0 0 1 -286 -134)"></text></g></g></g></svg>