<svg version="1.1" xmlns="http://www.w3.org/2000/svg" xmlns:xlink="http://www.w3.org/1999/xlink" width="578.7890625" height="319"><defs/><g><g><rect fill="#C0C0C0" stroke="none" x="303" y="151" width="221.43896484375" height="136" transform="matrix(1 0 0 1 -286 -134)" fill-opacity="0.2"/></g><g><rect fill="#ffffff" stroke="none" x="296" y="144" width="221.43896484375" height="136" transform="matrix(1 0 0 1 -286 -134)"/></g><g><path fill="none" stroke="#000000" paint-order="fill stroke markers" d=" M 10 10 L 231.43896484375 10 L 231.43896484375 146 L 10 146 L 10 10 Z Z" stroke-miterlimit="10" stroke-dasharray=""/></g><g><path fill="none" stroke="#000000" paint-order="fill stroke markers" d=" M 10 33 L 231.43896484375 33" stroke-miterlimit="10" stroke-dasharray=""/></g><g><path fill="none" stroke="#000000" paint-order="fill stroke markers" d=" M 38.05908203125 33 L 38.05908203125 146" stroke-miterlimit="10" stroke-dasharray=""/></g><g><path fill="none" stroke="#000000" paint-order="fill stroke markers" d=" M 156.419921875 33 L 156.419921875 146" stroke-miterlimit="10" stroke-dasharray=""/></g><g><g><path fill="none" stroke="none"/><text fill="#000000" stroke="none" font-family="Arial" font-size="13px" font-style="normal" font-weight="bold" text-decoration="undefined" x="406.719482421875" y="155.5" text-anchor="middle" dominant-baseline="central" transform="matrix(1 0 0 1 -286 -134)">Flight</text></g></g><g><g><path fill="none" stroke="none"/><text fill="#000000" stroke="none" font-family="Arial" font-size="13px" font-style="normal" font-weight="normal" text-decoration="undefined" x="301" y="172" text-anchor="start" dominant-baseline="text-before-edge" transform="matrix(1 0 0 1 -286 -134)">PK</text></g></g><g><g><path fill="none" stroke="none"/><text fill="#000000" stroke="none" font-family="Arial" font-size="13px" font-style="normal" font-weight="normal" text-decoration="undefined" x="329.05908203125" y="172" text-anchor="start" dominant-baseline="text-before-edge" transform="matrix(1 0 0 1 -286 -134)">flight_id</text></g></g><g><g><path fill="none" stroke="none"/><text fill="#000000" stroke="none" font-family="Arial" font-size="13px" font-style="normal" font-weight="normal" text-decoration="undefined" x="447.419921875" y="172" text-anchor="start" dominant-baseline="text-before-edge" transform="matrix(1 0 0 1 -286 -134)">int</text></g></g><g><g><path fill="none" stroke="none"/><text fill="#000000" stroke="none" font-family="Arial" font-size="13px" font-style="normal" font-weight="normal" text-decoration="undefined" x="301" y="178.5" text-anchor="start" dominant-baseline="central" transform="matrix(1 0 0 1 -286 -134)"></text></g></g><g><g><path fill="none" stroke="none"/><text fill="#000000" stroke="none" font-family="Arial" font-size="13px" font-style="normal" font-weight="normal" text-decoration="undefined" x="301" y="187" text-anchor="start" dominant-baseline="text-before-edge" transform="matrix(1 0 0 1 -286 -134)"></text></g></g><g><g><path fill="none" stroke="none"/><text fill="#000000" stroke="none" font-family="Arial" font-size="13px" font-style="normal" font-weight="normal" text-decoration="undefined" x="329.05908203125" y="187" text-anchor="start" dominant-baseline="text-before-edge" transform="matrix(1 0 0 1 -286 -134)">departure_airport</text></g></g><g><g><path fill="none" stroke="none"/><text fill="#000000" stroke="none" font-family="Arial" font-size="13px" font-style="normal" font-weight="normal" text-decoration="undefined" x="447.419921875" y="187" text-anchor="start" dominant-baseline="text-before-edge" transform="matrix(1 0 0 1 -286 -134)">varchar</text></g></g><g><g><path fill="none" stroke="none"/><text fill="#000000" stroke="none" font-family="Arial" font-size="13px" font-style="normal" font-weight="normal" text-decoration="undefined" x="301" y="193.5" text-anchor="start" dominant-baseline="central" transform="matrix(1 0 0 1 -286 -134)"></text></g></g><g><g><path fill="none" stroke="none"/><text fill="#000000" stroke="none" font-family="Arial" font-size="13px" font-style="normal" font-weight="normal" text-decoration="undefined" x="301" y="202" text-anchor="start" dominant-baseline="text-before-edge" transform="matrix(1 0 0 1 -286 -134)"></text></g></g><g><g><path fill="none" stroke="none"/><text fill="#000000" stroke="none" font-family="Arial" font-size="13px" font-style="normal" font-weight="normal" text-decoration="undefined" x="329.05908203125" y="202" text-anchor="start" dominant-baseline="text-before-edge" transform="matrix(1 0 0 1 -286 -134)">arrival_airport</text></g></g><g><g><path fill="none" stroke="none"/><text fill="#000000" stroke="none" font-family="Arial" font-size="13px" font-style="normal" font-weight="normal" text-decoration="undefined" x="447.419921875" y="202" text-anchor="start" dominant-baseline="text-before-edge" transform="matrix(1 0 0 1 -286 -134)">varchar</text></g></g><g><g><path fill="none" stroke="none"/><text fill="#000000" stroke="none" font-family="Arial" font-size="13px" font-style="normal" font-weight="normal" text-decoration="undefined" x="301" y="208.5" text-anchor="start" dominant-baseline="central" transform="matrix(1 0 0 1 -286 -134)"></text></g></g><g><g><path fill="none" stroke="none"/><text fill="#000000" stroke="none" font-family="Arial" font-size="13px" font-style="normal" font-weight="normal" text-decoration="undefined" x="301" y="217" text-anchor="start" dominant-baseline="text-before-edge" transform="matrix(1 0 0 1 -286 -134)"></text></g></g><g><g><path fill="none" stroke="none"/><text fill="#000000" stroke="none" font-family="Arial" font-size="13px" font-style="normal" font-weight="normal" text-decoration="undefined" x="329.05908203125" y="217" text-anchor="start" dominant-baseline="text-before-edge" transform="matrix(1 0 0 1 -286 -134)">departure_time</text></g></g><g><g><path fill="none" stroke="none"/><text fill="#000000" stroke="none" font-family="Arial" font-size="13px" font-style="normal" font-weight="normal" text-decoration="undefined" x="447.419921875" y="217" text-anchor="start" dominant-baseline="text-before-edge" transform="matrix(1 0 0 1 -286 -134)">timestamp</text></g></g><g><g><path fill="none" stroke="none"/><text fill="#000000" stroke="none" font-family="Arial" font-size="13px" font-style="normal" font-weight="normal" text-decoration="undefined" x="301" y="223.5" text-anchor="start" dominant-baseline="central" transform="matrix(1 0 0 1 -286 -134)"></text></g></g><g><g><path fill="none" stroke="none"/><text fill="#000000" stroke="none" font-family="Arial" font-size="13px" font-style="normal" font-weight="normal" text-decoration="undefined" x="301" y="232" text-anchor="start" dominant-baseline="text-before-edge" transform="matrix(1 0 0 1 -286 -134)"></text></g></g><g><g><path fill="none" stroke="none"/><text fill="#000000" stroke="none" font-family="Arial" font-size="13px" font-style="normal" font-weight="normal" text-decoration="undefined" x="329.05908203125" y="232" text-anchor="start" dominant-baseline="text-before-edge" transform="matrix(1 0 0 1 -286 -134)">arrival_time</text></g></g><g><g><path fill="none" stroke="none"/><text fill="#000000" stroke="none" font-family="Arial" font-size="13px" font-style="normal" font-weight="normal" text-decoration="undefined" x="447.419921875" y="232" text-anchor="start" dominant-baseline="text-before-edge" transform="matrix(1 0 0 1 -286 -134)">timestamp</text></g></g><g><g><path fill="none" stroke="none"/><text fill="#000000" stroke="none" font-family="Arial" font-size="13px" font-style="normal" font-weight="normal" text-decoration="undefined" x="301" y="238.5" text-anchor="start" dominant-baseline="central" transform="matrix(1 0 0 1 -286 -134)"></text></g></g><g><g><path fill="none" stroke="none"/><text fill="#000000" stroke="none" font-family="Arial" font-size="13px" font-style="normal" font-weight="normal" text-decoration="undefined" x="301" y="247" text-anchor="start" dominant-baseline="text-before-edge" transform="matrix(1 0 0 1 -286 -134)"></text></g></g><g><g><path fill="none" stroke="none"/><text fill="#000000" stroke="none" font-family="Arial" font-size="13px" font-style="normal" font-weight="normal" text-decoration="undefined" x="329.05908203125" y="247" text-anchor="start" dominant-baseline="text-before-edge" transform="matrix(1 0 0 1 -286 -134)">aircraft</text></g></g><g><g><path fill="none" stroke="none"/><text fill="#000000" stroke="none" font-family="Arial" font-size="13px" font-style="normal" font-weight="normal" text-decoration="undefined" x="447.419921875" y="247" text-anchor="start" dominant-baseline="text-before-edge" transform="matrix(1 0 0 1 -286 -134)">varchar</text></g></g><g><g><path fill="none" stroke="none"/><text fill="#000000" stroke="none" font-family="Arial" font-size="13px" font-style="normal" font-weight="normal" text-decoration="undefined" x="301" y="253.5" text-anchor="start" dominant-baseline="central" transform="matrix(1 0 0 1 -286 -134)"></text></g></g><g><g><path fill="none" stroke="none"/><text fill="#000000" stroke="none" font-family="Arial" font-size="13px" font-style="normal" font-weight="normal" text-decoration="undefined" x="301" y="262" text-anchor="start" dominant-baseline="text-before-edge" transform="matrix(1 0 0 1 -286 -134)"></text></g></g><g><g><path fill="none" stroke="none"/><text fill="#000000" stroke="none" font-family="Arial" font-size="13px" font-style="normal" font-weight="normal" text-decoration="undefined" x="329.05908203125" y="262" text-anchor="start" dominant-baseline="text-before-edge" transform="matrix(1 0 0 1 -286 -134)">base_price</text></g></g><g><g><path fill="none" stroke="none"/><text fill="#000000" stroke="none" font-family="Arial" font-size="13px" font-style="normal" font-weight="normal" text-decoration="undefined" x="447.419921875" y="262" text-anchor="start" dominant-baseline="text-before-edge" transform="matrix(1 0 0 1 -286 -134)">int</text></g></g><g><g><path fill="none" stroke="none"/><text fill="#000000" stroke="none" font-family="Arial" font-size="13px" font-style="normal" font-weight="normal" text-decoration="undefined" x="301" y="268.5" text-anchor="start" dominant-baseline="central" transform="matrix(1 0 0 1 -286 -134)"></text></g></g><g><rect fill="#C0C0C0" stroke="none" x="631" y="167" width="230.7890625" height="106" transform="matrix(1 0 0 1 -286 -134)" fill-opacity="0.2"/></g><g><rect fill="#ffffff" stroke="none" x="624" y="160" width="230.7890625" height="106" transform="matrix(1 0 0 1 -286 -134)"/></g><g><path fill="none" stroke="#000000" paint-order="fill stroke markers" d=" M 338 26 L 568.7890625 26 L 568.7890625 132 L 338 132 L 338 26 Z Z" stroke-miterlimit="10" stroke-dasharray=""/></g><g><path fill="none" stroke="#000000" paint-order="fill stroke markers" d=" M 338 49 L 568.7890625 49" stroke-miterlimit="10" stroke-dasharray=""/></g><g><path fill="none" stroke="#000000" paint-order="fill stroke markers" d=" M 366.05908203125 49 L 366.05908203125 132" stroke-miterlimit="10" stroke-dasharray=""/></g><g><path fill="none" stroke="#000000" paint-order="fill stroke markers" d=" M 483.67724609375 49 L 483.67724609375 132" stroke-miterlimit="10" stroke-dasharray=""/></g><g><g><path fill="none" stroke="none"/><text fill="#000000" stroke="none" font-family="Arial" font-size="13px" font-style="normal" font-weight="bold" text-decoration="undefined" x="739.39453125" y="171.5" text-anchor="middle" dominant-baseline="central" transform="matrix(1 0 0 1 -286 -134)">Booking</text></g></g><g><g><path fill="none" stroke="none"/><text fill="#000000" stroke="none" font-family="Arial" font-size="13px" font-style="normal" font-weight="normal" text-decoration="undefined" x="629" y="188" text-anchor="start" dominant-baseline="text-before-edge" transform="matrix(1 0 0 1 -286 -134)">PK</text></g></g><g><g><path fill="none" stroke="none"/><text fill="#000000" stroke="none" font-family="Arial" font-size="13px" font-style="normal" font-weight="normal" text-decoration="undefined" x="657.05908203125" y="188" text-anchor="start" dominant-baseline="text-before-edge" transform="matrix(1 0 0 1 -286 -134)">booking_no</text></g></g><g><g><path fill="none" stroke="none"/><text fill="#000000" stroke="none" font-family="Arial" font-size="13px" font-style="normal" font-weight="normal" text-decoration="undefined" x="774.67724609375" y="188" text-anchor="start" dominant-baseline="text-before-edge" transform="matrix(1 0 0 1 -286 -134)">varchar</text></g></g><g><g><path fill="none" stroke="none"/><text fill="#000000" stroke="none" font-family="Arial" font-size="13px" font-style="normal" font-weight="normal" text-decoration="undefined" x="629" y="194.5" text-anchor="start" dominant-baseline="central" transform="matrix(1 0 0 1 -286 -134)"></text></g></g><g><g><path fill="none" stroke="none"/><text fill="#000000" stroke="none" font-family="Arial" font-size="13px" font-style="normal" font-weight="normal" text-decoration="undefined" x="629" y="203" text-anchor="start" dominant-baseline="text-before-edge" transform="matrix(1 0 0 1 -286 -134)"></text></g></g><g><g><path fill="none" stroke="none"/><text fill="#000000" stroke="none" font-family="Arial" font-size="13px" font-style="normal" font-weight="normal" text-decoration="undefined" x="657.05908203125" y="203" text-anchor="start" dominant-baseline="text-before-edge" transform="matrix(1 0 0 1 -286 -134)">email</text></g></g><g><g><path fill="none" stroke="none"/><text fill="#000000" stroke="none" font-family="Arial" font-size="13px" font-style="normal" font-weight="normal" text-decoration="undefined" x="774.67724609375" y="203" text-anchor="start" dominant-baseline="text-before-edge" transform="matrix(1 0 0 1 -286 -134)">varchar</text></g></g><g><g><path fill="none" stroke="none"/><text fill="#000000" stroke="none" font-family="Arial" font-size="13px" font-style="normal" font-weight="normal" text-decoration="undefined" x="629" y="209.5" text-anchor="start" dominant-baseline="central" transform="matrix(1 0 0 1 -286 -134)"></text></g></g><g><g><path fill="none" stroke="none"/><text fill="#000000" stroke="none" font-family="Arial" font-size="13px" font-style="normal" font-weight="normal" text-decoration="undefined" x="629" y="218" text-anchor="start" dominant-baseline="text-before-edge" transform="matrix(1 0 0 1 -286 -134)"></text></g></g><g><g><path fill="none" stroke="none"/><text fill="#000000" stroke="none" font-family="Arial" font-size="13px" font-style="normal" font-weight="normal" text-decoration="undefined" x="657.05908203125" y="218" text-anchor="start" dominant-baseline="text-before-edge" transform="matrix(1 0 0 1 -286 -134)">priority_boarding</text></g></g><g><g><path fill="none" stroke="none"/><text fill="#000000" stroke="none" font-family="Arial" font-size="13px" font-style="normal" font-weight="normal" text-decoration="undefined" x="774.67724609375" y="218" text-anchor="start" dominant-baseline="text-before-edge" transform="matrix(1 0 0 1 -286 -134)">boolean</text></g></g><g><g><path fill="none" stroke="none"/><text fill="#000000" stroke="none" font-family="Arial" font-size="13px" font-style="normal" font-weight="normal" text-decoration="undefined" x="629" y="224.5" text-anchor="start" dominant-baseline="central" transform="matrix(1 0 0 1 -286 -134)"></text></g></g><g><g><path fill="none" stroke="none"/><text fill="#000000" stroke="none" font-family="Arial" font-size="13px" font-style="normal" font-weight="normal" text-decoration="undefined" x="629" y="233" text-anchor="start" dominant-baseline="text-before-edge" transform="matrix(1 0 0 1 -286 -134)"></text></g></g><g><g><path fill="none" stroke="none"/><text fill="#000000" stroke="none" font-family="Arial" font-size="13px" font-style="normal" font-weight="normal" text-decoration="undefined" x="657.05908203125" y="233" text-anchor="start" dominant-baseline="text-before-edge" transform="matrix(1 0 0 1 -286 -134)">luggage_amount</text></g></g><g><g><path fill="none" stroke="none"/><text fill="#000000" stroke="none" font-family="Arial" font-size="13px" font-style="normal" font-weight="normal" text-decoration="undefined" x="774.67724609375" y="233" text-anchor="start" dominant-baseline="text-before-edge" transform="matrix(1 0 0 1 -286 -134)">int</text></g></g><g><g><path fill="none" stroke="none"/><text fill="#000000" stroke="none" font-family="Arial" font-size="13px" font-style="normal" font-weight="normal" text-decoration="undefined" x="629" y="239.5" text-anchor="start" dominant-baseline="central" transform="matrix(1 0 0 1 -286 -134)"></text></g></g><g><g><path fill="none" stroke="none"/><text fill="#000000" stroke="none" font-family="Arial" font-size="13px" font-style="normal" font-weight="normal" text-decoration="undefined" x="629" y="248" text-anchor="start" dominant-baseline="text-before-edge" transform="matrix(1 0 0 1 -286 -134)"></text></g></g><g><g><path fill="none" stroke="none"/><text fill="#000000" stroke="none" font-family="Arial" font-size="13px" font-style="normal" font-weight="normal" text-decoration="undefined" x="657.05908203125" y="248" text-anchor="start" dominant-baseline="text-before-edge" transform="matrix(1 0 0 1 -286 -134)">tier</text></g></g><g><g><path fill="none" stroke="none"/><text fill="#000000" stroke="none" font-family="Arial" font-size="13px" font-style="normal" font-weight="normal" text-decoration="undefined" x="774.67724609375" y="248" text-anchor="start" dominant-baseline="text-before-edge" transform="matrix(1 0 0 1 -286 -134)">varchar</text></g></g><g><g><path fill="none" stroke="none"/><text fill="#000000" stroke="none" font-family="Arial" font-size="13px" font-style="normal" font-weight="normal" text-decoration="undefined" x="629" y="254.5" text-anchor="start" dominant-baseline="central" transform="matrix(1 0 0 1 -286 -134)"></text></g></g><g><rect fill="#C0C0C0" stroke="none" x="647" y="359" width="191.84619140625" height="91" transform="matrix(1 0 0 1 -286 -134)" fill-opacity="0.2"/></g><g><rect fill="#ffffff" stroke="none" x="640" y="352" width="191.84619140625" height="91" transform="matrix(1 0 0 1 -286 -134)"/></g><g><path fill="none" stroke="#000000" paint-order="fill stroke markers" d=" M 354 218 L 545.84619140625 218 L 545.84619140625 309 L 354 309 L 354 218 Z Z" stroke-miterlimit="10" stroke-dasharray=""/></g><g><path fill="none" stroke="#000000" paint-order="fill stroke markers" d=" M 354 241 L 545.84619140625 241" stroke-miterlimit="10" stroke-dasharray=""/></g><g><path fill="none" stroke="#000000" paint-order="fill stroke markers" d=" M 382.05908203125 241 L 382.05908203125 309" stroke-miterlimit="10" stroke-dasharray=""/></g><g><path fill="none" stroke="#000000" paint-order="fill stroke markers" d=" M 475.87353515625 241 L 475.87353515625 309" stroke-miterlimit="10" stroke-dasharray=""/></g><g><g><path fill="none" stroke="none"/><text fill="#000000" stroke="none" font-family="Arial" font-size="13px" font-style="normal" font-weight="bold" text-decoration="undefined" x="735.923095703125" y="363.5" text-anchor="middle" dominant-baseline="central" transform="matrix(1 0 0 1 -286 -134)">Passenger</text></g></g><g><g><path fill="none" stroke="none"/><text fill="#000000" stroke="none" font-family="Arial" font-size="13px" font-style="normal" font-weight="normal" text-decoration="undefined" x="645" y="380" text-anchor="start" dominant-baseline="text-before-edge" transform="matrix(1 0 0 1 -286 -134)">PK</text></g></g><g><g><path fill="none" stroke="none"/><text fill="#000000" stroke="none" font-family="Arial" font-size="13px" font-style="normal" font-weight="normal" text-decoration="undefined" x="673.05908203125" y="380" text-anchor="start" dominant-baseline="text-before-edge" transform="matrix(1 0 0 1 -286 -134)">passenger_id</text></g></g><g><g><path fill="none" stroke="none"/><text fill="#000000" stroke="none" font-family="Arial" font-size="13px" font-style="normal" font-weight="normal" text-decoration="undefined" x="766.87353515625" y="380" text-anchor="start" dominant-baseline="text-before-edge" transform="matrix(1 0 0 1 -286 -134)">int</text></g></g><g><g><path fill="none" stroke="none"/><text fill="#000000" stroke="none" font-family="Arial" font-size="13px" font-style="normal" font-weight="normal" text-decoration="undefined" x="645" y="386.5" text-anchor="start" dominant-baseline="central" transform="matrix(1 0 0 1 -286 -134)"></text></g></g><g><g><path fill="none" stroke="none"/><text fill="#000000" stroke="none" font-family="Arial" font-size="13px" font-style="normal" font-weight="normal" text-decoration="undefined" x="645" y="395" text-anchor="start" dominant-baseline="text-before-edge" transform="matrix(1 0 0 1 -286 -134)"></text></g></g><g><g><path fill="none" stroke="none"/><text fill="#000000" stroke="none" font-family="Arial" font-size="13px" font-style="normal" font-weight="normal" text-decoration="undefined" x="673.05908203125" y="395" text-anchor="start" dominant-baseline="text-before-edge" transform="matrix(1 0 0 1 -286 -134)">first_name</text></g></g><g><g><path fill="none" stroke="none"/><text fill="#000000" stroke="none" font-family="Arial" font-size="13px" font-style="normal" font-weight="normal" text-decoration="undefined" x="766.87353515625" y="395" text-anchor="start" dominant-baseline="text-before-edge" transform="matrix(1 0 0 1 -286 -134)">varchar</text></g></g><g><g><path fill="none" stroke="none"/><text fill="#000000" stroke="none" font-family="Arial" font-size="13px" font-style="normal" font-weight="normal" text-decoration="undefined" x="645" y="401.5" text-anchor="start" dominant-baseline="central" transform="matrix(1 0 0 1 -286 -134)"></text></g></g><g><g><path fill="none" stroke="none"/><text fill="#000000" stroke="none" font-family="Arial" font-size="13px" font-style="normal" font-weight="normal" text-decoration="undefined" x="645" y="410" text-anchor="start" dominant-baseline="text-before-edge" transform="matrix(1 0 0 1 -286 -134)"></text></g></g><g><g><path fill="none" stroke="none"/><text fill="#000000" stroke="none" font-family="Arial" font-size="13px" font-style="normal" font-weight="normal" text-decoration="undefined" x="673.05908203125" y="410" text-anchor="start" dominant-baseline="text-before-edge" transform="matrix(1 0 0 1 -286 -134)">last_name</text></g></g><g><g><path fill="none" stroke="none"/><text fill="#000000" stroke="none" font-family="Arial" font-size="13px" font-style="normal" font-weight="normal" text-decoration="undefined" x="766.87353515625" y="410" text-anchor="start" dominant-baseline="text-before-edge" transform="matrix(1 0 0 1 -286 -134)">varchar</text></g></g><g><g><path fill="none" stroke="none"/><text fill="#000000" stroke="none" font-family="Arial" font-size="13px" font-style="normal" font-weight="normal" text-decoration="undefined" x="645" y="416.5" text-anchor="start" dominant-baseline="central" transform="matrix(1 0 0 1 -286 -134)"></text></g></g><g><g><path fill="none" stroke="none"/><text fill="#000000" stroke="none" font-family="Arial" font-size="13px" font-style="normal" font-weight="normal" text-decoration="undefined" x="645" y="425" text-anchor="start" dominant-baseline="text-before-edge" transform="matrix(1 0 0 1 -286 -134)"></text></g></g><g><g><path fill="none" stroke="none"/><text fill="#000000" stroke="none" font-family="Arial" font-size="13px" font-style="normal" font-weight="normal" text-decoration="undefined" x="673.05908203125" y="425" text-anchor="start" dominant-baseline="text-before-edge" transform="matrix(1 0 0 1 -286 -134)">title</text></g></g><g><g><path fill="none" stroke="none"/><text fill="#000000" stroke="none" font-family="Arial" font-size="13px" font-style="normal" font-weight="normal" text-decoration="undefined" x="766.87353515625" y="425" text-anchor="start" dominant-baseline="text-before-edge" transform="matrix(1 0 0 1 -286 -134)">varchar</text></g></g><g><g><path fill="none" stroke="none"/><text fill="#000000" stroke="none" font-family="Arial" font-size="13px" font-style="normal" font-weight="normal" text-decoration="undefined" x="645" y="431.5" text-anchor="start" dominant-baseline="central" transform="matrix(1 0 0 1 -286 -134)"></text></g></g><g><path fill="none" stroke="#000000" paint-order="fill stroke markers" d=" M 231 74 L 338 74" stroke-miterlimit="10" stroke-dasharray=""/></g><g><path fill="none" stroke="#000000" paint-order="fill stroke markers" d=" M 324 74 L 338 81" stroke-miterlimit="10" stroke-dasharray=""/></g><g><path fill="none" stroke="#000000" paint-order="fill stroke markers" d=" M 324 74 L 338 67" stroke-miterlimit="10" stroke-dasharray=""/></g><g><path fill="#FFFFFF" stroke="none" paint-order="stroke fill markers" d=" M 309 74 C 309 70.1340064 312.1340064 67 316 67 C 319.8659936 67 323 70.1340064 323 74 C 323 77.8659936 319.8659936 81 316 81 C 312.1340064 81 309 77.8659936 309 74 Z"/></g><g><path fill="none" stroke="#000000" paint-order="fill stroke markers" d=" M 309 74 C 309 70.1340064 312.1340064 67 316 67 C 319.8659936 67 323 70.1340064 323 74 C 323 77.8659936 319.8659936 81 316 81 C 312.1340064 81 309 77.8659936 309 74 Z" stroke-miterlimit="10" stroke-dasharray=""/></g><g><path fill="none" stroke="#000000" paint-order="fill stroke markers" d=" M 245 74 L 231 67" stroke-miterlimit="10" stroke-dasharray=""/></g><g><path fill="none" stroke="#000000" paint-order="fill stroke markers" d=" M 245 74 L 231 81" stroke-miterlimit="10" stroke-dasharray=""/></g><g><path fill="#FFFFFF" stroke="none" paint-order="stroke fill markers" d=" M 246 74 C 246 70.1340064 249.13400639999998 67 253 67 C 256.8659936 67 260 70.1340064 260 74 C 260 77.8659936 256.8659936 81 253 81 C 249.13400639999998 81 246 77.8659936 246 74 Z"/></g><g><path fill="none" stroke="#000000" paint-order="fill stroke markers" d=" M 246 74 C 246 70.1340064 249.13400639999998 67 253 67 C 256.8659936 67 260 70.1340064 260 74 C 260 77.8659936 256.8659936 81 253 81 C 249.13400639999998 81 246 77.8659936 246 74 Z" stroke-miterlimit="10" stroke-dasharray=""/></g><g><rect fill="#ffffff" stroke="none" x="542" y="187" width="0" height="13" transform="matrix(1 0 0 1 -286 -134)"/></g><g><g><path fill="none" stroke="none"/><text fill="#000000" stroke="none" font-family="Arial" font-size="13px" font-style="normal" font-weight="normal" text-decoration="undefined" x="542" y="193.5" text-anchor="middle" dominant-baseline="central" transform="matrix(1 0 0 1 -286 -134)"></text></g></g><g><rect fill="#ffffff" stroke="none" x="598" y="187" width="0" height="13" transform="matrix(1 0 0 1 -286 -134)"/></g><g><g><path fill="none" stroke="none"/><text fill="#000000" stroke="none" font-family="Arial" font-size="13px" font-style="normal" font-weight="normal" text-decoration="undefined" x="598" y="193.5" text-anchor="middle" dominant-baseline="central" transform="matrix(1 0 0 1 -286 -134)"></text></g></g><g><path fill="none" stroke="#000000" paint-order="fill stroke markers" d=" M 449 132 L 449 218" stroke-miterlimit="10" stroke-dasharray=""/></g><g><path fill="none" stroke="#000000" paint-order="fill stroke markers" d=" M 449 204 L 442 218" stroke-miterlimit="10" stroke-dasharray=""/></g><g><path fill="none" stroke="#000000" paint-order="fill stroke markers" d=" M 449 204 L 456 218" stroke-miterlimit="10" stroke-dasharray=""/></g><g><path fill="#FFFFFF" stroke="none" paint-order="stroke fill markers" d=" M 442 196 C 442 192.13400639999998 445.1340064 189 449 189 C 452.8659936 189 456 192.13400639999998 456 196 C 456 199.86599360000002 452.8659936 203 449 203 C 445.1340064 203 442 199.86599360000002 442 196 Z"/></g><g><path fill="none" stroke="#000000" paint-order="fill stroke markers" d=" M 442 196 C 442 192.13400639999998 445.1340064 189 449 189 C 452.8659936 189 456 192.13400639999998 456 196 C 456 199.86599360000002 452.8659936 203 449 203 C 445.1340064 203 442 199.86599360000002 442 196 Z" stroke-miterlimit="10" stroke-dasharray=""/></g><g><path fill="none" stroke="#000000" paint-order="fill stroke markers" d=" M 456 139 L 442 139" stroke-miterlimit="10" stroke-dasharray=""/></g><g><path fill="none" stroke="#000000" paint-order="fill stroke markers" d=" M 456 146 L 442 146" stroke-miterlimit="10" stroke-dasharray=""/></g><g><rect fill="#ffffff" stroke="none" x="750" y="285" width="0" height="13" transform="matrix(1 0 0 1 -286 -134)"/></g><g><g><path fill="none" stroke="none"/><text fill="#000000" stroke="none" font-family="Arial" font-size="13px" font-style="normal" font-weight="normal" text-decoration="undefined" x="750" y="291.5" text-anchor="middle" dominant-baseline="central" transform="matrix(1 0 0 1 -286 -134)"></text></g></g><g><rect fill="#ffffff" stroke="none" x="750" y="320" width="0" height="13" transform="matrix(1 0 0 1 -286 -134)"/></g><g><g><path fill="none" stroke="none"/><text fill="#000000" stroke="none" font-family="Arial" font-size="13px" font-style="normal" font-weight="normal" text-decoration="undefined" x="750" y="326.5" text-anchor="middle" dominant-baseline="central" transform="matrix(1 0 0 1 -286 -134)"></text></g></g><g><rect fill="#C0C0C0" stroke="none" x="311" y="375" width="193.97265625" height="61" transform="matrix(1 0 0 1 -286 -134)" fill-opacity="0.2"/></g><g><rect fill="#ffffff" stroke="none" x="304" y="368" width="193.97265625" height="61" transform="matrix(1 0 0 1 -286 -134)"/></g><g><path fill="none" stroke="#000000" paint-order="fill stroke markers" d=" M 18 234 L 211.97265625 234 L 211.97265625 295 L 18 295 L 18 234 Z Z" stroke-miterlimit="10" stroke-dasharray=""/></g><g><path fill="none" stroke="#000000" paint-order="fill stroke markers" d=" M 18 257 L 211.97265625 257" stroke-miterlimit="10" stroke-dasharray=""/></g><g><path fill="none" stroke="#000000" paint-order="fill stroke markers" d=" M 46.05908203125 257 L 46.05908203125 295" stroke-miterlimit="10" stroke-dasharray=""/></g><g><path fill="none" stroke="#000000" paint-order="fill stroke markers" d=" M 105.18994140625 257 L 105.18994140625 295" stroke-miterlimit="10" stroke-dasharray=""/></g><g><g><path fill="none" stroke="none"/><text fill="#000000" stroke="none" font-family="Arial" font-size="13px" font-style="normal" font-weight="bold" text-decoration="undefined" x="400.986328125" y="379.5" text-anchor="middle" dominant-baseline="central" transform="matrix(1 0 0 1 -286 -134)">Seat</text></g></g><g><g><path fill="none" stroke="none"/><text fill="#000000" stroke="none" font-family="Arial" font-size="13px" font-style="normal" font-weight="normal" text-decoration="undefined" x="309" y="396" text-anchor="start" dominant-baseline="text-before-edge" transform="matrix(1 0 0 1 -286 -134)">PK</text></g></g><g><g><path fill="none" stroke="none"/><text fill="#000000" stroke="none" font-family="Arial" font-size="13px" font-style="normal" font-weight="normal" text-decoration="undefined" x="337.05908203125" y="396" text-anchor="start" dominant-baseline="text-before-edge" transform="matrix(1 0 0 1 -286 -134)">seat_no</text></g></g><g><g><path fill="none" stroke="none"/><text fill="#000000" stroke="none" font-family="Arial" font-size="13px" font-style="normal" font-weight="normal" text-decoration="undefined" x="396.18994140625" y="396" text-anchor="start" dominant-baseline="text-before-edge" transform="matrix(1 0 0 1 -286 -134)">varchar</text></g></g><g><g><path fill="none" stroke="none"/><text fill="#000000" stroke="none" font-family="Arial" font-size="13px" font-style="normal" font-weight="normal" text-decoration="undefined" x="309" y="402.5" text-anchor="start" dominant-baseline="central" transform="matrix(1 0 0 1 -286 -134)"></text></g></g><g><g><path fill="none" stroke="none"/><text fill="#000000" stroke="none" font-family="Arial" font-size="13px" font-style="normal" font-weight="normal" text-decoration="undefined" x="309" y="411" text-anchor="start" dominant-baseline="text-before-edge" transform="matrix(1 0 0 1 -286 -134)"></text></g></g><g><g><path fill="none" stroke="none"/><text fill="#000000" stroke="none" font-family="Arial" font-size="13px" font-style="normal" font-weight="normal" text-decoration="undefined" x="337.05908203125" y="411" text-anchor="start" dominant-baseline="text-before-edge" transform="matrix(1 0 0 1 -286 -134)">class</text></g></g><g><g><path fill="none" stroke="none"/><text fill="#000000" stroke="none" font-family="Arial" font-size="13px" font-style="normal" font-weight="normal" text-decoration="undefined" x="396.18994140625" y="411" text-anchor="start" dominant-baseline="text-before-edge" transform="matrix(1 0 0 1 -286 -134)">varchar</text></g></g><g><g><path fill="none" stroke="none"/><text fill="#000000" stroke="none" font-family="Arial" font-size="13px" font-style="normal" font-weight="normal" text-decoration="undefined" x="309" y="417.5" text-anchor="start" dominant-baseline="central" transform="matrix(1 0 0 1 -286 -134)"></text></g></g><g><path fill="none" stroke="#000000" paint-order="fill stroke markers" d=" M 114 146 L 114 234" stroke-miterlimit="10" stroke-dasharray=""/></g><g><path fill="none" stroke="#000000" paint-order="fill stroke markers" d=" M 114 220 L 107 234" stroke-miterlimit="10" stroke-dasharray=""/></g><g><path fill="none" stroke="#000000" paint-order="fill stroke markers" d=" M 114 220 L 121 234" stroke-miterlimit="10" stroke-dasharray=""/></g><g><path fill="#FFFFFF" stroke="none" paint-order="stroke fill markers" d=" M 107 212 C 107 208.13400639999998 110.13400639999998 205 114 205 C 117.86599360000002 205 121 208.13400639999998 121 212 C 121 215.86599360000002 117.86599360000002 219 114 219 C 110.13400639999998 219 107 215.86599360000002 107 212 Z"/></g><g><path fill="none" stroke="#000000" paint-order="fill stroke markers" d=" M 107 212 C 107 208.13400639999998 110.13400639999998 205 114 205 C 117.86599360000002 205 121 208.13400639999998 121 212 C 121 215.86599360000002 117.86599360000002 219 114 219 C 110.13400639999998 219 107 215.86599360000002 107 212 Z" stroke-miterlimit="10" stroke-dasharray=""/></g><g><path fill="none" stroke="#000000" paint-order="fill stroke markers" d=" M 121 153 L 107 153" stroke-miterlimit="10" stroke-dasharray=""/></g><g><path fill="none" stroke="#000000" paint-order="fill stroke markers" d=" M 121 160 L 107 160" stroke-miterlimit="10" stroke-dasharray=""/></g><g><rect fill="#ffffff" stroke="none" x="415" y="299" width="0" height="13" transform="matrix(1 0 0 1 -286 -134)"/></g><g><g><path fill="none" stroke="none"/><text fill="#000000" stroke="none" font-family="Arial" font-size="13px" font-style="normal" font-weight="normal" text-decoration="undefined" x="415" y="305.5" text-anchor="middle" dominant-baseline="central" transform="matrix(1 0 0 1 -286 -134)"></text></g></g><g><rect fill="#ffffff" stroke="none" x="415" y="336" width="0" height="13" transform="matrix(1 0 0 1 -286 -134)"/></g><g><g><path fill="none" stroke="none"/><text fill="#000000" stroke="none" font-family="Arial" font-size="13px" font-style="normal" font-weight="normal" text-decoration="undefined" x="415" y="342.5" text-anchor="middle" dominant-baseline="central" transform="matrix(1 0 0 1 -286 -134)"></text></g></g><g><path fill="none" stroke="#000000" paint-order="fill stroke markers" d=" M 212 264 L 354 264" stroke-miterlimit="10" stroke-dasharray=""/></g><g><path fill="none" stroke="#000000" paint-order="fill stroke markers" d=" M 340 264 L 354 271" stroke-miterlimit="10" stroke-dasharray=""/></g><g><path fill="none" stroke="#000000" paint-order="fill stroke markers" d=" M 340 264 L 354 257" stroke-miterlimit="10" stroke-dasharray=""/></g><g><path fill="#FFFFFF" stroke="none" paint-order="stroke fill markers" d=" M 325 264 C 325 260.1340064 328.1340064 257 332 257 C 335.8659936 257 339 260.1340064 339 264 C 339 267.8659936 335.8659936 271 332 271 C 328.1340064 271 325 267.8659936 325 264 Z"/></g><g><path fill="none" stroke="#000000" paint-order="fill stroke markers" d=" M 325 264 C 325 260.1340064 328.1340064 257 332 257 C 335.8659936 257 339 260.1340064 339 264 C 339 267.8659936 335.8659936 271 332 271 C 328.1340064 271 325 267.8659936 325 264 Z" stroke-miterlimit="10" stroke-dasharray=""/></g><g><path fill="none" stroke="#000000" paint-order="fill stroke markers" d=" M 219 257 L 219 271" stroke-miterlimit="10" stroke-dasharray=""/></g><g><path fill="none" stroke="#000000" paint-order="fill stroke markers" d=" M 226 257 L 226 271" stroke-miterlimit="10" stroke-dasharray=""/></g><g><rect fill="#ffffff" stroke="none" x="523" y="377" width="0" height="13" transform="matrix(1 0 0 1 -286 -134)"/></g><g><g><path fill="none" stroke="none"/><text fill="#000000" stroke="none" font-family="Arial" font-size="13px" font-style="normal" font-weight="normal" text-decoration="undefined" x="523" y="383.5" text-anchor="middle" dominant-baseline="central" transform="matrix(1 0 0 1 -286 -134)"></text></g></g><g><rect fill="#ffffff" stroke="none" x="614" y="377" width="0" height="13" transform="matrix(1 0 0 1 -286 -134)"/></g><g><g><path fill="none" stroke="none"/><text fill="#000000" stroke="none" font-family="Arial" font-size="13px" font-style="normal" font-weight="normal" text-decoration="undefined" x="614" y="383.5" text-anchor="middle" dominant-baseline="central" transform="matrix(1 0 0 1 -286 -134)"></text></g></g></g></svg>