<svg version="1.1" xmlns="http://www.w3.org/2000/svg" xmlns:xlink="http://www.w3.org/1999/xlink" width="739.79345703125" height="348"><defs/><g><g><rect fill="#C0C0C0" stroke="none" x="279" y="583" width="126.8017578125" height="66" transform="matrix(1 0 0 1 -262 -470)" fill-opacity="0.2"/></g><g><rect fill="#ffffff" stroke="none" x="272" y="576" width="126.8017578125" height="66" transform="matrix(1 0 0 1 -262 -470)"/></g><g><path fill="none" stroke="#000000" paint-order="fill stroke markers" d=" M 10 106 L 136.8017578125 106 L 136.8017578125 172 L 10 172 L 10 106 Z Z" stroke-miterlimit="10" stroke-dasharray=""/></g><g><path fill="none" stroke="#000000" paint-order="fill stroke markers" d=" M 10 129 L 136.8017578125 129" stroke-miterlimit="10" stroke-dasharray=""/></g><g><path fill="none" stroke="#000000" paint-order="fill stroke markers" d=" M 38.05908203125 129 L 38.05908203125 172" stroke-miterlimit="10" stroke-dasharray=""/></g><g><path fill="none" stroke="#000000" paint-order="fill stroke markers" d=" M 110.919921875 129 L 110.919921875 172" stroke-miterlimit="10" stroke-dasharray=""/></g><g><g><path fill="none" stroke="none"/><text fill="#000000" stroke="none" font-family="Arial" font-size="13px" font-style="normal" font-weight="bold" text-decoration="undefined" x="335.40087890625" y="587.5" text-anchor="middle" dominant-baseline="central" transform="matrix(1 0 0 1 -262 -470)">Flight</text></g></g><g><g><path fill="none" stroke="none"/><text fill="#000000" stroke="none" font-family="Arial" font-size="13px" font-style="normal" font-weight="normal" text-decoration="undefined" x="277" y="604" text-anchor="start" dominant-baseline="text-before-edge" transform="matrix(1 0 0 1 -262 -470)">PK</text></g></g><g><g><path fill="none" stroke="none"/><text fill="#000000" stroke="none" font-family="Arial" font-size="13px" font-style="normal" font-weight="normal" text-decoration="undefined" x="305.05908203125" y="604" text-anchor="start" dominant-baseline="text-before-edge" transform="matrix(1 0 0 1 -262 -470)">flight_id</text></g></g><g><g><path fill="none" stroke="none"/><text fill="#000000" stroke="none" font-family="Arial" font-size="13px" font-style="normal" font-weight="normal" text-decoration="undefined" x="377.919921875" y="604" text-anchor="start" dominant-baseline="text-before-edge" transform="matrix(1 0 0 1 -262 -470)">int</text></g></g><g><g><path fill="none" stroke="none"/><text fill="#000000" stroke="none" font-family="Arial" font-size="13px" font-style="normal" font-weight="normal" text-decoration="undefined" x="277" y="610.5" text-anchor="start" dominant-baseline="central" transform="matrix(1 0 0 1 -262 -470)"></text></g></g><g><g><path fill="none" stroke="none"/><text fill="#000000" stroke="none" font-family="Arial" font-size="13px" font-style="normal" font-weight="normal" text-decoration="undefined" x="277" y="619" text-anchor="start" dominant-baseline="text-before-edge" transform="matrix(1 0 0 1 -262 -470)">FK</text></g></g><g><g><path fill="none" stroke="none"/><text fill="#000000" stroke="none" font-family="Arial" font-size="13px" font-style="normal" font-weight="normal" text-decoration="undefined" x="305.05908203125" y="619" text-anchor="start" dominant-baseline="text-before-edge" transform="matrix(1 0 0 1 -262 -470)">aircraft_id</text></g></g><g><g><path fill="none" stroke="none"/><text fill="#000000" stroke="none" font-family="Arial" font-size="13px" font-style="normal" font-weight="normal" text-decoration="undefined" x="377.919921875" y="619" text-anchor="start" dominant-baseline="text-before-edge" transform="matrix(1 0 0 1 -262 -470)">int</text></g></g><g><g><path fill="none" stroke="none"/><text fill="#000000" stroke="none" font-family="Arial" font-size="13px" font-style="normal" font-weight="normal" text-decoration="undefined" x="277" y="625.5" text-anchor="start" dominant-baseline="central" transform="matrix(1 0 0 1 -262 -470)"></text></g></g><g><rect fill="#C0C0C0" stroke="none" x="559" y="591" width="171" height="50" transform="matrix(1 0 0 1 -262 -470)" fill-opacity="0.2"/></g><g><rect fill="#ffffff" stroke="none" x="552" y="584" width="171" height="50" transform="matrix(1 0 0 1 -262 -470)"/></g><g><path fill="none" stroke="#000000" paint-order="fill stroke markers" d=" M 290 114 L 461 114 L 461 164 L 290 164 L 290 114 Z Z" stroke-miterlimit="10" stroke-dasharray=""/></g><g><path fill="none" stroke="#000000" paint-order="fill stroke markers" d=" M 290 137 L 461 137" stroke-miterlimit="10" stroke-dasharray=""/></g><g><path fill="none" stroke="#000000" paint-order="fill stroke markers" d=" M 318.05908203125 137 L 318.05908203125 164" stroke-miterlimit="10" stroke-dasharray=""/></g><g><path fill="none" stroke="#000000" paint-order="fill stroke markers" d=" M 401.71728515625 137 L 401.71728515625 164" stroke-miterlimit="10" stroke-dasharray=""/></g><g><g><path fill="none" stroke="none"/><text fill="#000000" stroke="none" font-family="Arial" font-size="13px" font-style="normal" font-weight="bold" text-decoration="undefined" x="637.5" y="595.5" text-anchor="middle" dominant-baseline="central" transform="matrix(1 0 0 1 -262 -470)">Booking</text></g></g><g><g><path fill="none" stroke="none"/><text fill="#000000" stroke="none" font-family="Arial" font-size="13px" font-style="normal" font-weight="normal" text-decoration="undefined" x="557" y="612" text-anchor="start" dominant-baseline="text-before-edge" transform="matrix(1 0 0 1 -262 -470)">PK</text></g></g><g><g><path fill="none" stroke="none"/><text fill="#000000" stroke="none" font-family="Arial" font-size="13px" font-style="normal" font-weight="normal" text-decoration="undefined" x="585.05908203125" y="612" text-anchor="start" dominant-baseline="text-before-edge" transform="matrix(1 0 0 1 -262 -470)">booking_no</text></g></g><g><g><path fill="none" stroke="none"/><text fill="#000000" stroke="none" font-family="Arial" font-size="13px" font-style="normal" font-weight="normal" text-decoration="undefined" x="668.71728515625" y="612" text-anchor="start" dominant-baseline="text-before-edge" transform="matrix(1 0 0 1 -262 -470)">varchar</text></g></g><g><g><path fill="none" stroke="none"/><text fill="#000000" stroke="none" font-family="Arial" font-size="13px" font-style="normal" font-weight="normal" text-decoration="undefined" x="557" y="618.5" text-anchor="start" dominant-baseline="central" transform="matrix(1 0 0 1 -262 -470)"></text></g></g><g><rect fill="#C0C0C0" stroke="none" x="815" y="583" width="178.8525390625" height="61" transform="matrix(1 0 0 1 -262 -470)" fill-opacity="0.2"/></g><g><rect fill="#ffffff" stroke="none" x="808" y="576" width="178.8525390625" height="61" transform="matrix(1 0 0 1 -262 -470)"/></g><g><path fill="none" stroke="#000000" paint-order="fill stroke markers" d=" M 546 106 L 724.8525390625 106 L 724.8525390625 167 L 546 167 L 546 106 Z Z" stroke-miterlimit="10" stroke-dasharray=""/></g><g><path fill="none" stroke="#000000" paint-order="fill stroke markers" d=" M 546 129 L 724.8525390625 129" stroke-miterlimit="10" stroke-dasharray=""/></g><g><path fill="none" stroke="#000000" paint-order="fill stroke markers" d=" M 574.05908203125 129 L 574.05908203125 167" stroke-miterlimit="10" stroke-dasharray=""/></g><g><path fill="none" stroke="#000000" paint-order="fill stroke markers" d=" M 667.87353515625 129 L 667.87353515625 167" stroke-miterlimit="10" stroke-dasharray=""/></g><g><g><path fill="none" stroke="none"/><text fill="#000000" stroke="none" font-family="Arial" font-size="13px" font-style="normal" font-weight="bold" text-decoration="undefined" x="897.42626953125" y="587.5" text-anchor="middle" dominant-baseline="central" transform="matrix(1 0 0 1 -262 -470)">Passenger</text></g></g><g><g><path fill="none" stroke="none"/><text fill="#000000" stroke="none" font-family="Arial" font-size="13px" font-style="normal" font-weight="normal" text-decoration="undefined" x="813" y="604" text-anchor="start" dominant-baseline="text-before-edge" transform="matrix(1 0 0 1 -262 -470)">PK</text></g></g><g><g><path fill="none" stroke="none"/><text fill="#000000" stroke="none" font-family="Arial" font-size="13px" font-style="normal" font-weight="normal" text-decoration="undefined" x="841.05908203125" y="604" text-anchor="start" dominant-baseline="text-before-edge" transform="matrix(1 0 0 1 -262 -470)">passenger_id</text></g></g><g><g><path fill="none" stroke="none"/><text fill="#000000" stroke="none" font-family="Arial" font-size="13px" font-style="normal" font-weight="normal" text-decoration="undefined" x="934.87353515625" y="604" text-anchor="start" dominant-baseline="text-before-edge" transform="matrix(1 0 0 1 -262 -470)">int</text></g></g><g><g><path fill="none" stroke="none"/><text fill="#000000" stroke="none" font-family="Arial" font-size="13px" font-style="normal" font-weight="normal" text-decoration="undefined" x="813" y="610.5" text-anchor="start" dominant-baseline="central" transform="matrix(1 0 0 1 -262 -470)"></text></g></g><g><g><path fill="none" stroke="none"/><text fill="#000000" stroke="none" font-family="Arial" font-size="13px" font-style="normal" font-weight="normal" text-decoration="undefined" x="813" y="619" text-anchor="start" dominant-baseline="text-before-edge" transform="matrix(1 0 0 1 -262 -470)">FK</text></g></g><g><g><path fill="none" stroke="none"/><text fill="#000000" stroke="none" font-family="Arial" font-size="13px" font-style="normal" font-weight="normal" text-decoration="undefined" x="841.05908203125" y="619" text-anchor="start" dominant-baseline="text-before-edge" transform="matrix(1 0 0 1 -262 -470)">booking_no</text></g></g><g><g><path fill="none" stroke="none"/><text fill="#000000" stroke="none" font-family="Arial" font-size="13px" font-style="normal" font-weight="normal" text-decoration="undefined" x="934.87353515625" y="619" text-anchor="start" dominant-baseline="text-before-edge" transform="matrix(1 0 0 1 -262 -470)">varchar</text></g></g><g><g><path fill="none" stroke="none"/><text fill="#000000" stroke="none" font-family="Arial" font-size="13px" font-style="normal" font-weight="normal" text-decoration="undefined" x="813" y="625.5" text-anchor="start" dominant-baseline="central" transform="matrix(1 0 0 1 -262 -470)"></text></g></g><g><rect fill="#C0C0C0" stroke="none" x="279" y="759" width="126.8017578125" height="46" transform="matrix(1 0 0 1 -262 -470)" fill-opacity="0.2"/></g><g><rect fill="#ffffff" stroke="none" x="272" y="752" width="126.8017578125" height="46" transform="matrix(1 0 0 1 -262 -470)"/></g><g><path fill="none" stroke="#000000" paint-order="fill stroke markers" d=" M 10 282 L 136.8017578125 282 L 136.8017578125 328 L 10 328 L 10 282 Z Z" stroke-miterlimit="10" stroke-dasharray=""/></g><g><path fill="none" stroke="#000000" paint-order="fill stroke markers" d=" M 10 305 L 136.8017578125 305" stroke-miterlimit="10" stroke-dasharray=""/></g><g><path fill="none" stroke="#000000" paint-order="fill stroke markers" d=" M 38.05908203125 305 L 38.05908203125 328" stroke-miterlimit="10" stroke-dasharray=""/></g><g><path fill="none" stroke="#000000" paint-order="fill stroke markers" d=" M 110.919921875 305 L 110.919921875 328" stroke-miterlimit="10" stroke-dasharray=""/></g><g><g><path fill="none" stroke="none"/><text fill="#000000" stroke="none" font-family="Arial" font-size="13px" font-style="normal" font-weight="bold" text-decoration="undefined" x="335.40087890625" y="763.5" text-anchor="middle" dominant-baseline="central" transform="matrix(1 0 0 1 -262 -470)">Plane</text></g></g><g><g><path fill="none" stroke="none"/><text fill="#000000" stroke="none" font-family="Arial" font-size="13px" font-style="normal" font-weight="normal" text-decoration="undefined" x="277" y="780" text-anchor="start" dominant-baseline="text-before-edge" transform="matrix(1 0 0 1 -262 -470)">PK</text></g></g><g><g><path fill="none" stroke="none"/><text fill="#000000" stroke="none" font-family="Arial" font-size="13px" font-style="normal" font-weight="normal" text-decoration="undefined" x="305.05908203125" y="780" text-anchor="start" dominant-baseline="text-before-edge" transform="matrix(1 0 0 1 -262 -470)">aircraft_id</text></g></g><g><g><path fill="none" stroke="none"/><text fill="#000000" stroke="none" font-family="Arial" font-size="13px" font-style="normal" font-weight="normal" text-decoration="undefined" x="377.919921875" y="780" text-anchor="start" dominant-baseline="text-before-edge" transform="matrix(1 0 0 1 -262 -470)">int</text></g></g><g><g><path fill="none" stroke="none"/><text fill="#000000" stroke="none" font-family="Arial" font-size="13px" font-style="normal" font-weight="normal" text-decoration="undefined" x="277" y="786.5" text-anchor="start" dominant-baseline="central" transform="matrix(1 0 0 1 -262 -470)"></text></g></g><g><path fill="none" stroke="#000000" paint-order="fill stroke markers" d=" M 74 282 L 74 172" stroke-miterlimit="10" stroke-dasharray=""/></g><g><path fill="none" stroke="#000000" paint-order="fill stroke markers" d=" M 74 186 L 81 172" stroke-miterlimit="10" stroke-dasharray=""/></g><g><path fill="none" stroke="#000000" paint-order="fill stroke markers" d=" M 74 186 L 67 172" stroke-miterlimit="10" stroke-dasharray=""/></g><g><path fill="#FFFFFF" stroke="none" paint-order="stroke fill markers" d=" M 67 194 C 67 190.13400639999998 70.13400639999998 187 74 187 C 77.86599360000002 187 81 190.13400639999998 81 194 C 81 197.86599360000002 77.86599360000002 201 74 201 C 70.13400639999998 201 67 197.86599360000002 67 194 Z"/></g><g><path fill="none" stroke="#000000" paint-order="fill stroke markers" d=" M 67 194 C 67 190.13400639999998 70.13400639999998 187 74 187 C 77.86599360000002 187 81 190.13400639999998 81 194 C 81 197.86599360000002 77.86599360000002 201 74 201 C 70.13400639999998 201 67 197.86599360000002 67 194 Z" stroke-miterlimit="10" stroke-dasharray=""/></g><g><path fill="none" stroke="#000000" paint-order="fill stroke markers" d=" M 67 275 L 81 275" stroke-miterlimit="10" stroke-dasharray=""/></g><g><path fill="none" stroke="#000000" paint-order="fill stroke markers" d=" M 67 268 L 81 268" stroke-miterlimit="10" stroke-dasharray=""/></g><g><rect fill="#ffffff" stroke="none" x="321" y="720" width="0" height="13" transform="matrix(1 0 0 1 -262 -470)"/></g><g><g><path fill="none" stroke="none"/><text fill="#000000" stroke="none" font-family="Arial" font-size="13px" font-style="normal" font-weight="normal" text-decoration="undefined" x="321" y="726.5" text-anchor="middle" dominant-baseline="central" transform="matrix(1 0 0 1 -262 -470)"></text></g></g><g><rect fill="#ffffff" stroke="none" x="321" y="661" width="0" height="13" transform="matrix(1 0 0 1 -262 -470)"/></g><g><g><path fill="none" stroke="none"/><text fill="#000000" stroke="none" font-family="Arial" font-size="13px" font-style="normal" font-weight="normal" text-decoration="undefined" x="321" y="667.5" text-anchor="middle" dominant-baseline="central" transform="matrix(1 0 0 1 -262 -470)"></text></g></g><g><path fill="none" stroke="#000000" paint-order="fill stroke markers" d=" M 461 138 L 546 138" stroke-miterlimit="10" stroke-dasharray=""/></g><g><path fill="none" stroke="#000000" paint-order="fill stroke markers" d=" M 532 138 L 546 145" stroke-miterlimit="10" stroke-dasharray=""/></g><g><path fill="none" stroke="#000000" paint-order="fill stroke markers" d=" M 532 138 L 546 131" stroke-miterlimit="10" stroke-dasharray=""/></g><g><path fill="#FFFFFF" stroke="none" paint-order="stroke fill markers" d=" M 517 138 C 517 134.13400639999998 520.1340064 131 524 131 C 527.8659936 131 531 134.13400639999998 531 138 C 531 141.86599360000002 527.8659936 145 524 145 C 520.1340064 145 517 141.86599360000002 517 138 Z"/></g><g><path fill="none" stroke="#000000" paint-order="fill stroke markers" d=" M 517 138 C 517 134.13400639999998 520.1340064 131 524 131 C 527.8659936 131 531 134.13400639999998 531 138 C 531 141.86599360000002 527.8659936 145 524 145 C 520.1340064 145 517 141.86599360000002 517 138 Z" stroke-miterlimit="10" stroke-dasharray=""/></g><g><path fill="none" stroke="#000000" paint-order="fill stroke markers" d=" M 468 131 L 468 145" stroke-miterlimit="10" stroke-dasharray=""/></g><g><path fill="none" stroke="#000000" paint-order="fill stroke markers" d=" M 475 131 L 475 145" stroke-miterlimit="10" stroke-dasharray=""/></g><g><rect fill="#ffffff" stroke="none" x="748" y="587" width="0" height="13" transform="matrix(1 0 0 1 -262 -470)"/></g><g><g><path fill="none" stroke="none"/><text fill="#000000" stroke="none" font-family="Arial" font-size="13px" font-style="normal" font-weight="normal" text-decoration="undefined" x="748" y="593.5" text-anchor="middle" dominant-baseline="central" transform="matrix(1 0 0 1 -262 -470)"></text></g></g><g><rect fill="#ffffff" stroke="none" x="782" y="587" width="0" height="13" transform="matrix(1 0 0 1 -262 -470)"/></g><g><g><path fill="none" stroke="none"/><text fill="#000000" stroke="none" font-family="Arial" font-size="13px" font-style="normal" font-weight="normal" text-decoration="undefined" x="782" y="593.5" text-anchor="middle" dominant-baseline="central" transform="matrix(1 0 0 1 -262 -470)"></text></g></g><g><rect fill="#C0C0C0" stroke="none" x="551" y="735" width="178.8525390625" height="80" transform="matrix(1 0 0 1 -262 -470)" fill-opacity="0.2"/></g><g><rect fill="#ffffff" stroke="none" x="544" y="728" width="178.8525390625" height="80" transform="matrix(1 0 0 1 -262 -470)"/></g><g><path fill="none" stroke="#000000" paint-order="fill stroke markers" d=" M 282 258 L 460.8525390625 258 L 460.8525390625 338 L 282 338 L 282 258 Z Z" stroke-miterlimit="10" stroke-dasharray=""/></g><g><path fill="none" stroke="#000000" paint-order="fill stroke markers" d=" M 282 281 L 460.8525390625 281" stroke-miterlimit="10" stroke-dasharray=""/></g><g><path fill="none" stroke="#000000" paint-order="fill stroke markers" d=" M 331 281 L 331 338" stroke-miterlimit="10" stroke-dasharray=""/></g><g><path fill="none" stroke="#000000" paint-order="fill stroke markers" d=" M 403.86083984375 281 L 403.86083984375 338" stroke-miterlimit="10" stroke-dasharray=""/></g><g><g><path fill="none" stroke="none"/><text fill="#000000" stroke="none" font-family="Arial" font-size="13px" font-style="normal" font-weight="bold" text-decoration="undefined" x="633.42626953125" y="739.5" text-anchor="middle" dominant-baseline="central" transform="matrix(1 0 0 1 -262 -470)">Seat</text></g></g><g><g><path fill="none" stroke="none"/><text fill="#000000" stroke="none" font-family="Arial" font-size="13px" font-style="normal" font-weight="normal" text-decoration="undefined" x="549" y="756" text-anchor="start" dominant-baseline="text-before-edge" transform="matrix(1 0 0 1 -262 -470)">PK</text></g></g><g><g><path fill="none" stroke="none"/><text fill="#000000" stroke="none" font-family="Arial" font-size="13px" font-style="normal" font-weight="normal" text-decoration="undefined" x="598" y="756" text-anchor="start" dominant-baseline="text-before-edge" transform="matrix(1 0 0 1 -262 -470)">seat_no</text></g></g><g><g><path fill="none" stroke="none"/><text fill="#000000" stroke="none" font-family="Arial" font-size="13px" font-style="normal" font-weight="normal" text-decoration="undefined" x="670.86083984375" y="756" text-anchor="start" dominant-baseline="text-before-edge" transform="matrix(1 0 0 1 -262 -470)">varchar</text></g></g><g><g><path fill="none" stroke="none"/><text fill="#000000" stroke="none" font-family="Arial" font-size="13px" font-style="normal" font-weight="normal" text-decoration="undefined" x="549" y="762.5" text-anchor="start" dominant-baseline="central" transform="matrix(1 0 0 1 -262 -470)"></text></g></g><g><g><path fill="none" stroke="none"/><text fill="#000000" stroke="none" font-family="Arial" font-size="13px" font-style="normal" font-weight="normal" text-decoration="undefined" x="549" y="771" text-anchor="start" dominant-baseline="text-before-edge" transform="matrix(1 0 0 1 -262 -470)">PK,FK</text></g></g><g><g><path fill="none" stroke="none"/><text fill="#000000" stroke="none" font-family="Arial" font-size="13px" font-style="normal" font-weight="normal" text-decoration="undefined" x="598" y="771" text-anchor="start" dominant-baseline="text-before-edge" transform="matrix(1 0 0 1 -262 -470)">aircraft_id</text></g></g><g><g><path fill="none" stroke="none"/><text fill="#000000" stroke="none" font-family="Arial" font-size="13px" font-style="normal" font-weight="normal" text-decoration="undefined" x="670.86083984375" y="771" text-anchor="start" dominant-baseline="text-before-edge" transform="matrix(1 0 0 1 -262 -470)">int</text></g></g><g><g><path fill="none" stroke="none"/><text fill="#000000" stroke="none" font-family="Arial" font-size="13px" font-style="normal" font-weight="normal" text-decoration="undefined" x="549" y="777.5" text-anchor="start" dominant-baseline="central" transform="matrix(1 0 0 1 -262 -470)"></text></g></g><g><g><path fill="none" stroke="none"/><text fill="#000000" stroke="none" font-family="Arial" font-size="13px" font-style="normal" font-weight="normal" text-decoration="undefined" x="549" y="786" text-anchor="start" dominant-baseline="text-before-edge" transform="matrix(1 0 0 1 -262 -470)">PK,FK</text></g></g><g><g><path fill="none" stroke="none"/><text fill="#000000" stroke="none" font-family="Arial" font-size="13px" font-style="normal" font-weight="normal" text-decoration="undefined" x="598" y="786" text-anchor="start" dominant-baseline="text-before-edge" transform="matrix(1 0 0 1 -262 -470)">flight_id</text></g></g><g><g><path fill="none" stroke="none"/><text fill="#000000" stroke="none" font-family="Arial" font-size="13px" font-style="normal" font-weight="normal" text-decoration="undefined" x="670.86083984375" y="786" text-anchor="start" dominant-baseline="text-before-edge" transform="matrix(1 0 0 1 -262 -470)">int</text></g></g><g><g><path fill="none" stroke="none"/><text fill="#000000" stroke="none" font-family="Arial" font-size="13px" font-style="normal" font-weight="normal" text-decoration="undefined" x="549" y="792.5" text-anchor="start" dominant-baseline="central" transform="matrix(1 0 0 1 -262 -470)"></text></g></g><g><path fill="none" stroke="#000000" paint-order="fill stroke markers" d=" M 137 310 L 282 310" stroke-miterlimit="10" stroke-dasharray=""/></g><g><path fill="none" stroke="#000000" paint-order="fill stroke markers" d=" M 268 310 L 282 317" stroke-miterlimit="10" stroke-dasharray=""/></g><g><path fill="none" stroke="#000000" paint-order="fill stroke markers" d=" M 268 310 L 282 303" stroke-miterlimit="10" stroke-dasharray=""/></g><g><path fill="#FFFFFF" stroke="none" paint-order="stroke fill markers" d=" M 253 310 C 253 306.1340064 256.1340064 303 260 303 C 263.8659936 303 267 306.1340064 267 310 C 267 313.8659936 263.8659936 317 260 317 C 256.1340064 317 253 313.8659936 253 310 Z"/></g><g><path fill="none" stroke="#000000" paint-order="fill stroke markers" d=" M 253 310 C 253 306.1340064 256.1340064 303 260 303 C 263.8659936 303 267 306.1340064 267 310 C 267 313.8659936 263.8659936 317 260 317 C 256.1340064 317 253 313.8659936 253 310 Z" stroke-miterlimit="10" stroke-dasharray=""/></g><g><path fill="none" stroke="#000000" paint-order="fill stroke markers" d=" M 144 303 L 144 317" stroke-miterlimit="10" stroke-dasharray=""/></g><g><path fill="none" stroke="#000000" paint-order="fill stroke markers" d=" M 151 303 L 151 317" stroke-miterlimit="10" stroke-dasharray=""/></g><g><rect fill="#ffffff" stroke="none" x="424" y="759" width="0" height="13" transform="matrix(1 0 0 1 -262 -470)"/></g><g><g><path fill="none" stroke="none"/><text fill="#000000" stroke="none" font-family="Arial" font-size="13px" font-style="normal" font-weight="normal" text-decoration="undefined" x="424" y="765.5" text-anchor="middle" dominant-baseline="central" transform="matrix(1 0 0 1 -262 -470)"></text></g></g><g><rect fill="#ffffff" stroke="none" x="518" y="759" width="0" height="13" transform="matrix(1 0 0 1 -262 -470)"/></g><g><g><path fill="none" stroke="none"/><text fill="#000000" stroke="none" font-family="Arial" font-size="13px" font-style="normal" font-weight="normal" text-decoration="undefined" x="518" y="765.5" text-anchor="middle" dominant-baseline="central" transform="matrix(1 0 0 1 -262 -470)"></text></g></g><g><rect fill="#C0C0C0" stroke="none" x="391" y="487" width="192.49365234375" height="76" transform="matrix(1 0 0 1 -262 -470)" fill-opacity="0.2"/></g><g><rect fill="#ffffff" stroke="none" x="384" y="480" width="192.49365234375" height="76" transform="matrix(1 0 0 1 -262 -470)"/></g><g><path fill="none" stroke="#000000" paint-order="fill stroke markers" d=" M 122 10 L 314.49365234375 10 L 314.49365234375 86 L 122 86 L 122 10 Z Z" stroke-miterlimit="10" stroke-dasharray=""/></g><g><path fill="none" stroke="#000000" paint-order="fill stroke markers" d=" M 122 33 L 314.49365234375 33" stroke-miterlimit="10" stroke-dasharray=""/></g><g><path fill="none" stroke="#000000" paint-order="fill stroke markers" d=" M 171 33 L 171 86" stroke-miterlimit="10" stroke-dasharray=""/></g><g><path fill="none" stroke="#000000" paint-order="fill stroke markers" d=" M 254.658203125 33 L 254.658203125 86" stroke-miterlimit="10" stroke-dasharray=""/></g><g><g><path fill="none" stroke="none"/><text fill="#000000" stroke="none" font-family="Arial" font-size="13px" font-style="normal" font-weight="bold" text-decoration="undefined" x="480.246826171875" y="491.5" text-anchor="middle" dominant-baseline="central" transform="matrix(1 0 0 1 -262 -470)">Flight_booking</text></g></g><g><g><path fill="none" stroke="none"/><text fill="#000000" stroke="none" font-family="Arial" font-size="13px" font-style="normal" font-weight="normal" text-decoration="undefined" x="389" y="508" text-anchor="start" dominant-baseline="text-before-edge" transform="matrix(1 0 0 1 -262 -470)">PK,FK</text></g></g><g><g><path fill="none" stroke="none"/><text fill="#000000" stroke="none" font-family="Arial" font-size="13px" font-style="normal" font-weight="normal" text-decoration="undefined" x="438" y="508" text-anchor="start" dominant-baseline="text-before-edge" transform="matrix(1 0 0 1 -262 -470)">flight_id</text></g></g><g><g><path fill="none" stroke="none"/><text fill="#000000" stroke="none" font-family="Arial" font-size="13px" font-style="normal" font-weight="normal" text-decoration="undefined" x="521.658203125" y="508" text-anchor="start" dominant-baseline="text-before-edge" transform="matrix(1 0 0 1 -262 -470)">int</text></g></g><g><g><path fill="none" stroke="none"/><text fill="#000000" stroke="none" font-family="Arial" font-size="13px" font-style="normal" font-weight="normal" text-decoration="undefined" x="389" y="514.5" text-anchor="start" dominant-baseline="central" transform="matrix(1 0 0 1 -262 -470)"></text></g></g><g><g><path fill="none" stroke="none"/><text fill="#000000" stroke="none" font-family="Arial" font-size="13px" font-style="normal" font-weight="normal" text-decoration="undefined" x="389" y="523" text-anchor="start" dominant-baseline="text-before-edge" transform="matrix(1 0 0 1 -262 -470)">PK,FK</text></g></g><g><g><path fill="none" stroke="none"/><text fill="#000000" stroke="none" font-family="Arial" font-size="13px" font-style="normal" font-weight="normal" text-decoration="undefined" x="438" y="523" text-anchor="start" dominant-baseline="text-before-edge" transform="matrix(1 0 0 1 -262 -470)">booking_no</text></g></g><g><g><path fill="none" stroke="none"/><text fill="#000000" stroke="none" font-family="Arial" font-size="13px" font-style="normal" font-weight="normal" text-decoration="undefined" x="521.658203125" y="523" text-anchor="start" dominant-baseline="text-before-edge" transform="matrix(1 0 0 1 -262 -470)">varchar</text></g></g><g><g><path fill="none" stroke="none"/><text fill="#000000" stroke="none" font-family="Arial" font-size="13px" font-style="normal" font-weight="normal" text-decoration="undefined" x="389" y="529.5" text-anchor="start" dominant-baseline="central" transform="matrix(1 0 0 1 -262 -470)"></text></g></g><g><g><path fill="none" stroke="none"/><text fill="#000000" stroke="none" font-family="Arial" font-size="13px" font-style="normal" font-weight="normal" text-decoration="undefined" x="389" y="538" text-anchor="start" dominant-baseline="text-before-edge" transform="matrix(1 0 0 1 -262 -470)"></text></g></g><g><g><path fill="none" stroke="none"/><text fill="#000000" stroke="none" font-family="Arial" font-size="13px" font-style="normal" font-weight="normal" text-decoration="undefined" x="438" y="538" text-anchor="start" dominant-baseline="text-before-edge" transform="matrix(1 0 0 1 -262 -470)">is_return</text></g></g><g><g><path fill="none" stroke="none"/><text fill="#000000" stroke="none" font-family="Arial" font-size="13px" font-style="normal" font-weight="normal" text-decoration="undefined" x="521.658203125" y="538" text-anchor="start" dominant-baseline="text-before-edge" transform="matrix(1 0 0 1 -262 -470)">bool</text></g></g><g><g><path fill="none" stroke="none"/><text fill="#000000" stroke="none" font-family="Arial" font-size="13px" font-style="normal" font-weight="normal" text-decoration="undefined" x="389" y="544.5" text-anchor="start" dominant-baseline="central" transform="matrix(1 0 0 1 -262 -470)"></text></g></g><g><path fill="none" stroke="#000000" paint-order="fill stroke markers" d=" M 137 139 L 178 139 L 178 139 A 8 8 0 0 0 186 131 L 186 86" stroke-miterlimit="10" stroke-dasharray=""/></g><g><path fill="none" stroke="#000000" paint-order="fill stroke markers" d=" M 186 100 L 193 86" stroke-miterlimit="10" stroke-dasharray=""/></g><g><path fill="none" stroke="#000000" paint-order="fill stroke markers" d=" M 186 100 L 179 86" stroke-miterlimit="10" stroke-dasharray=""/></g><g><path fill="#FFFFFF" stroke="none" paint-order="stroke fill markers" d=" M 179 108 C 179 104.13400639999998 182.13400639999998 101 186 101 C 189.86599360000002 101 193 104.13400639999998 193 108 C 193 111.86599360000002 189.86599360000002 115 186 115 C 182.13400639999998 115 179 111.86599360000002 179 108 Z"/></g><g><path fill="none" stroke="#000000" paint-order="fill stroke markers" d=" M 179 108 C 179 104.13400639999998 182.13400639999998 101 186 101 C 189.86599360000002 101 193 104.13400639999998 193 108 C 193 111.86599360000002 189.86599360000002 115 186 115 C 182.13400639999998 115 179 111.86599360000002 179 108 Z" stroke-miterlimit="10" stroke-dasharray=""/></g><g><path fill="none" stroke="#000000" paint-order="fill stroke markers" d=" M 144 132 L 144 146" stroke-miterlimit="10" stroke-dasharray=""/></g><g><path fill="none" stroke="#000000" paint-order="fill stroke markers" d=" M 151 132 L 151 146" stroke-miterlimit="10" stroke-dasharray=""/></g><g><rect fill="#ffffff" stroke="none" x="424" y="588" width="0" height="13" transform="matrix(1 0 0 1 -262 -470)"/></g><g><g><path fill="none" stroke="none"/><text fill="#000000" stroke="none" font-family="Arial" font-size="13px" font-style="normal" font-weight="normal" text-decoration="undefined" x="424" y="594.5" text-anchor="middle" dominant-baseline="central" transform="matrix(1 0 0 1 -262 -470)"></text></g></g><g><rect fill="#ffffff" stroke="none" x="433" y="575" width="0" height="13" transform="matrix(1 0 0 1 -262 -470)"/></g><g><g><path fill="none" stroke="none"/><text fill="#000000" stroke="none" font-family="Arial" font-size="13px" font-style="normal" font-weight="normal" text-decoration="undefined" x="433" y="581.5" text-anchor="middle" dominant-baseline="central" transform="matrix(1 0 0 1 -262 -470)"></text></g></g><g><path fill="none" stroke="#000000" paint-order="fill stroke markers" d=" M 290 138 L 258 138 L 258 138 A 8 8 0 0 1 250 130 L 250 86" stroke-miterlimit="10" stroke-dasharray=""/></g><g><path fill="none" stroke="#000000" paint-order="fill stroke markers" d=" M 250 100 L 257 86" stroke-miterlimit="10" stroke-dasharray=""/></g><g><path fill="none" stroke="#000000" paint-order="fill stroke markers" d=" M 250 100 L 243 86" stroke-miterlimit="10" stroke-dasharray=""/></g><g><path fill="#FFFFFF" stroke="none" paint-order="stroke fill markers" d=" M 243 108 C 243 104.13400639999998 246.13400639999998 101 250 101 C 253.86599360000002 101 257 104.13400639999998 257 108 C 257 111.86599360000002 253.86599360000002 115 250 115 C 246.13400639999998 115 243 111.86599360000002 243 108 Z"/></g><g><path fill="none" stroke="#000000" paint-order="fill stroke markers" d=" M 243 108 C 243 104.13400639999998 246.13400639999998 101 250 101 C 253.86599360000002 101 257 104.13400639999998 257 108 C 257 111.86599360000002 253.86599360000002 115 250 115 C 246.13400639999998 115 243 111.86599360000002 243 108 Z" stroke-miterlimit="10" stroke-dasharray=""/></g><g><path fill="none" stroke="#000000" paint-order="fill stroke markers" d=" M 283 145 L 283 131" stroke-miterlimit="10" stroke-dasharray=""/></g><g><path fill="none" stroke="#000000" paint-order="fill stroke markers" d=" M 276 145 L 276 131" stroke-miterlimit="10" stroke-dasharray=""/></g><g><rect fill="#ffffff" stroke="none" x="526" y="616" width="0" height="13" transform="matrix(1 0 0 1 -262 -470)"/></g><g><g><path fill="none" stroke="none"/><text fill="#000000" stroke="none" font-family="Arial" font-size="13px" font-style="normal" font-weight="normal" text-decoration="undefined" x="526" y="622.5" text-anchor="middle" dominant-baseline="central" transform="matrix(1 0 0 1 -262 -470)"></text></g></g><g><rect fill="#ffffff" stroke="none" x="497" y="575" width="0" height="13" transform="matrix(1 0 0 1 -262 -470)"/></g><g><g><path fill="none" stroke="none"/><text fill="#000000" stroke="none" font-family="Arial" font-size="13px" font-style="normal" font-weight="normal" text-decoration="undefined" x="497" y="581.5" text-anchor="middle" dominant-baseline="central" transform="matrix(1 0 0 1 -262 -470)"></text></g></g><g><rect fill="#C0C0C0" stroke="none" x="799" y="735" width="199.79345703125" height="76" transform="matrix(1 0 0 1 -262 -470)" fill-opacity="0.2"/></g><g><rect fill="#ffffff" stroke="none" x="792" y="728" width="199.79345703125" height="76" transform="matrix(1 0 0 1 -262 -470)"/></g><g><path fill="none" stroke="#000000" paint-order="fill stroke markers" d=" M 530 258 L 729.79345703125 258 L 729.79345703125 334 L 530 334 L 530 258 Z Z" stroke-miterlimit="10" stroke-dasharray=""/></g><g><path fill="none" stroke="#000000" paint-order="fill stroke markers" d=" M 530 281 L 729.79345703125 281" stroke-miterlimit="10" stroke-dasharray=""/></g><g><path fill="none" stroke="#000000" paint-order="fill stroke markers" d=" M 579 281 L 579 334" stroke-miterlimit="10" stroke-dasharray=""/></g><g><path fill="none" stroke="#000000" paint-order="fill stroke markers" d=" M 672.814453125 281 L 672.814453125 334" stroke-miterlimit="10" stroke-dasharray=""/></g><g><g><path fill="none" stroke="none"/><text fill="#000000" stroke="none" font-family="Arial" font-size="13px" font-style="normal" font-weight="bold" text-decoration="undefined" x="891.896728515625" y="739.5" text-anchor="middle" dominant-baseline="central" transform="matrix(1 0 0 1 -262 -470)">seat_passenger</text></g></g><g><g><path fill="none" stroke="none"/><text fill="#000000" stroke="none" font-family="Arial" font-size="13px" font-style="normal" font-weight="normal" text-decoration="undefined" x="797" y="756" text-anchor="start" dominant-baseline="text-before-edge" transform="matrix(1 0 0 1 -262 -470)">PK,FK</text></g></g><g><g><path fill="none" stroke="none"/><text fill="#000000" stroke="none" font-family="Arial" font-size="13px" font-style="normal" font-weight="normal" text-decoration="undefined" x="846" y="756" text-anchor="start" dominant-baseline="text-before-edge" transform="matrix(1 0 0 1 -262 -470)">seat_no</text></g></g><g><g><path fill="none" stroke="none"/><text fill="#000000" stroke="none" font-family="Arial" font-size="13px" font-style="normal" font-weight="normal" text-decoration="undefined" x="939.814453125" y="756" text-anchor="start" dominant-baseline="text-before-edge" transform="matrix(1 0 0 1 -262 -470)">varchar</text></g></g><g><g><path fill="none" stroke="none"/><text fill="#000000" stroke="none" font-family="Arial" font-size="13px" font-style="normal" font-weight="normal" text-decoration="undefined" x="797" y="762.5" text-anchor="start" dominant-baseline="central" transform="matrix(1 0 0 1 -262 -470)"></text></g></g><g><g><path fill="none" stroke="none"/><text fill="#000000" stroke="none" font-family="Arial" font-size="13px" font-style="normal" font-weight="normal" text-decoration="undefined" x="797" y="771" text-anchor="start" dominant-baseline="text-before-edge" transform="matrix(1 0 0 1 -262 -470)">PK,FK</text></g></g><g><g><path fill="none" stroke="none"/><text fill="#000000" stroke="none" font-family="Arial" font-size="13px" font-style="normal" font-weight="normal" text-decoration="undefined" x="846" y="771" text-anchor="start" dominant-baseline="text-before-edge" transform="matrix(1 0 0 1 -262 -470)">passenger_id</text></g></g><g><g><path fill="none" stroke="none"/><text fill="#000000" stroke="none" font-family="Arial" font-size="13px" font-style="normal" font-weight="normal" text-decoration="undefined" x="939.814453125" y="771" text-anchor="start" dominant-baseline="text-before-edge" transform="matrix(1 0 0 1 -262 -470)">int</text></g></g><g><g><path fill="none" stroke="none"/><text fill="#000000" stroke="none" font-family="Arial" font-size="13px" font-style="normal" font-weight="normal" text-decoration="undefined" x="797" y="777.5" text-anchor="start" dominant-baseline="central" transform="matrix(1 0 0 1 -262 -470)"></text></g></g><g><g><path fill="none" stroke="none"/><text fill="#000000" stroke="none" font-family="Arial" font-size="13px" font-style="normal" font-weight="normal" text-decoration="undefined" x="797" y="786" text-anchor="start" dominant-baseline="text-before-edge" transform="matrix(1 0 0 1 -262 -470)">PK</text></g></g><g><g><path fill="none" stroke="none"/><text fill="#000000" stroke="none" font-family="Arial" font-size="13px" font-style="normal" font-weight="normal" text-decoration="undefined" x="846" y="786" text-anchor="start" dominant-baseline="text-before-edge" transform="matrix(1 0 0 1 -262 -470)">is_return</text></g></g><g><g><path fill="none" stroke="none"/><text fill="#000000" stroke="none" font-family="Arial" font-size="13px" font-style="normal" font-weight="normal" text-decoration="undefined" x="939.814453125" y="786" text-anchor="start" dominant-baseline="text-before-edge" transform="matrix(1 0 0 1 -262 -470)">bool</text></g></g><g><g><path fill="none" stroke="none"/><text fill="#000000" stroke="none" font-family="Arial" font-size="13px" font-style="normal" font-weight="normal" text-decoration="undefined" x="797" y="792.5" text-anchor="start" dominant-baseline="central" transform="matrix(1 0 0 1 -262 -470)"></text></g></g><g><path fill="none" stroke="#000000" paint-order="fill stroke markers" d=" M 461 306 L 530 306" stroke-miterlimit="10" stroke-dasharray=""/></g><g><path fill="none" stroke="#000000" paint-order="fill stroke markers" d=" M 516 306 L 530 313" stroke-miterlimit="10" stroke-dasharray=""/></g><g><path fill="none" stroke="#000000" paint-order="fill stroke markers" d=" M 516 306 L 530 299" stroke-miterlimit="10" stroke-dasharray=""/></g><g><path fill="#FFFFFF" stroke="none" paint-order="stroke fill markers" d=" M 501 306 C 501 302.1340064 504.1340064 299 508 299 C 511.8659936 299 515 302.1340064 515 306 C 515 309.8659936 511.8659936 313 508 313 C 504.1340064 313 501 309.8659936 501 306 Z"/></g><g><path fill="none" stroke="#000000" paint-order="fill stroke markers" d=" M 501 306 C 501 302.1340064 504.1340064 299 508 299 C 511.8659936 299 515 302.1340064 515 306 C 515 309.8659936 511.8659936 313 508 313 C 504.1340064 313 501 309.8659936 501 306 Z" stroke-miterlimit="10" stroke-dasharray=""/></g><g><path fill="none" stroke="#000000" paint-order="fill stroke markers" d=" M 468 299 L 468 313" stroke-miterlimit="10" stroke-dasharray=""/></g><g><path fill="none" stroke="#000000" paint-order="fill stroke markers" d=" M 475 299 L 475 313" stroke-miterlimit="10" stroke-dasharray=""/></g><g><rect fill="#ffffff" stroke="none" x="748" y="755" width="0" height="13" transform="matrix(1 0 0 1 -262 -470)"/></g><g><g><path fill="none" stroke="none"/><text fill="#000000" stroke="none" font-family="Arial" font-size="13px" font-style="normal" font-weight="normal" text-decoration="undefined" x="748" y="761.5" text-anchor="middle" dominant-baseline="central" transform="matrix(1 0 0 1 -262 -470)"></text></g></g><g><rect fill="#ffffff" stroke="none" x="766" y="755" width="0" height="13" transform="matrix(1 0 0 1 -262 -470)"/></g><g><g><path fill="none" stroke="none"/><text fill="#000000" stroke="none" font-family="Arial" font-size="13px" font-style="normal" font-weight="normal" text-decoration="undefined" x="766" y="761.5" text-anchor="middle" dominant-baseline="central" transform="matrix(1 0 0 1 -262 -470)"></text></g></g><g><path fill="none" stroke="#000000" paint-order="fill stroke markers" d=" M 634 167 L 634 258" stroke-miterlimit="10" stroke-dasharray=""/></g><g><path fill="none" stroke="#000000" paint-order="fill stroke markers" d=" M 634 244 L 627 258" stroke-miterlimit="10" stroke-dasharray=""/></g><g><path fill="none" stroke="#000000" paint-order="fill stroke markers" d=" M 634 244 L 641 258" stroke-miterlimit="10" stroke-dasharray=""/></g><g><path fill="#FFFFFF" stroke="none" paint-order="stroke fill markers" d=" M 627 236 C 627 232.13400639999998 630.1340064 229 634 229 C 637.8659936 229 641 232.13400639999998 641 236 C 641 239.86599360000002 637.8659936 243 634 243 C 630.1340064 243 627 239.86599360000002 627 236 Z"/></g><g><path fill="none" stroke="#000000" paint-order="fill stroke markers" d=" M 627 236 C 627 232.13400639999998 630.1340064 229 634 229 C 637.8659936 229 641 232.13400639999998 641 236 C 641 239.86599360000002 637.8659936 243 634 243 C 630.1340064 243 627 239.86599360000002 627 236 Z" stroke-miterlimit="10" stroke-dasharray=""/></g><g><path fill="none" stroke="#000000" paint-order="fill stroke markers" d=" M 641 174 L 627 174" stroke-miterlimit="10" stroke-dasharray=""/></g><g><path fill="none" stroke="#000000" paint-order="fill stroke markers" d=" M 641 181 L 627 181" stroke-miterlimit="10" stroke-dasharray=""/></g><g><rect fill="#ffffff" stroke="none" x="911" y="656" width="0" height="13" transform="matrix(1 0 0 1 -262 -470)"/></g><g><g><path fill="none" stroke="none"/><text fill="#000000" stroke="none" font-family="Arial" font-size="13px" font-style="normal" font-weight="normal" text-decoration="undefined" x="911" y="662.5" text-anchor="middle" dominant-baseline="central" transform="matrix(1 0 0 1 -262 -470)"></text></g></g><g><rect fill="#ffffff" stroke="none" x="911" y="696" width="0" height="13" transform="matrix(1 0 0 1 -262 -470)"/></g><g><g><path fill="none" stroke="none"/><text fill="#000000" stroke="none" font-family="Arial" font-size="13px" font-style="normal" font-weight="normal" text-decoration="undefined" x="911" y="702.5" text-anchor="middle" dominant-baseline="central" transform="matrix(1 0 0 1 -262 -470)"></text></g></g><g><g><path fill="none" stroke="none"/><text fill="#000000" stroke="none" font-family="Arial" font-size="13px" font-style="normal" font-weight="normal" text-decoration="undefined" x="461" y="714" text-anchor="start" dominant-baseline="text-before-edge" transform="matrix(1 0 0 1 -262 -470)"> </text></g></g><g><path fill="none" stroke="#000000" paint-order="fill stroke markers" d=" M 106 172 L 106 210 L 106 210 A 8 8 0 0 0 114 218 L 362 218 L 362 218 A 8 8 0 0 1 370 226 L 370 258" stroke-miterlimit="10" stroke-dasharray=""/></g><g><path fill="none" stroke="#000000" paint-order="fill stroke markers" d=" M 370 244 L 363 258" stroke-miterlimit="10" stroke-dasharray=""/></g><g><path fill="none" stroke="#000000" paint-order="fill stroke markers" d=" M 370 244 L 377 258" stroke-miterlimit="10" stroke-dasharray=""/></g><g><path fill="#FFFFFF" stroke="none" paint-order="stroke fill markers" d=" M 363 236 C 363 232.13400639999998 366.1340064 229 370 229 C 373.8659936 229 377 232.13400639999998 377 236 C 377 239.86599360000002 373.8659936 243 370 243 C 366.1340064 243 363 239.86599360000002 363 236 Z"/></g><g><path fill="none" stroke="#000000" paint-order="fill stroke markers" d=" M 363 236 C 363 232.13400639999998 366.1340064 229 370 229 C 373.8659936 229 377 232.13400639999998 377 236 C 377 239.86599360000002 373.8659936 243 370 243 C 366.1340064 243 363 239.86599360000002 363 236 Z" stroke-miterlimit="10" stroke-dasharray=""/></g><g><path fill="none" stroke="#000000" paint-order="fill stroke markers" d=" M 113 179 L 99 179" stroke-miterlimit="10" stroke-dasharray=""/></g><g><path fill="none" stroke="#000000" paint-order="fill stroke markers" d=" M 113 186 L 99 186" stroke-miterlimit="10" stroke-dasharray=""/></g><g><rect fill="#ffffff" stroke="none" x="383" y="661" width="0" height="13" transform="matrix(1 0 0 1 -262 -470)"/></g><g><g><path fill="none" stroke="none"/><text fill="#000000" stroke="none" font-family="Arial" font-size="13px" font-style="normal" font-weight="normal" text-decoration="undefined" x="383" y="667.5" text-anchor="middle" dominant-baseline="central" transform="matrix(1 0 0 1 -262 -470)"></text></g></g><g><rect fill="#ffffff" stroke="none" x="647" y="696" width="0" height="13" transform="matrix(1 0 0 1 -262 -470)"/></g><g><g><path fill="none" stroke="none"/><text fill="#000000" stroke="none" font-family="Arial" font-size="13px" font-style="normal" font-weight="normal" text-decoration="undefined" x="647" y="702.5" text-anchor="middle" dominant-baseline="central" transform="matrix(1 0 0 1 -262 -470)"></text></g></g></g></svg>