<svg version="1.1" xmlns="http://www.w3.org/2000/svg" xmlns:xlink="http://www.w3.org/1999/xlink" width="495.75537109375" height="320"><defs/><g><g><rect fill="#C0C0C0" stroke="none" x="495" y="239" width="114.4873046875" height="46" transform="matrix(1 0 0 1 -430 -102)" fill-opacity="0.2"/></g><g><rect fill="#ffffff" stroke="none" x="488" y="232" width="114.4873046875" height="46" transform="matrix(1 0 0 1 -430 -102)"/></g><g><path fill="none" stroke="#000000" paint-order="fill stroke markers" d=" M 58 130 L 172.4873046875 130 L 172.4873046875 176 L 58 176 L 58 130 Z Z" stroke-miterlimit="10" stroke-dasharray=""/></g><g><path fill="none" stroke="#000000" paint-order="fill stroke markers" d=" M 58 153 L 172.4873046875 153" stroke-miterlimit="10" stroke-dasharray=""/></g><g><path fill="none" stroke="#000000" paint-order="fill stroke markers" d=" M 86.05908203125 153 L 86.05908203125 176" stroke-miterlimit="10" stroke-dasharray=""/></g><g><path fill="none" stroke="#000000" paint-order="fill stroke markers" d=" M 146.60546875 153 L 146.60546875 176" stroke-miterlimit="10" stroke-dasharray=""/></g><g><g><path fill="none" stroke="none"/><text fill="#000000" stroke="none" font-family="Arial" font-size="13px" font-style="normal" font-weight="bold" text-decoration="undefined" x="545.24365234375" y="243.5" text-anchor="middle" dominant-baseline="central" transform="matrix(1 0 0 1 -430 -102)">Flight</text></g></g><g><g><path fill="none" stroke="none"/><text fill="#000000" stroke="none" font-family="Arial" font-size="13px" font-style="normal" font-weight="normal" text-decoration="undefined" x="493" y="260" text-anchor="start" dominant-baseline="text-before-edge" transform="matrix(1 0 0 1 -430 -102)">PK</text></g></g><g><g><path fill="none" stroke="none"/><text fill="#000000" stroke="none" font-family="Arial" font-size="13px" font-style="normal" font-weight="normal" text-decoration="undefined" x="521.05908203125" y="260" text-anchor="start" dominant-baseline="text-before-edge" transform="matrix(1 0 0 1 -430 -102)">flight_id</text></g></g><g><g><path fill="none" stroke="none"/><text fill="#000000" stroke="none" font-family="Arial" font-size="13px" font-style="normal" font-weight="normal" text-decoration="undefined" x="581.60546875" y="260" text-anchor="start" dominant-baseline="text-before-edge" transform="matrix(1 0 0 1 -430 -102)">int</text></g></g><g><g><path fill="none" stroke="none"/><text fill="#000000" stroke="none" font-family="Arial" font-size="13px" font-style="normal" font-weight="normal" text-decoration="undefined" x="493" y="266.5" text-anchor="start" dominant-baseline="central" transform="matrix(1 0 0 1 -430 -102)"></text></g></g><g><rect fill="#C0C0C0" stroke="none" x="783" y="239" width="137.59912109375" height="46" transform="matrix(1 0 0 1 -430 -102)" fill-opacity="0.2"/></g><g><rect fill="#ffffff" stroke="none" x="776" y="232" width="137.59912109375" height="46" transform="matrix(1 0 0 1 -430 -102)"/></g><g><path fill="none" stroke="#000000" paint-order="fill stroke markers" d=" M 346 130 L 483.59912109375 130 L 483.59912109375 176 L 346 176 L 346 130 Z Z" stroke-miterlimit="10" stroke-dasharray=""/></g><g><path fill="none" stroke="#000000" paint-order="fill stroke markers" d=" M 346 153 L 483.59912109375 153" stroke-miterlimit="10" stroke-dasharray=""/></g><g><path fill="none" stroke="#000000" paint-order="fill stroke markers" d=" M 374.05908203125 153 L 374.05908203125 176" stroke-miterlimit="10" stroke-dasharray=""/></g><g><path fill="none" stroke="#000000" paint-order="fill stroke markers" d=" M 457.71728515625 153 L 457.71728515625 176" stroke-miterlimit="10" stroke-dasharray=""/></g><g><g><path fill="none" stroke="none"/><text fill="#000000" stroke="none" font-family="Arial" font-size="13px" font-style="normal" font-weight="bold" text-decoration="undefined" x="844.799560546875" y="243.5" text-anchor="middle" dominant-baseline="central" transform="matrix(1 0 0 1 -430 -102)">Booking</text></g></g><g><g><path fill="none" stroke="none"/><text fill="#000000" stroke="none" font-family="Arial" font-size="13px" font-style="normal" font-weight="normal" text-decoration="undefined" x="781" y="260" text-anchor="start" dominant-baseline="text-before-edge" transform="matrix(1 0 0 1 -430 -102)">PK</text></g></g><g><g><path fill="none" stroke="none"/><text fill="#000000" stroke="none" font-family="Arial" font-size="13px" font-style="normal" font-weight="normal" text-decoration="undefined" x="809.05908203125" y="260" text-anchor="start" dominant-baseline="text-before-edge" transform="matrix(1 0 0 1 -430 -102)">booking_no</text></g></g><g><g><path fill="none" stroke="none"/><text fill="#000000" stroke="none" font-family="Arial" font-size="13px" font-style="normal" font-weight="normal" text-decoration="undefined" x="892.71728515625" y="260" text-anchor="start" dominant-baseline="text-before-edge" transform="matrix(1 0 0 1 -430 -102)">int</text></g></g><g><g><path fill="none" stroke="none"/><text fill="#000000" stroke="none" font-family="Arial" font-size="13px" font-style="normal" font-weight="normal" text-decoration="undefined" x="781" y="266.5" text-anchor="start" dominant-baseline="central" transform="matrix(1 0 0 1 -430 -102)"></text></g></g><g><rect fill="#C0C0C0" stroke="none" x="775" y="351" width="147.75537109375" height="61" transform="matrix(1 0 0 1 -430 -102)" fill-opacity="0.2"/></g><g><rect fill="#ffffff" stroke="none" x="768" y="344" width="147.75537109375" height="61" transform="matrix(1 0 0 1 -430 -102)"/></g><g><path fill="none" stroke="#000000" paint-order="fill stroke markers" d=" M 338 242 L 485.75537109375 242 L 485.75537109375 303 L 338 303 L 338 242 Z Z" stroke-miterlimit="10" stroke-dasharray=""/></g><g><path fill="none" stroke="#000000" paint-order="fill stroke markers" d=" M 338 265 L 485.75537109375 265" stroke-miterlimit="10" stroke-dasharray=""/></g><g><path fill="none" stroke="#000000" paint-order="fill stroke markers" d=" M 366.05908203125 265 L 366.05908203125 303" stroke-miterlimit="10" stroke-dasharray=""/></g><g><path fill="none" stroke="#000000" paint-order="fill stroke markers" d=" M 459.87353515625 265 L 459.87353515625 303" stroke-miterlimit="10" stroke-dasharray=""/></g><g><g><path fill="none" stroke="none"/><text fill="#000000" stroke="none" font-family="Arial" font-size="13px" font-style="normal" font-weight="bold" text-decoration="undefined" x="841.877685546875" y="355.5" text-anchor="middle" dominant-baseline="central" transform="matrix(1 0 0 1 -430 -102)">Passenger</text></g></g><g><g><path fill="none" stroke="none"/><text fill="#000000" stroke="none" font-family="Arial" font-size="13px" font-style="normal" font-weight="normal" text-decoration="undefined" x="773" y="372" text-anchor="start" dominant-baseline="text-before-edge" transform="matrix(1 0 0 1 -430 -102)">PK</text></g></g><g><g><path fill="none" stroke="none"/><text fill="#000000" stroke="none" font-family="Arial" font-size="13px" font-style="normal" font-weight="normal" text-decoration="undefined" x="801.05908203125" y="372" text-anchor="start" dominant-baseline="text-before-edge" transform="matrix(1 0 0 1 -430 -102)">passenger_id</text></g></g><g><g><path fill="none" stroke="none"/><text fill="#000000" stroke="none" font-family="Arial" font-size="13px" font-style="normal" font-weight="normal" text-decoration="undefined" x="894.87353515625" y="372" text-anchor="start" dominant-baseline="text-before-edge" transform="matrix(1 0 0 1 -430 -102)">int</text></g></g><g><g><path fill="none" stroke="none"/><text fill="#000000" stroke="none" font-family="Arial" font-size="13px" font-style="normal" font-weight="normal" text-decoration="undefined" x="773" y="378.5" text-anchor="start" dominant-baseline="central" transform="matrix(1 0 0 1 -430 -102)"></text></g></g><g><g><path fill="none" stroke="none"/><text fill="#000000" stroke="none" font-family="Arial" font-size="13px" font-style="normal" font-weight="normal" text-decoration="undefined" x="773" y="387" text-anchor="start" dominant-baseline="text-before-edge" transform="matrix(1 0 0 1 -430 -102)">FK</text></g></g><g><g><path fill="none" stroke="none"/><text fill="#000000" stroke="none" font-family="Arial" font-size="13px" font-style="normal" font-weight="normal" text-decoration="undefined" x="801.05908203125" y="387" text-anchor="start" dominant-baseline="text-before-edge" transform="matrix(1 0 0 1 -430 -102)">booking_no</text></g></g><g><g><path fill="none" stroke="none"/><text fill="#000000" stroke="none" font-family="Arial" font-size="13px" font-style="normal" font-weight="normal" text-decoration="undefined" x="894.87353515625" y="387" text-anchor="start" dominant-baseline="text-before-edge" transform="matrix(1 0 0 1 -430 -102)">int</text></g></g><g><g><path fill="none" stroke="none"/><text fill="#000000" stroke="none" font-family="Arial" font-size="13px" font-style="normal" font-weight="normal" text-decoration="undefined" x="773" y="393.5" text-anchor="start" dominant-baseline="central" transform="matrix(1 0 0 1 -430 -102)"></text></g></g><g><rect fill="#C0C0C0" stroke="none" x="447" y="343" width="199.79345703125" height="76" transform="matrix(1 0 0 1 -430 -102)" fill-opacity="0.2"/></g><g><rect fill="#ffffff" stroke="none" x="440" y="336" width="199.79345703125" height="76" transform="matrix(1 0 0 1 -430 -102)"/></g><g><path fill="none" stroke="#000000" paint-order="fill stroke markers" d=" M 10 234 L 209.79345703125 234 L 209.79345703125 310 L 10 310 L 10 234 Z Z" stroke-miterlimit="10" stroke-dasharray=""/></g><g><path fill="none" stroke="#000000" paint-order="fill stroke markers" d=" M 10 257 L 209.79345703125 257" stroke-miterlimit="10" stroke-dasharray=""/></g><g><path fill="none" stroke="#000000" paint-order="fill stroke markers" d=" M 59 257 L 59 310" stroke-miterlimit="10" stroke-dasharray=""/></g><g><path fill="none" stroke="#000000" paint-order="fill stroke markers" d=" M 152.814453125 257 L 152.814453125 310" stroke-miterlimit="10" stroke-dasharray=""/></g><g><g><path fill="none" stroke="none"/><text fill="#000000" stroke="none" font-family="Arial" font-size="13px" font-style="normal" font-weight="bold" text-decoration="undefined" x="539.896728515625" y="347.5" text-anchor="middle" dominant-baseline="central" transform="matrix(1 0 0 1 -430 -102)">Seat</text></g></g><g><g><path fill="none" stroke="none"/><text fill="#000000" stroke="none" font-family="Arial" font-size="13px" font-style="normal" font-weight="normal" text-decoration="undefined" x="445" y="364" text-anchor="start" dominant-baseline="text-before-edge" transform="matrix(1 0 0 1 -430 -102)">PK</text></g></g><g><g><path fill="none" stroke="none"/><text fill="#000000" stroke="none" font-family="Arial" font-size="13px" font-style="normal" font-weight="normal" text-decoration="undefined" x="494" y="364" text-anchor="start" dominant-baseline="text-before-edge" transform="matrix(1 0 0 1 -430 -102)">seat_no</text></g></g><g><g><path fill="none" stroke="none"/><text fill="#000000" stroke="none" font-family="Arial" font-size="13px" font-style="normal" font-weight="normal" text-decoration="undefined" x="587.814453125" y="364" text-anchor="start" dominant-baseline="text-before-edge" transform="matrix(1 0 0 1 -430 -102)">varchar</text></g></g><g><g><path fill="none" stroke="none"/><text fill="#000000" stroke="none" font-family="Arial" font-size="13px" font-style="normal" font-weight="normal" text-decoration="undefined" x="445" y="370.5" text-anchor="start" dominant-baseline="central" transform="matrix(1 0 0 1 -430 -102)"></text></g></g><g><g><path fill="none" stroke="none"/><text fill="#000000" stroke="none" font-family="Arial" font-size="13px" font-style="normal" font-weight="normal" text-decoration="undefined" x="445" y="379" text-anchor="start" dominant-baseline="text-before-edge" transform="matrix(1 0 0 1 -430 -102)">PK,FK</text></g></g><g><g><path fill="none" stroke="none"/><text fill="#000000" stroke="none" font-family="Arial" font-size="13px" font-style="normal" font-weight="normal" text-decoration="undefined" x="494" y="379" text-anchor="start" dominant-baseline="text-before-edge" transform="matrix(1 0 0 1 -430 -102)">flight_id</text></g></g><g><g><path fill="none" stroke="none"/><text fill="#000000" stroke="none" font-family="Arial" font-size="13px" font-style="normal" font-weight="normal" text-decoration="undefined" x="587.814453125" y="379" text-anchor="start" dominant-baseline="text-before-edge" transform="matrix(1 0 0 1 -430 -102)">int</text></g></g><g><g><path fill="none" stroke="none"/><text fill="#000000" stroke="none" font-family="Arial" font-size="13px" font-style="normal" font-weight="normal" text-decoration="undefined" x="445" y="385.5" text-anchor="start" dominant-baseline="central" transform="matrix(1 0 0 1 -430 -102)"></text></g></g><g><g><path fill="none" stroke="none"/><text fill="#000000" stroke="none" font-family="Arial" font-size="13px" font-style="normal" font-weight="normal" text-decoration="undefined" x="445" y="394" text-anchor="start" dominant-baseline="text-before-edge" transform="matrix(1 0 0 1 -430 -102)">FK</text></g></g><g><g><path fill="none" stroke="none"/><text fill="#000000" stroke="none" font-family="Arial" font-size="13px" font-style="normal" font-weight="normal" text-decoration="undefined" x="494" y="394" text-anchor="start" dominant-baseline="text-before-edge" transform="matrix(1 0 0 1 -430 -102)">passenger_id</text></g></g><g><g><path fill="none" stroke="none"/><text fill="#000000" stroke="none" font-family="Arial" font-size="13px" font-style="normal" font-weight="normal" text-decoration="undefined" x="587.814453125" y="394" text-anchor="start" dominant-baseline="text-before-edge" transform="matrix(1 0 0 1 -430 -102)">int</text></g></g><g><g><path fill="none" stroke="none"/><text fill="#000000" stroke="none" font-family="Arial" font-size="13px" font-style="normal" font-weight="normal" text-decoration="undefined" x="445" y="400.5" text-anchor="start" dominant-baseline="central" transform="matrix(1 0 0 1 -430 -102)"></text></g></g><g><rect fill="#C0C0C0" stroke="none" x="623" y="119" width="158.5400390625" height="76" transform="matrix(1 0 0 1 -430 -102)" fill-opacity="0.2"/></g><g><rect fill="#ffffff" stroke="none" x="616" y="112" width="158.5400390625" height="76" transform="matrix(1 0 0 1 -430 -102)"/></g><g><path fill="none" stroke="#000000" paint-order="fill stroke markers" d=" M 186 10 L 344.5400390625 10 L 344.5400390625 86 L 186 86 L 186 10 Z Z" stroke-miterlimit="10" stroke-dasharray=""/></g><g><path fill="none" stroke="#000000" paint-order="fill stroke markers" d=" M 186 33 L 344.5400390625 33" stroke-miterlimit="10" stroke-dasharray=""/></g><g><path fill="none" stroke="#000000" paint-order="fill stroke markers" d=" M 235 33 L 235 86" stroke-miterlimit="10" stroke-dasharray=""/></g><g><path fill="none" stroke="#000000" paint-order="fill stroke markers" d=" M 318.658203125 33 L 318.658203125 86" stroke-miterlimit="10" stroke-dasharray=""/></g><g><g><path fill="none" stroke="none"/><text fill="#000000" stroke="none" font-family="Arial" font-size="13px" font-style="normal" font-weight="bold" text-decoration="undefined" x="695.27001953125" y="123.5" text-anchor="middle" dominant-baseline="central" transform="matrix(1 0 0 1 -430 -102)">Flight_booking</text></g></g><g><g><path fill="none" stroke="none"/><text fill="#000000" stroke="none" font-family="Arial" font-size="13px" font-style="normal" font-weight="normal" text-decoration="undefined" x="621" y="140" text-anchor="start" dominant-baseline="text-before-edge" transform="matrix(1 0 0 1 -430 -102)">PK,FK</text></g></g><g><g><path fill="none" stroke="none"/><text fill="#000000" stroke="none" font-family="Arial" font-size="13px" font-style="normal" font-weight="normal" text-decoration="undefined" x="670" y="140" text-anchor="start" dominant-baseline="text-before-edge" transform="matrix(1 0 0 1 -430 -102)">flight_id</text></g></g><g><g><path fill="none" stroke="none"/><text fill="#000000" stroke="none" font-family="Arial" font-size="13px" font-style="normal" font-weight="normal" text-decoration="undefined" x="753.658203125" y="140" text-anchor="start" dominant-baseline="text-before-edge" transform="matrix(1 0 0 1 -430 -102)">int</text></g></g><g><g><path fill="none" stroke="none"/><text fill="#000000" stroke="none" font-family="Arial" font-size="13px" font-style="normal" font-weight="normal" text-decoration="undefined" x="621" y="146.5" text-anchor="start" dominant-baseline="central" transform="matrix(1 0 0 1 -430 -102)"></text></g></g><g><g><path fill="none" stroke="none"/><text fill="#000000" stroke="none" font-family="Arial" font-size="13px" font-style="normal" font-weight="normal" text-decoration="undefined" x="621" y="155" text-anchor="start" dominant-baseline="text-before-edge" transform="matrix(1 0 0 1 -430 -102)">PK,FK</text></g></g><g><g><path fill="none" stroke="none"/><text fill="#000000" stroke="none" font-family="Arial" font-size="13px" font-style="normal" font-weight="normal" text-decoration="undefined" x="670" y="155" text-anchor="start" dominant-baseline="text-before-edge" transform="matrix(1 0 0 1 -430 -102)">booking_no</text></g></g><g><g><path fill="none" stroke="none"/><text fill="#000000" stroke="none" font-family="Arial" font-size="13px" font-style="normal" font-weight="normal" text-decoration="undefined" x="753.658203125" y="155" text-anchor="start" dominant-baseline="text-before-edge" transform="matrix(1 0 0 1 -430 -102)">int</text></g></g><g><g><path fill="none" stroke="none"/><text fill="#000000" stroke="none" font-family="Arial" font-size="13px" font-style="normal" font-weight="normal" text-decoration="undefined" x="621" y="161.5" text-anchor="start" dominant-baseline="central" transform="matrix(1 0 0 1 -430 -102)"></text></g></g><g><g><path fill="none" stroke="none"/><text fill="#000000" stroke="none" font-family="Arial" font-size="13px" font-style="normal" font-weight="normal" text-decoration="undefined" x="621" y="170" text-anchor="start" dominant-baseline="text-before-edge" transform="matrix(1 0 0 1 -430 -102)"></text></g></g><g><g><path fill="none" stroke="none"/><text fill="#000000" stroke="none" font-family="Arial" font-size="13px" font-style="normal" font-weight="normal" text-decoration="undefined" x="670" y="170" text-anchor="start" dominant-baseline="text-before-edge" transform="matrix(1 0 0 1 -430 -102)">is_return</text></g></g><g><g><path fill="none" stroke="none"/><text fill="#000000" stroke="none" font-family="Arial" font-size="13px" font-style="normal" font-weight="normal" text-decoration="undefined" x="753.658203125" y="170" text-anchor="start" dominant-baseline="text-before-edge" transform="matrix(1 0 0 1 -430 -102)">int</text></g></g><g><g><path fill="none" stroke="none"/><text fill="#000000" stroke="none" font-family="Arial" font-size="13px" font-style="normal" font-weight="normal" text-decoration="undefined" x="621" y="176.5" text-anchor="start" dominant-baseline="central" transform="matrix(1 0 0 1 -430 -102)"></text></g></g><g><path fill="none" stroke="#000000" paint-order="fill stroke markers" d=" M 172 154 L 242 154 L 242 154 A 8 8 0 0 0 250 146 L 250 86" stroke-miterlimit="10" stroke-dasharray=""/></g><g><path fill="none" stroke="#000000" paint-order="fill stroke markers" d=" M 250 100 L 257 86" stroke-miterlimit="10" stroke-dasharray=""/></g><g><path fill="none" stroke="#000000" paint-order="fill stroke markers" d=" M 250 100 L 243 86" stroke-miterlimit="10" stroke-dasharray=""/></g><g><path fill="#FFFFFF" stroke="none" paint-order="stroke fill markers" d=" M 243 108 C 243 104.1340064 246.13400639999998 101 250 101 C 253.86599360000002 101 257 104.1340064 257 108 C 257 111.8659936 253.86599360000002 115 250 115 C 246.13400639999998 115 243 111.8659936 243 108 Z"/></g><g><path fill="none" stroke="#000000" paint-order="fill stroke markers" d=" M 243 108 C 243 104.1340064 246.13400639999998 101 250 101 C 253.86599360000002 101 257 104.1340064 257 108 C 257 111.8659936 253.86599360000002 115 250 115 C 246.13400639999998 115 243 111.8659936 243 108 Z" stroke-miterlimit="10" stroke-dasharray=""/></g><g><path fill="none" stroke="#000000" paint-order="fill stroke markers" d=" M 179 147 L 179 161" stroke-miterlimit="10" stroke-dasharray=""/></g><g><path fill="none" stroke="#000000" paint-order="fill stroke markers" d=" M 186 147 L 186 161" stroke-miterlimit="10" stroke-dasharray=""/></g><g><rect fill="#ffffff" stroke="none" x="627" y="235" width="0" height="13" transform="matrix(1 0 0 1 -430 -102)"/></g><g><g><path fill="none" stroke="none"/><text fill="#000000" stroke="none" font-family="Arial" font-size="13px" font-style="normal" font-weight="normal" text-decoration="undefined" x="627" y="241.5" text-anchor="middle" dominant-baseline="central" transform="matrix(1 0 0 1 -430 -102)"></text></g></g><g><rect fill="#ffffff" stroke="none" x="665" y="207" width="0" height="13" transform="matrix(1 0 0 1 -430 -102)"/></g><g><g><path fill="none" stroke="none"/><text fill="#000000" stroke="none" font-family="Arial" font-size="13px" font-style="normal" font-weight="normal" text-decoration="undefined" x="665" y="213.5" text-anchor="middle" dominant-baseline="central" transform="matrix(1 0 0 1 -430 -102)"></text></g></g><g><path fill="none" stroke="#000000" paint-order="fill stroke markers" d=" M 346 154 L 290 154 L 290 154 A 8 8 0 0 1 282 146 L 282 86" stroke-miterlimit="10" stroke-dasharray=""/></g><g><path fill="none" stroke="#000000" paint-order="fill stroke markers" d=" M 282 100 L 289 86" stroke-miterlimit="10" stroke-dasharray=""/></g><g><path fill="none" stroke="#000000" paint-order="fill stroke markers" d=" M 282 100 L 275 86" stroke-miterlimit="10" stroke-dasharray=""/></g><g><path fill="#FFFFFF" stroke="none" paint-order="stroke fill markers" d=" M 275 108 C 275 104.1340064 278.1340064 101 282 101 C 285.8659936 101 289 104.1340064 289 108 C 289 111.8659936 285.8659936 115 282 115 C 278.1340064 115 275 111.8659936 275 108 Z"/></g><g><path fill="none" stroke="#000000" paint-order="fill stroke markers" d=" M 275 108 C 275 104.1340064 278.1340064 101 282 101 C 285.8659936 101 289 104.1340064 289 108 C 289 111.8659936 285.8659936 115 282 115 C 278.1340064 115 275 111.8659936 275 108 Z" stroke-miterlimit="10" stroke-dasharray=""/></g><g><path fill="none" stroke="#000000" paint-order="fill stroke markers" d=" M 339 161 L 339 147" stroke-miterlimit="10" stroke-dasharray=""/></g><g><path fill="none" stroke="#000000" paint-order="fill stroke markers" d=" M 332 161 L 332 147" stroke-miterlimit="10" stroke-dasharray=""/></g><g><rect fill="#ffffff" stroke="none" x="750" y="264" width="0" height="13" transform="matrix(1 0 0 1 -430 -102)"/></g><g><g><path fill="none" stroke="none"/><text fill="#000000" stroke="none" font-family="Arial" font-size="13px" font-style="normal" font-weight="normal" text-decoration="undefined" x="750" y="270.5" text-anchor="middle" dominant-baseline="central" transform="matrix(1 0 0 1 -430 -102)"></text></g></g><g><rect fill="#ffffff" stroke="none" x="697" y="207" width="0" height="13" transform="matrix(1 0 0 1 -430 -102)"/></g><g><g><path fill="none" stroke="none"/><text fill="#000000" stroke="none" font-family="Arial" font-size="13px" font-style="normal" font-weight="normal" text-decoration="undefined" x="697" y="213.5" text-anchor="middle" dominant-baseline="central" transform="matrix(1 0 0 1 -430 -102)"></text></g></g><g><path fill="none" stroke="#000000" paint-order="fill stroke markers" d=" M 413 176 L 413 242" stroke-miterlimit="10" stroke-dasharray=""/></g><g><path fill="none" stroke="#000000" paint-order="fill stroke markers" d=" M 413 228 L 406 242" stroke-miterlimit="10" stroke-dasharray=""/></g><g><path fill="none" stroke="#000000" paint-order="fill stroke markers" d=" M 413 228 L 420 242" stroke-miterlimit="10" stroke-dasharray=""/></g><g><path fill="#FFFFFF" stroke="none" paint-order="stroke fill markers" d=" M 406 220 C 406 216.13400639999998 409.1340064 213 413 213 C 416.8659936 213 420 216.13400639999998 420 220 C 420 223.86599360000002 416.8659936 227 413 227 C 409.1340064 227 406 223.86599360000002 406 220 Z"/></g><g><path fill="none" stroke="#000000" paint-order="fill stroke markers" d=" M 406 220 C 406 216.13400639999998 409.1340064 213 413 213 C 416.8659936 213 420 216.13400639999998 420 220 C 420 223.86599360000002 416.8659936 227 413 227 C 409.1340064 227 406 223.86599360000002 406 220 Z" stroke-miterlimit="10" stroke-dasharray=""/></g><g><path fill="none" stroke="#000000" paint-order="fill stroke markers" d=" M 420 183 L 406 183" stroke-miterlimit="10" stroke-dasharray=""/></g><g><path fill="none" stroke="#000000" paint-order="fill stroke markers" d=" M 420 190 L 406 190" stroke-miterlimit="10" stroke-dasharray=""/></g><g><rect fill="#ffffff" stroke="none" x="858" y="297" width="0" height="13" transform="matrix(1 0 0 1 -430 -102)"/></g><g><g><path fill="none" stroke="none"/><text fill="#000000" stroke="none" font-family="Arial" font-size="13px" font-style="normal" font-weight="normal" text-decoration="undefined" x="858" y="303.5" text-anchor="middle" dominant-baseline="central" transform="matrix(1 0 0 1 -430 -102)"></text></g></g><g><rect fill="#ffffff" stroke="none" x="858" y="312" width="0" height="13" transform="matrix(1 0 0 1 -430 -102)"/></g><g><g><path fill="none" stroke="none"/><text fill="#000000" stroke="none" font-family="Arial" font-size="13px" font-style="normal" font-weight="normal" text-decoration="undefined" x="858" y="318.5" text-anchor="middle" dominant-baseline="central" transform="matrix(1 0 0 1 -430 -102)"></text></g></g><g><path fill="none" stroke="#000000" paint-order="fill stroke markers" d=" M 114 176 L 114 234" stroke-miterlimit="10" stroke-dasharray=""/></g><g><path fill="none" stroke="#000000" paint-order="fill stroke markers" d=" M 114 220 L 107 234" stroke-miterlimit="10" stroke-dasharray=""/></g><g><path fill="none" stroke="#000000" paint-order="fill stroke markers" d=" M 114 220 L 121 234" stroke-miterlimit="10" stroke-dasharray=""/></g><g><path fill="#FFFFFF" stroke="none" paint-order="stroke fill markers" d=" M 107 212 C 107 208.13400639999998 110.13400639999998 205 114 205 C 117.86599360000002 205 121 208.13400639999998 121 212 C 121 215.86599360000002 117.86599360000002 219 114 219 C 110.13400639999998 219 107 215.86599360000002 107 212 Z"/></g><g><path fill="none" stroke="#000000" paint-order="fill stroke markers" d=" M 107 212 C 107 208.13400639999998 110.13400639999998 205 114 205 C 117.86599360000002 205 121 208.13400639999998 121 212 C 121 215.86599360000002 117.86599360000002 219 114 219 C 110.13400639999998 219 107 215.86599360000002 107 212 Z" stroke-miterlimit="10" stroke-dasharray=""/></g><g><path fill="none" stroke="#000000" paint-order="fill stroke markers" d=" M 121 183 L 107 183" stroke-miterlimit="10" stroke-dasharray=""/></g><g><path fill="none" stroke="#000000" paint-order="fill stroke markers" d=" M 121 190 L 107 190" stroke-miterlimit="10" stroke-dasharray=""/></g><g><rect fill="#ffffff" stroke="none" x="559" y="297" width="0" height="13" transform="matrix(1 0 0 1 -430 -102)"/></g><g><g><path fill="none" stroke="none"/><text fill="#000000" stroke="none" font-family="Arial" font-size="13px" font-style="normal" font-weight="normal" text-decoration="undefined" x="559" y="303.5" text-anchor="middle" dominant-baseline="central" transform="matrix(1 0 0 1 -430 -102)"></text></g></g><g><rect fill="#ffffff" stroke="none" x="559" y="304" width="0" height="13" transform="matrix(1 0 0 1 -430 -102)"/></g><g><g><path fill="none" stroke="none"/><text fill="#000000" stroke="none" font-family="Arial" font-size="13px" font-style="normal" font-weight="normal" text-decoration="undefined" x="559" y="310.5" text-anchor="middle" dominant-baseline="central" transform="matrix(1 0 0 1 -430 -102)"></text></g></g><g><path fill="none" stroke="#000000" paint-order="fill stroke markers" d=" M 210 272 L 338 272" stroke-miterlimit="10" stroke-dasharray=""/></g><g><path fill="none" stroke="#000000" paint-order="fill stroke markers" d=" M 324 272 L 338 279" stroke-miterlimit="10" stroke-dasharray=""/></g><g><path fill="none" stroke="#000000" paint-order="fill stroke markers" d=" M 324 272 L 338 265" stroke-miterlimit="10" stroke-dasharray=""/></g><g><path fill="#FFFFFF" stroke="none" paint-order="stroke fill markers" d=" M 309 272 C 309 268.1340064 312.1340064 265 316 265 C 319.8659936 265 323 268.1340064 323 272 C 323 275.8659936 319.8659936 279 316 279 C 312.1340064 279 309 275.8659936 309 272 Z"/></g><g><path fill="none" stroke="#000000" paint-order="fill stroke markers" d=" M 309 272 C 309 268.1340064 312.1340064 265 316 265 C 319.8659936 265 323 268.1340064 323 272 C 323 275.8659936 319.8659936 279 316 279 C 312.1340064 279 309 275.8659936 309 272 Z" stroke-miterlimit="10" stroke-dasharray=""/></g><g><path fill="none" stroke="#000000" paint-order="fill stroke markers" d=" M 217 265 L 217 279" stroke-miterlimit="10" stroke-dasharray=""/></g><g><path fill="none" stroke="#000000" paint-order="fill stroke markers" d=" M 224 265 L 224 279" stroke-miterlimit="10" stroke-dasharray=""/></g><g><rect fill="#ffffff" stroke="none" x="665" y="353" width="0" height="13" transform="matrix(1 0 0 1 -430 -102)"/></g><g><g><path fill="none" stroke="none"/><text fill="#000000" stroke="none" font-family="Arial" font-size="13px" font-style="normal" font-weight="normal" text-decoration="undefined" x="665" y="359.5" text-anchor="middle" dominant-baseline="central" transform="matrix(1 0 0 1 -430 -102)"></text></g></g><g><rect fill="#ffffff" stroke="none" x="742" y="353" width="0" height="13" transform="matrix(1 0 0 1 -430 -102)"/></g><g><g><path fill="none" stroke="none"/><text fill="#000000" stroke="none" font-family="Arial" font-size="13px" font-style="normal" font-weight="normal" text-decoration="undefined" x="742" y="359.5" text-anchor="middle" dominant-baseline="central" transform="matrix(1 0 0 1 -430 -102)"></text></g></g></g></svg>