<svg version="1.1" xmlns="http://www.w3.org/2000/svg" xmlns:xlink="http://www.w3.org/1999/xlink" width="1156" height="860"><defs/><g><g><path fill="none" stroke="#000000" paint-order="fill stroke markers" d=" M 10 10 L 1146 10 L 1146 850 L 10 850 L 10 10" stroke-miterlimit="10" stroke-dasharray=""/></g><g><path fill="#ffffff" stroke="none" paint-order="stroke fill markers" d=" M 10 10 L 10 33 L 140.86083984375 33 L 152.36083984375 21.5 L 152.36083984375 10 L 10 10"/></g><g><path fill="none" stroke="#000000" paint-order="fill stroke markers" d=" M 10 10 L 10 33 L 140.86083984375 33 L 152.36083984375 21.5 L 152.36083984375 10 L 10 10 L 10 10" stroke-miterlimit="10" stroke-dasharray=""/></g><g><g><path fill="none" stroke="none"/><text fill="#000000" stroke="none" font-family="Arial" font-size="13px" font-style="normal" font-weight="normal" text-decoration="undefined" x="531.239501953125" y="51.5" text-anchor="middle" dominant-baseline="central" transform="matrix(1 0 0 1 -438 -30)">Class Diagram</text></g></g><g><g><path fill="none" stroke="none"/><text fill="#000000" stroke="none" font-family="Arial" font-size="13px" font-style="normal" font-weight="bold" text-decoration="undefined" x="467.80908203125" y="51.5" text-anchor="middle" dominant-baseline="central" transform="matrix(1 0 0 1 -438 -30)">class</text></g></g><g><rect fill="#C0C0C0" stroke="none" x="1079" y="159" width="170.7861328125" height="176" transform="matrix(1 0 0 1 -438 -30)" fill-opacity="0.2"/></g><g><rect fill="#ffffff" stroke="none" x="1072" y="152" width="170.7861328125" height="176" transform="matrix(1 0 0 1 -438 -30)"/></g><g><path fill="none" stroke="#000000" paint-order="fill stroke markers" d=" M 634 122 L 804.7861328125 122 L 804.7861328125 298 L 634 298 L 634 122 Z Z" stroke-miterlimit="10" stroke-dasharray=""/></g><g><path fill="none" stroke="#000000" paint-order="fill stroke markers" d=" M 634 147 L 804.7861328125 147" stroke-miterlimit="10" stroke-dasharray=""/></g><g><path fill="none" stroke="#000000" paint-order="fill stroke markers" d=" M 634 157 L 804.7861328125 157" stroke-miterlimit="10" stroke-dasharray=""/></g><g><g><path fill="none" stroke="none"/><text fill="#000000" stroke="none" font-family="Arial" font-size="13px" font-style="normal" font-weight="bold" text-decoration="undefined" x="1157.89306640625" y="165.5" text-anchor="middle" dominant-baseline="central" transform="matrix(1 0 0 1 -438 -30)">User</text></g></g><g><g><path fill="none" stroke="none"/><text fill="#000000" stroke="none" font-family="Arial" font-size="13px" font-style="normal" font-weight="normal" text-decoration="undefined" x="1077" y="198.5" text-anchor="start" dominant-baseline="central" transform="matrix(1 0 0 1 -438 -30)">+bookSeat(seatNum)</text></g></g><g><g><path fill="none" stroke="none"/><text fill="#000000" stroke="none" font-family="Arial" font-size="13px" font-style="normal" font-weight="normal" text-decoration="undefined" x="1077" y="213.5" text-anchor="start" dominant-baseline="central" transform="matrix(1 0 0 1 -438 -30)">+selectFlight(Flight)</text></g></g><g><g><path fill="none" stroke="none"/><text fill="#000000" stroke="none" font-family="Arial" font-size="13px" font-style="normal" font-weight="normal" text-decoration="undefined" x="1077" y="228.5" text-anchor="start" dominant-baseline="central" transform="matrix(1 0 0 1 -438 -30)">+checkBooking(BookingNo)</text></g></g><g><rect fill="#C0C0C0" stroke="none" x="619" y="303" width="248.53857421875" height="163" transform="matrix(1 0 0 1 -438 -30)" fill-opacity="0.2"/></g><g><rect fill="#ffffff" stroke="none" x="612" y="296" width="248.53857421875" height="163" transform="matrix(1 0 0 1 -438 -30)"/></g><g><path fill="none" stroke="#000000" paint-order="fill stroke markers" d=" M 174 266 L 422.53857421875 266 L 422.53857421875 429 L 174 429 L 174 266 Z Z" stroke-miterlimit="10" stroke-dasharray=""/></g><g><path fill="none" stroke="#000000" paint-order="fill stroke markers" d=" M 174 291 L 422.53857421875 291" stroke-miterlimit="10" stroke-dasharray=""/></g><g><path fill="none" stroke="#000000" paint-order="fill stroke markers" d=" M 174 406 L 422.53857421875 406" stroke-miterlimit="10" stroke-dasharray=""/></g><g><g><path fill="none" stroke="none"/><text fill="#000000" stroke="none" font-family="Arial" font-size="13px" font-style="normal" font-weight="bold" text-decoration="undefined" x="736.769287109375" y="309.5" text-anchor="middle" dominant-baseline="central" transform="matrix(1 0 0 1 -438 -30)">Flight</text></g></g><g><g><path fill="none" stroke="none"/><text fill="#000000" stroke="none" font-family="Arial" font-size="13px" font-style="normal" font-weight="normal" text-decoration="undefined" x="617" y="334.5" text-anchor="start" dominant-baseline="central" transform="matrix(1 0 0 1 -438 -30)">-isCancelled: boolean</text></g></g><g><g><path fill="none" stroke="none"/><text fill="#000000" stroke="none" font-family="Arial" font-size="13px" font-style="normal" font-weight="normal" text-decoration="undefined" x="617" y="349.5" text-anchor="start" dominant-baseline="central" transform="matrix(1 0 0 1 -438 -30)">-price: float</text></g></g><g><g><path fill="none" stroke="none"/><text fill="#000000" stroke="none" font-family="Arial" font-size="13px" font-style="normal" font-weight="normal" text-decoration="undefined" x="617" y="364.5" text-anchor="start" dominant-baseline="central" transform="matrix(1 0 0 1 -438 -30)">-departureTime: float</text></g></g><g><g><path fill="none" stroke="none"/><text fill="#000000" stroke="none" font-family="Arial" font-size="13px" font-style="normal" font-weight="normal" text-decoration="undefined" x="617" y="379.5" text-anchor="start" dominant-baseline="central" transform="matrix(1 0 0 1 -438 -30)">-arrivalTime: float</text></g></g><g><g><path fill="none" stroke="none"/><text fill="#000000" stroke="none" font-family="Arial" font-size="13px" font-style="normal" font-weight="normal" text-decoration="undefined" x="617" y="394.5" text-anchor="start" dominant-baseline="central" transform="matrix(1 0 0 1 -438 -30)">-departureAirport: String</text></g></g><g><g><path fill="none" stroke="none"/><text fill="#000000" stroke="none" font-family="Arial" font-size="13px" font-style="normal" font-weight="normal" text-decoration="undefined" x="617" y="409.5" text-anchor="start" dominant-baseline="central" transform="matrix(1 0 0 1 -438 -30)">-arrivalAirport: String</text></g></g><g><g><path fill="none" stroke="none"/><text fill="#000000" stroke="none" font-family="Arial" font-size="13px" font-style="normal" font-weight="normal" text-decoration="undefined" x="617" y="424.5" text-anchor="start" dominant-baseline="central" transform="matrix(1 0 0 1 -438 -30)">-flightID: String</text></g></g><g><g><path fill="none" stroke="none"/><text fill="#000000" stroke="none" font-family="Arial" font-size="13px" font-style="normal" font-weight="normal" text-decoration="undefined" x="617" y="447.5" text-anchor="start" dominant-baseline="central" transform="matrix(1 0 0 1 -438 -30)">+getDuration(arrivalTime, departureTime)</text></g></g><g><rect fill="#C0C0C0" stroke="none" x="671" y="567" width="144" height="118" transform="matrix(1 0 0 1 -438 -30)" fill-opacity="0.2"/></g><g><rect fill="#ffffff" stroke="none" x="664" y="560" width="144" height="118" transform="matrix(1 0 0 1 -438 -30)"/></g><g><path fill="none" stroke="#000000" paint-order="fill stroke markers" d=" M 226 530 L 370 530 L 370 648 L 226 648 L 226 530 Z Z" stroke-miterlimit="10" stroke-dasharray=""/></g><g><path fill="none" stroke="#000000" paint-order="fill stroke markers" d=" M 226 555 L 370 555" stroke-miterlimit="10" stroke-dasharray=""/></g><g><path fill="none" stroke="#000000" paint-order="fill stroke markers" d=" M 226 623 L 370 623" stroke-miterlimit="10" stroke-dasharray=""/></g><g><g><path fill="none" stroke="none"/><text fill="#000000" stroke="none" font-family="Arial" font-size="13px" font-style="italic" font-weight="bold" text-decoration="undefined" x="736.5" y="573.5" text-anchor="middle" dominant-baseline="central" transform="matrix(1 0 0 1 -438 -30)">Aircraft</text></g></g><g><g><path fill="none" stroke="none"/><text fill="#000000" stroke="none" font-family="Arial" font-size="13px" font-style="normal" font-weight="normal" text-decoration="undefined" x="669" y="596.5" text-anchor="start" dominant-baseline="central" transform="matrix(1 0 0 1 -438 -30)">-type: String</text></g></g><g><g><path fill="none" stroke="none"/><text fill="#000000" stroke="none" font-family="Arial" font-size="13px" font-style="normal" font-weight="normal" text-decoration="undefined" x="669" y="611.5" text-anchor="start" dominant-baseline="central" transform="matrix(1 0 0 1 -438 -30)">-noSeats: int</text></g></g><g><g><path fill="none" stroke="none"/><text fill="#000000" stroke="none" font-family="Arial" font-size="13px" font-style="normal" font-weight="normal" text-decoration="undefined" x="669" y="626.5" text-anchor="start" dominant-baseline="central" transform="matrix(1 0 0 1 -438 -30)">-businessSeats: int</text></g></g><g><g><path fill="none" stroke="none"/><text fill="#000000" stroke="none" font-family="Arial" font-size="13px" font-style="normal" font-weight="normal" text-decoration="undefined" x="669" y="641.5" text-anchor="start" dominant-baseline="central" transform="matrix(1 0 0 1 -438 -30)">-firstClassSeats: int</text></g></g><g><path fill="none" stroke="#000000" paint-order="fill stroke markers" d=" M 298 529 L 298 430" stroke-miterlimit="10" stroke-dasharray=""/></g><g><path fill="#FFFFFF" stroke="none" paint-order="stroke fill markers" d=" M 302.209517756016 440.16267485762415 L 298 430 L 293.790482243984 440.16267485762415 L 298 452"/></g><g><path fill="none" stroke="#000000" paint-order="fill stroke markers" d=" M 302.209517756016 440.16267485762415 L 298 430 L 293.790482243984 440.16267485762415 L 298 452 L 302.209517756016 440.16267485762415" stroke-miterlimit="10" stroke-dasharray=""/></g><g><rect fill="#ffffff" stroke="none" x="745" y="531" width="7.22998046875" height="13" transform="matrix(1 0 0 1 -438 -30)"/></g><g><g><path fill="none" stroke="none"/><text fill="#000000" stroke="none" font-family="Arial" font-size="13px" font-style="normal" font-weight="normal" text-decoration="undefined" x="748.614990234375" y="537.5" text-anchor="middle" dominant-baseline="central" transform="matrix(1 0 0 1 -438 -30)">1</text></g></g><g><rect fill="#ffffff" stroke="none" x="745" y="475" width="7.22998046875" height="13" transform="matrix(1 0 0 1 -438 -30)"/></g><g><g><path fill="none" stroke="none"/><text fill="#000000" stroke="none" font-family="Arial" font-size="13px" font-style="normal" font-weight="normal" text-decoration="undefined" x="748.614990234375" y="481.5" text-anchor="middle" dominant-baseline="central" transform="matrix(1 0 0 1 -438 -30)">1</text></g></g><g><rect fill="#C0C0C0" stroke="none" x="681" y="79" width="124.91796875" height="103" transform="matrix(1 0 0 1 -438 -30)" fill-opacity="0.2"/></g><g><rect fill="#ffffff" stroke="none" x="674" y="72" width="124.91796875" height="103" transform="matrix(1 0 0 1 -438 -30)"/></g><g><path fill="none" stroke="#000000" paint-order="fill stroke markers" d=" M 236 42 L 360.91796875 42 L 360.91796875 145 L 236 145 L 236 42 Z Z" stroke-miterlimit="10" stroke-dasharray=""/></g><g><path fill="none" stroke="#000000" paint-order="fill stroke markers" d=" M 236 67 L 360.91796875 67" stroke-miterlimit="10" stroke-dasharray=""/></g><g><path fill="none" stroke="#000000" paint-order="fill stroke markers" d=" M 236 120 L 360.91796875 120" stroke-miterlimit="10" stroke-dasharray=""/></g><g><g><path fill="none" stroke="none"/><text fill="#000000" stroke="none" font-family="Arial" font-size="13px" font-style="normal" font-weight="bold" text-decoration="undefined" x="736.958984375" y="85.5" text-anchor="middle" dominant-baseline="central" transform="matrix(1 0 0 1 -438 -30)">Weather</text></g></g><g><g><path fill="none" stroke="none"/><text fill="#000000" stroke="none" font-family="Arial" font-size="13px" font-style="normal" font-weight="normal" text-decoration="undefined" x="679" y="108.5" text-anchor="start" dominant-baseline="central" transform="matrix(1 0 0 1 -438 -30)">-location: String</text></g></g><g><g><path fill="none" stroke="none"/><text fill="#000000" stroke="none" font-family="Arial" font-size="13px" font-style="normal" font-weight="normal" text-decoration="undefined" x="679" y="123.5" text-anchor="start" dominant-baseline="central" transform="matrix(1 0 0 1 -438 -30)">-condition: int</text></g></g><g><g><path fill="none" stroke="none"/><text fill="#000000" stroke="none" font-family="Arial" font-size="13px" font-style="normal" font-weight="normal" text-decoration="undefined" x="679" y="138.5" text-anchor="start" dominant-baseline="central" transform="matrix(1 0 0 1 -438 -30)">-windSpeed: double</text></g></g><g><rect fill="#C0C0C0" stroke="none" x="1415" y="182" width="115.47900390625" height="133" transform="matrix(1 0 0 1 -438 -30)" fill-opacity="0.2"/></g><g><rect fill="#ffffff" stroke="none" x="1408" y="175" width="115.47900390625" height="133" transform="matrix(1 0 0 1 -438 -30)"/></g><g><path fill="none" stroke="#000000" paint-order="fill stroke markers" d=" M 970 145 L 1085.47900390625 145 L 1085.47900390625 278 L 970 278 L 970 145 Z Z" stroke-miterlimit="10" stroke-dasharray=""/></g><g><path fill="none" stroke="#000000" paint-order="fill stroke markers" d=" M 970 170 L 1085.47900390625 170" stroke-miterlimit="10" stroke-dasharray=""/></g><g><path fill="none" stroke="#000000" paint-order="fill stroke markers" d=" M 970 268 L 1085.47900390625 268" stroke-miterlimit="10" stroke-dasharray=""/></g><g><g><path fill="none" stroke="none"/><text fill="#000000" stroke="none" font-family="Arial" font-size="13px" font-style="normal" font-weight="bold" text-decoration="undefined" x="1466.239501953125" y="188.5" text-anchor="middle" dominant-baseline="central" transform="matrix(1 0 0 1 -438 -30)">Payment</text></g></g><g><g><path fill="none" stroke="none"/><text fill="#000000" stroke="none" font-family="Arial" font-size="13px" font-style="normal" font-weight="normal" text-decoration="undefined" x="1413" y="211.5" text-anchor="start" dominant-baseline="central" transform="matrix(1 0 0 1 -438 -30)">-type: String</text></g></g><g><g><path fill="none" stroke="none"/><text fill="#000000" stroke="none" font-family="Arial" font-size="13px" font-style="normal" font-weight="normal" text-decoration="undefined" x="1413" y="226.5" text-anchor="start" dominant-baseline="central" transform="matrix(1 0 0 1 -438 -30)">-cardNo: int</text></g></g><g><g><path fill="none" stroke="none"/><text fill="#000000" stroke="none" font-family="Arial" font-size="13px" font-style="normal" font-weight="normal" text-decoration="undefined" x="1413" y="241.5" text-anchor="start" dominant-baseline="central" transform="matrix(1 0 0 1 -438 -30)">-expiryMonth: int</text></g></g><g><g><path fill="none" stroke="none"/><text fill="#000000" stroke="none" font-family="Arial" font-size="13px" font-style="normal" font-weight="normal" text-decoration="undefined" x="1413" y="256.5" text-anchor="start" dominant-baseline="central" transform="matrix(1 0 0 1 -438 -30)">-expiryYear: int</text></g></g><g><g><path fill="none" stroke="none"/><text fill="#000000" stroke="none" font-family="Arial" font-size="13px" font-style="normal" font-weight="normal" text-decoration="undefined" x="1413" y="271.5" text-anchor="start" dominant-baseline="central" transform="matrix(1 0 0 1 -438 -30)">-CVV: int</text></g></g><g><g><path fill="none" stroke="none"/><text fill="#000000" stroke="none" font-family="Arial" font-size="13px" font-style="normal" font-weight="normal" text-decoration="undefined" x="1413" y="286.5" text-anchor="start" dominant-baseline="central" transform="matrix(1 0 0 1 -438 -30)">-cardName: String</text></g></g><g><rect fill="#C0C0C0" stroke="none" x="1096" y="621" width="132.12890625" height="103" transform="matrix(1 0 0 1 -438 -30)" fill-opacity="0.2"/></g><g><rect fill="#ffffff" stroke="none" x="1089" y="614" width="132.12890625" height="103" transform="matrix(1 0 0 1 -438 -30)"/></g><g><path fill="none" stroke="#000000" paint-order="fill stroke markers" d=" M 651 584 L 783.12890625 584 L 783.12890625 687 L 651 687 L 651 584 Z Z" stroke-miterlimit="10" stroke-dasharray=""/></g><g><path fill="none" stroke="#000000" paint-order="fill stroke markers" d=" M 651 609 L 783.12890625 609" stroke-miterlimit="10" stroke-dasharray=""/></g><g><path fill="none" stroke="#000000" paint-order="fill stroke markers" d=" M 651 677 L 783.12890625 677" stroke-miterlimit="10" stroke-dasharray=""/></g><g><g><path fill="none" stroke="none"/><text fill="#000000" stroke="none" font-family="Arial" font-size="13px" font-style="normal" font-weight="bold" text-decoration="undefined" x="1155.564453125" y="627.5" text-anchor="middle" dominant-baseline="central" transform="matrix(1 0 0 1 -438 -30)">Seat</text></g></g><g><g><path fill="none" stroke="none"/><text fill="#000000" stroke="none" font-family="Arial" font-size="13px" font-style="normal" font-weight="normal" text-decoration="undefined" x="1094" y="650.5" text-anchor="start" dominant-baseline="central" transform="matrix(1 0 0 1 -438 -30)">-isOccupied: boolean</text></g></g><g><g><path fill="none" stroke="none"/><text fill="#000000" stroke="none" font-family="Arial" font-size="13px" font-style="normal" font-weight="normal" text-decoration="undefined" x="1094" y="665.5" text-anchor="start" dominant-baseline="central" transform="matrix(1 0 0 1 -438 -30)">-seatNum: String</text></g></g><g><g><path fill="none" stroke="none"/><text fill="#000000" stroke="none" font-family="Arial" font-size="13px" font-style="normal" font-weight="normal" text-decoration="undefined" x="1094" y="680.5" text-anchor="start" dominant-baseline="central" transform="matrix(1 0 0 1 -438 -30)">-price: float</text></g></g><g><g><path fill="none" stroke="none"/><text fill="#000000" stroke="none" font-family="Arial" font-size="13px" font-style="normal" font-weight="normal" text-decoration="undefined" x="1094" y="695.5" text-anchor="start" dominant-baseline="central" transform="matrix(1 0 0 1 -438 -30)">-class: String</text></g></g><g><path fill="none" stroke="#000000" paint-order="fill stroke markers" d=" M 633 238 L 424 306" stroke-miterlimit="10" stroke-dasharray=""/></g><g><rect fill="#ffffff" stroke="none" x="907" y="310" width="126.08984375" height="13" transform="matrix(1 0 0 1 -438 -30)"/></g><g><g><path fill="none" stroke="none"/><text fill="#000000" stroke="none" font-family="Arial" font-size="13px" font-style="normal" font-weight="normal" text-decoration="undefined" x="970.044921875" y="316.5" text-anchor="middle" dominant-baseline="central" transform="matrix(1 0 0 1 -438 -30)">+Chooses or browses</text></g></g><g><rect fill="#ffffff" stroke="none" x="1043" y="256" width="7.22998046875" height="13" transform="matrix(1 0 0 1 -438 -30)"/></g><g><g><path fill="none" stroke="none"/><text fill="#000000" stroke="none" font-family="Arial" font-size="13px" font-style="normal" font-weight="normal" text-decoration="undefined" x="1046.614990234375" y="262.5" text-anchor="middle" dominant-baseline="central" transform="matrix(1 0 0 1 -438 -30)">1</text></g></g><g><rect fill="#ffffff" stroke="none" x="869" y="311" width="19.5126953125" height="13" transform="matrix(1 0 0 1 -438 -30)"/></g><g><g><path fill="none" stroke="none"/><text fill="#000000" stroke="none" font-family="Arial" font-size="13px" font-style="normal" font-weight="normal" text-decoration="undefined" x="878.75634765625" y="317.5" text-anchor="middle" dominant-baseline="central" transform="matrix(1 0 0 1 -438 -30)">0..*</text></g></g><g><path fill="none" stroke="#000000" paint-order="fill stroke markers" d=" M 298 265 L 298 146" stroke-miterlimit="10" stroke-dasharray=""/></g><g><rect fill="#ffffff" stroke="none" x="696" y="228" width="50.93994140625" height="13" transform="matrix(1 0 0 1 -438 -30)"/></g><g><g><path fill="none" stroke="none"/><text fill="#000000" stroke="none" font-family="Arial" font-size="13px" font-style="normal" font-weight="normal" text-decoration="undefined" x="721.469970703125" y="234.5" text-anchor="middle" dominant-baseline="central" transform="matrix(1 0 0 1 -438 -30)">+Checks</text></g></g><g><rect fill="#ffffff" stroke="none" x="739" y="267" width="19.5126953125" height="13" transform="matrix(1 0 0 1 -438 -30)"/></g><g><g><path fill="none" stroke="none"/><text fill="#000000" stroke="none" font-family="Arial" font-size="13px" font-style="normal" font-weight="normal" text-decoration="undefined" x="748.75634765625" y="273.5" text-anchor="middle" dominant-baseline="central" transform="matrix(1 0 0 1 -438 -30)">1..*</text></g></g><g><rect fill="#ffffff" stroke="none" x="741" y="191" width="14.45361328125" height="13" transform="matrix(1 0 0 1 -438 -30)"/></g><g><g><path fill="none" stroke="none"/><text fill="#000000" stroke="none" font-family="Arial" font-size="13px" font-style="normal" font-weight="normal" text-decoration="undefined" x="748.226806640625" y="197.5" text-anchor="middle" dominant-baseline="central" transform="matrix(1 0 0 1 -438 -30)">2</text></g></g><g><path fill="none" stroke="#000000" paint-order="fill stroke markers" d=" M 633 186 L 362 111" stroke-miterlimit="10" stroke-dasharray=""/></g><g><rect fill="#ffffff" stroke="none" x="909" y="186" width="44.43994140625" height="13" transform="matrix(1 0 0 1 -438 -30)"/></g><g><g><path fill="none" stroke="none"/><text fill="#000000" stroke="none" font-family="Arial" font-size="13px" font-style="normal" font-weight="normal" text-decoration="undefined" x="931.219970703125" y="192.5" text-anchor="middle" dominant-baseline="central" transform="matrix(1 0 0 1 -438 -30)">+Check</text></g></g><g><rect fill="#ffffff" stroke="none" x="1050" y="192" width="7.22998046875" height="13" transform="matrix(1 0 0 1 -438 -30)"/></g><g><g><path fill="none" stroke="none"/><text fill="#000000" stroke="none" font-family="Arial" font-size="13px" font-style="normal" font-weight="normal" text-decoration="undefined" x="1053.614990234375" y="198.5" text-anchor="middle" dominant-baseline="central" transform="matrix(1 0 0 1 -438 -30)">1</text></g></g><g><rect fill="#ffffff" stroke="none" x="815" y="128" width="19.5126953125" height="13" transform="matrix(1 0 0 1 -438 -30)"/></g><g><g><path fill="none" stroke="none"/><text fill="#000000" stroke="none" font-family="Arial" font-size="13px" font-style="normal" font-weight="normal" text-decoration="undefined" x="824.75634765625" y="134.5" text-anchor="middle" dominant-baseline="central" transform="matrix(1 0 0 1 -438 -30)">0..*</text></g></g><g><path fill="none" stroke="#000000" paint-order="fill stroke markers" d=" M 806 210 L 969 211" stroke-miterlimit="10" stroke-dasharray=""/></g><g><rect fill="#ffffff" stroke="none" x="1299" y="219" width="53.11083984375" height="13" transform="matrix(1 0 0 1 -438 -30)"/></g><g><g><path fill="none" stroke="none"/><text fill="#000000" stroke="none" font-family="Arial" font-size="13px" font-style="normal" font-weight="normal" text-decoration="undefined" x="1325.555419921875" y="225.5" text-anchor="middle" dominant-baseline="central" transform="matrix(1 0 0 1 -438 -30)">+Creates</text></g></g><g><rect fill="#ffffff" stroke="none" x="1255" y="246" width="21.68359375" height="13" transform="matrix(1 0 0 1 -438 -30)"/></g><g><g><path fill="none" stroke="none"/><text fill="#000000" stroke="none" font-family="Arial" font-size="13px" font-style="normal" font-weight="normal" text-decoration="undefined" x="1265.841796875" y="252.5" text-anchor="middle" dominant-baseline="central" transform="matrix(1 0 0 1 -438 -30)">0..1</text></g></g><g><rect fill="#C0C0C0" stroke="none" x="543" y="757" width="112.62255859375" height="58" transform="matrix(1 0 0 1 -438 -30)" fill-opacity="0.2"/></g><g><rect fill="#ffffff" stroke="none" x="536" y="750" width="112.62255859375" height="58" transform="matrix(1 0 0 1 -438 -30)"/></g><g><path fill="none" stroke="#000000" paint-order="fill stroke markers" d=" M 98 720 L 210.62255859375 720 L 210.62255859375 778 L 98 778 L 98 720 Z Z" stroke-miterlimit="10" stroke-dasharray=""/></g><g><path fill="none" stroke="#000000" paint-order="fill stroke markers" d=" M 98 745 L 210.62255859375 745" stroke-miterlimit="10" stroke-dasharray=""/></g><g><path fill="none" stroke="#000000" paint-order="fill stroke markers" d=" M 98 768 L 210.62255859375 768" stroke-miterlimit="10" stroke-dasharray=""/></g><g><g><path fill="none" stroke="none"/><text fill="#000000" stroke="none" font-family="Arial" font-size="13px" font-style="normal" font-weight="bold" text-decoration="undefined" x="592.811279296875" y="763.5" text-anchor="middle" dominant-baseline="central" transform="matrix(1 0 0 1 -438 -30)">Cessna</text></g></g><g><g><path fill="none" stroke="none"/><text fill="#000000" stroke="none" font-family="Arial" font-size="13px" font-style="normal" font-weight="normal" text-decoration="undefined" x="541" y="786.5" text-anchor="start" dominant-baseline="central" transform="matrix(1 0 0 1 -438 -30)">-noSeats: int {3..7</text></g></g><g><path fill="none" stroke="#000000" paint-order="fill stroke markers" d=" M 181 719 L 244 649" stroke-miterlimit="10" stroke-dasharray=""/></g><g><path fill="#FFFFFF" stroke="none" paint-order="stroke fill markers" d=" M 236.66087769574688 669.7397512955969 L 244 649 L 224.14523806946613 658.4756756319442"/></g><g><path fill="none" stroke="#000000" paint-order="fill stroke markers" d=" M 236.66087769574688 669.7397512955969 L 244 649 L 224.14523806946613 658.4756756319442 L 236.66087769574688 669.7397512955969" stroke-miterlimit="10" stroke-dasharray=""/></g><g><rect fill="#C0C0C0" stroke="none" x="671" y="757" width="145.88427734375" height="58" transform="matrix(1 0 0 1 -438 -30)" fill-opacity="0.2"/></g><g><rect fill="#ffffff" stroke="none" x="664" y="750" width="145.88427734375" height="58" transform="matrix(1 0 0 1 -438 -30)"/></g><g><path fill="none" stroke="#000000" paint-order="fill stroke markers" d=" M 226 720 L 371.88427734375 720 L 371.88427734375 778 L 226 778 L 226 720 Z Z" stroke-miterlimit="10" stroke-dasharray=""/></g><g><path fill="none" stroke="#000000" paint-order="fill stroke markers" d=" M 226 745 L 371.88427734375 745" stroke-miterlimit="10" stroke-dasharray=""/></g><g><path fill="none" stroke="#000000" paint-order="fill stroke markers" d=" M 226 768 L 371.88427734375 768" stroke-miterlimit="10" stroke-dasharray=""/></g><g><g><path fill="none" stroke="none"/><text fill="#000000" stroke="none" font-family="Arial" font-size="13px" font-style="normal" font-weight="bold" text-decoration="undefined" x="737.442138671875" y="763.5" text-anchor="middle" dominant-baseline="central" transform="matrix(1 0 0 1 -438 -30)">Boeing737</text></g></g><g><g><path fill="none" stroke="none"/><text fill="#000000" stroke="none" font-family="Arial" font-size="13px" font-style="normal" font-weight="normal" text-decoration="undefined" x="669" y="786.5" text-anchor="start" dominant-baseline="central" transform="matrix(1 0 0 1 -438 -30)">-noSeats: int {162..189}</text></g></g><g><path fill="none" stroke="#000000" paint-order="fill stroke markers" d=" M 298 719 L 298 649" stroke-miterlimit="10" stroke-dasharray=""/></g><g><path fill="#FFFFFF" stroke="none" paint-order="stroke fill markers" d=" M 306.419035512032 669.3253497152483 L 298 649 L 289.580964487968 669.3253497152483"/></g><g><path fill="none" stroke="#000000" paint-order="fill stroke markers" d=" M 306.419035512032 669.3253497152483 L 298 649 L 289.580964487968 669.3253497152483 L 306.419035512032 669.3253497152483" stroke-miterlimit="10" stroke-dasharray=""/></g><g><rect fill="#C0C0C0" stroke="none" x="831" y="757" width="149.49609375" height="73" transform="matrix(1 0 0 1 -438 -30)" fill-opacity="0.2"/></g><g><rect fill="#ffffff" stroke="none" x="824" y="750" width="149.49609375" height="73" transform="matrix(1 0 0 1 -438 -30)"/></g><g><path fill="none" stroke="#000000" paint-order="fill stroke markers" d=" M 386 720 L 535.49609375 720 L 535.49609375 793 L 386 793 L 386 720 Z Z" stroke-miterlimit="10" stroke-dasharray=""/></g><g><path fill="none" stroke="#000000" paint-order="fill stroke markers" d=" M 386 745 L 535.49609375 745" stroke-miterlimit="10" stroke-dasharray=""/></g><g><path fill="none" stroke="#000000" paint-order="fill stroke markers" d=" M 386 768 L 535.49609375 768" stroke-miterlimit="10" stroke-dasharray=""/></g><g><g><path fill="none" stroke="none"/><text fill="#000000" stroke="none" font-family="Arial" font-size="13px" font-style="normal" font-weight="bold" text-decoration="undefined" x="899.248046875" y="763.5" text-anchor="middle" dominant-baseline="central" transform="matrix(1 0 0 1 -438 -30)">Boeing 777</text></g></g><g><g><path fill="none" stroke="none"/><text fill="#000000" stroke="none" font-family="Arial" font-size="13px" font-style="normal" font-weight="normal" text-decoration="undefined" x="829" y="786.5" text-anchor="start" dominant-baseline="central" transform="matrix(1 0 0 1 -438 -30)">-noSeats: int {301...368}</text></g></g><g><path fill="none" stroke="#000000" paint-order="fill stroke markers" d=" M 424 719 L 356 649" stroke-miterlimit="10" stroke-dasharray=""/></g><g><path fill="#FFFFFF" stroke="none" paint-order="stroke fill markers" d=" M 376.2012132887313 657.7126908394127 L 356 649 L 364.123612129727 669.4452176795884"/></g><g><path fill="none" stroke="#000000" paint-order="fill stroke markers" d=" M 376.2012132887313 657.7126908394127 L 356 649 L 364.123612129727 669.4452176795884 L 376.2012132887313 657.7126908394127" stroke-miterlimit="10" stroke-dasharray=""/></g><g><rect fill="#C0C0C0" stroke="none" x="1104" y="399" width="117.6689453125" height="118" transform="matrix(1 0 0 1 -438 -30)" fill-opacity="0.2"/></g><g><rect fill="#ffffff" stroke="none" x="1097" y="392" width="117.6689453125" height="118" transform="matrix(1 0 0 1 -438 -30)"/></g><g><path fill="none" stroke="#000000" paint-order="fill stroke markers" d=" M 659 362 L 776.6689453125 362 L 776.6689453125 480 L 659 480 L 659 362 Z Z" stroke-miterlimit="10" stroke-dasharray=""/></g><g><path fill="none" stroke="#000000" paint-order="fill stroke markers" d=" M 659 387 L 776.6689453125 387" stroke-miterlimit="10" stroke-dasharray=""/></g><g><path fill="none" stroke="#000000" paint-order="fill stroke markers" d=" M 659 455 L 776.6689453125 455" stroke-miterlimit="10" stroke-dasharray=""/></g><g><g><path fill="none" stroke="none"/><text fill="#000000" stroke="none" font-family="Arial" font-size="13px" font-style="normal" font-weight="bold" text-decoration="undefined" x="1156.33447265625" y="405.5" text-anchor="middle" dominant-baseline="central" transform="matrix(1 0 0 1 -438 -30)">Booking</text></g></g><g><g><path fill="none" stroke="none"/><text fill="#000000" stroke="none" font-family="Arial" font-size="13px" font-style="normal" font-weight="normal" text-decoration="undefined" x="1102" y="428.5" text-anchor="start" dominant-baseline="central" transform="matrix(1 0 0 1 -438 -30)">-bookingNo: String</text></g></g><g><g><path fill="none" stroke="none"/><text fill="#000000" stroke="none" font-family="Arial" font-size="13px" font-style="normal" font-weight="normal" text-decoration="undefined" x="1102" y="443.5" text-anchor="start" dominant-baseline="central" transform="matrix(1 0 0 1 -438 -30)">-email: String</text></g></g><g><g><path fill="none" stroke="none"/><text fill="#000000" stroke="none" font-family="Arial" font-size="13px" font-style="normal" font-weight="normal" text-decoration="undefined" x="1102" y="458.5" text-anchor="start" dominant-baseline="central" transform="matrix(1 0 0 1 -438 -30)">-priority: boolean</text></g></g><g><g><path fill="none" stroke="none"/><text fill="#000000" stroke="none" font-family="Arial" font-size="13px" font-style="normal" font-weight="normal" text-decoration="undefined" x="1102" y="473.5" text-anchor="start" dominant-baseline="central" transform="matrix(1 0 0 1 -438 -30)">-20kgLuggage: int</text></g></g><g><path fill="none" stroke="#000000" paint-order="fill stroke markers" d=" M 718 361 L 718 299" stroke-miterlimit="10" stroke-dasharray=""/></g><g><path fill="#000000" stroke="none" paint-order="stroke fill markers" d=" M 722.2095177560159 309.16267485762415 L 718 299 L 713.7904822439841 309.16267485762415 L 718 321"/></g><g><path fill="none" stroke="#000000" paint-order="fill stroke markers" d=" M 722.2095177560159 309.16267485762415 L 718 299 L 713.7904822439841 309.16267485762415 L 718 321 L 722.2095177560159 309.16267485762415" stroke-miterlimit="10" stroke-dasharray=""/></g><g><rect fill="#ffffff" stroke="none" x="1159" y="363" width="19.5126953125" height="13" transform="matrix(1 0 0 1 -438 -30)"/></g><g><g><path fill="none" stroke="none"/><text fill="#000000" stroke="none" font-family="Arial" font-size="13px" font-style="normal" font-weight="normal" text-decoration="undefined" x="1168.75634765625" y="369.5" text-anchor="middle" dominant-baseline="central" transform="matrix(1 0 0 1 -438 -30)">0..*</text></g></g><g><path fill="none" stroke="#000000" paint-order="fill stroke markers" d=" M 650 628 L 371 597" stroke-miterlimit="10" stroke-dasharray=""/></g><g><path fill="#FFFFFF" stroke="none" paint-order="stroke fill markers" d=" M 381.56538071160514 593.9385084650058 L 371 597 L 380.6356537719332 602.3060509220539 L 392.8654421628196 599.4294935736466"/></g><g><path fill="none" stroke="#000000" paint-order="fill stroke markers" d=" M 381.56538071160514 593.9385084650058 L 371 597 L 380.6356537719332 602.3060509220539 L 392.8654421628196 599.4294935736466 L 381.56538071160514 593.9385084650058" stroke-miterlimit="10" stroke-dasharray=""/></g><g><rect fill="#ffffff" stroke="none" x="912" y="650" width="69.00537109375" height="13" transform="matrix(1 0 0 1 -438 -30)"/></g><g><g><path fill="none" stroke="none"/><text fill="#000000" stroke="none" font-family="Arial" font-size="13px" font-style="normal" font-weight="normal" text-decoration="undefined" x="946.502685546875" y="656.5" text-anchor="middle" dominant-baseline="central" transform="matrix(1 0 0 1 -438 -30)">+consists of</text></g></g><g><rect fill="#ffffff" stroke="none" x="1058" y="637" width="19.5126953125" height="13" transform="matrix(1 0 0 1 -438 -30)"/></g><g><g><path fill="none" stroke="none"/><text fill="#000000" stroke="none" font-family="Arial" font-size="13px" font-style="normal" font-weight="normal" text-decoration="undefined" x="1067.75634765625" y="643.5" text-anchor="middle" dominant-baseline="central" transform="matrix(1 0 0 1 -438 -30)">1..*</text></g></g><g><rect fill="#ffffff" stroke="none" x="828" y="610" width="7.22998046875" height="13" transform="matrix(1 0 0 1 -438 -30)"/></g><g><g><path fill="none" stroke="none"/><text fill="#000000" stroke="none" font-family="Arial" font-size="13px" font-style="normal" font-weight="normal" text-decoration="undefined" x="831.614990234375" y="616.5" text-anchor="middle" dominant-baseline="central" transform="matrix(1 0 0 1 -438 -30)">1</text></g></g><g><g><path fill="none" stroke="none"/><text fill="#000000" stroke="none" font-family="Arial" font-size="13px" font-style="normal" font-weight="normal" text-decoration="undefined" x="653" y="821" text-anchor="start" dominant-baseline="text-before-edge" transform="matrix(1 0 0 1 -438 -30)">Numbers taken from the</text><text fill="#000000" stroke="none" font-family="Arial" font-size="13px" font-style="normal" font-weight="normal" text-decoration="undefined" x="653" y="834" text-anchor="start" dominant-baseline="text-before-edge" transform="matrix(1 0 0 1 -438 -30)">web*</text></g></g><g><path fill="none" stroke="#000000" paint-order="fill stroke markers" d=" M 424 369 L 658 411" stroke-miterlimit="10" stroke-dasharray=""/></g><g><path fill="#FFFFFF" stroke="none" paint-order="stroke fill markers" d=" M 647.2535012424196 413.34792769337605 L 658 411 L 648.7408422607803 405.0613134482239 L 636.3460334461345 407.113390618537"/></g><g><path fill="none" stroke="#000000" paint-order="fill stroke markers" d=" M 647.2535012424196 413.34792769337605 L 658 411 L 648.7408422607803 405.0613134482239 L 636.3460334461345 407.113390618537 L 647.2535012424196 413.34792769337605" stroke-miterlimit="10" stroke-dasharray=""/></g><g><rect fill="#ffffff" stroke="none" x="878" y="409" width="7.22998046875" height="13" transform="matrix(1 0 0 1 -438 -30)"/></g><g><g><path fill="none" stroke="none"/><text fill="#000000" stroke="none" font-family="Arial" font-size="13px" font-style="normal" font-weight="normal" text-decoration="undefined" x="881.614990234375" y="415.5" text-anchor="middle" dominant-baseline="central" transform="matrix(1 0 0 1 -438 -30)">1</text></g></g><g><rect fill="#ffffff" stroke="none" x="1063" y="443" width="19.5126953125" height="13" transform="matrix(1 0 0 1 -438 -30)"/></g><g><g><path fill="none" stroke="none"/><text fill="#000000" stroke="none" font-family="Arial" font-size="13px" font-style="normal" font-weight="normal" text-decoration="undefined" x="1072.75634765625" y="449.5" text-anchor="middle" dominant-baseline="central" transform="matrix(1 0 0 1 -438 -30)">1..*</text></g></g><g><rect fill="#C0C0C0" stroke="none" x="1343" y="406" width="200" height="104" transform="matrix(1 0 0 1 -438 -30)" fill-opacity="0.2"/></g><g><rect fill="#ffffff" stroke="none" x="1336" y="399" width="200" height="104" transform="matrix(1 0 0 1 -438 -30)"/></g><g><path fill="none" stroke="#000000" paint-order="fill stroke markers" d=" M 898 369 L 1098 369 L 1098 473 L 898 473 L 898 369 Z Z" stroke-miterlimit="10" stroke-dasharray=""/></g><g><path fill="none" stroke="#000000" paint-order="fill stroke markers" d=" M 898 394 L 1098 394" stroke-miterlimit="10" stroke-dasharray=""/></g><g><path fill="none" stroke="#000000" paint-order="fill stroke markers" d=" M 898 447 L 1098 447" stroke-miterlimit="10" stroke-dasharray=""/></g><g><g><path fill="none" stroke="none"/><text fill="#000000" stroke="none" font-family="Arial" font-size="13px" font-style="normal" font-weight="bold" text-decoration="undefined" x="1436.5" y="412.5" text-anchor="middle" dominant-baseline="central" transform="matrix(1 0 0 1 -438 -30)">Passenger</text></g></g><g><g><path fill="none" stroke="none"/><text fill="#000000" stroke="none" font-family="Arial" font-size="13px" font-style="normal" font-weight="normal" text-decoration="undefined" x="1341" y="435.5" text-anchor="start" dominant-baseline="central" transform="matrix(1 0 0 1 -438 -30)">-firstName: String</text></g></g><g><g><path fill="none" stroke="none"/><text fill="#000000" stroke="none" font-family="Arial" font-size="13px" font-style="normal" font-weight="normal" text-decoration="undefined" x="1341" y="450.5" text-anchor="start" dominant-baseline="central" transform="matrix(1 0 0 1 -438 -30)">-surname: String</text></g></g><g><g><path fill="none" stroke="none"/><text fill="#000000" stroke="none" font-family="Arial" font-size="13px" font-style="normal" font-weight="normal" text-decoration="undefined" x="1341" y="465.5" text-anchor="start" dominant-baseline="central" transform="matrix(1 0 0 1 -438 -30)">-seatNum: String</text></g></g><g><path fill="none" stroke="#000000" paint-order="fill stroke markers" d=" M 897 421 L 778 421" stroke-miterlimit="10" stroke-dasharray=""/></g><g><path fill="#000000" stroke="none" paint-order="stroke fill markers" d=" M 788.1626748576241 416.790482243984 L 778 421 L 788.1626748576241 425.209517756016 L 800 421"/></g><g><path fill="none" stroke="#000000" paint-order="fill stroke markers" d=" M 788.1626748576241 416.790482243984 L 778 421 L 788.1626748576241 425.209517756016 L 800 421 L 788.1626748576241 416.790482243984" stroke-miterlimit="10" stroke-dasharray=""/></g><g><rect fill="#ffffff" stroke="none" x="1303" y="432" width="21.68359375" height="13" transform="matrix(1 0 0 1 -438 -30)"/></g><g><g><path fill="none" stroke="none"/><text fill="#000000" stroke="none" font-family="Arial" font-size="13px" font-style="normal" font-weight="normal" text-decoration="undefined" x="1313.841796875" y="438.5" text-anchor="middle" dominant-baseline="central" transform="matrix(1 0 0 1 -438 -30)">1..6</text></g></g><g><path fill="none" stroke="#000000" paint-order="fill stroke markers" d=" M 717 583 L 717 481" stroke-miterlimit="10" stroke-dasharray=""/></g><g><rect fill="#ffffff" stroke="none" x="1116" y="555" width="48.0517578125" height="13" transform="matrix(1 0 0 1 -438 -30)"/></g><g><g><path fill="none" stroke="none"/><text fill="#000000" stroke="none" font-family="Arial" font-size="13px" font-style="normal" font-weight="normal" text-decoration="undefined" x="1140.02587890625" y="561.5" text-anchor="middle" dominant-baseline="central" transform="matrix(1 0 0 1 -438 -30)">+selects</text></g></g><g><rect fill="#ffffff" stroke="none" x="1157" y="585" width="21.68359375" height="13" transform="matrix(1 0 0 1 -438 -30)"/></g><g><g><path fill="none" stroke="none"/><text fill="#000000" stroke="none" font-family="Arial" font-size="13px" font-style="normal" font-weight="normal" text-decoration="undefined" x="1167.841796875" y="591.5" text-anchor="middle" dominant-baseline="central" transform="matrix(1 0 0 1 -438 -30)">1..6</text></g></g><g><rect fill="#ffffff" stroke="none" x="1164" y="526" width="7.22998046875" height="13" transform="matrix(1 0 0 1 -438 -30)"/></g><g><g><path fill="none" stroke="none"/><text fill="#000000" stroke="none" font-family="Arial" font-size="13px" font-style="normal" font-weight="normal" text-decoration="undefined" x="1167.614990234375" y="532.5" text-anchor="middle" dominant-baseline="central" transform="matrix(1 0 0 1 -438 -30)">1</text></g></g></g></svg>