<svg version="1.1" xmlns="http://www.w3.org/2000/svg" xmlns:xlink="http://www.w3.org/1999/xlink" width="580" height="300"><defs/><g><g><path fill="none" stroke="#000000" paint-order="fill stroke markers" d=" M 10 10 L 570 10 L 570 290 L 10 290 L 10 10" stroke-miterlimit="10" stroke-dasharray=""/></g><g><path fill="#ffffff" stroke="none" paint-order="stroke fill markers" d=" M 10 10 L 10 33 L 166.181640625 33 L 177.681640625 21.5 L 177.681640625 10 L 10 10"/></g><g><path fill="none" stroke="#000000" paint-order="fill stroke markers" d=" M 10 10 L 10 33 L 166.181640625 33 L 177.681640625 21.5 L 177.681640625 10 L 10 10 L 10 10" stroke-miterlimit="10" stroke-dasharray=""/></g><g><g><path fill="none" stroke="none"/><text fill="#000000" stroke="none" font-family="Arial" font-size="13px" font-style="normal" font-weight="normal" text-decoration="undefined" x="279.955810546875" y="19.5" text-anchor="middle" dominant-baseline="central" transform="matrix(1 0 0 1 -182 2)">Verify Booking Details</text></g></g><g><g><path fill="none" stroke="none"/><text fill="#000000" stroke="none" font-family="Arial" font-size="13px" font-style="normal" font-weight="bold" text-decoration="undefined" x="203.864990234375" y="19.5" text-anchor="middle" dominant-baseline="central" transform="matrix(1 0 0 1 -182 2)">sd</text></g></g><g><rect fill="#C0C0C0" stroke="none" x="207" y="47" width="80.67724609375" height="40" transform="matrix(1 0 0 1 -182 2)" fill-opacity="0.2"/></g><g><rect fill="#ffffff" stroke="none" x="200" y="40" width="80.67724609375" height="40" transform="matrix(1 0 0 1 -182 2)"/></g><g><path fill="none" stroke="#000000" paint-order="fill stroke markers" d=" M 18 42 L 98.67724609375 42 L 98.67724609375 82 L 18 82 L 18 42 Z Z" stroke-miterlimit="10" stroke-dasharray=""/></g><g><g><path fill="none" stroke="none"/><text fill="#000000" stroke="none" font-family="Arial" font-size="13px" font-style="normal" font-weight="bold" text-decoration="undefined" x="240.838623046875" y="53.5" text-anchor="middle" dominant-baseline="central" transform="matrix(1 0 0 1 -182 2)">Customer</text></g></g><g><path fill="none" stroke="#000000" paint-order="fill stroke markers" d=" M 58.5 83 L 58.5 290" stroke-miterlimit="10" stroke-dasharray="3"/></g><g><rect fill="#C0C0C0" stroke="none" x="423" y="47" width="72.736328125" height="40" transform="matrix(1 0 0 1 -182 2)" fill-opacity="0.2"/></g><g><rect fill="#ffffff" stroke="none" x="416" y="40" width="72.736328125" height="40" transform="matrix(1 0 0 1 -182 2)"/></g><g><path fill="none" stroke="#000000" paint-order="fill stroke markers" d=" M 234 42 L 306.736328125 42 L 306.736328125 82 L 234 82 L 234 42 Z Z" stroke-miterlimit="10" stroke-dasharray=""/></g><g><g><path fill="none" stroke="none"/><text fill="#000000" stroke="none" font-family="Arial" font-size="13px" font-style="normal" font-weight="bold" text-decoration="undefined" x="452.8681640625" y="53.5" text-anchor="middle" dominant-baseline="central" transform="matrix(1 0 0 1 -182 2)">Menu</text></g></g><g><path fill="none" stroke="#000000" paint-order="fill stroke markers" d=" M 270.5 83 L 270.5 290" stroke-miterlimit="10" stroke-dasharray="3"/></g><g><rect fill="#C0C0C0" stroke="none" x="607" y="47" width="137.03173828125" height="40" transform="matrix(1 0 0 1 -182 2)" fill-opacity="0.2"/></g><g><rect fill="#ffffff" stroke="none" x="600" y="40" width="137.03173828125" height="40" transform="matrix(1 0 0 1 -182 2)"/></g><g><path fill="none" stroke="#000000" paint-order="fill stroke markers" d=" M 418 42 L 555.03173828125 42 L 555.03173828125 82 L 418 82 L 418 42 Z Z" stroke-miterlimit="10" stroke-dasharray=""/></g><g><g><path fill="none" stroke="none"/><text fill="#000000" stroke="none" font-family="Arial" font-size="13px" font-style="normal" font-weight="bold" text-decoration="undefined" x="669.015869140625" y="53.5" text-anchor="middle" dominant-baseline="central" transform="matrix(1 0 0 1 -182 2)">BookingDatabase</text></g></g><g><path fill="none" stroke="#000000" paint-order="fill stroke markers" d=" M 487.5 83 L 487.5 290" stroke-miterlimit="10" stroke-dasharray="3"/></g><g><path fill="none" stroke="#000000" paint-order="fill stroke markers" d=" M 270 122 L 65 122" stroke-miterlimit="10" stroke-dasharray=""/></g><g><path fill="#000000" stroke="none" paint-order="stroke fill markers" d=" M 75.16267485762415 117.79048224398402 L 65 122 L 75.16267485762415 126.20951775601598"/></g><g><path fill="none" stroke="#000000" paint-order="fill stroke markers" d=" M 75.16267485762415 117.79048224398402 L 65 122 L 75.16267485762415 126.20951775601598 L 75.16267485762415 117.79048224398402" stroke-miterlimit="10" stroke-dasharray=""/></g><g><rect fill="#ffffff" stroke="none" x="293" y="124" width="111.29345703125" height="13" transform="matrix(1 0 0 1 -182 2)"/></g><g><g><path fill="none" stroke="none"/><text fill="#000000" stroke="none" font-family="Arial" font-size="13px" font-style="normal" font-weight="normal" text-decoration="undefined" x="348.646728515625" y="130.5" text-anchor="middle" dominant-baseline="central" transform="matrix(1 0 0 1 -182 2)">1 : enterBookingNo</text></g></g><g><rect fill="#ffffff" stroke="none" x="233" y="120" width="14" height="28" transform="matrix(1 0 0 1 -182 2)"/></g><g><path fill="none" stroke="#000000" paint-order="fill stroke markers" d=" M 51 122 L 65 122 L 65 150 L 51 150 L 51 122 Z Z" stroke-miterlimit="10" stroke-dasharray=""/></g><g><path fill="none" stroke="#000000" paint-order="fill stroke markers" d=" M 59 170 L 263 170" stroke-miterlimit="10" stroke-dasharray=""/></g><g><path fill="#000000" stroke="none" paint-order="stroke fill markers" d=" M 252.83732514237585 174.209517756016 L 263 170 L 252.83732514237585 165.790482243984"/></g><g><path fill="none" stroke="#000000" paint-order="fill stroke markers" d=" M 252.83732514237585 174.209517756016 L 263 170 L 252.83732514237585 165.790482243984 L 252.83732514237585 174.209517756016" stroke-miterlimit="10" stroke-dasharray=""/></g><g><rect fill="#ffffff" stroke="none" x="246" y="152" width="195.1142578125" height="13" transform="matrix(1 0 0 1 -182 2)"/></g><g><g><path fill="none" stroke="none"/><text fill="#000000" stroke="none" font-family="Arial" font-size="13px" font-style="normal" font-weight="normal" text-decoration="undefined" x="343.55712890625" y="158.5" text-anchor="middle" dominant-baseline="central" transform="matrix(1 0 0 1 -182 2)">2 : provideBookingNo(bookingNo)</text></g></g><g><rect fill="#ffffff" stroke="none" x="445" y="168" width="14" height="28" transform="matrix(1 0 0 1 -182 2)"/></g><g><path fill="none" stroke="#000000" paint-order="fill stroke markers" d=" M 263 170 L 277 170 L 277 198 L 263 198 L 263 170 Z Z" stroke-miterlimit="10" stroke-dasharray=""/></g><g><path fill="none" stroke="#000000" paint-order="fill stroke markers" d=" M 263 187 L 65 187" stroke-miterlimit="10" stroke-dasharray=""/></g><g><path fill="#000000" stroke="none" paint-order="stroke fill markers" d=" M 75.16267485762415 182.790482243984 L 65 187 L 75.16267485762415 191.209517756016"/></g><g><path fill="none" stroke="#000000" paint-order="fill stroke markers" d=" M 75.16267485762415 182.790482243984 L 65 187 L 75.16267485762415 191.209517756016 L 75.16267485762415 182.790482243984" stroke-miterlimit="10" stroke-dasharray=""/></g><g><rect fill="#ffffff" stroke="none" x="305" y="189" width="80.20263671875" height="13" transform="matrix(1 0 0 1 -182 2)"/></g><g><g><path fill="none" stroke="none"/><text fill="#000000" stroke="none" font-family="Arial" font-size="13px" font-style="normal" font-weight="normal" text-decoration="undefined" x="345.101318359375" y="195.5" text-anchor="middle" dominant-baseline="central" transform="matrix(1 0 0 1 -182 2)">3 : enterEmail</text></g></g><g><rect fill="#ffffff" stroke="none" x="233" y="185" width="14" height="28" transform="matrix(1 0 0 1 -182 2)"/></g><g><path fill="none" stroke="#000000" paint-order="fill stroke markers" d=" M 51 187 L 65 187 L 65 215 L 51 215 L 51 187 Z Z" stroke-miterlimit="10" stroke-dasharray=""/></g><g><path fill="none" stroke="#000000" paint-order="fill stroke markers" d=" M 59 226 L 263 226" stroke-miterlimit="10" stroke-dasharray=""/></g><g><path fill="#000000" stroke="none" paint-order="stroke fill markers" d=" M 252.83732514237585 230.209517756016 L 263 226 L 252.83732514237585 221.790482243984"/></g><g><path fill="none" stroke="#000000" paint-order="fill stroke markers" d=" M 252.83732514237585 230.209517756016 L 263 226 L 252.83732514237585 221.790482243984 L 252.83732514237585 230.209517756016" stroke-miterlimit="10" stroke-dasharray=""/></g><g><rect fill="#ffffff" stroke="none" x="277" y="208" width="132.9326171875" height="13" transform="matrix(1 0 0 1 -182 2)"/></g><g><g><path fill="none" stroke="none"/><text fill="#000000" stroke="none" font-family="Arial" font-size="13px" font-style="normal" font-weight="normal" text-decoration="undefined" x="343.46630859375" y="214.5" text-anchor="middle" dominant-baseline="central" transform="matrix(1 0 0 1 -182 2)">4 : provideEmail(email)</text></g></g><g><rect fill="#ffffff" stroke="none" x="445" y="224" width="14" height="28" transform="matrix(1 0 0 1 -182 2)"/></g><g><path fill="none" stroke="#000000" paint-order="fill stroke markers" d=" M 263 226 L 277 226 L 277 254 L 263 254 L 263 226 Z Z" stroke-miterlimit="10" stroke-dasharray=""/></g><g><path fill="none" stroke="#000000" paint-order="fill stroke markers" d=" M 277 234 L 480 234" stroke-miterlimit="10" stroke-dasharray=""/></g><g><path fill="#000000" stroke="none" paint-order="stroke fill markers" d=" M 469.8373251423759 238.209517756016 L 480 234 L 469.8373251423758 229.790482243984"/></g><g><path fill="none" stroke="#000000" paint-order="fill stroke markers" d=" M 469.8373251423759 238.209517756016 L 480 234 L 469.8373251423758 229.790482243984 L 469.8373251423759 238.209517756016" stroke-miterlimit="10" stroke-dasharray=""/></g><g><rect fill="#ffffff" stroke="none" x="462" y="216" width="197.96435546875" height="13" transform="matrix(1 0 0 1 -182 2)"/></g><g><g><path fill="none" stroke="none"/><text fill="#000000" stroke="none" font-family="Arial" font-size="13px" font-style="normal" font-weight="normal" text-decoration="undefined" x="560.982177734375" y="222.5" text-anchor="middle" dominant-baseline="central" transform="matrix(1 0 0 1 -182 2)">5 : verifyDetails(bookingNo, email)</text></g></g><g><rect fill="#ffffff" stroke="none" x="662" y="232" width="14" height="28" transform="matrix(1 0 0 1 -182 2)"/></g><g><path fill="none" stroke="#000000" paint-order="fill stroke markers" d=" M 480 234 L 494 234 L 494 262 L 480 262 L 480 234 Z Z" stroke-miterlimit="10" stroke-dasharray=""/></g><g><path fill="none" stroke="#000000" paint-order="fill stroke markers" d=" M 480 250 L 277 250" stroke-miterlimit="10" stroke-dasharray="3"/></g><g><path fill="none" stroke="#000000" paint-order="fill stroke markers" d=" M 287.16267485762415 245.790482243984 L 277 250 L 287.16267485762415 254.209517756016" stroke-miterlimit="10" stroke-dasharray=""/></g><g><rect fill="#ffffff" stroke="none" x="500" y="252" width="118.4853515625" height="13" transform="matrix(1 0 0 1 -182 2)"/></g><g><g><path fill="none" stroke="none"/><text fill="#000000" stroke="none" font-family="Arial" font-size="13px" font-style="normal" font-weight="normal" text-decoration="undefined" x="559.24267578125" y="258.5" text-anchor="middle" dominant-baseline="central" transform="matrix(1 0 0 1 -182 2)">6 : [ok]correctDetails</text></g></g></g></svg>