<svg version="1.1" xmlns="http://www.w3.org/2000/svg" xmlns:xlink="http://www.w3.org/1999/xlink" width="580" height="356"><defs/><g><g><path fill="none" stroke="#000000" paint-order="fill stroke markers" d=" M 10 10 L 570 10 L 570 346 L 10 346 L 10 10" stroke-miterlimit="10" stroke-dasharray=""/></g><g><path fill="#ffffff" stroke="none" paint-order="stroke fill markers" d=" M 10 10 L 10 33 L 124.97900390625 33 L 136.47900390625 21.5 L 136.47900390625 10 L 10 10"/></g><g><path fill="none" stroke="#000000" paint-order="fill stroke markers" d=" M 10 10 L 10 33 L 124.97900390625 33 L 136.47900390625 21.5 L 136.47900390625 10 L 10 10 L 10 10" stroke-miterlimit="10" stroke-dasharray=""/></g><g><g><path fill="none" stroke="none"/><text fill="#000000" stroke="none" font-family="Arial" font-size="13px" font-style="normal" font-weight="normal" text-decoration="undefined" x="283.3544921875" y="19.5" text-anchor="middle" dominant-baseline="central" transform="matrix(1 0 0 1 -206 2)">Browse Flights</text></g></g><g><g><path fill="none" stroke="none"/><text fill="#000000" stroke="none" font-family="Arial" font-size="13px" font-style="normal" font-weight="bold" text-decoration="undefined" x="227.864990234375" y="19.5" text-anchor="middle" dominant-baseline="central" transform="matrix(1 0 0 1 -206 2)">sd</text></g></g><g><rect fill="#C0C0C0" stroke="none" x="263" y="47" width="80.67724609375" height="40" transform="matrix(1 0 0 1 -206 2)" fill-opacity="0.2"/></g><g><rect fill="#ffffff" stroke="none" x="256" y="40" width="80.67724609375" height="40" transform="matrix(1 0 0 1 -206 2)"/></g><g><path fill="none" stroke="#000000" paint-order="fill stroke markers" d=" M 50 42 L 130.67724609375 42 L 130.67724609375 82 L 50 82 L 50 42 Z Z" stroke-miterlimit="10" stroke-dasharray=""/></g><g><g><path fill="none" stroke="none"/><text fill="#000000" stroke="none" font-family="Arial" font-size="13px" font-style="normal" font-weight="bold" text-decoration="undefined" x="296.838623046875" y="53.5" text-anchor="middle" dominant-baseline="central" transform="matrix(1 0 0 1 -206 2)">Customer</text></g></g><g><path fill="none" stroke="#000000" paint-order="fill stroke markers" d=" M 90.5 83 L 90.5 346" stroke-miterlimit="10" stroke-dasharray="3"/></g><g><rect fill="#C0C0C0" stroke="none" x="463" y="47" width="72.736328125" height="40" transform="matrix(1 0 0 1 -206 2)" fill-opacity="0.2"/></g><g><rect fill="#ffffff" stroke="none" x="456" y="40" width="72.736328125" height="40" transform="matrix(1 0 0 1 -206 2)"/></g><g><path fill="none" stroke="#000000" paint-order="fill stroke markers" d=" M 250 42 L 322.736328125 42 L 322.736328125 82 L 250 82 L 250 42 Z Z" stroke-miterlimit="10" stroke-dasharray=""/></g><g><g><path fill="none" stroke="none"/><text fill="#000000" stroke="none" font-family="Arial" font-size="13px" font-style="normal" font-weight="bold" text-decoration="undefined" x="492.8681640625" y="53.5" text-anchor="middle" dominant-baseline="central" transform="matrix(1 0 0 1 -206 2)">Menu</text></g></g><g><path fill="none" stroke="#000000" paint-order="fill stroke markers" d=" M 286.5 83 L 286.5 346" stroke-miterlimit="10" stroke-dasharray="3"/></g><g><rect fill="#C0C0C0" stroke="none" x="631" y="47" width="120.41357421875" height="40" transform="matrix(1 0 0 1 -206 2)" fill-opacity="0.2"/></g><g><rect fill="#ffffff" stroke="none" x="624" y="40" width="120.41357421875" height="40" transform="matrix(1 0 0 1 -206 2)"/></g><g><path fill="none" stroke="#000000" paint-order="fill stroke markers" d=" M 418 42 L 538.41357421875 42 L 538.41357421875 82 L 418 82 L 418 42 Z Z" stroke-miterlimit="10" stroke-dasharray=""/></g><g><g><path fill="none" stroke="none"/><text fill="#000000" stroke="none" font-family="Arial" font-size="13px" font-style="normal" font-weight="bold" text-decoration="undefined" x="684.706787109375" y="53.5" text-anchor="middle" dominant-baseline="central" transform="matrix(1 0 0 1 -206 2)">FlightsDatabase</text></g></g><g><path fill="none" stroke="#000000" paint-order="fill stroke markers" d=" M 478.5 83 L 478.5 346" stroke-miterlimit="10" stroke-dasharray="3"/></g><g><path fill="none" stroke="#000000" paint-order="fill stroke markers" d=" M 286 130 L 97 130" stroke-miterlimit="10" stroke-dasharray=""/></g><g><path fill="#000000" stroke="none" paint-order="stroke fill markers" d=" M 107.16267485762415 125.79048224398402 L 97 130 L 107.16267485762415 134.209517756016"/></g><g><path fill="none" stroke="#000000" paint-order="fill stroke markers" d=" M 107.16267485762415 125.79048224398402 L 97 130 L 107.16267485762415 134.209517756016 L 107.16267485762415 125.79048224398402" stroke-miterlimit="10" stroke-dasharray=""/></g><g><rect fill="#ffffff" stroke="none" x="343" y="136" width="106.93896484375" height="13" transform="matrix(1 0 0 1 -206 2)"/></g><g><g><path fill="none" stroke="none"/><text fill="#000000" stroke="none" font-family="Arial" font-size="13px" font-style="normal" font-weight="normal" text-decoration="undefined" x="396.469482421875" y="142.5" text-anchor="middle" dominant-baseline="central" transform="matrix(1 0 0 1 -206 2)">1 : displayMenu(_)</text></g></g><g><rect fill="#ffffff" stroke="none" x="289" y="128" width="14" height="28" transform="matrix(1 0 0 1 -206 2)"/></g><g><path fill="none" stroke="#000000" paint-order="fill stroke markers" d=" M 83 130 L 97 130 L 97 158 L 83 158 L 83 130 Z Z" stroke-miterlimit="10" stroke-dasharray=""/></g><g><path fill="none" stroke="#000000" paint-order="fill stroke markers" d=" M 91 170 L 286 170" stroke-miterlimit="10" stroke-dasharray="3"/></g><g><path fill="none" stroke="#000000" paint-order="fill stroke markers" d=" M 275.83732514237585 174.209517756016 L 286 170 L 275.83732514237585 165.790482243984" stroke-miterlimit="10" stroke-dasharray=""/></g><g><rect fill="#ffffff" stroke="none" x="329" y="175" width="130.78076171875" height="13" transform="matrix(1 0 0 1 -206 2)"/></g><g><g><path fill="none" stroke="none"/><text fill="#000000" stroke="none" font-family="Arial" font-size="13px" font-style="normal" font-weight="normal" text-decoration="undefined" x="394.390380859375" y="181.5" text-anchor="middle" dominant-baseline="central" transform="matrix(1 0 0 1 -206 2)">2 : displayFlights(date)</text></g></g><g><path fill="none" stroke="#000000" paint-order="fill stroke markers" d=" M 287 194 L 471 194" stroke-miterlimit="10" stroke-dasharray=""/></g><g><path fill="#000000" stroke="none" paint-order="stroke fill markers" d=" M 460.8373251423759 198.209517756016 L 471 194 L 460.8373251423758 189.790482243984"/></g><g><path fill="none" stroke="#000000" paint-order="fill stroke markers" d=" M 460.8373251423759 198.209517756016 L 471 194 L 460.8373251423758 189.790482243984 L 460.8373251423759 198.209517756016" stroke-miterlimit="10" stroke-dasharray=""/></g><g><rect fill="#ffffff" stroke="none" x="539" y="176" width="92.31396484375" height="13" transform="matrix(1 0 0 1 -206 2)"/></g><g><g><path fill="none" stroke="none"/><text fill="#000000" stroke="none" font-family="Arial" font-size="13px" font-style="normal" font-weight="normal" text-decoration="undefined" x="585.156982421875" y="182.5" text-anchor="middle" dominant-baseline="central" transform="matrix(1 0 0 1 -206 2)">3 : getFlights(_)</text></g></g><g><rect fill="#ffffff" stroke="none" x="677" y="192" width="14" height="28" transform="matrix(1 0 0 1 -206 2)"/></g><g><path fill="none" stroke="#000000" paint-order="fill stroke markers" d=" M 471 194 L 485 194 L 485 222 L 471 222 L 471 194 Z Z" stroke-miterlimit="10" stroke-dasharray=""/></g><g><path fill="none" stroke="#000000" paint-order="fill stroke markers" d=" M 478 226 L 287 226" stroke-miterlimit="10" stroke-dasharray="3"/></g><g><path fill="none" stroke="#000000" paint-order="fill stroke markers" d=" M 297.16267485762415 221.790482243984 L 287 226 L 297.16267485762415 230.209517756016" stroke-miterlimit="10" stroke-dasharray=""/></g><g><rect fill="#ffffff" stroke="none" x="513" y="228" width="148.84619140625" height="13" transform="matrix(1 0 0 1 -206 2)"/></g><g><g><path fill="none" stroke="none"/><text fill="#000000" stroke="none" font-family="Arial" font-size="13px" font-style="normal" font-weight="normal" text-decoration="undefined" x="587.423095703125" y="234.5" text-anchor="middle" dominant-baseline="central" transform="matrix(1 0 0 1 -206 2)">4 : sendFlightsInfo(flights)</text></g></g><g><path fill="none" stroke="#000000" paint-order="fill stroke markers" d=" M 286 234 L 97 234" stroke-miterlimit="10" stroke-dasharray=""/></g><g><path fill="#000000" stroke="none" paint-order="stroke fill markers" d=" M 107.16267485762415 229.790482243984 L 97 234 L 107.16267485762415 238.209517756016"/></g><g><path fill="none" stroke="#000000" paint-order="fill stroke markers" d=" M 107.16267485762415 229.790482243984 L 97 234 L 107.16267485762415 238.209517756016 L 107.16267485762415 229.790482243984" stroke-miterlimit="10" stroke-dasharray=""/></g><g><rect fill="#ffffff" stroke="none" x="332" y="236" width="129.32080078125" height="13" transform="matrix(1 0 0 1 -206 2)"/></g><g><g><path fill="none" stroke="none"/><text fill="#000000" stroke="none" font-family="Arial" font-size="13px" font-style="normal" font-weight="normal" text-decoration="undefined" x="396.660400390625" y="242.5" text-anchor="middle" dominant-baseline="central" transform="matrix(1 0 0 1 -206 2)">5 : showFlights(flights)</text></g></g><g><rect fill="#ffffff" stroke="none" x="289" y="232" width="14" height="28" transform="matrix(1 0 0 1 -206 2)"/></g><g><path fill="none" stroke="#000000" paint-order="fill stroke markers" d=" M 83 234 L 97 234 L 97 262 L 83 262 L 83 234 Z Z" stroke-miterlimit="10" stroke-dasharray=""/></g><g><path fill="none" stroke="#000000" paint-order="fill stroke markers" d=" M 91 299 L 279 299" stroke-miterlimit="10" stroke-dasharray=""/></g><g><path fill="#000000" stroke="none" paint-order="stroke fill markers" d=" M 268.83732514237585 303.209517756016 L 279 299 L 268.83732514237585 294.790482243984"/></g><g><path fill="none" stroke="#000000" paint-order="fill stroke markers" d=" M 268.83732514237585 303.209517756016 L 279 299 L 268.83732514237585 294.790482243984 L 268.83732514237585 303.209517756016" stroke-miterlimit="10" stroke-dasharray=""/></g><g><rect fill="#ffffff" stroke="none" x="300" y="281" width="182.06982421875" height="13" transform="matrix(1 0 0 1 -206 2)"/></g><g><g><path fill="none" stroke="none"/><text fill="#000000" stroke="none" font-family="Arial" font-size="13px" font-style="normal" font-weight="normal" text-decoration="undefined" x="391.034912109375" y="287.5" text-anchor="middle" dominant-baseline="central" transform="matrix(1 0 0 1 -206 2)">6 : *[browsing] browseFlights(_)</text></g></g><g><rect fill="#ffffff" stroke="none" x="485" y="297" width="14" height="28" transform="matrix(1 0 0 1 -206 2)"/></g><g><path fill="none" stroke="#000000" paint-order="fill stroke markers" d=" M 279 299 L 293 299 L 293 327 L 279 327 L 279 299 Z Z" stroke-miterlimit="10" stroke-dasharray=""/></g></g></svg>