<svg version="1.1" xmlns="http://www.w3.org/2000/svg" xmlns:xlink="http://www.w3.org/1999/xlink" width="820" height="788"><defs/><g><g><path fill="none" stroke="#000000" paint-order="fill stroke markers" d=" M 10 10 L 810 10 L 810 778 L 10 778 L 10 10" stroke-miterlimit="10" stroke-dasharray=""/></g><g><path fill="#ffffff" stroke="none" paint-order="stroke fill markers" d=" M 10 10 L 10 33 L 132.24072265625 33 L 143.74072265625 21.5 L 143.74072265625 10 L 10 10"/></g><g><path fill="none" stroke="#000000" paint-order="fill stroke markers" d=" M 10 10 L 10 33 L 132.24072265625 33 L 143.74072265625 21.5 L 143.74072265625 10 L 10 10 L 10 10" stroke-miterlimit="10" stroke-dasharray=""/></g><g><g><path fill="none" stroke="none"/><text fill="#000000" stroke="none" font-family="Arial" font-size="13px" font-style="normal" font-weight="normal" text-decoration="undefined" x="70.9853515625" y="11.5" text-anchor="middle" dominant-baseline="central" transform="matrix(1 0 0 1 10 10)">Update Booking</text></g></g><g><g><path fill="none" stroke="none"/><text fill="#000000" stroke="none" font-family="Arial" font-size="13px" font-style="normal" font-weight="bold" text-decoration="undefined" x="11.864990234375" y="11.5" text-anchor="middle" dominant-baseline="central" transform="matrix(1 0 0 1 10 10)">sd</text></g></g><g><rect fill="#C0C0C0" stroke="none" x="23" y="47" width="80.67724609375" height="40" transform="matrix(1 0 0 1 10 10)" fill-opacity="0.2"/></g><g><rect fill="#ffffff" stroke="none" x="16" y="40" width="80.67724609375" height="40" transform="matrix(1 0 0 1 10 10)"/></g><g><path fill="none" stroke="#000000" paint-order="fill stroke markers" d=" M 26 50 L 106.67724609375 50 L 106.67724609375 90 L 26 90 L 26 50 Z Z" stroke-miterlimit="10" stroke-dasharray=""/></g><g><g><path fill="none" stroke="none"/><text fill="#000000" stroke="none" font-family="Arial" font-size="13px" font-style="normal" font-weight="bold" text-decoration="undefined" x="56.838623046875" y="53.5" text-anchor="middle" dominant-baseline="central" transform="matrix(1 0 0 1 10 10)">Customer</text></g></g><g><path fill="none" stroke="#000000" paint-order="fill stroke markers" d=" M 66.5 91 L 66.5 778" stroke-miterlimit="10" stroke-dasharray="3"/></g><g><rect fill="#C0C0C0" stroke="none" x="247" y="47" width="72.736328125" height="40" transform="matrix(1 0 0 1 10 10)" fill-opacity="0.2"/></g><g><rect fill="#ffffff" stroke="none" x="240" y="40" width="72.736328125" height="40" transform="matrix(1 0 0 1 10 10)"/></g><g><path fill="none" stroke="#000000" paint-order="fill stroke markers" d=" M 250 50 L 322.736328125 50 L 322.736328125 90 L 250 90 L 250 50 Z Z" stroke-miterlimit="10" stroke-dasharray=""/></g><g><g><path fill="none" stroke="none"/><text fill="#000000" stroke="none" font-family="Arial" font-size="13px" font-style="normal" font-weight="bold" text-decoration="undefined" x="276.8681640625" y="53.5" text-anchor="middle" dominant-baseline="central" transform="matrix(1 0 0 1 10 10)">Menu</text></g></g><g><path fill="none" stroke="#000000" paint-order="fill stroke markers" d=" M 286.5 91 L 286.5 778" stroke-miterlimit="10" stroke-dasharray="3"/></g><g><rect fill="#C0C0C0" stroke="none" x="367" y="47" width="129.8017578125" height="40" transform="matrix(1 0 0 1 10 10)" fill-opacity="0.2"/></g><g><rect fill="#ffffff" stroke="none" x="360" y="40" width="129.8017578125" height="40" transform="matrix(1 0 0 1 10 10)"/></g><g><path fill="none" stroke="#000000" paint-order="fill stroke markers" d=" M 370 50 L 499.8017578125 50 L 499.8017578125 90 L 370 90 L 370 50 Z Z" stroke-miterlimit="10" stroke-dasharray=""/></g><g><g><path fill="none" stroke="none"/><text fill="#000000" stroke="none" font-family="Arial" font-size="13px" font-style="normal" font-weight="bold" text-decoration="undefined" x="425.40087890625" y="53.5" text-anchor="middle" dominant-baseline="central" transform="matrix(1 0 0 1 10 10)">BookingDatabase</text></g></g><g><path fill="none" stroke="#000000" paint-order="fill stroke markers" d=" M 435.5 91 L 435.5 778" stroke-miterlimit="10" stroke-dasharray="3"/></g><g><rect fill="#C0C0C0" stroke="none" x="575" y="203" width="120" height="40" transform="matrix(1 0 0 1 10 10)" fill-opacity="0.2"/></g><g><rect fill="#ffffff" stroke="none" x="568" y="196" width="120" height="40" transform="matrix(1 0 0 1 10 10)"/></g><g><path fill="none" stroke="#000000" paint-order="fill stroke markers" d=" M 578 206 L 698 206 L 698 246 L 578 246 L 578 206 Z Z" stroke-miterlimit="10" stroke-dasharray=""/></g><g><g><path fill="none" stroke="none"/><text fill="#000000" stroke="none" font-family="Arial" font-size="13px" font-style="normal" font-weight="bold" text-decoration="undefined" x="628.5" y="209.5" text-anchor="middle" dominant-baseline="central" transform="matrix(1 0 0 1 10 10)">bk: Booking</text></g></g><g><path fill="none" stroke="#000000" paint-order="fill stroke markers" d=" M 638.5 247 L 638.5 778" stroke-miterlimit="10" stroke-dasharray="3"/></g><g><rect fill="#C0C0C0" stroke="none" x="679" y="595" width="112" height="40" transform="matrix(1 0 0 1 10 10)" fill-opacity="0.2"/></g><g><rect fill="#ffffff" stroke="none" x="672" y="588" width="112" height="40" transform="matrix(1 0 0 1 10 10)"/></g><g><path fill="none" stroke="#000000" paint-order="fill stroke markers" d=" M 682 598 L 794 598 L 794 638 L 682 638 L 682 598 Z Z" stroke-miterlimit="10" stroke-dasharray=""/></g><g><g><path fill="none" stroke="none"/><text fill="#000000" stroke="none" font-family="Arial" font-size="13px" font-style="normal" font-weight="bold" text-decoration="undefined" x="728.5" y="601.5" text-anchor="middle" dominant-baseline="central" transform="matrix(1 0 0 1 10 10)">py: Payment</text></g></g><g><path fill="none" stroke="#000000" paint-order="fill stroke markers" d=" M 738.5 639 L 738.5 778" stroke-miterlimit="10" stroke-dasharray="3"/></g><g><rect fill="#ffffff" stroke="none" x="40" y="96" width="424" height="64" transform="matrix(1 0 0 1 10 10)"/></g><g><path fill="none" stroke="#000000" paint-order="fill stroke markers" d=" M 50 106 L 474 106 L 474 170 L 50 170 L 50 106 Z Z" stroke-miterlimit="10" stroke-dasharray=""/></g><g><path fill="none" stroke="#000000" paint-order="fill stroke markers" d=" M 50 106 L 50 129 L 75.1708984375 129 L 86.6708984375 117.5 L 86.6708984375 106 L 50 106 L 50 106" stroke-miterlimit="10" stroke-dasharray=""/></g><g><g><path fill="none" stroke="none"/><text fill="#000000" stroke="none" font-family="Arial" font-size="13px" font-style="normal" font-weight="normal" text-decoration="undefined" x="270.33544921875" y="107.5" text-anchor="middle" dominant-baseline="central" transform="matrix(1 0 0 1 10 10)">View Booking</text></g></g><g><g><path fill="none" stroke="none"/><text fill="#000000" stroke="none" font-family="Arial" font-size="13px" font-style="normal" font-weight="bold" text-decoration="undefined" x="52.58544921875" y="107.5" text-anchor="middle" dominant-baseline="central" transform="matrix(1 0 0 1 10 10)">ref</text></g></g><g><path fill="none" stroke="#000000" paint-order="fill stroke markers" d=" M 67 210 L 279 210" stroke-miterlimit="10" stroke-dasharray=""/></g><g><path fill="#000000" stroke="none" paint-order="stroke fill markers" d=" M 268.83732514237585 214.209517756016 L 279 210 L 268.83732514237585 205.790482243984"/></g><g><path fill="none" stroke="#000000" paint-order="fill stroke markers" d=" M 268.83732514237585 214.209517756016 L 279 210 L 268.83732514237585 205.790482243984 L 268.83732514237585 214.209517756016" stroke-miterlimit="10" stroke-dasharray=""/></g><g><rect fill="#ffffff" stroke="none" x="72" y="184" width="183.57421875" height="13" transform="matrix(1 0 0 1 10 10)"/></g><g><g><path fill="none" stroke="none"/><text fill="#000000" stroke="none" font-family="Arial" font-size="13px" font-style="normal" font-weight="normal" text-decoration="undefined" x="163.787109375" y="190.5" text-anchor="middle" dominant-baseline="central" transform="matrix(1 0 0 1 10 10)">1 : [selectButton]updateBooking</text></g></g><g><rect fill="#ffffff" stroke="none" x="269" y="200" width="14" height="28" transform="matrix(1 0 0 1 10 10)"/></g><g><path fill="none" stroke="#000000" paint-order="fill stroke markers" d=" M 279 210 L 293 210 L 293 238 L 279 238 L 279 210 Z Z" stroke-miterlimit="10" stroke-dasharray=""/></g><g><path fill="none" stroke="#000000" paint-order="fill stroke markers" d=" M 293 214 L 428 214" stroke-miterlimit="10" stroke-dasharray=""/></g><g><path fill="#000000" stroke="none" paint-order="stroke fill markers" d=" M 417.83732514237585 218.209517756016 L 428 214 L 417.83732514237585 209.790482243984"/></g><g><path fill="none" stroke="#000000" paint-order="fill stroke markers" d=" M 417.83732514237585 218.209517756016 L 428 214 L 417.83732514237585 209.790482243984 L 417.83732514237585 218.209517756016" stroke-miterlimit="10" stroke-dasharray=""/></g><g><rect fill="#ffffff" stroke="none" x="289" y="188" width="122.8525390625" height="13" transform="matrix(1 0 0 1 10 10)"/></g><g><g><path fill="none" stroke="none"/><text fill="#000000" stroke="none" font-family="Arial" font-size="13px" font-style="normal" font-weight="normal" text-decoration="undefined" x="350.42626953125" y="194.5" text-anchor="middle" dominant-baseline="central" transform="matrix(1 0 0 1 10 10)">2 : getBookingDetails</text></g></g><g><rect fill="#ffffff" stroke="none" x="418" y="204" width="14" height="28" transform="matrix(1 0 0 1 10 10)"/></g><g><path fill="none" stroke="#000000" paint-order="fill stroke markers" d=" M 428 214 L 442 214 L 442 242 L 428 242 L 428 214 Z Z" stroke-miterlimit="10" stroke-dasharray=""/></g><g><path fill="none" stroke="#000000" paint-order="fill stroke markers" d=" M 442 226 L 578 226" stroke-miterlimit="10" stroke-dasharray="3"/></g><g><path fill="none" stroke="#000000" paint-order="fill stroke markers" d=" M 567.8373251423759 230.209517756016 L 578 226 L 567.8373251423758 221.790482243984" stroke-miterlimit="10" stroke-dasharray=""/></g><g><rect fill="#ffffff" stroke="none" x="439" y="200" width="122.8525390625" height="13" transform="matrix(1 0 0 1 10 10)"/></g><g><g><path fill="none" stroke="none"/><text fill="#000000" stroke="none" font-family="Arial" font-size="13px" font-style="normal" font-weight="normal" text-decoration="undefined" x="500.42626953125" y="206.5" text-anchor="middle" dominant-baseline="central" transform="matrix(1 0 0 1 10 10)">3 : generateBooking</text></g></g><g><rect fill="#ffffff" stroke="none" x="475" y="185" width="50.5908203125" height="13" transform="matrix(1 0 0 1 10 10)"/></g><g><g><path fill="none" stroke="none"/><text fill="#000000" stroke="none" font-family="Arial" font-size="13px" font-style="normal" font-weight="normal" text-decoration="undefined" x="500.29541015625" y="191.5" text-anchor="middle" dominant-baseline="central" transform="matrix(1 0 0 1 10 10)">«create»</text></g></g><g><path fill="none" stroke="#000000" paint-order="fill stroke markers" d=" M 279 235 L 73 235" stroke-miterlimit="10" stroke-dasharray=""/></g><g><path fill="#000000" stroke="none" paint-order="stroke fill markers" d=" M 83.16267485762415 230.790482243984 L 73 235 L 83.16267485762415 239.209517756016"/></g><g><path fill="none" stroke="#000000" paint-order="fill stroke markers" d=" M 83.16267485762415 230.790482243984 L 73 235 L 83.16267485762415 239.209517756016 L 83.16267485762415 230.790482243984" stroke-miterlimit="10" stroke-dasharray=""/></g><g><rect fill="#ffffff" stroke="none" x="114" y="229" width="103.33349609375" height="13" transform="matrix(1 0 0 1 10 10)"/></g><g><g><path fill="none" stroke="none"/><text fill="#000000" stroke="none" font-family="Arial" font-size="13px" font-style="normal" font-weight="normal" text-decoration="undefined" x="165.666748046875" y="235.5" text-anchor="middle" dominant-baseline="central" transform="matrix(1 0 0 1 10 10)">4 : displayOptions</text></g></g><g><rect fill="#ffffff" stroke="none" x="49" y="225" width="14" height="28" transform="matrix(1 0 0 1 10 10)"/></g><g><path fill="none" stroke="#000000" paint-order="fill stroke markers" d=" M 59 235 L 73 235 L 73 263 L 59 263 L 59 235 Z Z" stroke-miterlimit="10" stroke-dasharray=""/></g><g><path fill="none" stroke="#000000" paint-order="fill stroke markers" d=" M 67 274 L 279 274" stroke-miterlimit="10" stroke-dasharray=""/></g><g><path fill="#000000" stroke="none" paint-order="stroke fill markers" d=" M 268.83732514237585 278.209517756016 L 279 274 L 268.83732514237585 269.790482243984"/></g><g><path fill="none" stroke="#000000" paint-order="fill stroke markers" d=" M 268.83732514237585 278.209517756016 L 279 274 L 268.83732514237585 269.790482243984 L 268.83732514237585 278.209517756016" stroke-miterlimit="10" stroke-dasharray=""/></g><g><rect fill="#ffffff" stroke="none" x="82" y="248" width="163.337890625" height="13" transform="matrix(1 0 0 1 10 10)"/></g><g><g><path fill="none" stroke="none"/><text fill="#000000" stroke="none" font-family="Arial" font-size="13px" font-style="normal" font-weight="normal" text-decoration="undefined" x="163.6689453125" y="254.5" text-anchor="middle" dominant-baseline="central" transform="matrix(1 0 0 1 10 10)">5 : [selectButton]updateSeat</text></g></g><g><rect fill="#ffffff" stroke="none" x="269" y="264" width="14" height="28" transform="matrix(1 0 0 1 10 10)"/></g><g><path fill="none" stroke="#000000" paint-order="fill stroke markers" d=" M 279 274 L 293 274 L 293 302 L 279 302 L 279 274 Z Z" stroke-miterlimit="10" stroke-dasharray=""/></g><g><path fill="none" stroke="#000000" paint-order="fill stroke markers" d=" M 279 290 L 73 290" stroke-miterlimit="10" stroke-dasharray=""/></g><g><path fill="#000000" stroke="none" paint-order="stroke fill markers" d=" M 83.16267485762415 285.790482243984 L 73 290 L 83.16267485762415 294.209517756016"/></g><g><path fill="none" stroke="#000000" paint-order="fill stroke markers" d=" M 83.16267485762415 285.790482243984 L 73 290 L 83.16267485762415 294.209517756016 L 83.16267485762415 285.790482243984" stroke-miterlimit="10" stroke-dasharray=""/></g><g><rect fill="#ffffff" stroke="none" x="109" y="284" width="112.734375" height="13" transform="matrix(1 0 0 1 10 10)"/></g><g><g><path fill="none" stroke="none"/><text fill="#000000" stroke="none" font-family="Arial" font-size="13px" font-style="normal" font-weight="normal" text-decoration="undefined" x="165.3671875" y="290.5" text-anchor="middle" dominant-baseline="central" transform="matrix(1 0 0 1 10 10)">6 : chooseNewSeat</text></g></g><g><rect fill="#ffffff" stroke="none" x="49" y="280" width="14" height="28" transform="matrix(1 0 0 1 10 10)"/></g><g><path fill="none" stroke="#000000" paint-order="fill stroke markers" d=" M 59 290 L 73 290 L 73 318 L 59 318 L 59 290 Z Z" stroke-miterlimit="10" stroke-dasharray=""/></g><g><path fill="none" stroke="#000000" paint-order="fill stroke markers" d=" M 67 330 L 286 330" stroke-miterlimit="10" stroke-dasharray="3"/></g><g><path fill="none" stroke="#000000" paint-order="fill stroke markers" d=" M 275.83732514237585 334.209517756016 L 286 330 L 275.83732514237585 325.790482243984" stroke-miterlimit="10" stroke-dasharray=""/></g><g><rect fill="#ffffff" stroke="none" x="116" y="304" width="101.88623046875" height="13" transform="matrix(1 0 0 1 10 10)"/></g><g><g><path fill="none" stroke="none"/><text fill="#000000" stroke="none" font-family="Arial" font-size="13px" font-style="normal" font-weight="normal" text-decoration="undefined" x="166.943115234375" y="310.5" text-anchor="middle" dominant-baseline="central" transform="matrix(1 0 0 1 10 10)">7 : newSeat(seat)</text></g></g><g><path fill="none" stroke="#000000" paint-order="fill stroke markers" d=" M 287 338 L 631 338" stroke-miterlimit="10" stroke-dasharray=""/></g><g><path fill="#000000" stroke="none" paint-order="stroke fill markers" d=" M 620.8373251423759 342.209517756016 L 631 338 L 620.8373251423758 333.790482243984"/></g><g><path fill="none" stroke="#000000" paint-order="fill stroke markers" d=" M 620.8373251423759 342.209517756016 L 631 338 L 620.8373251423758 333.790482243984 L 620.8373251423759 342.209517756016" stroke-miterlimit="10" stroke-dasharray=""/></g><g><rect fill="#ffffff" stroke="none" x="380" y="312" width="138.0361328125" height="13" transform="matrix(1 0 0 1 10 10)"/></g><g><g><path fill="none" stroke="none"/><text fill="#000000" stroke="none" font-family="Arial" font-size="13px" font-style="normal" font-weight="normal" text-decoration="undefined" x="449.01806640625" y="318.5" text-anchor="middle" dominant-baseline="central" transform="matrix(1 0 0 1 10 10)">8 : updateBooking(seat)</text></g></g><g><rect fill="#ffffff" stroke="none" x="621" y="328" width="14" height="28" transform="matrix(1 0 0 1 10 10)"/></g><g><path fill="none" stroke="#000000" paint-order="fill stroke markers" d=" M 631 338 L 645 338 L 645 366 L 631 366 L 631 338 Z Z" stroke-miterlimit="10" stroke-dasharray=""/></g><g><path fill="none" stroke="#000000" paint-order="fill stroke markers" d=" M 67 356 L 279 356" stroke-miterlimit="10" stroke-dasharray=""/></g><g><path fill="#000000" stroke="none" paint-order="stroke fill markers" d=" M 268.83732514237585 360.209517756016 L 279 356 L 268.83732514237585 351.790482243984"/></g><g><path fill="none" stroke="#000000" paint-order="fill stroke markers" d=" M 268.83732514237585 360.209517756016 L 279 356 L 268.83732514237585 351.790482243984 L 268.83732514237585 360.209517756016" stroke-miterlimit="10" stroke-dasharray=""/></g><g><rect fill="#ffffff" stroke="none" x="70" y="330" width="187.205078125" height="13" transform="matrix(1 0 0 1 10 10)"/></g><g><g><path fill="none" stroke="none"/><text fill="#000000" stroke="none" font-family="Arial" font-size="13px" font-style="normal" font-weight="normal" text-decoration="undefined" x="163.6025390625" y="336.5" text-anchor="middle" dominant-baseline="central" transform="matrix(1 0 0 1 10 10)">9 : [selectButton]updateLuggage</text></g></g><g><rect fill="#ffffff" stroke="none" x="269" y="346" width="14" height="28" transform="matrix(1 0 0 1 10 10)"/></g><g><path fill="none" stroke="#000000" paint-order="fill stroke markers" d=" M 279 356 L 293 356 L 293 384 L 279 384 L 279 356 Z Z" stroke-miterlimit="10" stroke-dasharray=""/></g><g><path fill="none" stroke="#000000" paint-order="fill stroke markers" d=" M 279 371 L 73 371" stroke-miterlimit="10" stroke-dasharray=""/></g><g><path fill="#000000" stroke="none" paint-order="stroke fill markers" d=" M 83.16267485762415 366.790482243984 L 73 371 L 83.16267485762415 375.209517756016"/></g><g><path fill="none" stroke="#000000" paint-order="fill stroke markers" d=" M 83.16267485762415 366.790482243984 L 73 371 L 83.16267485762415 375.209517756016 L 83.16267485762415 366.790482243984" stroke-miterlimit="10" stroke-dasharray=""/></g><g><rect fill="#ffffff" stroke="none" x="84" y="365" width="162.626953125" height="13" transform="matrix(1 0 0 1 10 10)"/></g><g><g><path fill="none" stroke="none"/><text fill="#000000" stroke="none" font-family="Arial" font-size="13px" font-style="normal" font-weight="normal" text-decoration="undefined" x="165.3134765625" y="371.5" text-anchor="middle" dominant-baseline="central" transform="matrix(1 0 0 1 10 10)">10 : chooseLuggageAmount</text></g></g><g><rect fill="#ffffff" stroke="none" x="49" y="361" width="14" height="28" transform="matrix(1 0 0 1 10 10)"/></g><g><path fill="none" stroke="#000000" paint-order="fill stroke markers" d=" M 59 371 L 73 371 L 73 399 L 59 399 L 59 371 Z Z" stroke-miterlimit="10" stroke-dasharray=""/></g><g><path fill="none" stroke="#000000" paint-order="fill stroke markers" d=" M 67 410 L 286 410" stroke-miterlimit="10" stroke-dasharray="3"/></g><g><path fill="none" stroke="#000000" paint-order="fill stroke markers" d=" M 275.83732514237585 414.209517756016 L 286 410 L 275.83732514237585 405.790482243984" stroke-miterlimit="10" stroke-dasharray=""/></g><g><rect fill="#ffffff" stroke="none" x="82" y="384" width="168.87939453125" height="13" transform="matrix(1 0 0 1 10 10)"/></g><g><g><path fill="none" stroke="none"/><text fill="#000000" stroke="none" font-family="Arial" font-size="13px" font-style="normal" font-weight="normal" text-decoration="undefined" x="166.439697265625" y="390.5" text-anchor="middle" dominant-baseline="central" transform="matrix(1 0 0 1 10 10)">11 : chooseLuggage(amount)</text></g></g><g><path fill="none" stroke="#000000" paint-order="fill stroke markers" d=" M 287 418 L 631 418" stroke-miterlimit="10" stroke-dasharray=""/></g><g><path fill="#000000" stroke="none" paint-order="stroke fill markers" d=" M 620.8373251423759 422.209517756016 L 631 418 L 620.8373251423758 413.790482243984"/></g><g><path fill="none" stroke="#000000" paint-order="fill stroke markers" d=" M 620.8373251423759 422.209517756016 L 631 418 L 620.8373251423758 413.790482243984 L 620.8373251423759 422.209517756016" stroke-miterlimit="10" stroke-dasharray=""/></g><g><rect fill="#ffffff" stroke="none" x="366" y="392" width="167.68603515625" height="13" transform="matrix(1 0 0 1 10 10)"/></g><g><g><path fill="none" stroke="none"/><text fill="#000000" stroke="none" font-family="Arial" font-size="13px" font-style="normal" font-weight="normal" text-decoration="undefined" x="449.843017578125" y="398.5" text-anchor="middle" dominant-baseline="central" transform="matrix(1 0 0 1 10 10)">12 : updateLuggage(amount)</text></g></g><g><rect fill="#ffffff" stroke="none" x="621" y="408" width="14" height="28" transform="matrix(1 0 0 1 10 10)"/></g><g><path fill="none" stroke="#000000" paint-order="fill stroke markers" d=" M 631 418 L 645 418 L 645 446 L 631 446 L 631 418 Z Z" stroke-miterlimit="10" stroke-dasharray=""/></g><g><path fill="none" stroke="#000000" paint-order="fill stroke markers" d=" M 67 434 L 279 434" stroke-miterlimit="10" stroke-dasharray=""/></g><g><path fill="#000000" stroke="none" paint-order="stroke fill markers" d=" M 268.83732514237585 438.209517756016 L 279 434 L 268.83732514237585 429.790482243984"/></g><g><path fill="none" stroke="#000000" paint-order="fill stroke markers" d=" M 268.83732514237585 438.209517756016 L 279 434 L 268.83732514237585 429.790482243984 L 268.83732514237585 438.209517756016" stroke-miterlimit="10" stroke-dasharray=""/></g><g><rect fill="#ffffff" stroke="none" x="70" y="408" width="187.16064453125" height="13" transform="matrix(1 0 0 1 10 10)"/></g><g><g><path fill="none" stroke="none"/><text fill="#000000" stroke="none" font-family="Arial" font-size="13px" font-style="normal" font-weight="normal" text-decoration="undefined" x="163.580322265625" y="414.5" text-anchor="middle" dominant-baseline="central" transform="matrix(1 0 0 1 10 10)">13 : [selectButton]changePriority</text></g></g><g><rect fill="#ffffff" stroke="none" x="269" y="424" width="14" height="28" transform="matrix(1 0 0 1 10 10)"/></g><g><path fill="none" stroke="#000000" paint-order="fill stroke markers" d=" M 279 434 L 293 434 L 293 462 L 279 462 L 279 434 Z Z" stroke-miterlimit="10" stroke-dasharray=""/></g><g><path fill="none" stroke="#000000" paint-order="fill stroke markers" d=" M 279 450 L 73 450" stroke-miterlimit="10" stroke-dasharray=""/></g><g><path fill="#000000" stroke="none" paint-order="stroke fill markers" d=" M 83.16267485762415 445.790482243984 L 73 450 L 83.16267485762415 454.209517756016"/></g><g><path fill="none" stroke="#000000" paint-order="fill stroke markers" d=" M 83.16267485762415 445.790482243984 L 73 450 L 83.16267485762415 454.209517756016 L 83.16267485762415 445.790482243984" stroke-miterlimit="10" stroke-dasharray=""/></g><g><rect fill="#ffffff" stroke="none" x="112" y="444" width="107.66259765625" height="13" transform="matrix(1 0 0 1 10 10)"/></g><g><g><path fill="none" stroke="none"/><text fill="#000000" stroke="none" font-family="Arial" font-size="13px" font-style="normal" font-weight="normal" text-decoration="undefined" x="165.831298828125" y="450.5" text-anchor="middle" dominant-baseline="central" transform="matrix(1 0 0 1 10 10)">14 : choosePriority</text></g></g><g><rect fill="#ffffff" stroke="none" x="49" y="440" width="14" height="28" transform="matrix(1 0 0 1 10 10)"/></g><g><path fill="none" stroke="#000000" paint-order="fill stroke markers" d=" M 59 450 L 73 450 L 73 478 L 59 478 L 59 450 Z Z" stroke-miterlimit="10" stroke-dasharray=""/></g><g><path fill="none" stroke="#000000" paint-order="fill stroke markers" d=" M 67 490 L 286 490" stroke-miterlimit="10" stroke-dasharray="3"/></g><g><path fill="none" stroke="#000000" paint-order="fill stroke markers" d=" M 275.83732514237585 494.209517756016 L 286 490 L 275.83732514237585 485.790482243984" stroke-miterlimit="10" stroke-dasharray=""/></g><g><rect fill="#ffffff" stroke="none" x="89" y="464" width="155.3271484375" height="13" transform="matrix(1 0 0 1 10 10)"/></g><g><g><path fill="none" stroke="none"/><text fill="#000000" stroke="none" font-family="Arial" font-size="13px" font-style="normal" font-weight="normal" text-decoration="undefined" x="166.66357421875" y="470.5" text-anchor="middle" dominant-baseline="central" transform="matrix(1 0 0 1 10 10)">15 : choosePriority(priority)</text></g></g><g><path fill="none" stroke="#000000" paint-order="fill stroke markers" d=" M 287 498 L 631 498" stroke-miterlimit="10" stroke-dasharray=""/></g><g><path fill="#000000" stroke="none" paint-order="stroke fill markers" d=" M 620.8373251423759 502.209517756016 L 631 498 L 620.8373251423758 493.790482243984"/></g><g><path fill="none" stroke="#000000" paint-order="fill stroke markers" d=" M 620.8373251423759 502.209517756016 L 631 498 L 620.8373251423758 493.790482243984 L 620.8373251423759 502.209517756016" stroke-miterlimit="10" stroke-dasharray=""/></g><g><rect fill="#ffffff" stroke="none" x="373" y="472" width="153.1689453125" height="13" transform="matrix(1 0 0 1 10 10)"/></g><g><g><path fill="none" stroke="none"/><text fill="#000000" stroke="none" font-family="Arial" font-size="13px" font-style="normal" font-weight="normal" text-decoration="undefined" x="449.58447265625" y="478.5" text-anchor="middle" dominant-baseline="central" transform="matrix(1 0 0 1 10 10)">16 : updatePriority(priority)</text></g></g><g><rect fill="#ffffff" stroke="none" x="621" y="488" width="14" height="28" transform="matrix(1 0 0 1 10 10)"/></g><g><path fill="none" stroke="#000000" paint-order="fill stroke markers" d=" M 631 498 L 645 498 L 645 526 L 631 526 L 631 498 Z Z" stroke-miterlimit="10" stroke-dasharray=""/></g><g><path fill="none" stroke="#000000" paint-order="fill stroke markers" d=" M 67 514 L 279 514" stroke-miterlimit="10" stroke-dasharray=""/></g><g><path fill="#000000" stroke="none" paint-order="stroke fill markers" d=" M 268.83732514237585 518.209517756016 L 279 514 L 268.83732514237585 509.790482243984"/></g><g><path fill="none" stroke="#000000" paint-order="fill stroke markers" d=" M 268.83732514237585 518.209517756016 L 279 514 L 268.83732514237585 509.790482243984 L 268.83732514237585 518.209517756016" stroke-miterlimit="10" stroke-dasharray=""/></g><g><rect fill="#ffffff" stroke="none" x="69" y="488" width="188.6015625" height="13" transform="matrix(1 0 0 1 10 10)"/></g><g><g><path fill="none" stroke="none"/><text fill="#000000" stroke="none" font-family="Arial" font-size="13px" font-style="normal" font-weight="normal" text-decoration="undefined" x="163.30078125" y="494.5" text-anchor="middle" dominant-baseline="central" transform="matrix(1 0 0 1 10 10)">17 : [selectButton]confirmUpdate</text></g></g><g><rect fill="#ffffff" stroke="none" x="269" y="504" width="14" height="28" transform="matrix(1 0 0 1 10 10)"/></g><g><path fill="none" stroke="#000000" paint-order="fill stroke markers" d=" M 279 514 L 293 514 L 293 542 L 279 542 L 279 514 Z Z" stroke-miterlimit="10" stroke-dasharray=""/></g><g><path fill="none" stroke="#000000" paint-order="fill stroke markers" d=" M 293 530 L 631 530" stroke-miterlimit="10" stroke-dasharray=""/></g><g><path fill="#000000" stroke="none" paint-order="stroke fill markers" d=" M 620.8373251423759 534.209517756016 L 631 530 L 620.8373251423758 525.790482243984"/></g><g><path fill="none" stroke="#000000" paint-order="fill stroke markers" d=" M 620.8373251423759 534.209517756016 L 631 530 L 620.8373251423758 525.790482243984 L 620.8373251423759 534.209517756016" stroke-miterlimit="10" stroke-dasharray=""/></g><g><rect fill="#ffffff" stroke="none" x="403" y="504" width="98.99169921875" height="13" transform="matrix(1 0 0 1 10 10)"/></g><g><g><path fill="none" stroke="none"/><text fill="#000000" stroke="none" font-family="Arial" font-size="13px" font-style="normal" font-weight="normal" text-decoration="undefined" x="452.495849609375" y="510.5" text-anchor="middle" dominant-baseline="central" transform="matrix(1 0 0 1 10 10)">18 : getNewPrice</text></g></g><g><rect fill="#ffffff" stroke="none" x="621" y="520" width="14" height="28" transform="matrix(1 0 0 1 10 10)"/></g><g><path fill="none" stroke="#000000" paint-order="fill stroke markers" d=" M 631 530 L 645 530 L 645 558 L 631 558 L 631 530 Z Z" stroke-miterlimit="10" stroke-dasharray=""/></g><g><path fill="none" stroke="#000000" paint-order="fill stroke markers" d=" M 645 538 L 675 538 L 675 558 L 652 558" stroke-miterlimit="10" stroke-dasharray=""/></g><g><path fill="#000000" stroke="none" paint-order="stroke fill markers" d=" M 662.1626748576241 553.790482243984 L 652 558 L 662.1626748576241 562.209517756016"/></g><g><path fill="none" stroke="#000000" paint-order="fill stroke markers" d=" M 662.1626748576241 553.790482243984 L 652 558 L 662.1626748576241 562.209517756016 L 662.1626748576241 553.790482243984" stroke-miterlimit="10" stroke-dasharray=""/></g><g><rect fill="#ffffff" stroke="none" x="627" y="531" width="94.67529296875" height="13" transform="matrix(1 0 0 1 10 10)"/></g><g><g><path fill="none" stroke="none"/><text fill="#000000" stroke="none" font-family="Arial" font-size="13px" font-style="normal" font-weight="normal" text-decoration="undefined" x="674.337646484375" y="537.5" text-anchor="middle" dominant-baseline="central" transform="matrix(1 0 0 1 10 10)">19 : updatePrice</text></g></g><g><rect fill="#ffffff" stroke="none" x="628" y="548" width="14" height="28" transform="matrix(1 0 0 1 10 10)"/></g><g><path fill="none" stroke="#000000" paint-order="fill stroke markers" d=" M 638 558 L 652 558 L 652 586 L 638 586 L 638 558 Z Z" stroke-miterlimit="10" stroke-dasharray=""/></g><g><path fill="none" stroke="#000000" paint-order="fill stroke markers" d=" M 638 565 L 287 565" stroke-miterlimit="10" stroke-dasharray="3"/></g><g><path fill="none" stroke="#000000" paint-order="fill stroke markers" d=" M 297.16267485762415 560.790482243984 L 287 565 L 297.16267485762415 569.209517756016" stroke-miterlimit="10" stroke-dasharray=""/></g><g><rect fill="#ffffff" stroke="none" x="412" y="559" width="78.76171875" height="13" transform="matrix(1 0 0 1 10 10)"/></g><g><g><path fill="none" stroke="none"/><text fill="#000000" stroke="none" font-family="Arial" font-size="13px" font-style="normal" font-weight="normal" text-decoration="undefined" x="451.380859375" y="565.5" text-anchor="middle" dominant-baseline="central" transform="matrix(1 0 0 1 10 10)">20 : newPrice</text></g></g><g><path fill="none" stroke="#000000" paint-order="fill stroke markers" d=" M 286 570 L 73 570" stroke-miterlimit="10" stroke-dasharray=""/></g><g><path fill="#000000" stroke="none" paint-order="stroke fill markers" d=" M 83.16267485762415 565.790482243984 L 73 570 L 83.16267485762415 574.209517756016"/></g><g><path fill="none" stroke="#000000" paint-order="fill stroke markers" d=" M 83.16267485762415 565.790482243984 L 73 570 L 83.16267485762415 574.209517756016 L 83.16267485762415 565.790482243984" stroke-miterlimit="10" stroke-dasharray=""/></g><g><rect fill="#ffffff" stroke="none" x="89" y="564" width="158.970703125" height="13" transform="matrix(1 0 0 1 10 10)"/></g><g><g><path fill="none" stroke="none"/><text fill="#000000" stroke="none" font-family="Arial" font-size="13px" font-style="normal" font-weight="normal" text-decoration="undefined" x="168.4853515625" y="570.5" text-anchor="middle" dominant-baseline="central" transform="matrix(1 0 0 1 10 10)">21 : providePaymentDetails</text></g></g><g><rect fill="#ffffff" stroke="none" x="49" y="560" width="14" height="28" transform="matrix(1 0 0 1 10 10)"/></g><g><path fill="none" stroke="#000000" paint-order="fill stroke markers" d=" M 59 570 L 73 570 L 73 598 L 59 598 L 59 570 Z Z" stroke-miterlimit="10" stroke-dasharray=""/></g><g><path fill="none" stroke="#000000" paint-order="fill stroke markers" d=" M 67 610 L 286 610" stroke-miterlimit="10" stroke-dasharray="3"/></g><g><path fill="none" stroke="#000000" paint-order="fill stroke markers" d=" M 275.83732514237585 614.209517756016 L 286 610 L 275.83732514237585 605.790482243984" stroke-miterlimit="10" stroke-dasharray=""/></g><g><rect fill="#ffffff" stroke="none" x="109" y="584" width="114.892578125" height="13" transform="matrix(1 0 0 1 10 10)"/></g><g><g><path fill="none" stroke="none"/><text fill="#000000" stroke="none" font-family="Arial" font-size="13px" font-style="normal" font-weight="normal" text-decoration="undefined" x="166.4462890625" y="590.5" text-anchor="middle" dominant-baseline="central" transform="matrix(1 0 0 1 10 10)">22 : paymentDetails</text></g></g><g><path fill="none" stroke="#000000" paint-order="fill stroke markers" d=" M 287 618 L 682 618" stroke-miterlimit="10" stroke-dasharray="3"/></g><g><path fill="none" stroke="#000000" paint-order="fill stroke markers" d=" M 671.8373251423759 622.209517756016 L 682 618 L 671.8373251423758 613.790482243984" stroke-miterlimit="10" stroke-dasharray=""/></g><g><rect fill="#ffffff" stroke="none" x="369" y="592" width="210.9833984375" height="13" transform="matrix(1 0 0 1 10 10)"/></g><g><g><path fill="none" stroke="none"/><text fill="#000000" stroke="none" font-family="Arial" font-size="13px" font-style="normal" font-weight="normal" text-decoration="undefined" x="474.49169921875" y="598.5" text-anchor="middle" dominant-baseline="central" transform="matrix(1 0 0 1 10 10)">23 : createPayment(paymentDetails)</text></g></g><g><rect fill="#ffffff" stroke="none" x="449" y="577" width="50.5908203125" height="13" transform="matrix(1 0 0 1 10 10)"/></g><g><g><path fill="none" stroke="none"/><text fill="#000000" stroke="none" font-family="Arial" font-size="13px" font-style="normal" font-weight="normal" text-decoration="undefined" x="474.29541015625" y="583.5" text-anchor="middle" dominant-baseline="central" transform="matrix(1 0 0 1 10 10)">«create»</text></g></g><g><path fill="none" stroke="#000000" paint-order="fill stroke markers" d=" M 286 634 L 73 634" stroke-miterlimit="10" stroke-dasharray=""/></g><g><path fill="#000000" stroke="none" paint-order="stroke fill markers" d=" M 83.16267485762415 629.790482243984 L 73 634 L 83.16267485762415 638.209517756016"/></g><g><path fill="none" stroke="#000000" paint-order="fill stroke markers" d=" M 83.16267485762415 629.790482243984 L 73 634 L 83.16267485762415 638.209517756016 L 83.16267485762415 629.790482243984" stroke-miterlimit="10" stroke-dasharray=""/></g><g><rect fill="#ffffff" stroke="none" x="109" y="628" width="119.21533203125" height="13" transform="matrix(1 0 0 1 10 10)"/></g><g><g><path fill="none" stroke="none"/><text fill="#000000" stroke="none" font-family="Arial" font-size="13px" font-style="normal" font-weight="normal" text-decoration="undefined" x="168.607666015625" y="634.5" text-anchor="middle" dominant-baseline="central" transform="matrix(1 0 0 1 10 10)">24 : confirmPayment</text></g></g><g><rect fill="#ffffff" stroke="none" x="49" y="624" width="14" height="28" transform="matrix(1 0 0 1 10 10)"/></g><g><path fill="none" stroke="#000000" paint-order="fill stroke markers" d=" M 59 634 L 73 634 L 73 662 L 59 662 L 59 634 Z Z" stroke-miterlimit="10" stroke-dasharray=""/></g><g><path fill="none" stroke="#000000" paint-order="fill stroke markers" d=" M 67 666 L 286 666" stroke-miterlimit="10" stroke-dasharray="3"/></g><g><path fill="none" stroke="#000000" paint-order="fill stroke markers" d=" M 275.83732514237585 670.209517756016 L 286 666 L 275.83732514237585 661.790482243984" stroke-miterlimit="10" stroke-dasharray=""/></g><g><rect fill="#ffffff" stroke="none" x="93" y="640" width="146.6689453125" height="13" transform="matrix(1 0 0 1 10 10)"/></g><g><g><path fill="none" stroke="none"/><text fill="#000000" stroke="none" font-family="Arial" font-size="13px" font-style="normal" font-weight="normal" text-decoration="undefined" x="166.33447265625" y="646.5" text-anchor="middle" dominant-baseline="central" transform="matrix(1 0 0 1 10 10)">25 : [yes]confirmPayment</text></g></g><g><path fill="none" stroke="#000000" paint-order="fill stroke markers" d=" M 287 671 L 731 671" stroke-miterlimit="10" stroke-dasharray=""/></g><g><path fill="#000000" stroke="none" paint-order="stroke fill markers" d=" M 720.8373251423759 675.209517756016 L 731 671 L 720.8373251423758 666.790482243984"/></g><g><path fill="none" stroke="#000000" paint-order="fill stroke markers" d=" M 720.8373251423759 675.209517756016 L 731 671 L 720.8373251423758 666.790482243984 L 720.8373251423759 675.209517756016" stroke-miterlimit="10" stroke-dasharray=""/></g><g><rect fill="#ffffff" stroke="none" x="438" y="645" width="122.1162109375" height="13" transform="matrix(1 0 0 1 10 10)"/></g><g><g><path fill="none" stroke="none"/><text fill="#000000" stroke="none" font-family="Arial" font-size="13px" font-style="normal" font-weight="normal" text-decoration="undefined" x="499.05810546875" y="651.5" text-anchor="middle" dominant-baseline="central" transform="matrix(1 0 0 1 10 10)">26 : processPayment</text></g></g><g><rect fill="#ffffff" stroke="none" x="721" y="661" width="14" height="28" transform="matrix(1 0 0 1 10 10)"/></g><g><path fill="none" stroke="#000000" paint-order="fill stroke markers" d=" M 731 671 L 745 671 L 745 699 L 731 699 L 731 671 Z Z" stroke-miterlimit="10" stroke-dasharray=""/></g><g><path fill="none" stroke="#000000" paint-order="fill stroke markers" d=" M 287 690 L 631 690" stroke-miterlimit="10" stroke-dasharray=""/></g><g><path fill="#000000" stroke="none" paint-order="stroke fill markers" d=" M 620.8373251423759 694.209517756016 L 631 690 L 620.8373251423758 685.790482243984"/></g><g><path fill="none" stroke="#000000" paint-order="fill stroke markers" d=" M 620.8373251423759 694.209517756016 L 631 690 L 620.8373251423758 685.790482243984 L 620.8373251423759 694.209517756016" stroke-miterlimit="10" stroke-dasharray=""/></g><g><rect fill="#ffffff" stroke="none" x="392" y="664" width="114.892578125" height="13" transform="matrix(1 0 0 1 10 10)"/></g><g><g><path fill="none" stroke="none"/><text fill="#000000" stroke="none" font-family="Arial" font-size="13px" font-style="normal" font-weight="normal" text-decoration="undefined" x="449.4462890625" y="670.5" text-anchor="middle" dominant-baseline="central" transform="matrix(1 0 0 1 10 10)">27 : confirmBooking</text></g></g><g><rect fill="#ffffff" stroke="none" x="621" y="680" width="14" height="28" transform="matrix(1 0 0 1 10 10)"/></g><g><path fill="none" stroke="#000000" paint-order="fill stroke markers" d=" M 631 690 L 645 690 L 645 718 L 631 718 L 631 690 Z Z" stroke-miterlimit="10" stroke-dasharray=""/></g><g><path fill="none" stroke="#000000" paint-order="fill stroke markers" d=" M 631 707 L 442 707" stroke-miterlimit="10" stroke-dasharray=""/></g><g><path fill="#000000" stroke="none" paint-order="stroke fill markers" d=" M 452.16267485762415 702.790482243984 L 442 707 L 452.16267485762415 711.209517756016"/></g><g><path fill="none" stroke="#000000" paint-order="fill stroke markers" d=" M 452.16267485762415 702.790482243984 L 442 707 L 452.16267485762415 711.209517756016 L 452.16267485762415 702.790482243984" stroke-miterlimit="10" stroke-dasharray=""/></g><g><rect fill="#ffffff" stroke="none" x="450" y="701" width="151.7724609375" height="13" transform="matrix(1 0 0 1 10 10)"/></g><g><g><path fill="none" stroke="none"/><text fill="#000000" stroke="none" font-family="Arial" font-size="13px" font-style="normal" font-weight="normal" text-decoration="undefined" x="525.88623046875" y="707.5" text-anchor="middle" dominant-baseline="central" transform="matrix(1 0 0 1 10 10)">28 : updateBookingDetails</text></g></g><g><rect fill="#ffffff" stroke="none" x="418" y="697" width="14" height="28" transform="matrix(1 0 0 1 10 10)"/></g><g><path fill="none" stroke="#000000" paint-order="fill stroke markers" d=" M 428 707 L 442 707 L 442 735 L 428 735 L 428 707 Z Z" stroke-miterlimit="10" stroke-dasharray=""/></g><g><path fill="none" stroke="#000000" paint-order="fill stroke markers" d=" M 286 722 L 73 722" stroke-miterlimit="10" stroke-dasharray=""/></g><g><path fill="#000000" stroke="none" paint-order="stroke fill markers" d=" M 83.16267485762415 717.790482243984 L 73 722 L 83.16267485762415 726.209517756016"/></g><g><path fill="none" stroke="#000000" paint-order="fill stroke markers" d=" M 83.16267485762415 717.790482243984 L 73 722 L 83.16267485762415 726.209517756016 L 83.16267485762415 717.790482243984" stroke-miterlimit="10" stroke-dasharray=""/></g><g><rect fill="#ffffff" stroke="none" x="72" y="716" width="192.20703125" height="13" transform="matrix(1 0 0 1 10 10)"/></g><g><g><path fill="none" stroke="none"/><text fill="#000000" stroke="none" font-family="Arial" font-size="13px" font-style="normal" font-weight="normal" text-decoration="undefined" x="168.103515625" y="722.5" text-anchor="middle" dominant-baseline="central" transform="matrix(1 0 0 1 10 10)">29 : displayBookingInfo</text></g></g><g><rect fill="#ffffff" stroke="none" x="49" y="712" width="14" height="28" transform="matrix(1 0 0 1 10 10)"/></g><g><path fill="none" stroke="#000000" paint-order="fill stroke markers" d=" M 59 722 L 73 722 L 73 750 L 59 750 L 59 722 Z Z" stroke-miterlimit="10" stroke-dasharray=""/></g></g></svg>