<svg version="1.1" xmlns="http://www.w3.org/2000/svg" xmlns:xlink="http://www.w3.org/1999/xlink" width="844" height="1046"><defs/><g><g><path fill="none" stroke="#000000" paint-order="fill stroke markers" d=" M 10 10 L 834 10 L 834 1034 L 10 1034 L 10 10" stroke-miterlimit="10" stroke-dasharray=""/></g><g><path fill="#ffffff" stroke="none" paint-order="stroke fill markers" d=" M 10 10 L 10 33 L 104.76171875 33 L 116.26171875 21.5 L 116.26171875 10 L 10 10"/></g><g><path fill="none" stroke="#000000" paint-order="fill stroke markers" d=" M 10 10 L 10 33 L 104.76171875 33 L 116.26171875 21.5 L 116.26171875 10 L 10 10 L 10 10" stroke-miterlimit="10" stroke-dasharray=""/></g><g><g><path fill="none" stroke="none"/><text fill="#000000" stroke="none" font-family="Arial" font-size="13px" font-style="normal" font-weight="normal" text-decoration="undefined" x="113.245849609375" y="11.5" text-anchor="middle" dominant-baseline="central" transform="matrix(1 0 0 1 -46 10)">Book Flight</text></g></g><g><g><path fill="none" stroke="none"/><text fill="#000000" stroke="none" font-family="Arial" font-size="13px" font-style="normal" font-weight="bold" text-decoration="undefined" x="67.864990234375" y="11.5" text-anchor="middle" dominant-baseline="central" transform="matrix(1 0 0 1 -46 10)">sd</text></g></g><g><path fill="none" stroke="#000000" paint-order="fill stroke markers" d=" M 98 498 L 778 498 L 778 618 L 98 618 L 98 498" stroke-miterlimit="10" stroke-dasharray=""/></g><g><path fill="#ffffff" stroke="none" paint-order="stroke fill markers" d=" M 98 498 L 98 521 L 114 521 L 125.5 509.5 L 125.5 498 L 98 498"/></g><g><path fill="none" stroke="#000000" paint-order="fill stroke markers" d=" M 98 498 L 98 521 L 114 521 L 125.5 509.5 L 125.5 498 L 98 498 L 98 498" stroke-miterlimit="10" stroke-dasharray=""/></g><g><g><path fill="none" stroke="none"/><text fill="#000000" stroke="none" font-family="Arial" font-size="13px" font-style="normal" font-weight="normal" text-decoration="undefined" x="155" y="499.5" text-anchor="middle" dominant-baseline="central" transform="matrix(1 0 0 1 -46 10)"></text></g></g><g><g><path fill="none" stroke="none"/><text fill="#000000" stroke="none" font-family="Arial" font-size="13px" font-style="normal" font-weight="bold" text-decoration="undefined" x="149" y="499.5" text-anchor="middle" dominant-baseline="central" transform="matrix(1 0 0 1 -46 10)"></text></g></g><g><rect fill="#C0C0C0" stroke="none" x="151" y="47" width="80.67724609375" height="40" transform="matrix(1 0 0 1 -46 10)" fill-opacity="0.2"/></g><g><rect fill="#ffffff" stroke="none" x="144" y="40" width="80.67724609375" height="40" transform="matrix(1 0 0 1 -46 10)"/></g><g><path fill="none" stroke="#000000" paint-order="fill stroke markers" d=" M 98 50 L 178.67724609375 50 L 178.67724609375 90 L 98 90 L 98 50 Z Z" stroke-miterlimit="10" stroke-dasharray=""/></g><g><g><path fill="none" stroke="none"/><text fill="#000000" stroke="none" font-family="Arial" font-size="13px" font-style="normal" font-weight="bold" text-decoration="undefined" x="184.838623046875" y="53.5" text-anchor="middle" dominant-baseline="central" transform="matrix(1 0 0 1 -46 10)">Customer</text></g></g><g><path fill="none" stroke="#000000" paint-order="fill stroke markers" d=" M 138.5 91 L 138.5 1036" stroke-miterlimit="10" stroke-dasharray="3"/></g><g><rect fill="#C0C0C0" stroke="none" x="375" y="47" width="116.07177734375" height="40" transform="matrix(1 0 0 1 -46 10)" fill-opacity="0.2"/></g><g><rect fill="#ffffff" stroke="none" x="368" y="40" width="116.07177734375" height="40" transform="matrix(1 0 0 1 -46 10)"/></g><g><path fill="none" stroke="#000000" paint-order="fill stroke markers" d=" M 322 50 L 438.07177734375 50 L 438.07177734375 90 L 322 90 L 322 50 Z Z" stroke-miterlimit="10" stroke-dasharray=""/></g><g><g><path fill="none" stroke="none"/><text fill="#000000" stroke="none" font-family="Arial" font-size="13px" font-style="normal" font-weight="bold" text-decoration="undefined" x="426.535888671875" y="53.5" text-anchor="middle" dominant-baseline="central" transform="matrix(1 0 0 1 -46 10)">Menu</text></g></g><g><path fill="none" stroke="#000000" paint-order="fill stroke markers" d=" M 380.5 91 L 380.5 1036" stroke-miterlimit="10" stroke-dasharray="3"/></g><g><rect fill="#C0C0C0" stroke="none" x="543" y="47" width="95.080078125" height="40" transform="matrix(1 0 0 1 -46 10)" fill-opacity="0.2"/></g><g><rect fill="#ffffff" stroke="none" x="536" y="40" width="95.080078125" height="40" transform="matrix(1 0 0 1 -46 10)"/></g><g><path fill="none" stroke="#000000" paint-order="fill stroke markers" d=" M 490 50 L 585.080078125 50 L 585.080078125 90 L 490 90 L 490 50 Z Z" stroke-miterlimit="10" stroke-dasharray=""/></g><g><g><path fill="none" stroke="none"/><text fill="#000000" stroke="none" font-family="Arial" font-size="13px" font-style="normal" font-weight="bold" text-decoration="undefined" x="584.0400390625" y="53.5" text-anchor="middle" dominant-baseline="central" transform="matrix(1 0 0 1 -46 10)">flight: Flight</text></g></g><g><path fill="none" stroke="#000000" paint-order="fill stroke markers" d=" M 538.5 91 L 538.5 1034" stroke-miterlimit="10" stroke-dasharray="3"/></g><g><rect fill="#C0C0C0" stroke="none" x="663" y="315" width="95.10546875" height="40" transform="matrix(1 0 0 1 -46 10)" fill-opacity="0.2"/></g><g><rect fill="#ffffff" stroke="none" x="656" y="308" width="95.10546875" height="40" transform="matrix(1 0 0 1 -46 10)"/></g><g><path fill="none" stroke="#000000" paint-order="fill stroke markers" d=" M 610 318 L 705.10546875 318 L 705.10546875 358 L 610 358 L 610 318 Z Z" stroke-miterlimit="10" stroke-dasharray=""/></g><g><g><path fill="none" stroke="none"/><text fill="#000000" stroke="none" font-family="Arial" font-size="13px" font-style="normal" font-weight="bold" text-decoration="undefined" x="704.052734375" y="321.5" text-anchor="middle" dominant-baseline="central" transform="matrix(1 0 0 1 -46 10)">bk: Booking</text></g></g><g><path fill="none" stroke="#000000" paint-order="fill stroke markers" d=" M 658.5 359 L 658.5 1034" stroke-miterlimit="10" stroke-dasharray="3"/></g><g><path fill="none" stroke="#000000" paint-order="fill stroke markers" d=" M 74 506 L 88 506" stroke-miterlimit="10" stroke-dasharray=""/></g><g><path fill="none" stroke="#000000" paint-order="fill stroke markers" d=" M 74 602 L 88 602" stroke-miterlimit="10" stroke-dasharray=""/></g><g><path fill="none" stroke="#000000" paint-order="fill stroke markers" d=" M 81 506 L 81 602" stroke-miterlimit="10" stroke-dasharray=""/></g><g><path fill="none" stroke="#000000" paint-order="fill stroke markers" d=" M 81 506 L 77 514" stroke-miterlimit="10" stroke-dasharray=""/></g><g><path fill="none" stroke="#000000" paint-order="fill stroke markers" d=" M 81 506 L 85 514" stroke-miterlimit="10" stroke-dasharray=""/></g><g><path fill="none" stroke="#000000" paint-order="fill stroke markers" d=" M 81 602 L 77 594" stroke-miterlimit="10" stroke-dasharray=""/></g><g><path fill="none" stroke="#000000" paint-order="fill stroke markers" d=" M 81 602 L 85 594" stroke-miterlimit="10" stroke-dasharray=""/></g><g><rect fill="#ffffff" stroke="none" x="81.293212890625" y="530.5" width="61.41357421875" height="13" transform="matrix(1 0 0 1 -46 10)"/></g><g><g><path fill="none" stroke="none"/><text fill="#000000" stroke="none" font-family="Arial" font-size="13px" font-style="normal" font-weight="normal" text-decoration="undefined" x="112" y="537" text-anchor="middle" dominant-baseline="central" transform="matrix(1 0 0 1 -46 10)">{1..6}</text></g></g><g><rect fill="#C0C0C0" stroke="none" x="783" y="811" width="97.3017578125" height="40" transform="matrix(1 0 0 1 -46 10)" fill-opacity="0.2"/></g><g><rect fill="#ffffff" stroke="none" x="776" y="804" width="97.3017578125" height="40" transform="matrix(1 0 0 1 -46 10)"/></g><g><path fill="none" stroke="#000000" paint-order="fill stroke markers" d=" M 730 814 L 827.3017578125 814 L 827.3017578125 854 L 730 854 L 730 814 Z Z" stroke-miterlimit="10" stroke-dasharray=""/></g><g><g><path fill="none" stroke="none"/><text fill="#000000" stroke="none" font-family="Arial" font-size="13px" font-style="normal" font-weight="bold" text-decoration="undefined" x="825.15087890625" y="817.5" text-anchor="middle" dominant-baseline="central" transform="matrix(1 0 0 1 -46 10)">py: Payment</text></g></g><g><path fill="none" stroke="#000000" paint-order="fill stroke markers" d=" M 779.5 855 L 779.5 1034" stroke-miterlimit="10" stroke-dasharray="3"/></g><g><g><path fill="none" stroke="none"/><text fill="#000000" stroke="none" font-family="Lato" font-size="13px" font-style="normal" font-weight="normal" text-decoration="undefined" x="145" y="491" text-anchor="start" dominant-baseline="text-before-edge" transform="matrix(1 0 0 1 -46 10)">loop</text></g></g><g><rect fill="#ffffff" stroke="none" x="160" y="96" width="304" height="56" transform="matrix(1 0 0 1 -46 10)"/></g><g><path fill="none" stroke="#000000" paint-order="fill stroke markers" d=" M 114 106 L 418 106 L 418 162 L 114 162 L 114 106 Z Z" stroke-miterlimit="10" stroke-dasharray=""/></g><g><path fill="none" stroke="#000000" paint-order="fill stroke markers" d=" M 114 106 L 114 129 L 139.1708984375 129 L 150.6708984375 117.5 L 150.6708984375 106 L 114 106 L 114 106" stroke-miterlimit="10" stroke-dasharray=""/></g><g><g><path fill="none" stroke="none"/><text fill="#000000" stroke="none" font-family="Arial" font-size="13px" font-style="normal" font-weight="normal" text-decoration="undefined" x="330.33544921875" y="107.5" text-anchor="middle" dominant-baseline="central" transform="matrix(1 0 0 1 -46 10)">Verify Booking Details</text></g></g><g><g><path fill="none" stroke="none"/><text fill="#000000" stroke="none" font-family="Arial" font-size="13px" font-style="normal" font-weight="bold" text-decoration="undefined" x="172.58544921875" y="107.5" text-anchor="middle" dominant-baseline="central" transform="matrix(1 0 0 1 -46 10)">ref</text></g></g><g><path fill="none" stroke="#000000" paint-order="fill stroke markers" d=" M 139 186 L 373 186" stroke-miterlimit="10" stroke-dasharray=""/></g><g><path fill="#000000" stroke="none" paint-order="stroke fill markers" d=" M 362.83732514237585 190.209517756016 L 373 186 L 362.83732514237585 181.790482243984"/></g><g><path fill="none" stroke="#000000" paint-order="fill stroke markers" d=" M 362.83732514237585 190.209517756016 L 373 186 L 362.83732514237585 181.790482243984 L 362.83732514237585 190.209517756016" stroke-miterlimit="10" stroke-dasharray=""/></g><g><rect fill="#ffffff" stroke="none" x="243" y="160" width="119.9326171875" height="13" transform="matrix(1 0 0 1 -46 10)"/></g><g><g><path fill="none" stroke="none"/><text fill="#000000" stroke="none" font-family="Arial" font-size="13px" font-style="normal" font-weight="normal" text-decoration="undefined" x="302.96630859375" y="166.5" text-anchor="middle" dominant-baseline="central" transform="matrix(1 0 0 1 -46 10)">1 : selectFlight(flight)</text></g></g><g><rect fill="#ffffff" stroke="none" x="419" y="176" width="14" height="28" transform="matrix(1 0 0 1 -46 10)"/></g><g><path fill="none" stroke="#000000" paint-order="fill stroke markers" d=" M 373 186 L 387 186 L 387 214 L 373 214 L 373 186 Z Z" stroke-miterlimit="10" stroke-dasharray=""/></g><g><path fill="none" stroke="#000000" paint-order="fill stroke markers" d=" M 381 218 L 531 218" stroke-miterlimit="10" stroke-dasharray=""/></g><g><path fill="#000000" stroke="none" paint-order="stroke fill markers" d=" M 520.8373251423759 222.209517756016 L 531 218 L 520.8373251423758 213.790482243984"/></g><g><path fill="none" stroke="#000000" paint-order="fill stroke markers" d=" M 520.8373251423759 222.209517756016 L 531 218 L 520.8373251423758 213.790482243984 L 520.8373251423759 222.209517756016" stroke-miterlimit="10" stroke-dasharray=""/></g><g><rect fill="#ffffff" stroke="none" x="454" y="192" width="96.10986328125" height="13" transform="matrix(1 0 0 1 -46 10)"/></g><g><g><path fill="none" stroke="none"/><text fill="#000000" stroke="none" font-family="Arial" font-size="13px" font-style="normal" font-weight="normal" text-decoration="undefined" x="502.054931640625" y="198.5" text-anchor="middle" dominant-baseline="central" transform="matrix(1 0 0 1 -46 10)">2 : getFlightsInfo</text></g></g><g><rect fill="#ffffff" stroke="none" x="577" y="208" width="14" height="28" transform="matrix(1 0 0 1 -46 10)"/></g><g><path fill="none" stroke="#000000" paint-order="fill stroke markers" d=" M 531 218 L 545 218 L 545 246 L 531 246 L 531 218 Z Z" stroke-miterlimit="10" stroke-dasharray=""/></g><g><path fill="none" stroke="#000000" paint-order="fill stroke markers" d=" M 531 245 L 381 245" stroke-miterlimit="10" stroke-dasharray="3"/></g><g><path fill="none" stroke="#000000" paint-order="fill stroke markers" d=" M 391.16267485762415 240.790482243984 L 381 245 L 391.16267485762415 249.209517756016" stroke-miterlimit="10" stroke-dasharray=""/></g><g><rect fill="#ffffff" stroke="none" x="468" y="239" width="67.208984375" height="13" transform="matrix(1 0 0 1 -46 10)"/></g><g><g><path fill="none" stroke="none"/><text fill="#000000" stroke="none" font-family="Arial" font-size="13px" font-style="normal" font-weight="normal" text-decoration="undefined" x="501.6044921875" y="245.5" text-anchor="middle" dominant-baseline="central" transform="matrix(1 0 0 1 -46 10)">3 : flightInfo</text></g></g><g><path fill="none" stroke="#000000" paint-order="fill stroke markers" d=" M 380 258 L 145 258" stroke-miterlimit="10" stroke-dasharray=""/></g><g><path fill="#000000" stroke="none" paint-order="stroke fill markers" d=" M 155.16267485762415 253.790482243984 L 145 258 L 155.16267485762415 262.209517756016"/></g><g><path fill="none" stroke="#000000" paint-order="fill stroke markers" d=" M 155.16267485762415 253.790482243984 L 145 258 L 155.16267485762415 262.209517756016 L 155.16267485762415 253.790482243984" stroke-miterlimit="10" stroke-dasharray=""/></g><g><rect fill="#ffffff" stroke="none" x="251" y="252" width="112.00439453125" height="13" transform="matrix(1 0 0 1 -46 10)"/></g><g><g><path fill="none" stroke="none"/><text fill="#000000" stroke="none" font-family="Arial" font-size="13px" font-style="normal" font-weight="normal" text-decoration="undefined" x="307.002197265625" y="258.5" text-anchor="middle" dominant-baseline="central" transform="matrix(1 0 0 1 -46 10)">4 : displayFlightInfo</text></g></g><g><rect fill="#ffffff" stroke="none" x="177" y="248" width="14" height="28" transform="matrix(1 0 0 1 -46 10)"/></g><g><path fill="none" stroke="#000000" paint-order="fill stroke markers" d=" M 131 258 L 145 258 L 145 286 L 131 286 L 131 258 Z Z" stroke-miterlimit="10" stroke-dasharray=""/></g><g><path fill="none" stroke="#000000" paint-order="fill stroke markers" d=" M 139 306 L 373 306" stroke-miterlimit="10" stroke-dasharray=""/></g><g><path fill="#000000" stroke="none" paint-order="stroke fill markers" d=" M 362.83732514237585 310.209517756016 L 373 306 L 362.83732514237585 301.790482243984"/></g><g><path fill="none" stroke="#000000" paint-order="fill stroke markers" d=" M 362.83732514237585 310.209517756016 L 373 306 L 362.83732514237585 301.790482243984 L 362.83732514237585 310.209517756016" stroke-miterlimit="10" stroke-dasharray=""/></g><g><rect fill="#ffffff" stroke="none" x="240" y="280" width="124.97900390625" height="13" transform="matrix(1 0 0 1 -46 10)"/></g><g><g><path fill="none" stroke="none"/><text fill="#000000" stroke="none" font-family="Arial" font-size="13px" font-style="normal" font-weight="normal" text-decoration="undefined" x="302.489501953125" y="286.5" text-anchor="middle" dominant-baseline="central" transform="matrix(1 0 0 1 -46 10)">5 : selectArrival(flight)</text></g></g><g><rect fill="#ffffff" stroke="none" x="419" y="296" width="14" height="28" transform="matrix(1 0 0 1 -46 10)"/></g><g><path fill="none" stroke="#000000" paint-order="fill stroke markers" d=" M 373 306 L 387 306 L 387 334 L 373 334 L 373 306 Z Z" stroke-miterlimit="10" stroke-dasharray=""/></g><g><path fill="none" stroke="#000000" paint-order="fill stroke markers" d=" M 381 338 L 610 338" stroke-miterlimit="10" stroke-dasharray="3"/></g><g><path fill="none" stroke="#000000" paint-order="fill stroke markers" d=" M 599.8373251423759 342.209517756016 L 610 338 L 599.8373251423758 333.790482243984" stroke-miterlimit="10" stroke-dasharray=""/></g><g><rect fill="#ffffff" stroke="none" x="496" y="312" width="90.3271484375" height="13" transform="matrix(1 0 0 1 -46 10)"/></g><g><g><path fill="none" stroke="none"/><text fill="#000000" stroke="none" font-family="Arial" font-size="13px" font-style="normal" font-weight="normal" text-decoration="undefined" x="541.16357421875" y="318.5" text-anchor="middle" dominant-baseline="central" transform="matrix(1 0 0 1 -46 10)">6 : startBooking</text></g></g><g><rect fill="#ffffff" stroke="none" x="516" y="297" width="50.5908203125" height="13" transform="matrix(1 0 0 1 -46 10)"/></g><g><g><path fill="none" stroke="none"/><text fill="#000000" stroke="none" font-family="Arial" font-size="13px" font-style="normal" font-weight="normal" text-decoration="undefined" x="541.29541015625" y="303.5" text-anchor="middle" dominant-baseline="central" transform="matrix(1 0 0 1 -46 10)">«create»</text></g></g><g><path fill="none" stroke="#000000" paint-order="fill stroke markers" d=" M 381 370 L 651 370" stroke-miterlimit="10" stroke-dasharray=""/></g><g><path fill="#000000" stroke="none" paint-order="stroke fill markers" d=" M 640.8373251423759 374.209517756016 L 651 370 L 640.8373251423758 365.790482243984"/></g><g><path fill="none" stroke="#000000" paint-order="fill stroke markers" d=" M 640.8373251423759 374.209517756016 L 651 370 L 640.8373251423758 365.790482243984 L 640.8373251423759 374.209517756016" stroke-miterlimit="10" stroke-dasharray=""/></g><g><rect fill="#ffffff" stroke="none" x="515" y="344" width="95.392578125" height="13" transform="matrix(1 0 0 1 -46 10)"/></g><g><g><path fill="none" stroke="none"/><text fill="#000000" stroke="none" font-family="Arial" font-size="13px" font-style="normal" font-weight="normal" text-decoration="undefined" x="562.6962890625" y="350.5" text-anchor="middle" dominant-baseline="central" transform="matrix(1 0 0 1 -46 10)">7 : addDepFlight</text></g></g><g><rect fill="#ffffff" stroke="none" x="697" y="360" width="14" height="32" transform="matrix(1 0 0 1 -46 10)"/></g><g><path fill="none" stroke="#000000" paint-order="fill stroke markers" d=" M 651 370 L 665 370 L 665 402 L 651 402 L 651 370 Z Z" stroke-miterlimit="10" stroke-dasharray=""/></g><g><path fill="none" stroke="#000000" paint-order="fill stroke markers" d=" M 380 386 L 145 386" stroke-miterlimit="10" stroke-dasharray=""/></g><g><path fill="#000000" stroke="none" paint-order="stroke fill markers" d=" M 155.16267485762415 381.790482243984 L 145 386 L 155.16267485762415 390.209517756016"/></g><g><path fill="none" stroke="#000000" paint-order="fill stroke markers" d=" M 155.16267485762415 381.790482243984 L 145 386 L 155.16267485762415 390.209517756016 L 155.16267485762415 381.790482243984" stroke-miterlimit="10" stroke-dasharray=""/></g><g><rect fill="#ffffff" stroke="none" x="226" y="380" width="163.998046875" height="13" transform="matrix(1 0 0 1 -46 10)"/></g><g><g><path fill="none" stroke="none"/><text fill="#000000" stroke="none" font-family="Arial" font-size="13px" font-style="normal" font-weight="normal" text-decoration="undefined" x="307.9990234375" y="386.5" text-anchor="middle" dominant-baseline="central" transform="matrix(1 0 0 1 -46 10)">8 : selectArrivalFlight(flight)</text></g></g><g><rect fill="#ffffff" stroke="none" x="177" y="376" width="14" height="28" transform="matrix(1 0 0 1 -46 10)"/></g><g><path fill="none" stroke="#000000" paint-order="fill stroke markers" d=" M 131 386 L 145 386 L 145 414 L 131 414 L 131 386 Z Z" stroke-miterlimit="10" stroke-dasharray=""/></g><g><path fill="none" stroke="#000000" paint-order="fill stroke markers" d=" M 139 434 L 380 434" stroke-miterlimit="10" stroke-dasharray="3"/></g><g><path fill="none" stroke="#000000" paint-order="fill stroke markers" d=" M 369.83732514237585 438.209517756016 L 380 434 L 369.83732514237585 429.790482243984" stroke-miterlimit="10" stroke-dasharray=""/></g><g><rect fill="#ffffff" stroke="none" x="259" y="408" width="92.47900390625" height="13" transform="matrix(1 0 0 1 -46 10)"/></g><g><g><path fill="none" stroke="none"/><text fill="#000000" stroke="none" font-family="Arial" font-size="13px" font-style="normal" font-weight="normal" text-decoration="undefined" x="305.239501953125" y="414.5" text-anchor="middle" dominant-baseline="central" transform="matrix(1 0 0 1 -46 10)">9 : arrivalFlight</text></g></g><g><path fill="none" stroke="#000000" paint-order="fill stroke markers" d=" M 381 442 L 651 442" stroke-miterlimit="10" stroke-dasharray=""/></g><g><path fill="#000000" stroke="none" paint-order="stroke fill markers" d=" M 640.8373251423759 446.209517756016 L 651 442 L 640.8373251423758 437.790482243984"/></g><g><path fill="none" stroke="#000000" paint-order="fill stroke markers" d=" M 640.8373251423759 446.209517756016 L 651 442 L 640.8373251423758 437.790482243984 L 640.8373251423759 446.209517756016" stroke-miterlimit="10" stroke-dasharray=""/></g><g><rect fill="#ffffff" stroke="none" x="505" y="416" width="115.60986328125" height="13" transform="matrix(1 0 0 1 -46 10)"/></g><g><g><path fill="none" stroke="none"/><text fill="#000000" stroke="none" font-family="Arial" font-size="13px" font-style="normal" font-weight="normal" text-decoration="undefined" x="562.804931640625" y="422.5" text-anchor="middle" dominant-baseline="central" transform="matrix(1 0 0 1 -46 10)">10 : addArrivalFlight</text></g></g><g><rect fill="#ffffff" stroke="none" x="697" y="432" width="14" height="28" transform="matrix(1 0 0 1 -46 10)"/></g><g><path fill="none" stroke="#000000" paint-order="fill stroke markers" d=" M 651 442 L 665 442 L 665 470 L 651 470 L 651 442 Z Z" stroke-miterlimit="10" stroke-dasharray=""/></g><g><path fill="none" stroke="#000000" paint-order="fill stroke markers" d=" M 665 458 L 695 458 L 695 478 L 665 478" stroke-miterlimit="10" stroke-dasharray=""/></g><g><path fill="#000000" stroke="none" paint-order="stroke fill markers" d=" M 675.1626748576241 473.790482243984 L 665 478 L 675.1626748576241 482.209517756016"/></g><g><path fill="none" stroke="#000000" paint-order="fill stroke markers" d=" M 675.1626748576241 473.790482243984 L 665 478 L 675.1626748576241 482.209517756016 L 675.1626748576241 473.790482243984" stroke-miterlimit="10" stroke-dasharray=""/></g><g><rect fill="#ffffff" stroke="none" x="703" y="451" width="94.67529296875" height="13" transform="matrix(1 0 0 1 -46 10)"/></g><g><g><path fill="none" stroke="none"/><text fill="#000000" stroke="none" font-family="Arial" font-size="13px" font-style="normal" font-weight="normal" text-decoration="undefined" x="750.337646484375" y="457.5" text-anchor="middle" dominant-baseline="central" transform="matrix(1 0 0 1 -46 10)">11 : updatePrice</text></g></g><g><rect fill="#ffffff" stroke="none" x="697" y="468" width="14" height="28" transform="matrix(1 0 0 1 -46 10)"/></g><g><path fill="none" stroke="#000000" paint-order="fill stroke markers" d=" M 651 478 L 665 478 L 665 506 L 651 506 L 651 478 Z Z" stroke-miterlimit="10" stroke-dasharray=""/></g><g><path fill="none" stroke="#000000" paint-order="fill stroke markers" d=" M 380 506 L 145 506" stroke-miterlimit="10" stroke-dasharray=""/></g><g><path fill="#000000" stroke="none" paint-order="stroke fill markers" d=" M 155.16267485762415 501.790482243984 L 145 506 L 155.16267485762415 510.209517756016"/></g><g><path fill="none" stroke="#000000" paint-order="fill stroke markers" d=" M 155.16267485762415 501.790482243984 L 145 506 L 155.16267485762415 510.209517756016 L 155.16267485762415 501.790482243984" stroke-miterlimit="10" stroke-dasharray=""/></g><g><rect fill="#ffffff" stroke="none" x="200" y="500" width="215.36962890625" height="13" transform="matrix(1 0 0 1 -46 10)"/></g><g><g><path fill="none" stroke="none"/><text fill="#000000" stroke="none" font-family="Arial" font-size="13px" font-style="normal" font-weight="normal" text-decoration="undefined" x="307.684814453125" y="506.5" text-anchor="middle" dominant-baseline="central" transform="matrix(1 0 0 1 -46 10)">12 : *[addPassenger] addPassengers</text></g></g><g><rect fill="#ffffff" stroke="none" x="177" y="496" width="14" height="28" transform="matrix(1 0 0 1 -46 10)"/></g><g><path fill="none" stroke="#000000" paint-order="fill stroke markers" d=" M 131 506 L 145 506 L 145 534 L 131 534 L 131 506 Z Z" stroke-miterlimit="10" stroke-dasharray=""/></g><g><path fill="none" stroke="#000000" paint-order="fill stroke markers" d=" M 139 538 L 380 538" stroke-miterlimit="10" stroke-dasharray="3"/></g><g><path fill="none" stroke="#000000" paint-order="fill stroke markers" d=" M 369.83732514237585 542.209517756016 L 380 538 L 369.83732514237585 533.790482243984" stroke-miterlimit="10" stroke-dasharray=""/></g><g><rect fill="#ffffff" stroke="none" x="231" y="535" width="153.21337890625" height="13" transform="matrix(1 0 0 1 -46 10)"/></g><g><g><path fill="none" stroke="none"/><text fill="#000000" stroke="none" font-family="Arial" font-size="13px" font-style="normal" font-weight="normal" text-decoration="undefined" x="307.606689453125" y="541.5" text-anchor="middle" dominant-baseline="central" transform="matrix(1 0 0 1 -46 10)">13 : passengerInfo</text></g></g><g><path fill="none" stroke="#000000" paint-order="fill stroke markers" d=" M 381 546 L 651 546" stroke-miterlimit="10" stroke-dasharray=""/></g><g><path fill="#000000" stroke="none" paint-order="stroke fill markers" d=" M 640.8373251423759 550.209517756016 L 651 546 L 640.8373251423758 541.790482243984"/></g><g><path fill="none" stroke="#000000" paint-order="fill stroke markers" d=" M 640.8373251423759 550.209517756016 L 651 546 L 640.8373251423758 541.790482243984 L 640.8373251423759 550.209517756016" stroke-miterlimit="10" stroke-dasharray=""/></g><g><rect fill="#ffffff" stroke="none" x="453" y="520" width="218.2578125" height="13" transform="matrix(1 0 0 1 -46 10)"/></g><g><g><path fill="none" stroke="none"/><text fill="#000000" stroke="none" font-family="Arial" font-size="13px" font-style="normal" font-weight="normal" text-decoration="undefined" x="562.12890625" y="526.5" text-anchor="middle" dominant-baseline="central" transform="matrix(1 0 0 1 -46 10)">14 : updatePassenger(passengerInfo)</text></g></g><g><rect fill="#ffffff" stroke="none" x="697" y="536" width="14" height="28" transform="matrix(1 0 0 1 -46 10)"/></g><g><path fill="none" stroke="#000000" paint-order="fill stroke markers" d=" M 651 546 L 665 546 L 665 574 L 651 574 L 651 546 Z Z" stroke-miterlimit="10" stroke-dasharray=""/></g><g><path fill="none" stroke="#000000" paint-order="fill stroke markers" d=" M 665 562 L 695 562 L 695 582 L 665 582" stroke-miterlimit="10" stroke-dasharray=""/></g><g><path fill="#000000" stroke="none" paint-order="stroke fill markers" d=" M 675.1626748576241 577.790482243984 L 665 582 L 675.1626748576241 586.209517756016"/></g><g><path fill="none" stroke="#000000" paint-order="fill stroke markers" d=" M 675.1626748576241 577.790482243984 L 665 582 L 675.1626748576241 586.209517756016 L 675.1626748576241 577.790482243984" stroke-miterlimit="10" stroke-dasharray=""/></g><g><rect fill="#ffffff" stroke="none" x="712" y="536" width="94.67529296875" height="13" transform="matrix(1 0 0 1 -46 10)"/></g><g><g><path fill="none" stroke="none"/><text fill="#000000" stroke="none" font-family="Arial" font-size="13px" font-style="normal" font-weight="normal" text-decoration="undefined" x="759.337646484375" y="542.5" text-anchor="middle" dominant-baseline="central" transform="matrix(1 0 0 1 -46 10)">15 : updatePrice</text></g></g><g><rect fill="#ffffff" stroke="none" x="697" y="572" width="14" height="28" transform="matrix(1 0 0 1 -46 10)"/></g><g><path fill="none" stroke="#000000" paint-order="fill stroke markers" d=" M 651 582 L 665 582 L 665 610 L 651 610 L 651 582 Z Z" stroke-miterlimit="10" stroke-dasharray=""/></g><g><path fill="none" stroke="#000000" paint-order="fill stroke markers" d=" M 658 626 L 381 626" stroke-miterlimit="10" stroke-dasharray="3"/></g><g><path fill="none" stroke="#000000" paint-order="fill stroke markers" d=" M 391.16267485762415 621.790482243984 L 381 626 L 391.16267485762415 630.209517756016" stroke-miterlimit="10" stroke-dasharray=""/></g><g><rect fill="#ffffff" stroke="none" x="517" y="620" width="94.66259765625" height="13" transform="matrix(1 0 0 1 -46 10)"/></g><g><g><path fill="none" stroke="none"/><text fill="#000000" stroke="none" font-family="Arial" font-size="13px" font-style="normal" font-weight="normal" text-decoration="undefined" x="564.331298828125" y="626.5" text-anchor="middle" dominant-baseline="central" transform="matrix(1 0 0 1 -46 10)">16 : recieveTotal</text></g></g><g><path fill="none" stroke="#000000" paint-order="fill stroke markers" d=" M 380 635 L 145 635" stroke-miterlimit="10" stroke-dasharray=""/></g><g><path fill="#000000" stroke="none" paint-order="stroke fill markers" d=" M 155.16267485762415 630.790482243984 L 145 635 L 155.16267485762415 639.209517756016"/></g><g><path fill="none" stroke="#000000" paint-order="fill stroke markers" d=" M 155.16267485762415 630.790482243984 L 145 635 L 155.16267485762415 639.209517756016 L 155.16267485762415 630.790482243984" stroke-miterlimit="10" stroke-dasharray=""/></g><g><rect fill="#ffffff" stroke="none" x="261" y="629" width="92.498046875" height="13" transform="matrix(1 0 0 1 -46 10)"/></g><g><g><path fill="none" stroke="none"/><text fill="#000000" stroke="none" font-family="Arial" font-size="13px" font-style="normal" font-weight="normal" text-decoration="undefined" x="307.2490234375" y="635.5" text-anchor="middle" dominant-baseline="central" transform="matrix(1 0 0 1 -46 10)">17 : selectSeats</text></g></g><g><rect fill="#ffffff" stroke="none" x="177" y="625" width="14" height="28" transform="matrix(1 0 0 1 -46 10)"/></g><g><path fill="none" stroke="#000000" paint-order="fill stroke markers" d=" M 131 635 L 145 635 L 145 663 L 131 663 L 131 635 Z Z" stroke-miterlimit="10" stroke-dasharray=""/></g><g><path fill="none" stroke="#000000" paint-order="fill stroke markers" d=" M 145 658 L 380 658" stroke-miterlimit="10" stroke-dasharray="3"/></g><g><path fill="none" stroke="#000000" paint-order="fill stroke markers" d=" M 369.83732514237585 662.209517756016 L 380 658 L 369.83732514237585 653.790482243984" stroke-miterlimit="10" stroke-dasharray=""/></g><g><rect fill="#ffffff" stroke="none" x="247" y="655" width="125.72802734375" height="13" transform="matrix(1 0 0 1 -46 10)"/></g><g><g><path fill="none" stroke="none"/><text fill="#000000" stroke="none" font-family="Arial" font-size="13px" font-style="normal" font-weight="normal" text-decoration="undefined" x="309.864013671875" y="661.5" text-anchor="middle" dominant-baseline="central" transform="matrix(1 0 0 1 -46 10)">18 : selectSeats(seat)</text></g></g><g><path fill="none" stroke="#000000" paint-order="fill stroke markers" d=" M 381 666 L 651 666" stroke-miterlimit="10" stroke-dasharray=""/></g><g><path fill="#000000" stroke="none" paint-order="stroke fill markers" d=" M 640.8373251423759 670.209517756016 L 651 666 L 640.8373251423758 661.790482243984"/></g><g><path fill="none" stroke="#000000" paint-order="fill stroke markers" d=" M 640.8373251423759 670.209517756016 L 651 666 L 640.8373251423758 661.790482243984 L 640.8373251423759 670.209517756016" stroke-miterlimit="10" stroke-dasharray=""/></g><g><rect fill="#ffffff" stroke="none" x="497" y="640" width="131.52978515625" height="13" transform="matrix(1 0 0 1 -46 10)"/></g><g><g><path fill="none" stroke="none"/><text fill="#000000" stroke="none" font-family="Arial" font-size="13px" font-style="normal" font-weight="normal" text-decoration="undefined" x="562.764892578125" y="646.5" text-anchor="middle" dominant-baseline="central" transform="matrix(1 0 0 1 -46 10)">19 : updateSeats(seat)</text></g></g><g><rect fill="#ffffff" stroke="none" x="697" y="656" width="14" height="28" transform="matrix(1 0 0 1 -46 10)"/></g><g><path fill="none" stroke="#000000" paint-order="fill stroke markers" d=" M 651 666 L 665 666 L 665 694 L 651 694 L 651 666 Z Z" stroke-miterlimit="10" stroke-dasharray=""/></g><g><path fill="none" stroke="#000000" paint-order="fill stroke markers" d=" M 665 682 L 695 682 L 695 702 L 665 702" stroke-miterlimit="10" stroke-dasharray=""/></g><g><path fill="#000000" stroke="none" paint-order="stroke fill markers" d=" M 675.1626748576241 697.790482243984 L 665 702 L 675.1626748576241 706.209517756016"/></g><g><path fill="none" stroke="#000000" paint-order="fill stroke markers" d=" M 675.1626748576241 697.790482243984 L 665 702 L 675.1626748576241 706.209517756016 L 675.1626748576241 697.790482243984" stroke-miterlimit="10" stroke-dasharray=""/></g><g><rect fill="#ffffff" stroke="none" x="703" y="675" width="94.67529296875" height="13" transform="matrix(1 0 0 1 -46 10)"/></g><g><g><path fill="none" stroke="none"/><text fill="#000000" stroke="none" font-family="Arial" font-size="13px" font-style="normal" font-weight="normal" text-decoration="undefined" x="750.337646484375" y="681.5" text-anchor="middle" dominant-baseline="central" transform="matrix(1 0 0 1 -46 10)">20 : updatePrice</text></g></g><g><rect fill="#ffffff" stroke="none" x="697" y="692" width="14" height="28" transform="matrix(1 0 0 1 -46 10)"/></g><g><path fill="none" stroke="#000000" paint-order="fill stroke markers" d=" M 651 702 L 665 702 L 665 730 L 651 730 L 651 702 Z Z" stroke-miterlimit="10" stroke-dasharray=""/></g><g><path fill="none" stroke="#000000" paint-order="fill stroke markers" d=" M 381 738 L 651 738" stroke-miterlimit="10" stroke-dasharray=""/></g><g><path fill="#000000" stroke="none" paint-order="stroke fill markers" d=" M 640.8373251423759 742.209517756016 L 651 738 L 640.8373251423758 733.790482243984"/></g><g><path fill="none" stroke="#000000" paint-order="fill stroke markers" d=" M 640.8373251423759 742.209517756016 L 651 738 L 640.8373251423758 733.790482243984 L 640.8373251423759 742.209517756016" stroke-miterlimit="10" stroke-dasharray=""/></g><g><rect fill="#ffffff" stroke="none" x="512" y="712" width="100.4453125" height="13" transform="matrix(1 0 0 1 -46 10)"/></g><g><g><path fill="none" stroke="none"/><text fill="#000000" stroke="none" font-family="Arial" font-size="13px" font-style="normal" font-weight="normal" text-decoration="undefined" x="562.22265625" y="718.5" text-anchor="middle" dominant-baseline="central" transform="matrix(1 0 0 1 -46 10)">21 : getTotalPrice</text></g></g><g><rect fill="#ffffff" stroke="none" x="697" y="728" width="14" height="28" transform="matrix(1 0 0 1 -46 10)"/></g><g><path fill="none" stroke="#000000" paint-order="fill stroke markers" d=" M 651 738 L 665 738 L 665 766 L 651 766 L 651 738 Z Z" stroke-miterlimit="10" stroke-dasharray=""/></g><g><path fill="none" stroke="#000000" paint-order="fill stroke markers" d=" M 651 758 L 381 758" stroke-miterlimit="10" stroke-dasharray="3"/></g><g><path fill="none" stroke="#000000" paint-order="fill stroke markers" d=" M 391.16267485762415 753.790482243984 L 381 758 L 391.16267485762415 762.209517756016" stroke-miterlimit="10" stroke-dasharray=""/></g><g><rect fill="#ffffff" stroke="none" x="519" y="752" width="85.2744140625" height="13" transform="matrix(1 0 0 1 -46 10)"/></g><g><g><path fill="none" stroke="none"/><text fill="#000000" stroke="none" font-family="Arial" font-size="13px" font-style="normal" font-weight="normal" text-decoration="undefined" x="561.63720703125" y="758.5" text-anchor="middle" dominant-baseline="central" transform="matrix(1 0 0 1 -46 10)">22 : totalPrice</text></g></g><g><path fill="none" stroke="#000000" paint-order="fill stroke markers" d=" M 380 778 L 145 778" stroke-miterlimit="10" stroke-dasharray=""/></g><g><path fill="#000000" stroke="none" paint-order="stroke fill markers" d=" M 155.16267485762415 773.790482243984 L 145 778 L 155.16267485762415 782.209517756016"/></g><g><path fill="none" stroke="#000000" paint-order="fill stroke markers" d=" M 155.16267485762415 773.790482243984 L 145 778 L 155.16267485762415 782.209517756016 L 155.16267485762415 773.790482243984" stroke-miterlimit="10" stroke-dasharray=""/></g><g><rect fill="#ffffff" stroke="none" x="250" y="772" width="114.892578125" height="13" transform="matrix(1 0 0 1 -46 10)"/></g><g><g><path fill="none" stroke="none"/><text fill="#000000" stroke="none" font-family="Arial" font-size="13px" font-style="normal" font-weight="normal" text-decoration="undefined" x="307.4462890625" y="778.5" text-anchor="middle" dominant-baseline="central" transform="matrix(1 0 0 1 -46 10)">23 : paymentDetails</text></g></g><g><rect fill="#ffffff" stroke="none" x="177" y="768" width="14" height="28" transform="matrix(1 0 0 1 -46 10)"/></g><g><path fill="none" stroke="#000000" paint-order="fill stroke markers" d=" M 131 778 L 145 778 L 145 806 L 131 806 L 131 778 Z Z" stroke-miterlimit="10" stroke-dasharray=""/></g><g><path fill="none" stroke="#000000" paint-order="fill stroke markers" d=" M 145 802 L 373 802" stroke-miterlimit="10" stroke-dasharray=""/></g><g><path fill="#000000" stroke="none" paint-order="stroke fill markers" d=" M 362.83732514237585 806.209517756016 L 373 802 L 362.83732514237585 797.790482243984"/></g><g><path fill="none" stroke="#000000" paint-order="fill stroke markers" d=" M 362.83732514237585 806.209517756016 L 373 802 L 362.83732514237585 797.790482243984 L 362.83732514237585 806.209517756016" stroke-miterlimit="10" stroke-dasharray=""/></g><g><rect fill="#ffffff" stroke="none" x="195" y="799" width="221.1015625" height="13" transform="matrix(1 0 0 1 -46 10)"/></g><g><g><path fill="none" stroke="none"/><text fill="#000000" stroke="none" font-family="Arial" font-size="13px" font-style="normal" font-weight="normal" text-decoration="undefined" x="305.55078125" y="805.5" text-anchor="middle" dominant-baseline="central" transform="matrix(1 0 0 1 -46 10)">24 : providePayment(paymentDetails)</text></g></g><g><rect fill="#ffffff" stroke="none" x="419" y="792" width="14" height="28" transform="matrix(1 0 0 1 -46 10)"/></g><g><path fill="none" stroke="#000000" paint-order="fill stroke markers" d=" M 373 802 L 387 802 L 387 830 L 373 830 L 373 802 Z Z" stroke-miterlimit="10" stroke-dasharray=""/></g><g><path fill="none" stroke="#000000" paint-order="fill stroke markers" d=" M 381 834 L 730 834" stroke-miterlimit="10" stroke-dasharray="3"/></g><g><path fill="none" stroke="#000000" paint-order="fill stroke markers" d=" M 719.8373251423759 838.209517756016 L 730 834 L 719.8373251423758 829.790482243984" stroke-miterlimit="10" stroke-dasharray=""/></g><g><rect fill="#ffffff" stroke="none" x="496" y="808" width="210.9833984375" height="13" transform="matrix(1 0 0 1 -46 10)"/></g><g><g><path fill="none" stroke="none"/><text fill="#000000" stroke="none" font-family="Arial" font-size="13px" font-style="normal" font-weight="normal" text-decoration="undefined" x="601.49169921875" y="814.5" text-anchor="middle" dominant-baseline="central" transform="matrix(1 0 0 1 -46 10)">25 : createPayment(paymentDetails)</text></g></g><g><rect fill="#ffffff" stroke="none" x="608" y="792" width="50.5908203125" height="13" transform="matrix(1 0 0 1 -46 10)"/></g><g><g><path fill="none" stroke="none"/><text fill="#000000" stroke="none" font-family="Arial" font-size="13px" font-style="normal" font-weight="normal" text-decoration="undefined" x="633.29541015625" y="798.5" text-anchor="middle" dominant-baseline="central" transform="matrix(1 0 0 1 -46 10)">«create»</text></g></g><g><path fill="none" stroke="#000000" paint-order="fill stroke markers" d=" M 380 850 L 145 850" stroke-miterlimit="10" stroke-dasharray=""/></g><g><path fill="#000000" stroke="none" paint-order="stroke fill markers" d=" M 155.16267485762415 845.790482243984 L 145 850 L 155.16267485762415 854.209517756016"/></g><g><path fill="none" stroke="#000000" paint-order="fill stroke markers" d=" M 155.16267485762415 845.790482243984 L 145 850 L 155.16267485762415 854.209517756016 L 155.16267485762415 845.790482243984" stroke-miterlimit="10" stroke-dasharray=""/></g><g><rect fill="#ffffff" stroke="none" x="250" y="844" width="114.892578125" height="13" transform="matrix(1 0 0 1 -46 10)"/></g><g><g><path fill="none" stroke="none"/><text fill="#000000" stroke="none" font-family="Arial" font-size="13px" font-style="normal" font-weight="normal" text-decoration="undefined" x="307.4462890625" y="850.5" text-anchor="middle" dominant-baseline="central" transform="matrix(1 0 0 1 -46 10)">26 : confirmBooking</text></g></g><g><rect fill="#ffffff" stroke="none" x="177" y="840" width="14" height="28" transform="matrix(1 0 0 1 -46 10)"/></g><g><path fill="none" stroke="#000000" paint-order="fill stroke markers" d=" M 131 850 L 145 850 L 145 878 L 131 878 L 131 850 Z Z" stroke-miterlimit="10" stroke-dasharray=""/></g><g><path fill="none" stroke="#000000" paint-order="fill stroke markers" d=" M 145 874 L 380 874" stroke-miterlimit="10" stroke-dasharray="3"/></g><g><path fill="none" stroke="#000000" paint-order="fill stroke markers" d=" M 369.83732514237585 878.209517756016 L 380 874 L 369.83732514237585 869.790482243984" stroke-miterlimit="10" stroke-dasharray=""/></g><g><rect fill="#ffffff" stroke="none" x="266" y="871" width="85.2744140625" height="13" transform="matrix(1 0 0 1 -46 10)"/></g><g><g><path fill="none" stroke="none"/><text fill="#000000" stroke="none" font-family="Arial" font-size="13px" font-style="normal" font-weight="normal" text-decoration="undefined" x="308.63720703125" y="877.5" text-anchor="middle" dominant-baseline="central" transform="matrix(1 0 0 1 -46 10)">27 : Yes No</text></g></g><g><path fill="none" stroke="#000000" paint-order="fill stroke markers" d=" M 659 882 L 689 882 L 689 902 L 665 902" stroke-miterlimit="10" stroke-dasharray=""/></g><g><path fill="#000000" stroke="none" paint-order="stroke fill markers" d=" M 675.1626748576241 897.790482243984 L 665 902 L 675.1626748576241 906.209517756016"/></g><g><path fill="none" stroke="#000000" paint-order="fill stroke markers" d=" M 675.1626748576241 897.790482243984 L 665 902 L 675.1626748576241 906.209517756016 L 675.1626748576241 897.790482243984" stroke-miterlimit="10" stroke-dasharray=""/></g><g><rect fill="#ffffff" stroke="none" x="660" y="875" width="169.83154296875" height="13" transform="matrix(1 0 0 1 -46 10)"/></g><g><g><path fill="none" stroke="none"/><text fill="#000000" stroke="none" font-family="Arial" font-size="13px" font-style="normal" font-weight="normal" text-decoration="undefined" x="744.915771484375" y="881.5" text-anchor="middle" dominant-baseline="central" transform="matrix(1 0 0 1 -46 10)">28 : generateBookingNumber</text></g></g><g><rect fill="#ffffff" stroke="none" x="697" y="892" width="14" height="28" transform="matrix(1 0 0 1 -46 10)"/></g><g><path fill="none" stroke="#000000" paint-order="fill stroke markers" d=" M 651 902 L 665 902 L 665 930 L 651 930 L 651 902 Z Z" stroke-miterlimit="10" stroke-dasharray=""/></g><g><path fill="none" stroke="#000000" paint-order="fill stroke markers" d=" M 381 938 L 772 938" stroke-miterlimit="10" stroke-dasharray=""/></g><g><path fill="#000000" stroke="none" paint-order="stroke fill markers" d=" M 761.8373251423759 942.209517756016 L 772 938 L 761.8373251423758 933.790482243984"/></g><g><path fill="none" stroke="#000000" paint-order="fill stroke markers" d=" M 761.8373251423759 942.209517756016 L 772 938 L 761.8373251423758 933.790482243984 L 761.8373251423759 942.209517756016" stroke-miterlimit="10" stroke-dasharray=""/></g><g><rect fill="#ffffff" stroke="none" x="555" y="912" width="135.12255859375" height="13" transform="matrix(1 0 0 1 -46 10)"/></g><g><g><path fill="none" stroke="none"/><text fill="#000000" stroke="none" font-family="Arial" font-size="13px" font-style="normal" font-weight="normal" text-decoration="undefined" x="622.561279296875" y="918.5" text-anchor="middle" dominant-baseline="central" transform="matrix(1 0 0 1 -46 10)">29 : paymentConfirmed</text></g></g><g><rect fill="#ffffff" stroke="none" x="818" y="928" width="14" height="28" transform="matrix(1 0 0 1 -46 10)"/></g><g><path fill="none" stroke="#000000" paint-order="fill stroke markers" d=" M 772 938 L 786 938 L 786 966 L 772 966 L 772 938 Z Z" stroke-miterlimit="10" stroke-dasharray=""/></g><g><path fill="none" stroke="#000000" paint-order="fill stroke markers" d=" M 658 962 L 387 962" stroke-miterlimit="10" stroke-dasharray=""/></g><g><path fill="#000000" stroke="none" paint-order="stroke fill markers" d=" M 397.16267485762415 957.790482243984 L 387 962 L 397.16267485762415 966.209517756016"/></g><g><path fill="none" stroke="#000000" paint-order="fill stroke markers" d=" M 397.16267485762415 957.790482243984 L 387 962 L 397.16267485762415 966.209517756016 L 397.16267485762415 957.790482243984" stroke-miterlimit="10" stroke-dasharray=""/></g><g><rect fill="#ffffff" stroke="none" x="517" y="956" width="100.46435546875" height="13" transform="matrix(1 0 0 1 -46 10)"/></g><g><g><path fill="none" stroke="none"/><text fill="#000000" stroke="none" font-family="Arial" font-size="13px" font-style="normal" font-weight="normal" text-decoration="undefined" x="567.232177734375" y="962.5" text-anchor="middle" dominant-baseline="central" transform="matrix(1 0 0 1 -46 10)">30 : sendBooking</text></g></g><g><rect fill="#ffffff" stroke="none" x="419" y="952" width="14" height="28" transform="matrix(1 0 0 1 -46 10)"/></g><g><path fill="none" stroke="#000000" paint-order="fill stroke markers" d=" M 373 962 L 387 962 L 387 990 L 373 990 L 373 962 Z Z" stroke-miterlimit="10" stroke-dasharray=""/></g><g><path fill="none" stroke="#000000" paint-order="fill stroke markers" d=" M 373 986 L 145 986" stroke-miterlimit="10" stroke-dasharray=""/></g><g><path fill="#000000" stroke="none" paint-order="stroke fill markers" d=" M 155.16267485762415 981.790482243984 L 145 986 L 155.16267485762415 990.209517756016"/></g><g><path fill="none" stroke="#000000" paint-order="fill stroke markers" d=" M 155.16267485762415 981.790482243984 L 145 986 L 155.16267485762415 990.209517756016 L 155.16267485762415 981.790482243984" stroke-miterlimit="10" stroke-dasharray=""/></g><g><rect fill="#ffffff" stroke="none" x="237" y="980" width="134.42431640625" height="13" transform="matrix(1 0 0 1 -46 10)"/></g><g><g><path fill="none" stroke="none"/><text fill="#000000" stroke="none" font-family="Arial" font-size="13px" font-style="normal" font-weight="normal" text-decoration="undefined" x="304.212158203125" y="986.5" text-anchor="middle" dominant-baseline="central" transform="matrix(1 0 0 1 -46 10)">31 : displayBookingInfo</text></g></g><g><rect fill="#ffffff" stroke="none" x="177" y="976" width="14" height="28" transform="matrix(1 0 0 1 -46 10)"/></g><g><path fill="none" stroke="#000000" paint-order="fill stroke markers" d=" M 131 986 L 145 986 L 145 1014 L 131 1014 L 131 986 Z Z" stroke-miterlimit="10" stroke-dasharray=""/></g></g></svg>