<svg version="1.1" xmlns="http://www.w3.org/2000/svg" xmlns:xlink="http://www.w3.org/1999/xlink" width="712" height="620"><defs/><g><g><path fill="none" stroke="#000000" paint-order="fill stroke markers" d=" M 10 10 L 702 10 L 702 610 L 10 610 L 10 10" stroke-miterlimit="10" stroke-dasharray=""/></g><g><path fill="#ffffff" stroke="none" paint-order="stroke fill markers" d=" M 10 10 L 10 33 L 130.787109375 33 L 142.287109375 21.5 L 142.287109375 10 L 10 10"/></g><g><path fill="none" stroke="#000000" paint-order="fill stroke markers" d=" M 10 10 L 10 33 L 130.787109375 33 L 142.287109375 21.5 L 142.287109375 10 L 10 10 L 10 10" stroke-miterlimit="10" stroke-dasharray=""/></g><g><g><path fill="none" stroke="none"/><text fill="#000000" stroke="none" font-family="Arial" font-size="13px" font-style="normal" font-weight="normal" text-decoration="undefined" x="78.258544921875" y="19.5" text-anchor="middle" dominant-baseline="central" transform="matrix(1 0 0 1 2 2)">Cancel Booking</text></g></g><g><g><path fill="none" stroke="none"/><text fill="#000000" stroke="none" font-family="Arial" font-size="13px" font-style="normal" font-weight="bold" text-decoration="undefined" x="19.864990234375" y="19.5" text-anchor="middle" dominant-baseline="central" transform="matrix(1 0 0 1 2 2)">sd</text></g></g><g><rect fill="#C0C0C0" stroke="none" x="63" y="47" width="80.67724609375" height="40" transform="matrix(1 0 0 1 2 2)" fill-opacity="0.2"/></g><g><rect fill="#ffffff" stroke="none" x="56" y="40" width="80.67724609375" height="40" transform="matrix(1 0 0 1 2 2)"/></g><g><path fill="none" stroke="#000000" paint-order="fill stroke markers" d=" M 58 42 L 138.67724609375 42 L 138.67724609375 82 L 58 82 L 58 42 Z Z" stroke-miterlimit="10" stroke-dasharray=""/></g><g><g><path fill="none" stroke="none"/><text fill="#000000" stroke="none" font-family="Arial" font-size="13px" font-style="normal" font-weight="bold" text-decoration="undefined" x="96.838623046875" y="53.5" text-anchor="middle" dominant-baseline="central" transform="matrix(1 0 0 1 2 2)">Customer</text></g></g><g><path fill="none" stroke="#000000" paint-order="fill stroke markers" d=" M 98.5 83 L 98.5 610" stroke-miterlimit="10" stroke-dasharray="3"/></g><g><rect fill="#C0C0C0" stroke="none" x="255" y="47" width="80" height="40" transform="matrix(1 0 0 1 2 2)" fill-opacity="0.2"/></g><g><rect fill="#ffffff" stroke="none" x="248" y="40" width="80" height="40" transform="matrix(1 0 0 1 2 2)"/></g><g><path fill="none" stroke="#000000" paint-order="fill stroke markers" d=" M 250 42 L 330 42 L 330 82 L 250 82 L 250 42 Z Z" stroke-miterlimit="10" stroke-dasharray=""/></g><g><g><path fill="none" stroke="none"/><text fill="#000000" stroke="none" font-family="Arial" font-size="13px" font-style="normal" font-weight="bold" text-decoration="undefined" x="288.5" y="53.5" text-anchor="middle" dominant-baseline="central" transform="matrix(1 0 0 1 2 2)">Menu</text></g></g><g><path fill="none" stroke="#000000" paint-order="fill stroke markers" d=" M 290.5 83 L 290.5 610" stroke-miterlimit="10" stroke-dasharray="3"/></g><g><rect fill="#C0C0C0" stroke="none" x="407" y="47" width="129.8017578125" height="40" transform="matrix(1 0 0 1 2 2)" fill-opacity="0.2"/></g><g><rect fill="#ffffff" stroke="none" x="400" y="40" width="129.8017578125" height="40" transform="matrix(1 0 0 1 2 2)"/></g><g><path fill="none" stroke="#000000" paint-order="fill stroke markers" d=" M 402 42 L 531.8017578125 42 L 531.8017578125 82 L 402 82 L 402 42 Z Z" stroke-miterlimit="10" stroke-dasharray=""/></g><g><g><path fill="none" stroke="none"/><text fill="#000000" stroke="none" font-family="Arial" font-size="13px" font-style="normal" font-weight="bold" text-decoration="undefined" x="465.40087890625" y="53.5" text-anchor="middle" dominant-baseline="central" transform="matrix(1 0 0 1 2 2)">BookingDatabase</text></g></g><g><path fill="none" stroke="#000000" paint-order="fill stroke markers" d=" M 467.5 83 L 467.5 610" stroke-miterlimit="10" stroke-dasharray="3"/></g><g><rect fill="#C0C0C0" stroke="none" x="551" y="363" width="97.3017578125" height="40" transform="matrix(1 0 0 1 2 2)" fill-opacity="0.2"/></g><g><rect fill="#ffffff" stroke="none" x="544" y="356" width="97.3017578125" height="40" transform="matrix(1 0 0 1 2 2)"/></g><g><path fill="none" stroke="#000000" paint-order="fill stroke markers" d=" M 546 358 L 643.3017578125 358 L 643.3017578125 398 L 546 398 L 546 358 Z Z" stroke-miterlimit="10" stroke-dasharray=""/></g><g><g><path fill="none" stroke="none"/><text fill="#000000" stroke="none" font-family="Arial" font-size="13px" font-style="normal" font-weight="bold" text-decoration="undefined" x="593.15087890625" y="369.5" text-anchor="middle" dominant-baseline="central" transform="matrix(1 0 0 1 2 2)">py: Payment</text></g></g><g><path fill="none" stroke="#000000" paint-order="fill stroke markers" d=" M 595.5 399 L 595.5 610" stroke-miterlimit="10" stroke-dasharray="3"/></g><g><rect fill="#ffffff" stroke="none" x="64" y="152" width="424" height="88" transform="matrix(1 0 0 1 2 2)"/></g><g><path fill="none" stroke="#000000" paint-order="fill stroke markers" d=" M 66 154 L 490 154 L 490 242 L 66 242 L 66 154 Z Z" stroke-miterlimit="10" stroke-dasharray=""/></g><g><path fill="none" stroke="#000000" paint-order="fill stroke markers" d=" M 66 154 L 66 177 L 91.1708984375 177 L 102.6708984375 165.5 L 102.6708984375 154 L 66 154 L 66 154" stroke-miterlimit="10" stroke-dasharray=""/></g><g><g><path fill="none" stroke="none"/><text fill="#000000" stroke="none" font-family="Arial" font-size="13px" font-style="normal" font-weight="normal" text-decoration="undefined" x="294.33544921875" y="163.5" text-anchor="middle" dominant-baseline="central" transform="matrix(1 0 0 1 2 2)">Verify Booking Details</text></g></g><g><g><path fill="none" stroke="none"/><text fill="#000000" stroke="none" font-family="Arial" font-size="13px" font-style="normal" font-weight="bold" text-decoration="undefined" x="76.58544921875" y="163.5" text-anchor="middle" dominant-baseline="central" transform="matrix(1 0 0 1 2 2)">ref</text></g></g><g><path fill="none" stroke="#000000" paint-order="fill stroke markers" d=" M 99 114 L 283 114" stroke-miterlimit="10" stroke-dasharray=""/></g><g><path fill="#000000" stroke="none" paint-order="stroke fill markers" d=" M 272.83732514237585 118.20951775601598 L 283 114 L 272.83732514237585 109.79048224398402"/></g><g><path fill="none" stroke="#000000" paint-order="fill stroke markers" d=" M 272.83732514237585 118.20951775601598 L 283 114 L 272.83732514237585 109.79048224398402 L 272.83732514237585 118.20951775601598" stroke-miterlimit="10" stroke-dasharray=""/></g><g><rect fill="#ffffff" stroke="none" x="99" y="96" width="181.390625" height="13" transform="matrix(1 0 0 1 2 2)"/></g><g><g><path fill="none" stroke="none"/><text fill="#000000" stroke="none" font-family="Arial" font-size="13px" font-style="normal" font-weight="normal" text-decoration="undefined" x="189.6953125" y="102.5" text-anchor="middle" dominant-baseline="central" transform="matrix(1 0 0 1 2 2)">1 : cancelBooking</text></g></g><g><rect fill="#ffffff" stroke="none" x="281" y="112" width="14" height="28" transform="matrix(1 0 0 1 2 2)"/></g><g><path fill="none" stroke="#000000" paint-order="fill stroke markers" d=" M 283 114 L 297 114 L 297 142 L 283 142 L 283 114 Z Z" stroke-miterlimit="10" stroke-dasharray=""/></g><g><path fill="none" stroke="#000000" paint-order="fill stroke markers" d=" M 291 266 L 460 266" stroke-miterlimit="10" stroke-dasharray=""/></g><g><path fill="#000000" stroke="none" paint-order="stroke fill markers" d=" M 449.83732514237585 270.209517756016 L 460 266 L 449.83732514237585 261.790482243984"/></g><g><path fill="none" stroke="#000000" paint-order="fill stroke markers" d=" M 449.83732514237585 270.209517756016 L 460 266 L 449.83732514237585 261.790482243984 L 449.83732514237585 270.209517756016" stroke-miterlimit="10" stroke-dasharray=""/></g><g><rect fill="#ffffff" stroke="none" x="334" y="271" width="79.4853515625" height="13" transform="matrix(1 0 0 1 2 2)"/></g><g><g><path fill="none" stroke="none"/><text fill="#000000" stroke="none" font-family="Arial" font-size="13px" font-style="normal" font-weight="normal" text-decoration="undefined" x="373.74267578125" y="277.5" text-anchor="middle" dominant-baseline="central" transform="matrix(1 0 0 1 2 2)">2 : checkDate</text></g></g><g><rect fill="#ffffff" stroke="none" x="458" y="264" width="14" height="28" transform="matrix(1 0 0 1 2 2)"/></g><g><path fill="none" stroke="#000000" paint-order="fill stroke markers" d=" M 460 266 L 474 266 L 474 294 L 460 294 L 460 266 Z Z" stroke-miterlimit="10" stroke-dasharray=""/></g><g><path fill="none" stroke="#000000" paint-order="fill stroke markers" d=" M 467 306 L 291 306" stroke-miterlimit="10" stroke-dasharray="3"/></g><g><path fill="none" stroke="#000000" paint-order="fill stroke markers" d=" M 301.16267485762415 301.790482243984 L 291 306 L 301.16267485762415 310.209517756016" stroke-miterlimit="10" stroke-dasharray=""/></g><g><rect fill="#ffffff" stroke="none" x="309" y="308" width="135.13525390625" height="13" transform="matrix(1 0 0 1 2 2)"/></g><g><g><path fill="none" stroke="none"/><text fill="#000000" stroke="none" font-family="Arial" font-size="13px" font-style="normal" font-weight="normal" text-decoration="undefined" x="376.567626953125" y="314.5" text-anchor="middle" dominant-baseline="central" transform="matrix(1 0 0 1 2 2)">3 : [ok] flightCancelable</text></g></g><g><path fill="none" stroke="#000000" paint-order="fill stroke markers" d=" M 290 323 L 105 323" stroke-miterlimit="10" stroke-dasharray=""/></g><g><path fill="#000000" stroke="none" paint-order="stroke fill markers" d=" M 115.16267485762415 318.790482243984 L 105 323 L 115.16267485762415 327.209517756016"/></g><g><path fill="none" stroke="#000000" paint-order="fill stroke markers" d=" M 115.16267485762415 318.790482243984 L 105 323 L 115.16267485762415 327.209517756016 L 115.16267485762415 318.790482243984" stroke-miterlimit="10" stroke-dasharray=""/></g><g><rect fill="#ffffff" stroke="none" x="135" y="325" width="119.9580078125" height="13" transform="matrix(1 0 0 1 2 2)"/></g><g><g><path fill="none" stroke="none"/><text fill="#000000" stroke="none" font-family="Arial" font-size="13px" font-style="normal" font-weight="normal" text-decoration="undefined" x="194.97900390625" y="331.5" text-anchor="middle" dominant-baseline="central" transform="matrix(1 0 0 1 2 2)">4 : refund or voucher</text></g></g><g><rect fill="#ffffff" stroke="none" x="89" y="321" width="14" height="28" transform="matrix(1 0 0 1 2 2)"/></g><g><path fill="none" stroke="#000000" paint-order="fill stroke markers" d=" M 91 323 L 105 323 L 105 351 L 91 351 L 91 323 Z Z" stroke-miterlimit="10" stroke-dasharray=""/></g><g><path fill="none" stroke="#000000" paint-order="fill stroke markers" d=" M 99 362 L 283 362" stroke-miterlimit="10" stroke-dasharray=""/></g><g><path fill="#000000" stroke="none" paint-order="stroke fill markers" d=" M 272.83732514237585 366.209517756016 L 283 362 L 272.83732514237585 357.790482243984"/></g><g><path fill="none" stroke="#000000" paint-order="fill stroke markers" d=" M 272.83732514237585 366.209517756016 L 283 362 L 272.83732514237585 357.790482243984 L 272.83732514237585 366.209517756016" stroke-miterlimit="10" stroke-dasharray=""/></g><g><rect fill="#ffffff" stroke="none" x="150" y="344" width="78.04443359375" height="13" transform="matrix(1 0 0 1 2 2)"/></g><g><g><path fill="none" stroke="none"/><text fill="#000000" stroke="none" font-family="Arial" font-size="13px" font-style="normal" font-weight="normal" text-decoration="undefined" x="189.022216796875" y="350.5" text-anchor="middle" dominant-baseline="central" transform="matrix(1 0 0 1 2 2)">5 : [refund]</text></g></g><g><rect fill="#ffffff" stroke="none" x="281" y="360" width="14" height="28" transform="matrix(1 0 0 1 2 2)"/></g><g><path fill="none" stroke="#000000" paint-order="fill stroke markers" d=" M 283 362 L 297 362 L 297 390 L 283 390 L 283 362 Z Z" stroke-miterlimit="10" stroke-dasharray=""/></g><g><path fill="none" stroke="#000000" paint-order="fill stroke markers" d=" M 297 378 L 546 378" stroke-miterlimit="10" stroke-dasharray="3"/></g><g><path fill="none" stroke="#000000" paint-order="fill stroke markers" d=" M 535.8373251423759 382.209517756016 L 546 378 L 535.8373251423758 373.790482243984" stroke-miterlimit="10" stroke-dasharray=""/></g><g><rect fill="#ffffff" stroke="none" x="367" y="360" width="105.498046875" height="13" transform="matrix(1 0 0 1 2 2)"/></g><g><g><path fill="none" stroke="none"/><text fill="#000000" stroke="none" font-family="Arial" font-size="13px" font-style="normal" font-weight="normal" text-decoration="undefined" x="419.7490234375" y="366.5" text-anchor="middle" dominant-baseline="central" transform="matrix(1 0 0 1 2 2)">6 : createPayment</text></g></g><g><rect fill="#ffffff" stroke="none" x="394" y="345" width="50.5908203125" height="13" transform="matrix(1 0 0 1 2 2)"/></g><g><g><path fill="none" stroke="none"/><text fill="#000000" stroke="none" font-family="Arial" font-size="13px" font-style="normal" font-weight="normal" text-decoration="undefined" x="419.29541015625" y="351.5" text-anchor="middle" dominant-baseline="central" transform="matrix(1 0 0 1 2 2)">«create»</text></g></g><g><path fill="none" stroke="#000000" paint-order="fill stroke markers" d=" M 595 410 L 474 410" stroke-miterlimit="10" stroke-dasharray=""/></g><g><path fill="#000000" stroke="none" paint-order="stroke fill markers" d=" M 484.16267485762415 405.790482243984 L 474 410 L 484.16267485762415 414.209517756016"/></g><g><path fill="none" stroke="#000000" paint-order="fill stroke markers" d=" M 484.16267485762415 405.790482243984 L 474 410 L 484.16267485762415 414.209517756016 L 484.16267485762415 405.790482243984" stroke-miterlimit="10" stroke-dasharray=""/></g><g><rect fill="#ffffff" stroke="none" x="492" y="412" width="78.04443359375" height="13" transform="matrix(1 0 0 1 2 2)"/></g><g><g><path fill="none" stroke="none"/><text fill="#000000" stroke="none" font-family="Arial" font-size="13px" font-style="normal" font-weight="normal" text-decoration="undefined" x="531.022216796875" y="418.5" text-anchor="middle" dominant-baseline="central" transform="matrix(1 0 0 1 2 2)">7 : getPrice</text></g></g><g><rect fill="#ffffff" stroke="none" x="458" y="408" width="14" height="28" transform="matrix(1 0 0 1 2 2)"/></g><g><path fill="none" stroke="#000000" paint-order="fill stroke markers" d=" M 460 410 L 474 410 L 474 438 L 460 438 L 460 410 Z Z" stroke-miterlimit="10" stroke-dasharray=""/></g><g><path fill="none" stroke="#000000" paint-order="fill stroke markers" d=" M 474 434 L 595 434" stroke-miterlimit="10" stroke-dasharray="3"/></g><g><path fill="none" stroke="#000000" paint-order="fill stroke markers" d=" M 584.8373251423759 438.209517756016 L 595 434 L 584.8373251423758 429.790482243984" stroke-miterlimit="10" stroke-dasharray=""/></g><g><rect fill="#ffffff" stroke="none" x="488" y="436" width="85.2744140625" height="13" transform="matrix(1 0 0 1 2 2)"/></g><g><g><path fill="none" stroke="none"/><text fill="#000000" stroke="none" font-family="Arial" font-size="13px" font-style="normal" font-weight="normal" text-decoration="undefined" x="530.63720703125" y="442.5" text-anchor="middle" dominant-baseline="central" transform="matrix(1 0 0 1 2 2)">8 : price</text></g></g><g><path fill="none" stroke="#000000" paint-order="fill stroke markers" d=" M 290 451 L 105 451" stroke-miterlimit="10" stroke-dasharray=""/></g><g><path fill="#000000" stroke="none" paint-order="stroke fill markers" d=" M 115.16267485762415 446.790482243984 L 105 451 L 115.16267485762415 455.209517756016"/></g><g><path fill="none" stroke="#000000" paint-order="fill stroke markers" d=" M 115.16267485762415 446.790482243984 L 105 451 L 115.16267485762415 455.209517756016 L 115.16267485762415 446.790482243984" stroke-miterlimit="10" stroke-dasharray=""/></g><g><rect fill="#ffffff" stroke="none" x="141" y="453" width="107.66259765625" height="13" transform="matrix(1 0 0 1 2 2)"/></g><g><g><path fill="none" stroke="none"/><text fill="#000000" stroke="none" font-family="Arial" font-size="13px" font-style="normal" font-weight="normal" text-decoration="undefined" x="194.831298828125" y="459.5" text-anchor="middle" dominant-baseline="central" transform="matrix(1 0 0 1 2 2)">9 : paymentDetails</text></g></g><g><rect fill="#ffffff" stroke="none" x="89" y="449" width="14" height="28" transform="matrix(1 0 0 1 2 2)"/></g><g><path fill="none" stroke="#000000" paint-order="fill stroke markers" d=" M 91 451 L 105 451 L 105 479 L 91 479 L 91 451 Z Z" stroke-miterlimit="10" stroke-dasharray=""/></g><g><path fill="none" stroke="#000000" paint-order="fill stroke markers" d=" M 105 471 L 290 471" stroke-miterlimit="10" stroke-dasharray="3"/></g><g><path fill="none" stroke="#000000" paint-order="fill stroke markers" d=" M 279.83732514237585 475.209517756016 L 290 471 L 279.83732514237585 466.790482243984" stroke-miterlimit="10" stroke-dasharray=""/></g><g><rect fill="#ffffff" stroke="none" x="93" y="479" width="205.92431640625" height="13" transform="matrix(1 0 0 1 2 2)"/></g><g><g><path fill="none" stroke="none"/><text fill="#000000" stroke="none" font-family="Arial" font-size="13px" font-style="normal" font-weight="normal" text-decoration="undefined" x="195.962158203125" y="485.5" text-anchor="middle" dominant-baseline="central" transform="matrix(1 0 0 1 2 2)">10 : provideDetails(paymentDetails)</text></g></g><g><path fill="none" stroke="#000000" paint-order="fill stroke markers" d=" M 291 474 L 588 474" stroke-miterlimit="10" stroke-dasharray=""/></g><g><path fill="#000000" stroke="none" paint-order="stroke fill markers" d=" M 577.8373251423759 478.209517756016 L 588 474 L 577.8373251423758 469.790482243984"/></g><g><path fill="none" stroke="#000000" paint-order="fill stroke markers" d=" M 577.8373251423759 478.209517756016 L 588 474 L 577.8373251423758 469.790482243984 L 577.8373251423759 478.209517756016" stroke-miterlimit="10" stroke-dasharray=""/></g><g><rect fill="#ffffff" stroke="none" x="373" y="456" width="129.8349609375" height="13" transform="matrix(1 0 0 1 2 2)"/></g><g><g><path fill="none" stroke="none"/><text fill="#000000" stroke="none" font-family="Arial" font-size="13px" font-style="normal" font-weight="normal" text-decoration="undefined" x="437.91748046875" y="462.5" text-anchor="middle" dominant-baseline="central" transform="matrix(1 0 0 1 2 2)">11 : sendPaymentInfo</text></g></g><g><rect fill="#ffffff" stroke="none" x="586" y="472" width="14" height="28" transform="matrix(1 0 0 1 2 2)"/></g><g><path fill="none" stroke="#000000" paint-order="fill stroke markers" d=" M 588 474 L 602 474 L 602 502 L 588 502 L 588 474 Z Z" stroke-miterlimit="10" stroke-dasharray=""/></g><g><path fill="none" stroke="#000000" paint-order="fill stroke markers" d=" M 290 499 L 105 499" stroke-miterlimit="10" stroke-dasharray=""/></g><g><path fill="#000000" stroke="none" paint-order="stroke fill markers" d=" M 115.16267485762415 494.790482243984 L 105 499 L 115.16267485762415 503.209517756016"/></g><g><path fill="none" stroke="#000000" paint-order="fill stroke markers" d=" M 115.16267485762415 494.790482243984 L 105 499 L 115.16267485762415 503.209517756016 L 115.16267485762415 494.790482243984" stroke-miterlimit="10" stroke-dasharray=""/></g><g><rect fill="#ffffff" stroke="none" x="140" y="501" width="109.83349609375" height="13" transform="matrix(1 0 0 1 2 2)"/></g><g><g><path fill="none" stroke="none"/><text fill="#000000" stroke="none" font-family="Arial" font-size="13px" font-style="normal" font-weight="normal" text-decoration="undefined" x="194.916748046875" y="507.5" text-anchor="middle" dominant-baseline="central" transform="matrix(1 0 0 1 2 2)">12 : confirmRefund</text></g></g><g><rect fill="#ffffff" stroke="none" x="89" y="497" width="14" height="28" transform="matrix(1 0 0 1 2 2)"/></g><g><path fill="none" stroke="#000000" paint-order="fill stroke markers" d=" M 91 499 L 105 499 L 105 527 L 91 527 L 91 499 Z Z" stroke-miterlimit="10" stroke-dasharray=""/></g><g><path fill="none" stroke="#000000" paint-order="fill stroke markers" d=" M 99 538 L 283 538" stroke-miterlimit="10" stroke-dasharray=""/></g><g><path fill="#000000" stroke="none" paint-order="stroke fill markers" d=" M 272.83732514237585 542.209517756016 L 283 538 L 272.83732514237585 533.790482243984"/></g><g><path fill="none" stroke="#000000" paint-order="fill stroke markers" d=" M 272.83732514237585 542.209517756016 L 283 538 L 272.83732514237585 533.790482243984 L 272.83732514237585 542.209517756016" stroke-miterlimit="10" stroke-dasharray=""/></g><g><rect fill="#ffffff" stroke="none" x="140" y="520" width="98.97900390625" height="13" transform="matrix(1 0 0 1 2 2)"/></g><g><g><path fill="none" stroke="none"/><text fill="#000000" stroke="none" font-family="Arial" font-size="13px" font-style="normal" font-weight="normal" text-decoration="undefined" x="189.489501953125" y="526.5" text-anchor="middle" dominant-baseline="central" transform="matrix(1 0 0 1 2 2)">13 : [yes] confirm</text></g></g><g><rect fill="#ffffff" stroke="none" x="281" y="536" width="14" height="28" transform="matrix(1 0 0 1 2 2)"/></g><g><path fill="none" stroke="#000000" paint-order="fill stroke markers" d=" M 283 538 L 297 538 L 297 566 L 283 566 L 283 538 Z Z" stroke-miterlimit="10" stroke-dasharray=""/></g><g><path fill="none" stroke="#000000" paint-order="fill stroke markers" d=" M 297 554 L 460 554" stroke-miterlimit="10" stroke-dasharray=""/></g><g><path fill="#000000" stroke="none" paint-order="stroke fill markers" d=" M 449.83732514237585 558.209517756016 L 460 554 L 449.83732514237585 549.790482243984"/></g><g><path fill="none" stroke="#000000" paint-order="fill stroke markers" d=" M 449.83732514237585 558.209517756016 L 460 554 L 449.83732514237585 549.790482243984 L 449.83732514237585 558.209517756016" stroke-miterlimit="10" stroke-dasharray=""/></g><g><rect fill="#ffffff" stroke="none" x="268" y="536" width="216.05517578125" height="13" transform="matrix(1 0 0 1 2 2)"/></g><g><g><path fill="none" stroke="none"/><text fill="#000000" stroke="none" font-family="Arial" font-size="13px" font-style="normal" font-weight="normal" text-decoration="undefined" x="376.027587890625" y="542.5" text-anchor="middle" dominant-baseline="central" transform="matrix(1 0 0 1 2 2)">14 : removeBooking(bookingNumber)</text></g></g><g><rect fill="#ffffff" stroke="none" x="458" y="552" width="14" height="28" transform="matrix(1 0 0 1 2 2)"/></g><g><path fill="none" stroke="#000000" paint-order="fill stroke markers" d=" M 460 554 L 474 554 L 474 582 L 460 582 L 460 554 Z Z" stroke-miterlimit="10" stroke-dasharray=""/></g><g><path fill="none" stroke="#000000" paint-order="fill stroke markers" d=" M 283 558 L 99 558" stroke-miterlimit="10" stroke-dasharray="3"/></g><g><path fill="none" stroke="#000000" paint-order="fill stroke markers" d=" M 109.16267485762415 553.790482243984 L 99 558 L 109.16267485762415 562.209517756016" stroke-miterlimit="10" stroke-dasharray=""/></g><g><rect fill="#ffffff" stroke="none" x="111" y="560" width="155.365234375" height="13" transform="matrix(1 0 0 1 2 2)"/></g><g><g><path fill="none" stroke="none"/><text fill="#000000" stroke="none" font-family="Arial" font-size="13px" font-style="normal" font-weight="normal" text-decoration="undefined" x="188.6826171875" y="566.5" text-anchor="middle" dominant-baseline="central" transform="matrix(1 0 0 1 2 2)">15 : displayCancelledFlight</text></g></g></g></svg>