<svg version="1.1" xmlns="http://www.w3.org/2000/svg" xmlns:xlink="http://www.w3.org/1999/xlink" width="952.80810546875" height="708"><defs/><g><g><rect fill="#C0C0C0" stroke="none" x="407" y="55" width="680" height="688" transform="matrix(1 0 0 1 -238 -38)" fill-opacity="0.2"/></g><g><rect fill="#ffffff" stroke="none" x="400" y="48" width="680" height="688" transform="matrix(1 0 0 1 -238 -38)"/></g><g><path fill="none" stroke="#000000" paint-order="fill stroke markers" d=" M 162 10 L 842 10 L 842 698 L 162 698 L 162 10 Z Z" stroke-miterlimit="10" stroke-dasharray=""/></g><g><g><path fill="none" stroke="none"/><text fill="#000000" stroke="none" font-family="Arial" font-size="13px" font-style="normal" font-weight="bold" text-decoration="undefined" x="740.5" y="61.5" text-anchor="middle" dominant-baseline="central" transform="matrix(1 0 0 1 -238 -38)">Flight booking system</text></g></g><g><path fill="#ffffff" stroke="none" paint-order="stroke fill markers" d=" M 47.12676935369319 241.45 C 47.12676935369319 229.05120624 56.84137516605682 219 68.824951171875 219 C 80.80852717769318 219 90.52313299005681 229.05120624 90.52313299005681 241.45 C 90.52313299005681 253.84879375999998 80.80852717769318 263.9 68.824951171875 263.9 C 56.84137516605682 263.9 47.12676935369319 253.84879375999998 47.12676935369319 241.45 Z"/></g><g><path fill="none" stroke="#000000" paint-order="fill stroke markers" d=" M 47.12676935369319 241.45 C 47.12676935369319 229.05120624 56.84137516605682 219 68.824951171875 219 C 80.80852717769318 219 90.52313299005681 229.05120624 90.52313299005681 241.45 C 90.52313299005681 253.84879375999998 80.80852717769318 263.9 68.824951171875 263.9 C 56.84137516605682 263.9 47.12676935369319 253.84879375999998 47.12676935369319 241.45 Z" stroke-miterlimit="10" stroke-dasharray=""/></g><g><path fill="none" stroke="#000000" paint-order="fill stroke markers" d=" M 68.824951171875 263.9 L 68.824951171875 307.1" stroke-miterlimit="10" stroke-dasharray=""/></g><g><path fill="none" stroke="#000000" paint-order="fill stroke markers" d=" M 45.85040571732958 280.1 L 91.79949662642042 280.1" stroke-miterlimit="10" stroke-dasharray=""/></g><g><path fill="none" stroke="#000000" paint-order="fill stroke markers" d=" M 68.824951171875 307.1 L 36.91586026278412 352" stroke-miterlimit="10" stroke-dasharray=""/></g><g><path fill="none" stroke="#000000" paint-order="fill stroke markers" d=" M 68.824951171875 307.1 L 100.73404208096588 352" stroke-miterlimit="10" stroke-dasharray=""/></g><g><g><path fill="none" stroke="none"/><text fill="#000000" stroke="none" font-family="Arial" font-size="13px" font-style="normal" font-weight="bold" text-decoration="undefined" x="307.324951171875" y="404.5" text-anchor="middle" dominant-baseline="central" transform="matrix(1 0 0 1 -238 -38)">Customer</text></g></g><g><path fill="#ffffff" stroke="none" paint-order="stroke fill markers" d=" M 886.2058709161931 177.45 C 886.2058709161931 165.05120624 895.9204767285569 155 907.904052734375 155 C 919.8876287401931 155 929.6022345525569 165.05120624 929.6022345525569 177.45 C 929.6022345525569 189.84879375999998 919.8876287401931 199.9 907.904052734375 199.9 C 895.9204767285569 199.9 886.2058709161931 189.84879375999998 886.2058709161931 177.45 Z"/></g><g><path fill="none" stroke="#000000" paint-order="fill stroke markers" d=" M 886.2058709161931 177.45 C 886.2058709161931 165.05120624 895.9204767285569 155 907.904052734375 155 C 919.8876287401931 155 929.6022345525569 165.05120624 929.6022345525569 177.45 C 929.6022345525569 189.84879375999998 919.8876287401931 199.9 907.904052734375 199.9 C 895.9204767285569 199.9 886.2058709161931 189.84879375999998 886.2058709161931 177.45 Z" stroke-miterlimit="10" stroke-dasharray=""/></g><g><path fill="none" stroke="#000000" paint-order="fill stroke markers" d=" M 907.904052734375 199.9 L 907.904052734375 243.10000000000002" stroke-miterlimit="10" stroke-dasharray=""/></g><g><path fill="none" stroke="#000000" paint-order="fill stroke markers" d=" M 884.9295072798295 216.1 L 930.8785981889205 216.1" stroke-miterlimit="10" stroke-dasharray=""/></g><g><path fill="none" stroke="#000000" paint-order="fill stroke markers" d=" M 907.904052734375 243.10000000000002 L 875.994961825284 288" stroke-miterlimit="10" stroke-dasharray=""/></g><g><path fill="none" stroke="#000000" paint-order="fill stroke markers" d=" M 907.904052734375 243.10000000000002 L 939.813143643466 288" stroke-miterlimit="10" stroke-dasharray=""/></g><g><g><path fill="none" stroke="none"/><text fill="#000000" stroke="none" font-family="Arial" font-size="13px" font-style="normal" font-weight="bold" text-decoration="undefined" x="1146.404052734375" y="340.5" text-anchor="middle" dominant-baseline="central" transform="matrix(1 0 0 1 -238 -38)">Database</text></g></g><g><path fill="#C0C0C0" stroke="none" paint-order="stroke fill markers" d=" M 377 121 C 377 90.0720512 416.39893759999995 65 465 65 C 513.6010624 65 553 90.0720512 553 121 C 553 151.9279488 513.6010624 177 465 177 C 416.39893759999995 177 377 151.9279488 377 121 Z" fill-opacity="0.2"/></g><g><path fill="#ffffff" stroke="none" paint-order="stroke fill markers" d=" M 370 114 C 370 83.0720512 409.39893759999995 58 458 58 C 506.60106240000005 58 546 83.0720512 546 114 C 546 144.9279488 506.60106240000005 170 458 170 C 409.39893759999995 170 370 144.9279488 370 114 Z"/></g><g><path fill="none" stroke="#000000" paint-order="fill stroke markers" d=" M 370 114 C 370 83.0720512 409.39893759999995 58 458 58 C 506.60106240000005 58 546 83.0720512 546 114 C 546 144.9279488 506.60106240000005 170 458 170 C 409.39893759999995 170 370 144.9279488 370 114 Z" stroke-miterlimit="10" stroke-dasharray=""/></g><g><g><path fill="none" stroke="none"/><text fill="#000000" stroke="none" font-family="Arial" font-size="13px" font-style="normal" font-weight="bold" text-decoration="undefined" x="696" y="153" text-anchor="middle" dominant-baseline="central" transform="matrix(1 0 0 1 -238 -38)">Browse flights</text></g></g><g><path fill="#C0C0C0" stroke="none" paint-order="stroke fill markers" d=" M 377 377 C 377 346.0720512 416.39893759999995 321 465 321 C 513.6010624 321 553 346.0720512 553 377 C 553 407.9279488 513.6010624 433 465 433 C 416.39893759999995 433 377 407.9279488 377 377 Z" fill-opacity="0.2"/></g><g><path fill="#ffffff" stroke="none" paint-order="stroke fill markers" d=" M 370 370 C 370 339.0720512 409.39893759999995 314 458 314 C 506.60106240000005 314 546 339.0720512 546 370 C 546 400.9279488 506.60106240000005 426 458 426 C 409.39893759999995 426 370 400.9279488 370 370 Z"/></g><g><path fill="none" stroke="#000000" paint-order="fill stroke markers" d=" M 370 370 C 370 339.0720512 409.39893759999995 314 458 314 C 506.60106240000005 314 546 339.0720512 546 370 C 546 400.9279488 506.60106240000005 426 458 426 C 409.39893759999995 426 370 400.9279488 370 370 Z" stroke-miterlimit="10" stroke-dasharray=""/></g><g><g><path fill="none" stroke="none"/><text fill="#000000" stroke="none" font-family="Arial" font-size="13px" font-style="normal" font-weight="bold" text-decoration="undefined" x="696" y="409" text-anchor="middle" dominant-baseline="central" transform="matrix(1 0 0 1 -238 -38)">View booking</text></g></g><g><path fill="#C0C0C0" stroke="none" paint-order="stroke fill markers" d=" M 377 505 C 377 474.07205120000003 416.39893759999995 449 465 449 C 513.6010624 449 553 474.07205120000003 553 505 C 553 535.9279488 513.6010624 561 465 561 C 416.39893759999995 561 377 535.9279488 377 505 Z" fill-opacity="0.2"/></g><g><path fill="#ffffff" stroke="none" paint-order="stroke fill markers" d=" M 370 498 C 370 467.0720512 409.39893759999995 442 458 442 C 506.60106240000005 442 546 467.0720512 546 498 C 546 528.9279488 506.60106240000005 554 458 554 C 409.39893759999995 554 370 528.9279488 370 498 Z"/></g><g><path fill="none" stroke="#000000" paint-order="fill stroke markers" d=" M 370 498 C 370 467.0720512 409.39893759999995 442 458 442 C 506.60106240000005 442 546 467.0720512 546 498 C 546 528.9279488 506.60106240000005 554 458 554 C 409.39893759999995 554 370 528.9279488 370 498 Z" stroke-miterlimit="10" stroke-dasharray=""/></g><g><g><path fill="none" stroke="none"/><text fill="#000000" stroke="none" font-family="Arial" font-size="13px" font-style="normal" font-weight="bold" text-decoration="undefined" x="696" y="537" text-anchor="middle" dominant-baseline="central" transform="matrix(1 0 0 1 -238 -38)">Update booking</text></g></g><g><path fill="#C0C0C0" stroke="none" paint-order="stroke fill markers" d=" M 377 633 C 377 602.0720512 416.39893759999995 577 465 577 C 513.6010624 577 553 602.0720512 553 633 C 553 663.9279488 513.6010624 689 465 689 C 416.39893759999995 689 377 663.9279488 377 633 Z" fill-opacity="0.2"/></g><g><path fill="#ffffff" stroke="none" paint-order="stroke fill markers" d=" M 370 626 C 370 595.0720512 409.39893759999995 570 458 570 C 506.60106240000005 570 546 595.0720512 546 626 C 546 656.9279488 506.60106240000005 682 458 682 C 409.39893759999995 682 370 656.9279488 370 626 Z"/></g><g><path fill="none" stroke="#000000" paint-order="fill stroke markers" d=" M 370 626 C 370 595.0720512 409.39893759999995 570 458 570 C 506.60106240000005 570 546 595.0720512 546 626 C 546 656.9279488 506.60106240000005 682 458 682 C 409.39893759999995 682 370 656.9279488 370 626 Z" stroke-miterlimit="10" stroke-dasharray=""/></g><g><g><path fill="none" stroke="none"/><text fill="#000000" stroke="none" font-family="Arial" font-size="13px" font-style="normal" font-weight="bold" text-decoration="undefined" x="696" y="665" text-anchor="middle" dominant-baseline="central" transform="matrix(1 0 0 1 -238 -38)">Cancel booking</text></g></g><g><path fill="#C0C0C0" stroke="none" paint-order="stroke fill markers" d=" M 657 305 C 657 274.0720512 689.0116368 249 728.5 249 C 767.9883632 249 800 274.0720512 800 305 C 800 335.9279488 767.9883632 361 728.5 361 C 689.0116368 361 657 335.9279488 657 305 Z" fill-opacity="0.2"/></g><g><path fill="#ffffff" stroke="none" paint-order="stroke fill markers" d=" M 650 298 C 650 267.0720512 682.0116368 242 721.5 242 C 760.9883632 242 793 267.0720512 793 298 C 793 328.9279488 760.9883632 354 721.5 354 C 682.0116368 354 650 328.9279488 650 298 Z"/></g><g><path fill="none" stroke="#000000" paint-order="fill stroke markers" d=" M 650 298 C 650 267.0720512 682.0116368 242 721.5 242 C 760.9883632 242 793 267.0720512 793 298 C 793 328.9279488 760.9883632 354 721.5 354 C 682.0116368 354 650 328.9279488 650 298 Z" stroke-miterlimit="10" stroke-dasharray=""/></g><g><g><path fill="none" stroke="none"/><text fill="#000000" stroke="none" font-family="Arial" font-size="13px" font-style="normal" font-weight="bold" text-decoration="undefined" x="959.5" y="337" text-anchor="middle" dominant-baseline="central" transform="matrix(1 0 0 1 -238 -38)">Check weather</text></g></g><g><path fill="#C0C0C0" stroke="none" paint-order="stroke fill markers" d=" M 377 249 C 377 218.07205119999998 416.39893759999995 193 465 193 C 513.6010624 193 553 218.07205119999998 553 249 C 553 279.9279488 513.6010624 305 465 305 C 416.39893759999995 305 377 279.9279488 377 249 Z" fill-opacity="0.2"/></g><g><path fill="#ffffff" stroke="none" paint-order="stroke fill markers" d=" M 370 242 C 370 211.0720512 409.39893759999995 186 458 186 C 506.60106240000005 186 546 211.0720512 546 242 C 546 272.9279488 506.60106240000005 298 458 298 C 409.39893759999995 298 370 272.9279488 370 242 Z"/></g><g><path fill="none" stroke="#000000" paint-order="fill stroke markers" d=" M 370 242 C 370 211.0720512 409.39893759999995 186 458 186 C 506.60106240000005 186 546 211.0720512 546 242 C 546 272.9279488 506.60106240000005 298 458 298 C 409.39893759999995 298 370 272.9279488 370 242 Z" stroke-miterlimit="10" stroke-dasharray=""/></g><g><g><path fill="none" stroke="none"/><text fill="#000000" stroke="none" font-family="Arial" font-size="13px" font-style="normal" font-weight="bold" text-decoration="undefined" x="696" y="281" text-anchor="middle" dominant-baseline="central" transform="matrix(1 0 0 1 -238 -38)">Book flight</text></g></g><g><path fill="#C0C0C0" stroke="none" paint-order="stroke fill markers" d=" M 625 449 C 625 418.0720512 672.6816688 393 731.5 393 C 790.3183312000001 393 838 418.0720512 838 449 C 838 479.92794879999997 790.3183312000001 505 731.5 505 C 672.6816688 505 625 479.92794879999997 625 449 Z" fill-opacity="0.2"/></g><g><path fill="#ffffff" stroke="none" paint-order="stroke fill markers" d=" M 618 442 C 618 411.0720512 665.6816688 386 724.5 386 C 783.3183312 386 831 411.0720512 831 442 C 831 472.9279488 783.3183312 498 724.5 498 C 665.6816688 498 618 472.9279488 618 442 Z"/></g><g><path fill="none" stroke="#000000" paint-order="fill stroke markers" d=" M 618 442 C 618 411.0720512 665.6816688 386 724.5 386 C 783.3183312 386 831 411.0720512 831 442 C 831 472.9279488 783.3183312 498 724.5 498 C 665.6816688 498 618 472.9279488 618 442 Z" stroke-miterlimit="10" stroke-dasharray=""/></g><g><g><path fill="none" stroke="none"/><text fill="#000000" stroke="none" font-family="Arial" font-size="13px" font-style="normal" font-weight="bold" text-decoration="undefined" x="962.5" y="481" text-anchor="middle" dominant-baseline="central" transform="matrix(1 0 0 1 -238 -38)">Verify booking number</text></g></g><g><path fill="none" stroke="#000000" paint-order="fill stroke markers" d=" M 547 479 L 617 465" stroke-miterlimit="10" stroke-dasharray="3"/></g><g><path fill="none" stroke="#000000" paint-order="fill stroke markers" d=" M 607.8602317743891 471.12083628127033 L 617 465 L 606.2091230681783 462.86529275021616" stroke-miterlimit="10" stroke-dasharray=""/></g><g><rect fill="#ffffff" stroke="none" x="787" y="487" width="55.65625" height="13" transform="matrix(1 0 0 1 -238 -38)"/></g><g><g><path fill="none" stroke="none"/><text fill="#000000" stroke="none" font-family="Arial" font-size="13px" font-style="normal" font-weight="normal" text-decoration="undefined" x="814.828125" y="493.5" text-anchor="middle" dominant-baseline="central" transform="matrix(1 0 0 1 -238 -38)">«include»</text></g></g><g><path fill="none" stroke="#000000" paint-order="fill stroke markers" d=" M 547 394 L 617 413" stroke-miterlimit="10" stroke-dasharray="3"/></g><g><path fill="none" stroke="#000000" paint-order="fill stroke markers" d=" M 606.0895069599212 414.40040766292947 L 617 413 L 608.2948786303887 406.27535414015466" stroke-miterlimit="10" stroke-dasharray=""/></g><g><rect fill="#ffffff" stroke="none" x="801" y="416" width="55.65625" height="13" transform="matrix(1 0 0 1 -238 -38)"/></g><g><g><path fill="none" stroke="none"/><text fill="#000000" stroke="none" font-family="Arial" font-size="13px" font-style="normal" font-weight="normal" text-decoration="undefined" x="828.828125" y="422.5" text-anchor="middle" dominant-baseline="central" transform="matrix(1 0 0 1 -238 -38)">«include»</text></g></g><g><path fill="none" stroke="#000000" paint-order="fill stroke markers" d=" M 540 569 L 642 499" stroke-miterlimit="10" stroke-dasharray="3"/></g><g><path fill="none" stroke="#000000" paint-order="fill stroke markers" d=" M 636.0026629191726 508.2212769147734 L 642 499 L 631.2388148434502 501.2796697187207" stroke-miterlimit="10" stroke-dasharray=""/></g><g><rect fill="#ffffff" stroke="none" x="792" y="543" width="55.65625" height="13" transform="matrix(1 0 0 1 -238 -38)"/></g><g><g><path fill="none" stroke="none"/><text fill="#000000" stroke="none" font-family="Arial" font-size="13px" font-style="normal" font-weight="normal" text-decoration="undefined" x="819.828125" y="549.5" text-anchor="middle" dominant-baseline="central" transform="matrix(1 0 0 1 -238 -38)">«include»</text></g></g><g><path fill="none" stroke="#000000" paint-order="fill stroke markers" d=" M 129 269 L 369 156" stroke-miterlimit="10" stroke-dasharray=""/></g><g><path fill="none" stroke="#000000" paint-order="fill stroke markers" d=" M 129 289 L 369 255" stroke-miterlimit="10" stroke-dasharray=""/></g><g><path fill="none" stroke="#000000" paint-order="fill stroke markers" d=" M 129 309 L 369 354" stroke-miterlimit="10" stroke-dasharray=""/></g><g><path fill="none" stroke="#000000" paint-order="fill stroke markers" d=" M 129 329 L 369 452" stroke-miterlimit="10" stroke-dasharray=""/></g><g><path fill="none" stroke="#000000" paint-order="fill stroke markers" d=" M 129 349 L 390 569" stroke-miterlimit="10" stroke-dasharray=""/></g><g><path fill="none" stroke="#000000" paint-order="fill stroke markers" d=" M 873 273 L 774 385" stroke-miterlimit="10" stroke-dasharray=""/></g><g><path fill="none" stroke="#000000" paint-order="fill stroke markers" d=" M 547 138 L 873 225" stroke-miterlimit="10" stroke-dasharray=""/></g><g><path fill="none" stroke="#000000" paint-order="fill stroke markers" d=" M 547 240 L 873 235" stroke-miterlimit="10" stroke-dasharray=""/></g><g><path fill="none" stroke="#000000" paint-order="fill stroke markers" d=" M 649 318 L 547 346" stroke-miterlimit="10" stroke-dasharray="3"/></g><g><path fill="none" stroke="#000000" paint-order="fill stroke markers" d=" M 555.6858022628601 339.2504193426187 L 547 346 L 557.9144639331137 347.36911542711397" stroke-miterlimit="10" stroke-dasharray=""/></g><g><rect fill="#ffffff" stroke="none" x="808" y="351" width="53.49169921875" height="13" transform="matrix(1 0 0 1 -238 -38)"/></g><g><g><path fill="none" stroke="none"/><text fill="#000000" stroke="none" font-family="Arial" font-size="13px" font-style="normal" font-weight="normal" text-decoration="undefined" x="834.745849609375" y="357.5" text-anchor="middle" dominant-baseline="central" transform="matrix(1 0 0 1 -238 -38)">«extend»</text></g></g></g></svg>