<svg version="1.1" xmlns="http://www.w3.org/2000/svg" xmlns:xlink="http://www.w3.org/1999/xlink" width="708" height="423"><defs/><g><g><path fill="none" stroke="#000000" paint-order="fill stroke markers" d=" M 10 10 L 698 10 L 698 410 L 10 410 L 10 10" stroke-miterlimit="10" stroke-dasharray=""/></g><g><path fill="#ffffff" stroke="none" paint-order="stroke fill markers" d=" M 10 10 L 10 33 L 118.26318359375 33 L 129.76318359375 21.5 L 129.76318359375 10 L 10 10"/></g><g><path fill="none" stroke="#000000" paint-order="fill stroke markers" d=" M 10 10 L 10 33 L 118.26318359375 33 L 129.76318359375 21.5 L 129.76318359375 10 L 10 10 L 10 10" stroke-miterlimit="10" stroke-dasharray=""/></g><g><g><path fill="none" stroke="none"/><text fill="#000000" stroke="none" font-family="Arial" font-size="13px" font-style="normal" font-weight="normal" text-decoration="undefined" x="71.99658203125" y="19.5" text-anchor="middle" dominant-baseline="central" transform="matrix(1 0 0 1 2 2)">View Booking</text></g></g><g><g><path fill="none" stroke="none"/><text fill="#000000" stroke="none" font-family="Arial" font-size="13px" font-style="normal" font-weight="bold" text-decoration="undefined" x="19.864990234375" y="19.5" text-anchor="middle" dominant-baseline="central" transform="matrix(1 0 0 1 2 2)">sd</text></g></g><g><rect fill="#C0C0C0" stroke="none" x="31" y="47" width="96" height="40" transform="matrix(1 0 0 1 2 2)" fill-opacity="0.2"/></g><g><rect fill="#ffffff" stroke="none" x="24" y="40" width="96" height="40" transform="matrix(1 0 0 1 2 2)"/></g><g><path fill="none" stroke="#000000" paint-order="fill stroke markers" d=" M 26 42 L 122 42 L 122 82 L 26 82 L 26 42 Z Z" stroke-miterlimit="10" stroke-dasharray=""/></g><g><g><path fill="none" stroke="none"/><text fill="#000000" stroke="none" font-family="Arial" font-size="13px" font-style="normal" font-weight="bold" text-decoration="undefined" x="72.5" y="53.5" text-anchor="middle" dominant-baseline="central" transform="matrix(1 0 0 1 2 2)">Customer</text></g></g><g><path fill="none" stroke="#000000" paint-order="fill stroke markers" d=" M 74.5 83 L 74.5 413" stroke-miterlimit="10" stroke-dasharray="3"/></g><g><rect fill="#C0C0C0" stroke="none" x="247" y="47" width="104" height="40" transform="matrix(1 0 0 1 2 2)" fill-opacity="0.2"/></g><g><rect fill="#ffffff" stroke="none" x="240" y="40" width="104" height="40" transform="matrix(1 0 0 1 2 2)"/></g><g><path fill="none" stroke="#000000" paint-order="fill stroke markers" d=" M 242 42 L 346 42 L 346 82 L 242 82 L 242 42 Z Z" stroke-miterlimit="10" stroke-dasharray=""/></g><g><g><path fill="none" stroke="none"/><text fill="#000000" stroke="none" font-family="Arial" font-size="13px" font-style="normal" font-weight="bold" text-decoration="undefined" x="292.5" y="53.5" text-anchor="middle" dominant-baseline="central" transform="matrix(1 0 0 1 2 2)">Menu</text></g></g><g><path fill="none" stroke="#000000" paint-order="fill stroke markers" d=" M 294.5 83 L 294.5 408" stroke-miterlimit="10" stroke-dasharray="3"/></g><g><rect fill="#C0C0C0" stroke="none" x="455" y="47" width="129.8017578125" height="40" transform="matrix(1 0 0 1 2 2)" fill-opacity="0.2"/></g><g><rect fill="#ffffff" stroke="none" x="448" y="40" width="129.8017578125" height="40" transform="matrix(1 0 0 1 2 2)"/></g><g><path fill="none" stroke="#000000" paint-order="fill stroke markers" d=" M 450 42 L 579.8017578125 42 L 579.8017578125 82 L 450 82 L 450 42 Z Z" stroke-miterlimit="10" stroke-dasharray=""/></g><g><g><path fill="none" stroke="none"/><text fill="#000000" stroke="none" font-family="Arial" font-size="13px" font-style="normal" font-weight="bold" text-decoration="undefined" x="513.40087890625" y="53.5" text-anchor="middle" dominant-baseline="central" transform="matrix(1 0 0 1 2 2)">BookingDatabase</text></g></g><g><path fill="none" stroke="#000000" paint-order="fill stroke markers" d=" M 515.5 83 L 515.5 410" stroke-miterlimit="10" stroke-dasharray="3"/></g><g><rect fill="#C0C0C0" stroke="none" x="599" y="47" width="96" height="40" transform="matrix(1 0 0 1 2 2)" fill-opacity="0.2"/></g><g><rect fill="#ffffff" stroke="none" x="592" y="40" width="96" height="40" transform="matrix(1 0 0 1 2 2)"/></g><g><path fill="none" stroke="#000000" paint-order="fill stroke markers" d=" M 594 42 L 690 42 L 690 82 L 594 82 L 594 42 Z Z" stroke-miterlimit="10" stroke-dasharray=""/></g><g><g><path fill="none" stroke="none"/><text fill="#000000" stroke="none" font-family="Arial" font-size="13px" font-style="normal" font-weight="bold" text-decoration="undefined" x="640.5" y="53.5" text-anchor="middle" dominant-baseline="central" transform="matrix(1 0 0 1 2 2)">Weather</text></g></g><g><path fill="none" stroke="#000000" paint-order="fill stroke markers" d=" M 642.5 83 L 642.5 410" stroke-miterlimit="10" stroke-dasharray="3"/></g><g><rect fill="#ffffff" stroke="none" x="64" y="96" width="464" height="72" transform="matrix(1 0 0 1 2 2)"/></g><g><path fill="none" stroke="#000000" paint-order="fill stroke markers" d=" M 66 98 L 530 98 L 530 170 L 66 170 L 66 98 Z Z" stroke-miterlimit="10" stroke-dasharray=""/></g><g><path fill="none" stroke="#000000" paint-order="fill stroke markers" d=" M 66 98 L 66 121 L 91.1708984375 121 L 102.6708984375 109.5 L 102.6708984375 98 L 66 98 L 66 98" stroke-miterlimit="10" stroke-dasharray=""/></g><g><g><path fill="none" stroke="none"/><text fill="#000000" stroke="none" font-family="Arial" font-size="13px" font-style="normal" font-weight="normal" text-decoration="undefined" x="314.33544921875" y="107.5" text-anchor="middle" dominant-baseline="central" transform="matrix(1 0 0 1 2 2)">Verify Booking Details</text></g></g><g><g><path fill="none" stroke="none"/><text fill="#000000" stroke="none" font-family="Arial" font-size="13px" font-style="normal" font-weight="bold" text-decoration="undefined" x="76.58544921875" y="107.5" text-anchor="middle" dominant-baseline="central" transform="matrix(1 0 0 1 2 2)">ref</text></g></g><g><path fill="none" stroke="#000000" paint-order="fill stroke markers" d=" M 295 194 L 508 194" stroke-miterlimit="10" stroke-dasharray=""/></g><g><path fill="#000000" stroke="none" paint-order="stroke fill markers" d=" M 497.83732514237585 198.209517756016 L 508 194 L 497.83732514237585 189.790482243984"/></g><g><path fill="none" stroke="#000000" paint-order="fill stroke markers" d=" M 497.83732514237585 198.209517756016 L 508 194 L 497.83732514237585 189.790482243984 L 497.83732514237585 198.209517756016" stroke-miterlimit="10" stroke-dasharray=""/></g><g><rect fill="#ffffff" stroke="none" x="300" y="176" width="198.732421875" height="13" transform="matrix(1 0 0 1 2 2)"/></g><g><g><path fill="none" stroke="none"/><text fill="#000000" stroke="none" font-family="Arial" font-size="13px" font-style="normal" font-weight="normal" text-decoration="undefined" x="399.3662109375" y="182.5" text-anchor="middle" dominant-baseline="central" transform="matrix(1 0 0 1 2 2)">1 : getBookingInfo(bookingDetails)</text></g></g><g><rect fill="#ffffff" stroke="none" x="506" y="192" width="14" height="28" transform="matrix(1 0 0 1 2 2)"/></g><g><path fill="none" stroke="#000000" paint-order="fill stroke markers" d=" M 508 194 L 522 194 L 522 222 L 508 222 L 508 194 Z Z" stroke-miterlimit="10" stroke-dasharray=""/></g><g><path fill="none" stroke="#000000" paint-order="fill stroke markers" d=" M 508 210 L 301 210" stroke-miterlimit="10" stroke-dasharray=""/></g><g><path fill="#000000" stroke="none" paint-order="stroke fill markers" d=" M 311.16267485762415 205.790482243984 L 301 210 L 311.16267485762415 214.209517756016"/></g><g><path fill="none" stroke="#000000" paint-order="fill stroke markers" d=" M 311.16267485762415 205.790482243984 L 301 210 L 311.16267485762415 214.209517756016 L 311.16267485762415 205.790482243984" stroke-miterlimit="10" stroke-dasharray=""/></g><g><rect fill="#ffffff" stroke="none" x="325" y="212" width="153.20068359375" height="13" transform="matrix(1 0 0 1 2 2)"/></g><g><g><path fill="none" stroke="none"/><text fill="#000000" stroke="none" font-family="Arial" font-size="13px" font-style="normal" font-weight="normal" text-decoration="undefined" x="401.600341796875" y="218.5" text-anchor="middle" dominant-baseline="central" transform="matrix(1 0 0 1 2 2)">2 : bookingInfo(flight, seat)</text></g></g><g><rect fill="#ffffff" stroke="none" x="285" y="208" width="14" height="28" transform="matrix(1 0 0 1 2 2)"/></g><g><path fill="none" stroke="#000000" paint-order="fill stroke markers" d=" M 287 210 L 301 210 L 301 238 L 287 238 L 287 210 Z Z" stroke-miterlimit="10" stroke-dasharray=""/></g><g><path fill="none" stroke="#000000" paint-order="fill stroke markers" d=" M 287 218 L 81 218" stroke-miterlimit="10" stroke-dasharray=""/></g><g><path fill="#000000" stroke="none" paint-order="stroke fill markers" d=" M 91.16267485762415 213.790482243984 L 81 218 L 91.16267485762415 222.209517756016"/></g><g><path fill="none" stroke="#000000" paint-order="fill stroke markers" d=" M 91.16267485762415 213.790482243984 L 81 218 L 91.16267485762415 222.209517756016 L 91.16267485762415 213.790482243984" stroke-miterlimit="10" stroke-dasharray=""/></g><g><rect fill="#ffffff" stroke="none" x="118" y="220" width="127.1943359375" height="13" transform="matrix(1 0 0 1 2 2)"/></g><g><g><path fill="none" stroke="none"/><text fill="#000000" stroke="none" font-family="Arial" font-size="13px" font-style="normal" font-weight="normal" text-decoration="undefined" x="181.59716796875" y="226.5" text-anchor="middle" dominant-baseline="central" transform="matrix(1 0 0 1 2 2)">3 : displayBookingInfo</text></g></g><g><rect fill="#ffffff" stroke="none" x="65" y="216" width="14" height="28" transform="matrix(1 0 0 1 2 2)"/></g><g><path fill="none" stroke="#000000" paint-order="fill stroke markers" d=" M 67 218 L 81 218 L 81 246 L 67 246 L 67 218 Z Z" stroke-miterlimit="10" stroke-dasharray=""/></g><g><path fill="none" stroke="#000000" paint-order="fill stroke markers" d=" M 294 266 L 81 266" stroke-miterlimit="10" stroke-dasharray=""/></g><g><path fill="#000000" stroke="none" paint-order="stroke fill markers" d=" M 91.16267485762415 261.790482243984 L 81 266 L 91.16267485762415 270.209517756016"/></g><g><path fill="none" stroke="#000000" paint-order="fill stroke markers" d=" M 91.16267485762415 261.790482243984 L 81 266 L 91.16267485762415 270.209517756016 L 91.16267485762415 261.790482243984" stroke-miterlimit="10" stroke-dasharray=""/></g><g><rect fill="#ffffff" stroke="none" x="133" y="247" width="103.33349609375" height="13" transform="matrix(1 0 0 1 2 2)"/></g><g><g><path fill="none" stroke="none"/><text fill="#000000" stroke="none" font-family="Arial" font-size="13px" font-style="normal" font-weight="normal" text-decoration="undefined" x="184.666748046875" y="253.5" text-anchor="middle" dominant-baseline="central" transform="matrix(1 0 0 1 2 2)">4 : displayOptions</text></g></g><g><rect fill="#ffffff" stroke="none" x="65" y="264" width="14" height="56" transform="matrix(1 0 0 1 2 2)"/></g><g><path fill="none" stroke="#000000" paint-order="fill stroke markers" d=" M 67 266 L 81 266 L 81 322 L 67 322 L 67 266 Z Z" stroke-miterlimit="10" stroke-dasharray=""/></g><g><path fill="none" stroke="#000000" paint-order="fill stroke markers" d=" M 81 298 L 287 298" stroke-miterlimit="10" stroke-dasharray=""/></g><g><path fill="#000000" stroke="none" paint-order="stroke fill markers" d=" M 276.83732514237585 302.209517756016 L 287 298 L 276.83732514237585 293.790482243984"/></g><g><path fill="none" stroke="#000000" paint-order="fill stroke markers" d=" M 276.83732514237585 302.209517756016 L 287 298 L 276.83732514237585 293.790482243984 L 276.83732514237585 302.209517756016" stroke-miterlimit="10" stroke-dasharray=""/></g><g><rect fill="#ffffff" stroke="none" x="94" y="280" width="179.689453125" height="13" transform="matrix(1 0 0 1 2 2)"/></g><g><g><path fill="none" stroke="none"/><text fill="#000000" stroke="none" font-family="Arial" font-size="13px" font-style="normal" font-weight="normal" text-decoration="undefined" x="183.8447265625" y="286.5" text-anchor="middle" dominant-baseline="central" transform="matrix(1 0 0 1 2 2)">5 : [selectButton]checkWeather</text></g></g><g><rect fill="#ffffff" stroke="none" x="285" y="296" width="14" height="28" transform="matrix(1 0 0 1 2 2)"/></g><g><path fill="none" stroke="#000000" paint-order="fill stroke markers" d=" M 287 298 L 301 298 L 301 326 L 287 326 L 287 298 Z Z" stroke-miterlimit="10" stroke-dasharray=""/></g><g><rect fill="#ffffff" stroke="none" x="56" y="320" width="600" height="72" transform="matrix(1 0 0 1 2 2)"/></g><g><path fill="none" stroke="#000000" paint-order="fill stroke markers" d=" M 58 322 L 658 322 L 658 394 L 58 394 L 58 322 Z Z" stroke-miterlimit="10" stroke-dasharray=""/></g><g><path fill="none" stroke="#000000" paint-order="fill stroke markers" d=" M 58 322 L 58 345 L 83.1708984375 345 L 94.6708984375 333.5 L 94.6708984375 322 L 58 322 L 58 322" stroke-miterlimit="10" stroke-dasharray=""/></g><g><g><path fill="none" stroke="none"/><text fill="#000000" stroke="none" font-family="Arial" font-size="13px" font-style="normal" font-weight="normal" text-decoration="undefined" x="374.33544921875" y="331.5" text-anchor="middle" dominant-baseline="central" transform="matrix(1 0 0 1 2 2)">Check Weather</text></g></g><g><g><path fill="none" stroke="none"/><text fill="#000000" stroke="none" font-family="Arial" font-size="13px" font-style="normal" font-weight="bold" text-decoration="undefined" x="68.58544921875" y="331.5" text-anchor="middle" dominant-baseline="central" transform="matrix(1 0 0 1 2 2)">ref</text></g></g></g></svg>